<?xml version="1.0" encoding="utf-8"?>
<!-- Generator: Adobe Illustrator 24.2.3, SVG Export Plug-In . SVG Version: 6.00 Build 0)  -->
<svg version="1.1" id="Layer_1" xmlns="http://www.w3.org/2000/svg" xmlns:xlink="http://www.w3.org/1999/xlink" x="0px" y="0px"
	 viewBox="0 0 86 86" style="enable-background:new 0 0 86 86;" xml:space="preserve">
<g>
	<path d="M46.6,38.9c2.8-2.3,4.5-5.8,4.5-9.7c0-7-5.7-12.7-12.7-12.7s-12.7,5.7-12.7,12.7c0,3.9,1.8,7.4,4.5,9.7
		c-5.7,3.6-8.8,10.6-8.8,17.5c0,1.5,1.2,2.7,2.7,2.7c1.5,0,2.7-1.2,2.7-2.7c0-7.1,4.3-14.5,11.6-14.5S50,49.2,50,56.3
		c0,1.5,1.2,2.7,2.7,2.7c1.5,0,2.7-1.2,2.7-2.7C55.4,49.5,52.3,42.5,46.6,38.9z M38.4,36.5c-4,0-7.3-3.3-7.3-7.3s3.3-7.3,7.3-7.3
		s7.3,3.3,7.3,7.3S42.5,36.5,38.4,36.5z"/>
	<path d="M53.6,72.5H9.2v-7.7h2.6c1.2,0,2.3-1,2.3-2.3c0-1.2-1-2.3-2.3-2.3H9.2v-7.5h2.6c1.2,0,2.3-1,2.3-2.3c0-1.2-1-2.3-2.3-2.3
		H9.2v-7.5h2.6c1.2,0,2.3-1,2.3-2.3c0-1.2-1-2.3-2.3-2.3H9.2v-7.5h2.6c1.2,0,2.3-1,2.3-2.3c0-1.2-1-2.3-2.3-2.3H9.2v-7.5h2.6
		c1.2,0,2.3-1,2.3-2.3c0-1.2-1-2.3-2.3-2.3H9.2V4.7h55.4v56.2c0.5-0.1,0.9-0.1,1.4-0.1c1.1,0,2.1,0.1,3.1,0.4V2.4
		c0-1.2-1-2.2-2.3-2.2H7c-1.2,0-2.3,1-2.3,2.3v9.9H2.2c-1.2,0-2.3,1-2.3,2.3c0,1.2,1,2.3,2.3,2.3h2.6v7.5H2.2c-1.2,0-2.3,1-2.3,2.3
		c0,1.2,1,2.3,2.3,2.3h2.6v7.5H2.2c-1.2,0-2.3,1-2.3,2.3c0,1.2,1,2.3,2.3,2.3h2.6v7.5H2.2c-1.2,0-2.3,1-2.3,2.3c0,1.2,1,2.3,2.3,2.3
		h2.6v7.5H2.2c-1.2,0-2.3,1-2.3,2.3c0,1.2,1,2.3,2.3,2.3h2.6v9.9C4.7,76,5.7,77,7,77h47.1c-0.4-1.2-0.6-2.4-0.6-3.7
		C53.5,73,53.6,72.8,53.6,72.5z"/>
	<path d="M75.3,72.8h-6.7v-6.7c0-1.1-0.9-2-2-2h-0.5c-1.1,0-2,0.9-2,2v6.7h-6.7c-1.1,0-2,0.9-2,2v0.5c0,1.1,0.9,2,2,2h6.7V84
		c0,1.1,0.9,2,2,2h0.5c1.1,0,2-0.9,2-2v-6.7h6.7c1.1,0,2-0.9,2-2v-0.5C77.3,73.7,76.4,72.8,75.3,72.8z"/>
</g>
</svg>
