<?xml version="1.0" encoding="utf-8"?>
<!-- Generator: Adobe Illustrator 24.2.3, SVG Export Plug-In . SVG Version: 6.00 Build 0)  -->
<svg version="1.1" id="Layer_1" xmlns="http://www.w3.org/2000/svg" xmlns:xlink="http://www.w3.org/1999/xlink" x="0px" y="0px"
	 viewBox="0 0 86 86" style="enable-background:new 0 0 86 86;" xml:space="preserve">
<g>
	<path d="M50.6,74.5V47.9c0-1.2-0.9-2.1-2.1-2.1v0H31.3c-1.2,0-2.1,0.9-2.1,2.1v26.6H14.1c-2,0-3.6-1.6-3.6-3.6V35.2l0.9,0.2
		c0.9,0.2,1.8,0.3,2.7,0.3c2.9,0,5.8-1,8.1-2.8l0.5-0.4l0.5,0.4c2.4,1.7,5.2,2.7,8.1,2.7s5.8-0.9,8.1-2.7l0.5-0.3l0.5,0.3
		c2.4,1.7,5.2,2.7,8.1,2.7c2.9,0,5.8-0.9,8.1-2.7l0.5-0.4l0.5,0.4c2.3,1.8,5.2,2.8,8.1,2.8c0.9,0,1.8-0.1,2.7-0.3l0.9-0.2v26
		c0.4,0,0.8-0.1,1.3-0.1c1,0,2,0.1,2.9,0.4V33.1l0.3-0.2c3.4-2.5,5.4-6.6,5.4-10.8v-2.9c0-0.2,0-0.4-0.1-0.6L73.5,1.4
		c-0.3-0.9-1.1-1.4-2-1.4H8.4c-0.9,0-1.7,0.6-2,1.4L0.7,18.6c-0.1,0.2-0.1,0.4-0.1,0.6v2.9c0,4.2,2,8.3,5.4,10.8l0.3,0.2v37.7
		c0,4.3,3.5,7.8,7.8,7.8h45.2c-0.6-1.3-0.9-2.7-1.1-4.2H50.6z M59.2,4.1H70l4.3,13H59.2V4.1z M42,4.1h13v13H42V4.1z M24.8,4.1h13v13
		h-13V4.1z M9.9,4.1h10.8v13H5.5L9.9,4.1z M4.7,22.1v-0.8h70.4v0.8c0,5.2-4.2,9.4-9.4,9.4c-2.7,0-5.3-1.2-7-3.2
		c-0.4-0.5-1-0.7-1.6-0.7c-0.5,0-1,0.2-1.4,0.5c-0.1,0.1-0.1,0.1-0.2,0.2c-1.8,2-4.3,3.1-7,3.1c-2.3,0-4.6-0.8-6.3-2.4
		c-0.3-0.2-0.5-0.5-0.7-0.7c-0.4-0.4-1-0.7-1.6-0.7c-0.6,0-1.1,0.2-1.5,0.6c0,0-0.1,0.1-0.1,0.1c-1.8,2-4.3,3.1-7,3.1
		c-2.3,0-4.6-0.8-6.3-2.4c-0.3-0.2-0.5-0.5-0.7-0.7c-0.4-0.4-1-0.7-1.6-0.7c-0.6,0-1.1,0.2-1.5,0.6c0,0-0.1,0.1-0.1,0.1
		c-1.8,2.1-4.3,3.2-7,3.2C9,31.5,4.7,27.3,4.7,22.1z M46.4,74.5h-13V50h13V74.5z"/>
	<path d="M79.3,74h-5.8v-5.8c0-1.1-0.9-2.1-2.1-2.1s-2.1,0.9-2.1,2.1V74h-5.8c-1.1,0-2.1,0.9-2.1,2.1s0.9,2.1,2.1,2.1h5.8v5.8
		c0,1.1,0.9,2.1,2.1,2.1s2.1-0.9,2.1-2.1v-5.8h5.8c1.1,0,2.1-0.9,2.1-2.1S80.5,74,79.3,74z"/>
</g>
</svg>
