<svg id="Capa_1" enable-background="new 0 0 512 512" height="512" viewBox="0 0 512 512" width="512" xmlns="http://www.w3.org/2000/svg"><g><path d="m429.532 152.383v-33.674c0-65.457-53.253-118.709-118.709-118.709h-228.355v152.383h-82.468v359.617h512v-359.617zm-273.807 195.979-125.725 114.658v-222.923zm22.899 19.718 77.376 66.63 77.299-66.564 124.843 113.854h-404.434zm177.574-19.652 125.802-108.331v223.059zm125.802-166.045v18.124l-52.468 45.182v-63.305h52.468zm-82.685-69.818c-13.928-11.343-31.683-18.16-51.004-18.16h-13.499v-13.499c0-19.18-6.722-36.812-17.916-50.694 44.061 2.994 79.391 38.301 82.419 82.353zm-145.409-82.565c28.07 0 50.906 22.836 50.906 50.906v43.499h43.499c28.07 0 50.906 22.836 50.906 50.906h.314v96.211l-143.531 123.599-143.532-123.599v-241.522zm-171.438 152.383v63.305l-52.468-45.181v-18.124z"/><path d="m241 129.657h30v97.305h-30z"/><path d="m256 277.341c7.846 0 15.363-6.899 15-15-.364-8.127-6.591-15-15-15-7.846 0-15.363 6.899-15 15 .364 8.127 6.591 15 15 15z"/></g></svg>