<?xml version="1.0" encoding="utf-8"?>
<!-- Generator: Adobe Illustrator 24.2.3, SVG Export Plug-In . SVG Version: 6.00 Build 0)  -->
<svg version="1.1" id="Capa_1" xmlns="http://www.w3.org/2000/svg" xmlns:xlink="http://www.w3.org/1999/xlink" x="0px" y="0px"
	 viewBox="0 0 512 512" style="enable-background:new 0 0 512 512;" xml:space="preserve">
<path d="M487.8,327.5h-34.5c-3.3-38.1-16.9-67.2-41-87.3c-27.9-23.2-68.6-34.8-122.1-34.8H179.9c-1.7-0.4-3.5-0.6-5.3-0.6h-18.2
	V50.6h244.2c8,0,14.5-2.2,19.7-6.7c5.2-4.5,7.7-10.4,7.7-17.9c0-7-2.6-12.8-7.7-17.2C415.2,4.2,408.6,2,400.6,2H128.3
	c-8.9,0-16,2.6-21.1,7.7c-5.2,5.2-7.7,12.2-7.7,21.1v173.9H24.2C10.9,204.8,0,215.6,0,229c0,13.4,10.9,24.2,24.2,24.2h75.2v197.1
	H24.2C10.9,450.3,0,461.1,0,474.5c0,13.4,10.9,24.2,24.2,24.2h150.4c1.8,0,3.6-0.2,5.3-0.6h108.8c33.8,0,63.2-6.3,88.3-19
	c25.1-12.7,44.2-30.5,57.4-53.5c8.6-15,14.3-31.6,17.3-49.7h36c13.4,0,24.2-10.8,24.2-24.2S501.1,327.5,487.8,327.5z M368.6,423.2
	c-19.5,18.1-48,27.1-85.5,27.1H174.6h-18.2V253.2h18.2h109.9c38.5,0,67,7.5,85.5,22.5c18.5,15,27.8,38.5,27.8,70.4
	C397.8,379.5,388.1,405.1,368.6,423.2z"/>
</svg>
