<?xml version="1.0" encoding="utf-8"?>
<!-- Generator: Adobe Illustrator 24.2.3, SVG Export Plug-In . SVG Version: 6.00 Build 0)  -->
<svg version="1.1" id="Layer_1" xmlns="http://www.w3.org/2000/svg" xmlns:xlink="http://www.w3.org/1999/xlink" x="0px" y="0px"
	 viewBox="0 0 512 512" style="enable-background:new 0 0 512 512;" xml:space="preserve">
<g id="Dollar">
	<path d="M360,224c-2.7,0-5.3,0.2-8,0.4V224c4.4,0,8-3.6,8-8v-24h16c4.4,0,8-3.6,8-8v-24h8c4.4,0,8-3.6,8-8c0-2.6-1.3-5.1-3.4-6.6
		l-184-128c-2.7-1.9-6.4-1.9-9.1,0l-184,128c-3.6,2.5-4.5,7.5-2,11.1c1.5,2.2,3.9,3.4,6.6,3.4h8v24c0,4.4,3.6,8,8,8h16v24
		c0,4.4,3.6,8,8,8v96c-4.4,0-8,3.6-8,8v24H40c-4.4,0-8,3.6-8,8v24h-8c-4.4,0-8,3.6-8,8v32c0,4.4,3.6,8,8,8h220.8
		c39.8,63.6,123.7,83,187.3,43.2s83-123.7,43.2-187.3C450.4,248.1,406.9,224,360,224z M336,226.2c-11,2-21.8,5.3-32,10V224h32V226.2
		z M224.4,352H184v-16h42.2C225.3,341.3,224.7,346.6,224.4,352z M128,320v-96c4.4,0,8-3.6,8-8v-24h32v24c0,4.4,3.6,8,8,8v96
		c-4.4,0-8,3.6-8,8v24h-32v-24C136,323.6,132.4,320,128,320z M192,320v-96h32v96H192z M232,208h-48v-16h48V208z M240,224
		c4.4,0,8-3.6,8-8v-24h32v24c0,4.4,3.6,8,8,8v20.8c-20.2,12.6-36.7,30.3-48,51.3V224z M344,208h-48v-16h48V208z M208,33.7L366.5,144
		H320v-16h-16v16h-16v-16h-16v16h-16v-16h-16v16h-64v-16h-16v16h-16v-16h-16v16h-16v-16H96v16H49.5L208,33.7z M48,160h320v16H48V160
		z M120,192v16H72v-16H120z M80,224h32v96H80V224z M72,336h48v16H72V336z M48,368h176.4c0.3,5.4,0.9,10.7,1.8,16H48V368z M32,416
		v-16h198c1.7,5.5,3.8,10.8,6.2,16H32z M360,480c-66.3,0-120-53.7-120-120s53.7-120,120-120s120,53.7,120,120
		C479.9,426.2,426.2,479.9,360,480z"/>
	<path d="M208,128c17.7,0,32-14.3,32-32s-14.3-32-32-32s-32,14.3-32,32S190.3,128,208,128z M208,80c8.8,0,16,7.2,16,16
		s-7.2,16-16,16s-16-7.2-16-16S199.2,80,208,80z"/>
	<path d="M360,256c-57.4,0-104,46.6-104,104s46.6,104,104,104s104-46.6,104-104C463.9,302.6,417.4,256.1,360,256z M360,448
		c-48.6,0-88-39.4-88-88s39.4-88,88-88s88,39.4,88,88C447.9,408.6,408.6,447.9,360,448z"/>
</g>
<path d="M328.2,419.8c-1.1,0-2-0.9-2-2l0.1-23.4h-14.4c-1.1,0-2-0.9-2-2v-9.5c0-1.1,0.9-2,2-2h14.5l0.1-20l-13.9-0.1
	c-0.5,0-1-0.2-1.4-0.6s-0.6-0.9-0.6-1.4l0.1-10c0-1.1,0.9-2,2-2c0,0,13.9,0.1,13.9,0.1l0.3-49.3c0-1.1,0.9-2,2-2
	c0,0,64.1-0.6,64.1-0.6c0.5,0,1,0.2,1.4,0.6c0.4,0.4,0.6,0.9,0.6,1.4V309c0,1.1-0.9,2-2,2h-48.1l-0.6,36l23.5,0.1
	c12.7,0.1,22.9,3.4,30.4,9.9c4.5,3.9,7.6,8.7,9.4,14.3h11.6c1.1,0,2,0.9,2,2v9.5c0,1.1-0.9,2-2,2h-9.8c-0.3,10.7-4.1,19.3-11.3,25.6
	c-7.3,6.3-17.5,9.5-30.3,9.5L328.2,419.8z M366,404.9c17.3,0,25.7-7.2,25.8-22c0-7.3-2-12.6-6.4-16.2c-4.4-3.6-11.1-5.5-19.9-5.6
	l-21.3-0.1l-0.2,43.8L366,404.9z"/>
<path d="M419.1,373.4H406c-1.6-5.8-4.7-10.8-9.3-14.8c-7.1-6.2-16.8-9.4-29.1-9.4l-25.5-0.1l0.6-40h50.1v-11.9l-64.1,0.6l-0.3,51.3
	l-15.9-0.1l-0.1,10l15.9,0.1l-0.1,24h-16.5v9.5h16.5l-0.1,25.4l39.2,0.2c12.6,0.1,22.4-3,29.4-9c7-6.1,10.5-14.5,10.6-25.2
	c0-0.3,0-0.6,0-0.9h11.9V373.4z M365.7,406.9l-23.6-0.1l0.2-47.8l23.3,0.1c9.3,0,16.4,2.1,21.1,6c4.8,4,7.1,9.9,7.1,17.8
	C393.7,399,384.4,406.9,365.7,406.9z"/>
</svg>
