<?xml version="1.0" encoding="utf-8"?>
<!-- Generator: Adobe Illustrator 24.2.3, SVG Export Plug-In . SVG Version: 6.00 Build 0)  -->
<svg version="1.1" id="Layer_1" xmlns="http://www.w3.org/2000/svg" xmlns:xlink="http://www.w3.org/1999/xlink" x="0px" y="0px"
	 viewBox="0 0 86 86" style="enable-background:new 0 0 86 86;" xml:space="preserve">
<g>
	<g>
		<path d="M15.28,85.39c-4.68,0-8.48-3.81-8.48-8.48V35.96l-0.34-0.26c-3.67-2.74-5.87-7.12-5.88-11.7v-3.18
			c0.01-0.22,0.05-0.44,0.12-0.65L6.91,1.51c0.31-0.93,1.17-1.55,2.15-1.55h68.46c0.98,0,1.84,0.62,2.15,1.55l6.22,18.67
			c0.07,0.21,0.11,0.42,0.11,0.64v3.18c-0.01,4.58-2.21,8.95-5.88,11.7l-0.34,0.26v40.95c0,4.68-3.81,8.48-8.48,8.48H15.28z
			 M52.62,49.75c1.25,0,2.26,1.01,2.26,2.26v28.86h16.41c2.18,0,3.96-1.78,3.96-3.96V38.21l-1.02,0.21c-0.96,0.2-1.94,0.3-2.92,0.3
			c-3.18,0-6.31-1.06-8.84-3l-0.51-0.39l-0.51,0.38c-2.58,1.89-5.63,2.89-8.83,2.89c-3.2,0-6.25-1-8.83-2.89l-0.5-0.37l-0.5,0.37
			c-2.58,1.89-5.63,2.89-8.83,2.89c-3.2,0-6.25-1-8.83-2.89l-0.51-0.38l-0.51,0.39c-2.52,1.93-5.66,3-8.84,3
			c-0.98,0-1.96-0.1-2.92-0.3l-1.02-0.21v38.69c0,2.18,1.78,3.96,3.96,3.96h16.41V52.02c0-1.25,1.01-2.26,2.26-2.26H52.62z
			 M36.21,80.87h14.15V54.28H36.21V80.87z M61.96,29.9c0.65,0,1.27,0.28,1.7,0.77c1.9,2.23,4.69,3.52,7.63,3.52
			c5.62,0,10.19-4.57,10.19-10.19v-0.85H5.1v0.85c0,5.62,4.57,10.19,10.19,10.19c2.94,0,5.72-1.28,7.62-3.51
			c0.03-0.03,0.06-0.06,0.09-0.09c0.44-0.41,1.02-0.64,1.62-0.64c0.66,0,1.27,0.26,1.72,0.74c0.25,0.28,0.51,0.54,0.79,0.78
			c1.88,1.69,4.31,2.61,6.83,2.61c2.9,0,5.68-1.24,7.62-3.4c0.03-0.03,0.06-0.06,0.1-0.1c0.44-0.41,1.02-0.64,1.62-0.64
			c0.66,0,1.27,0.26,1.72,0.74c0.25,0.27,0.51,0.54,0.79,0.78c1.88,1.69,4.31,2.61,6.83,2.61c2.91,0,5.69-1.24,7.63-3.41
			c0.07-0.08,0.15-0.16,0.22-0.22C60.88,30.1,61.41,29.9,61.96,29.9z M64.22,18.64H80.6L75.89,4.49H64.22V18.64z M45.55,18.64H59.7
			V4.49H45.55V18.64z M26.88,18.64h14.15V4.49H26.88V18.64z M5.97,18.64h16.39V4.49H10.69L5.97,18.64z"/>
	</g>
</g>
</svg>
