<?xml version="1.0" encoding="utf-8"?>
<!-- Generator: Adobe Illustrator 24.2.3, SVG Export Plug-In . SVG Version: 6.00 Build 0)  -->
<svg version="1.1" id="Layer_1" xmlns="http://www.w3.org/2000/svg" xmlns:xlink="http://www.w3.org/1999/xlink" x="0px" y="0px"
	 viewBox="0 0 86 86" style="enable-background:new 0 0 86 86;" xml:space="preserve">
<g>
	<path d="M74.69,0.15H7.78c-1.39,0-2.52,1.13-2.52,2.52v11.07H2.42c-1.39,0-2.52,1.13-2.52,2.52s1.13,2.52,2.52,2.52h2.85v8.38H2.42
		c-1.39,0-2.52,1.13-2.52,2.52s1.13,2.52,2.52,2.52h2.85v8.38H2.42c-1.39,0-2.52,1.13-2.52,2.52c0,1.39,1.13,2.52,2.52,2.52h2.85
		v8.38H2.42c-1.39,0-2.52,1.13-2.52,2.52c0,1.39,1.13,2.52,2.52,2.52h2.85v8.38H2.42c-1.39,0-2.52,1.13-2.52,2.52
		c0,1.39,1.13,2.52,2.52,2.52h2.85v11.07C5.27,84.87,6.4,86,7.78,86h66.91c1.39,0,2.52-1.13,2.52-2.52V2.66
		C77.21,1.27,76.08,0.15,74.69,0.15z M72.18,80.97H10.3v-8.55h2.85c1.39,0,2.52-1.13,2.52-2.52c0-1.39-1.13-2.52-2.52-2.52H10.3V59
		h2.85c1.39,0,2.52-1.13,2.52-2.52c0-1.39-1.13-2.52-2.52-2.52H10.3v-8.38h2.85c1.39,0,2.52-1.13,2.52-2.52
		c0-1.39-1.13-2.52-2.52-2.52H10.3v-8.38h2.85c1.39,0,2.52-1.13,2.52-2.52s-1.13-2.52-2.52-2.52H10.3v-8.38h2.85
		c1.39,0,2.52-1.13,2.52-2.52s-1.13-2.52-2.52-2.52H10.3V5.18h61.88V80.97z"/>
	<path d="M23.71,62.89c0,1.65,1.34,2.99,2.99,2.99s2.99-1.34,2.99-2.99c0-7.94,4.85-16.15,12.96-16.15s12.96,8.21,12.96,16.15
		c0,1.65,1.34,2.99,2.99,2.99c1.65,0,2.99-1.34,2.99-2.99c0-7.6-3.47-15.47-9.82-19.49c3.08-2.6,5.04-6.48,5.04-10.82
		c0-7.81-6.35-14.16-14.16-14.16S28.5,24.77,28.5,32.58c0,4.33,1.96,8.22,5.04,10.82C27.18,47.41,23.71,55.29,23.71,62.89z
		 M34.48,32.58c0-4.51,3.67-8.18,8.18-8.18s8.18,3.67,8.18,8.18c0,4.51-3.67,8.18-8.18,8.18S34.48,37.09,34.48,32.58z"/>
</g>
</svg>
