<?xml version="1.0" encoding="utf-8"?>
<!-- Generator: Adobe Illustrator 24.2.3, SVG Export Plug-In . SVG Version: 6.00 Build 0)  -->
<svg version="1.1" id="Layer_2" xmlns="http://www.w3.org/2000/svg" xmlns:xlink="http://www.w3.org/1999/xlink" x="0px" y="0px"
	 viewBox="0 0 301.3 52.6" style="enable-background:new 0 0 301.3 52.6;" xml:space="preserve">
<style type="text/css">
	.st0{fill:#F1D343;}
	.st1{fill:#DF3F5E;}
	.st2{fill:#FFFFFF;stroke:#000000;stroke-miterlimit:10;}
	.st3{fill:#FFFFFF;}
</style>
<g>
	<path class="st0" d="M300.8,34V15.9c0-8.4-6.8-15.2-15.2-15.2H15.9C7.6,0.8,0.8,7.6,0.8,15.9V34H300.8z"/>
	<path class="st1" d="M300.8,42.1V24c0-8.4-6.8-15.2-15.2-15.2H15.9C7.6,8.8,0.8,15.6,0.8,24v18.1H300.8z"/>
	<path class="st2" d="M300.8,50.7V32.6c0-8.4-6.8-15.2-15.2-15.2H15.9c-8.4,0-15.2,6.8-15.2,15.2v18.1H300.8z"/>
	<rect x="1.3" y="48.7" class="st3" width="299" height="3.9"/>
</g>
</svg>
