<?xml version="1.0" encoding="utf-8"?>
<!-- Generator: Adobe Illustrator 24.2.3, SVG Export Plug-In . SVG Version: 6.00 Build 0)  -->
<svg version="1.1" id="Out_line" xmlns="http://www.w3.org/2000/svg" xmlns:xlink="http://www.w3.org/1999/xlink" x="0px" y="0px"
	 viewBox="0 0 512 512" style="enable-background:new 0 0 512 512;" xml:space="preserve">
<path d="M500.4,275.6l-43.6-130.8c-6-17.9-21.9-30.7-40.7-32.6V64h48c4.4,0,8-3.6,8-8V16h-16v32h-320V16h-16v40c0,4.4,3.6,8,8,8h48
	v272c0,4.4,3.6,8,8,8h90.6l41.6,104h-20.2c-4.4,0-8,3.6-8,8v40h16v-32h168v32h16v-40c0-4.4-3.6-8-8-8h-6.3L502,299.7
	C503.5,291.7,503,283.4,500.4,275.6z M359.6,64c-4.4,35.1-36.4,59.9-71.5,55.5c-29-3.6-51.9-26.5-55.5-55.5H359.6z M216.5,64
	c4.4,44,43.6,76,87.6,71.6c37.9-3.8,67.8-33.7,71.6-71.6h24.4v180.7l-16.4-16.4c-16.4-16.4-42.9-16.4-59.3,0s-16.4,42.9,0,59.3
	l12.3,12.3c-4.4,8.8-7.2,18.3-8.2,28.1h-64.8c-3.9-37.8-33.8-67.7-71.6-71.6V64H216.5z M364.8,328h-20.2c0.7-5.5,2.1-10.9,4.2-16
	L364.8,328z M192.1,272.5c29,3.7,51.8,26.5,55.5,55.5h-55.5V272.5z M486.3,296.7L457.5,448h-124l-41.6-104h75.4
	c-14.5,22-18.3,49.3-10.3,74.4l15.3-4.8c-8.1-25.4-1.3-53.1,17.5-71.9c3.1-3.1,3.1-8.2,0-11.3l-54.1-54.1
	c-10.1-10.1-10.1-26.6,0-36.7s26.6-10.1,36.7,0l30.1,30.1l24,24l11.3-11.3l-21.7-21.7V128.4c11.9,1.8,21.7,10.1,25.5,21.5
	l43.6,130.8C486.9,285.8,487.3,291.4,486.3,296.7z"/>
<path d="M124.8,240.8c-3.1,3.1-8.2,3.1-11.3,0l-25.3-25.3v188.5h-16V215.4l-25.3,25.3c-3.1,3.1-8.2,3.1-11.3,0
	c-3.1-3.1-3.1-8.2,0-11.3l38.9-38.9c1.6-1.6,3.7-2.4,5.7-2.3c2.1,0,4.2,0.8,5.7,2.3l38.9,38.9C127.9,232.6,127.9,237.6,124.8,240.8z
	"/>
</svg>
