<?xml version="1.0" encoding="utf-8"?>
<!-- Generator: Adobe Illustrator 24.2.3, SVG Export Plug-In . SVG Version: 6.00 Build 0)  -->
<svg version="1.1" id="Layer_1" xmlns="http://www.w3.org/2000/svg" xmlns:xlink="http://www.w3.org/1999/xlink" x="0px" y="0px"
	 viewBox="0 0 86 86" style="enable-background:new 0 0 86 86;" xml:space="preserve">
<g>
	<path d="M83.12,79.57H3.21c-1.59,0-2.88,1.29-2.88,2.88s1.29,2.88,2.88,2.88h79.91c1.59,0,2.88-1.29,2.88-2.88
		S84.71,79.57,83.12,79.57z"/>
	<path d="M0.33,30.19c0.03,1.55,1.32,2.82,2.88,2.82c1.99,0,3.39,1.6,3.39,3.89l0,31.6l0.01,0.18L6.6,68.87v0.04
		c0,1.59,1.29,2.88,2.88,2.88H77.2c1.59,0,2.88-1.29,2.88-2.88s-1.29-2.88-2.88-2.88H66.53V36.9c0-2.15,1.75-3.89,3.89-3.89
		c2.15,0,3.89,1.75,3.89,3.89v14.99c0,1.59,1.29,2.88,2.88,2.88s2.88-1.29,2.88-2.88V36.9c0-2.44,1.14-3.89,3.05-3.89
		c1.55,0,2.85-1.26,2.88-2.82l0-0.05l0-0.1l0-0.09v-8.97c0-1.14-0.67-2.17-1.71-2.63L44.25,0.58c-0.37-0.16-0.76-0.25-1.17-0.25
		c-0.41,0-0.8,0.08-1.17,0.25L2.04,18.36C1,18.82,0.33,19.85,0.33,20.99v8.97l0,0.09l0,0.1L0.33,30.19z M12.35,66.02V36.9
		c0-2.15,1.75-3.89,3.89-3.89s3.89,1.75,3.89,3.89v29.12H12.35z M25.9,66.02V36.9c0-2.15,1.75-3.89,3.89-3.89s3.89,1.75,3.89,3.89
		v29.12H25.9z M39.44,66.02V36.9c0-2.15,1.75-3.89,3.89-3.89s3.89,1.75,3.89,3.89v29.12H39.44z M52.99,66.02V36.9
		c0-2.15,1.75-3.89,3.89-3.89c2.15,0,3.89,1.75,3.89,3.89v29.12H52.99z M6.09,27.08v-4.23l37-16.49l37.16,16.5v4.22H6.09z"/>
</g>
</svg>
