<?xml version="1.0" encoding="utf-8"?>
<!-- Generator: Adobe Illustrator 24.2.3, SVG Export Plug-In . SVG Version: 6.00 Build 0)  -->
<svg version="1.1" id="yellow_doodle" xmlns="http://www.w3.org/2000/svg" xmlns:xlink="http://www.w3.org/1999/xlink" x="0px"
	 y="0px" viewBox="0 0 2000 2000" style="enable-background:new 0 0 2000 2000;" xml:space="preserve">
<style type="text/css">
	.st0{fill:#FFFFFF;}
	.st1{fill:#5520C6;}
	.st2{fill:#E34869;}
	.st3{fill:#FFCE45;}
	.st4{fill:#ED885C;}
</style>
<g>
	<path class="st0" d="M420.9,530.1c-0.8-1.5-1.9-3.7-3.8-6.3c-1.9-2.5-4.6-5.4-8.2-7.9c-3.6-2.6-8.1-4.8-13.5-5.9
		c-5.3-1.2-11.4-1.3-17.4,0.3c-6,1.6-12,4.7-16.8,9.6c-4.9,4.8-8.5,11.1-10.1,18c-0.8,3.5-1.1,7.1-0.9,10.7c0.2,3.6,1,7.2,2.2,10.6
		c1.3,3.4,2.9,6.6,5.1,9.5c2.2,2.9,4.7,5.5,7.6,7.6c5.7,4.3,12.5,6.8,19.3,7.3c6.8,0.6,13.5-0.9,19-3.5c5.6-2.7,10.2-6.6,13.6-10.9
		c3.3-4.3,5.4-8.9,6.5-13.2c1.1-4.3,1.3-8.2,1.2-11.3c-0.2-3.2-0.7-5.6-1.1-7.3c-0.5-1.6-0.7-2.5-0.7-2.5s-1.9-0.8-4.2,0.2v0
		c2.3-0.7,3.3-2.6,3.3-2.6S421.5,531.6,420.9,530.1z M337.7,460c6.4-1.7,16.9-5.6,33.8-13.3c15.6-7.2,36.6-17.5,64.4-32.8
		c13.9-7.7,29.5-16.6,46.9-27.2c3-1.8,6.1-3.8,9.2-5.7c1.6,3.8,4.3,9,8.5,16.1c5.1,8.7,12.5,20.3,22.6,35.8
		c10,15.6,22.8,35.1,37.9,60.1c7.5,12.5,15.5,26.4,23.7,42.1c8.2,15.6,16.5,32.9,23.8,52.3c3.6,9.7,6.9,19.9,9.4,30.5
		c2.5,10.6,4.2,21.8,4.1,33c-0.1,5.6-0.5,11.2-1.7,16.6c-1.2,5.4-2.8,10.7-5.5,15.5c-2.6,4.8-5.9,9.3-9.9,13.5
		c-4,4.2-9,7.6-14.5,10.8c-5.4,3.2-11.5,5.5-17.4,7.7c-1.5,0.4-3.1,0.9-4.6,1.4c-1.5,0.4-3,0.9-4.8,1.4c-3.4,0.9-6.7,1.9-10,2.8
		c-13.2,3.7-25.8,7.4-38,11c-24.3,7.3-46.5,14.4-66.9,20.9c-40.7,13-74.4,23.8-102.3,28.4c-13.9,2.4-26.3,2.7-36.6,0.6
		c-10.1-2.3-17.9-7.3-23.1-14c-1.2-1.7-2.5-3.3-3.6-5c-0.8-1.3-1.5-2.6-2.2-3.9l0.6-1.8c0.6-1.7,1.1-3.3,1.7-4.9
		c2.2-6.5,4.4-12.9,6.6-19.2c2.2-6.4,4.2-12.7,6.1-18.8l1.2-3.8l0.8-2.6c0.5-1.8,1.1-3.5,1.6-5.2c1-3.5,2-6.8,3-10.2
		c3.9-13.5,7.3-26.3,10.5-38.6c25-98.3,28-159,24.8-193C337.8,460.3,337.8,460.2,337.7,460z M586.1,679.5l-21.5-103.6
		c0,0-1.2-1.7-2.8-2.3c-0.8-1.9-3.8-2.6-3.8-2.6l-207.2,38.1V738L586.1,679.5z M450.2,523.5c1.3,3.4,2.9,6.6,5.1,9.5
		c2.2,2.9,4.7,5.5,7.6,7.6c5.7,4.2,12.5,6.8,19.3,7.3c6.8,0.6,13.4-0.8,19-3.5c5.6-2.7,10.2-6.6,13.5-10.9c3.3-4.3,5.4-8.9,6.5-13.2
		c1.1-4.3,1.3-8.2,1.2-11.3c-0.2-3.2-0.7-5.6-1.1-7.3c-0.5-1.6-0.7-2.5-0.7-2.5s-2-0.8-4.2,0.2c2.3-0.7,3.4-2.6,3.4-2.6
		s-0.4-0.8-1-2.4c-0.8-1.5-1.9-3.7-3.8-6.3c-2-2.5-4.6-5.3-8.2-7.9c-3.6-2.6-8.2-4.8-13.5-5.9c-5.3-1.2-11.4-1.3-17.4,0.3
		c-6,1.6-12,4.7-16.9,9.6c-4.8,4.8-8.5,11.1-10.1,18c-0.8,3.5-1.1,7.1-0.9,10.7C448.3,516.5,449.1,520.1,450.2,523.5z"/>
	<path d="M558,571c0,0,3,0.7,3.8,2.6c1.6,0.6,2.8,2.3,2.8,2.3l21.5,103.6L350.8,738V609.1L558,571z M376.2,630.7L376.2,630.7l0,0.1
		l0,0.3c0.1,3.8,0.1,7.7,0.2,11.6c0.1,7.9,0.2,16,0.3,24.4c0.1,8.4,0.1,17.1,0.2,26.1c0,3.7,0,7.4,0,11.1h0
		c18.8-4.6,36.1-8.7,52.1-12.6c20.2-4.8,38.7-9.1,55.6-12.8c16.9-3.8,32.3-7.1,46.3-10c7-1.4,13.6-2.7,19.9-4
		c1.6-0.3,3.1-0.6,4.7-0.9l0.6-0.1l0.3-0.1h0.1l0.4,0l0.7-0.1c1.2-0.1,2.3-0.2,3.4-0.3c-0.1-1.4-0.1-2.7-0.1-4l0-0.6l-0.2-1.3
		c-0.1-0.9-0.2-1.7-0.3-2.6c-0.2-1.7-0.4-3.4-0.7-5c-0.8-6.5-1.5-12.5-2.1-18c-1.2-11-1.8-20-2.1-27.4c-0.5-11.6-0.1-19.1,0.8-23.8
		c-1.1,0.7-2.4,1.4-3.9,2.2c-8.9,4.6-25.4,10.7-54.7,18.7c-14.6,4-32.5,8.5-54.2,13.5c-10.9,2.5-22.6,5.2-35.5,7.9
		c-6.4,1.4-13.1,2.8-20.1,4.3c-3.5,0.7-7,1.4-10.6,2.2c-0.7,0.1-0.3,0.1-0.5,0.1l-0.1,0.1l-0.2,0.1l-0.3,0.2l0.1,0.4L376.2,630.7z"
		/>
	<path class="st1" d="M363.6,906l-0.7,24.6c0.2,16.4,0.1,32.9,1.2,49.3l0.6,12.3l0.3,6.2l0.6,6.2l2.2,24.6l0.6,6.1l0.8,6.1l1.6,12.3
		c1.1,8.2,2,16.4,3.3,24.5l4.1,24.4c1.4,8.1,2.6,16.3,4.5,24.4l5.1,24.3l1.1,5.3l1.1,0.1c7.5,0.7,15.5,1,23.5,0.8
		c4,0,8-0.2,12.1-0.4c4-0.1,8.1-0.4,12.1-0.7c16.2-1.2,32.5-3.2,48.8-5.7c32.5-5,64.9-11.8,97.1-19.5c32.2-7.7,64.2-16.4,95.5-26.6
		c15.6-5.2,31.2-10.6,46.3-16.7l11.3-4.7c3.7-1.7,7.4-3.2,11.1-5c3.7-1.7,7.3-3.5,10.8-5.3l1.3-0.7l0.3-0.1v0l-0.7-2.6l-3.5-12
		c-0.3-1.1-0.7-2.3-1-3.4c-20.8,1-43,1.1-66.7-0.2c-3.6-0.2-7.2-0.3-10.8-0.5c-3.6-0.4-7.1-0.7-10.6-1.1c-7-0.8-13.9-1.5-20.6-2.2
		c-6.7-1-13.2-2.2-19.7-3.3c-3.2-0.6-6.4-1.1-9.6-1.7c-3.2-0.5-6.2-1.4-9.3-2.1c-6.1-1.4-12.1-2.9-18-4.3c-2.9-0.6-5.8-1.6-8.7-2.4
		c-2.8-0.9-5.6-1.7-8.4-2.6c-0.7-0.2-1.3-0.4-2-0.6c-1.6,3.2-3.2,6.4-4.8,9.6c-1.1,2.2-2.2,4.5-3.3,6.7
		c-13.8-10.1-27.1-19.8-39.9-29.1c-8.8-6.5-17.3-12.7-25.4-18.8c-0.9-0.7-1.9-1.4-2.8-2.1c0,0-0.1,0-0.1-0.1
		c-1.9-1.2-3.9-2.4-5.8-3.7c-3.8-2.4-7.5-4.8-11.1-7.1c-3.5-2.5-6.8-5-10.1-7.4c-6.7-4.7-12.5-9.9-18.1-14.6
		c-22.3-19.4-36.7-38.1-46.7-53.4c-10-15.5-15.4-27.9-18.6-37.2c-3.1-9.3-4.1-15.5-4-19.5c0-2,0.3-3.3,0.7-4.3
		c0.4-0.9,1-1.4,1.5-1.6c1.2-0.4,2.3-0.2,3.3,0.5c1,0.7,1.8,1.4,1.8,1.4s0.3,0.6,0.8,1.8c0.5,1.2,1.3,3,2.4,5.4
		c2.2,4.7,5.7,11.7,10.9,20.1c2.5,4.3,5.7,8.8,9,13.8c3.6,4.8,7.3,10.1,11.9,15.4c2.2,2.7,4.5,5.5,7,8.2c2.5,2.7,5,5.6,7.7,8.4
		c2.8,2.7,5.7,5.6,8.6,8.4c1.3,1.3,2.7,2.6,4.1,3.8c0.1-1.2,0.3-2.4,0.4-3.7c0.9-7.3,1.8-14.3,2.6-21c1.7-13.4,3.4-25.8,5-37.1
		c3.2-22.7,6.2-41.4,9-56.7c4.3-23.4,8-39,11.2-49.3c-4.9,1.5-9.8,3-14.7,4.5c-22.2,6.7-43.7,13.1-64.6,18.5
		c-6.8,1.7-13.5,3.3-20.1,4.8c-2.9,11.4-5.2,23.2-7.2,35c-0.7,4-1.2,8.1-1.8,12.1c-0.5,4.1-1.2,8.1-1.6,12.1l-1.3,12.2
		c-0.4,4.1-0.9,8.1-1.1,12.2C364.6,889.6,363.9,897.8,363.6,906z"/>
	<path class="st0" d="M376.2,630.8L376.2,630.8l0,0.4c0.1,3.8,0.1,7.7,0.2,11.6c0.1,7.9,0.2,16,0.3,24.4c0.1,8.4,0.1,17.1,0.2,26.1
		c0,3.7,0,7.4,0,11.1h0c18.8-4.6,36.1-8.7,52.1-12.6c20.2-4.8,38.7-9.1,55.6-12.8c16.9-3.8,32.3-7.1,46.3-10c7-1.4,13.6-2.7,19.9-4
		c1.6-0.3,3.1-0.6,4.7-0.9l0.6-0.1l0.3-0.1h0.1l0.4,0l0.7-0.1c1.2-0.1,2.3-0.2,3.4-0.3c-0.1-1.4-0.1-2.7-0.1-4l0-0.6l-0.2-1.3
		c-0.1-0.9-0.2-1.7-0.3-2.6c-0.2-1.7-0.4-3.4-0.7-5c-0.8-6.5-1.5-12.5-2.1-18c-1.2-11-1.8-20-2.1-27.4c-0.5-11.6-0.1-19.1,0.8-23.8
		c-1.1,0.7-2.4,1.4-3.9,2.2c-8.9,4.6-25.4,10.7-54.7,18.7c-14.6,4-32.5,8.5-54.2,13.5c-10.9,2.5-22.6,5.2-35.5,7.9
		c-6.4,1.4-13.1,2.8-20.1,4.3c-3.5,0.7-7,1.4-10.6,2.2c-0.7,0.1-0.3,0.1-0.5,0.1l-0.1,0.1l-0.2,0.1l-0.3,0.2l0.1,0.4L376.2,630.8
		L376.2,630.8z"/>
	<path d="M182.6,532.6c1.6,8.9,4.6,17.6,8.7,25.9c0.9,2.1,2.1,4.2,3.2,6.2l1.7,3.1l1.9,3.3c2.5,4.4,5.1,8.8,7.6,13.2
		c10.1,17.6,20.1,35,30,52.1c13.5,23.5,26.6,46.2,39,67.7c0.4-1.3,0.9-2.7,1.3-4c2.7-8.3,5.2-16.5,7.6-24.6
		c4.9-16.2,9.3-31.9,13.3-47c8-30.2,14.3-58.2,18.8-83c4.4-24.9,7.2-46.6,8.3-64.4c1.1-17.8,0.8-31.6-0.1-40.8
		c-0.3-4.6-0.9-8-1.2-10.4c-0.1-1.2-0.3-2-0.4-2.6c-0.1-0.6-0.2-0.9-0.2-0.9s0.1-1.8,0.4-3.7c0.4-1.9,1.1-3.8,2.3-3.8
		c1.2,0,3.1,1.8,5.8,7.8c1.9,4.9,4.4,12.7,6.1,24.6c2.2-1.2,5.5-3.1,10-5.6c8.5-4.8,21-12,36.8-21.3c15.8-9.3,34.9-20.8,56.5-34.3
		c21.5-13.6,45.8-29.1,70.8-47.4c12.4-9.2,25.3-19,36.5-30c2.7-2.7,5.4-5.6,7.3-8.1l0.4-0.5l-0.6-0.1l-1.1-0.1L552,304
		c-0.9,0-1.9,0-2.9,0c-7.9,0.1-16.6,1.2-25.4,2.6c-8.8,1.4-17.8,3.2-26.9,5.2c-8.7,1.8-17.9,4.5-27.1,7c-9.2,2.6-18.5,5.4-27.7,8.3
		c-37.2,11.8-75.1,25.8-111.9,43.1c-18.4,8.6-36.6,18.1-54,28.7c-17.4,10.6-34.1,22.3-48.9,35.7c-14.8,13.4-27.8,28.4-36.2,45.1
		C182.5,496.6,179.3,514.8,182.6,532.6z M302.6,692.1c-1,3.4-2,6.8-3,10.2c-0.5,1.7-1,3.5-1.6,5.2l-0.8,2.6L296,714
		c-1.9,6.1-3.9,12.3-6.1,18.8c-2.2,6.3-4.3,12.7-6.6,19.2c-0.6,1.6-1.1,3.2-1.7,4.9l-0.6,1.8c0.7,1.3,1.4,2.5,2.2,3.9
		c1.1,1.7,2.4,3.3,3.6,5c5.2,6.6,13,11.7,23.1,14c10.3,2,22.6,1.7,36.6-0.6c27.9-4.6,61.6-15.5,102.3-28.4
		c20.4-6.5,42.6-13.6,66.9-20.9c12.1-3.6,24.8-7.3,38-11c3.3-0.9,6.6-1.9,10-2.8c1.8-0.5,3.2-0.9,4.8-1.4c1.5-0.5,3.1-0.9,4.6-1.4
		c6-2.2,12-4.5,17.4-7.7c5.4-3.2,10.5-6.6,14.5-10.8c4.1-4.1,7.3-8.6,9.9-13.5c2.6-4.8,4.3-10.2,5.5-15.5c1.2-5.4,1.7-11,1.7-16.6
		c0.1-11.2-1.6-22.4-4.1-33c-2.5-10.7-5.8-20.8-9.4-30.5c-7.3-19.3-15.6-36.7-23.8-52.3c-8.2-15.6-16.2-29.5-23.7-42.1
		c-15.1-25-27.9-44.6-37.9-60.1c-10.1-15.5-17.5-27.1-22.6-35.8c-4.2-7.1-6.9-12.2-8.5-16.1c-3.1,2-6.2,3.9-9.2,5.7
		c-17.4,10.6-33,19.5-46.9,27.2c-27.8,15.3-48.8,25.7-64.4,32.8c-16.9,7.7-27.4,11.6-33.8,13.3c0,0.1,0,0.3,0.1,0.4
		c3.2,34.1,0.2,94.7-24.8,193C309.9,665.8,306.4,678.6,302.6,692.1z M759.3,1069.6l-3.5-12c-0.3-1.1-0.7-2.3-1-3.4
		c-20.8,1-43,1.1-66.7-0.2c-3.6-0.2-7.2-0.3-10.8-0.5c-3.6-0.4-7.1-0.7-10.6-1.1c-7-0.8-13.9-1.5-20.6-2.2c-6.7-1-13.2-2.2-19.7-3.3
		c-3.2-0.6-6.4-1.1-9.6-1.7c-3.2-0.5-6.2-1.4-9.3-2.1c-6.1-1.4-12.1-2.9-18-4.3c-2.9-0.6-5.8-1.6-8.7-2.4c-2.8-0.9-5.6-1.7-8.4-2.6
		c-0.7-0.2-1.3-0.4-2-0.6c-1.6,3.2-3.2,6.4-4.8,9.6c-1.1,2.2-2.2,4.5-3.3,6.7c-13.8-10.1-27.1-19.8-39.9-29.1
		c-8.8-6.5-17.3-12.7-25.4-18.8c-0.9-0.7-1.9-1.4-2.8-2.1c0,0-0.1,0-0.1-0.1c-1.9-1.2-3.9-2.4-5.8-3.7c-3.8-2.4-7.5-4.8-11.1-7.1
		c-3.5-2.5-6.8-5-10.1-7.4c-6.7-4.7-12.5-9.9-18.1-14.6c-22.3-19.4-36.7-38.1-46.7-53.4c-10-15.5-15.4-27.9-18.6-37.2
		c-3.1-9.3-4.1-15.5-4-19.5c0-2,0.3-3.3,0.7-4.3c0.4-0.9,1-1.4,1.5-1.6c1.2-0.4,2.3-0.2,3.3,0.5c1,0.7,1.8,1.4,1.8,1.4
		s0.3,0.6,0.8,1.8c0.5,1.2,1.3,3,2.4,5.4c2.2,4.7,5.7,11.7,10.9,20.1c2.5,4.3,5.7,8.8,9,13.8c3.6,4.8,7.3,10.1,11.9,15.4
		c2.2,2.7,4.5,5.5,7,8.2c2.5,2.7,5,5.6,7.7,8.4c2.8,2.7,5.7,5.6,8.6,8.4c1.3,1.3,2.7,2.6,4.1,3.8c0.1-1.2,0.3-2.4,0.4-3.7
		c0.9-7.3,1.8-14.3,2.6-21c1.7-13.4,3.4-25.8,5-37.1c3.2-22.7,6.2-41.4,9-56.7c4.3-23.4,8-39,11.2-49.3c-4.9,1.5-9.8,3-14.7,4.5
		c-22.2,6.7-43.7,13.1-64.6,18.5c-6.8,1.7-13.5,3.3-20.1,4.8c-2.9,11.4-5.2,23.2-7.2,35c-0.7,4-1.2,8.1-1.8,12.1
		c-0.5,4.1-1.2,8.1-1.6,12.1l-1.3,12.2c-0.4,4.1-0.9,8.1-1.1,12.2c-0.5,8.2-1.2,16.3-1.5,24.5l-0.7,24.6c0.2,16.4,0.1,32.9,1.2,49.3
		l0.6,12.3l0.3,6.2l0.6,6.2l2.2,24.6l0.6,6.1l0.8,6.1l1.6,12.3c1.1,8.2,2,16.4,3.3,24.5l4.1,24.4c1.4,8.1,2.6,16.3,4.5,24.4
		l5.1,24.3l1.1,5.3l1.1,0.1c7.5,0.7,15.5,1,23.5,0.8c4,0,8-0.2,12.1-0.4c4-0.1,8.1-0.4,12.1-0.7c16.2-1.2,32.5-3.2,48.8-5.7
		c32.5-5,64.9-11.8,97.1-19.5c32.2-7.7,64.2-16.4,95.5-26.6c15.6-5.2,31.2-10.6,46.3-16.7l11.3-4.7c3.7-1.7,7.4-3.2,11.1-5
		c3.7-1.7,7.3-3.5,10.8-5.3l1.3-0.7l0.3-0.1v0L759.3,1069.6z M571.2,320.8c-5.1,6-10.4,10.7-15.6,15.2c-5.2,4.5-10.5,8.6-15.6,12.5
		c-14,10.5-27.4,19.4-40.1,27.5c3.7,4.2,10.2,11.9,18.9,22.5c13.8,17,33.1,41.5,54.2,72.6c10.5,15.5,21.5,32.7,32.1,51.6
		c10.6,18.9,21,39.5,29.3,62.1c4.1,11.4,7.8,23.2,10.3,35.7c2.6,12.5,3.9,25.7,2.9,39.5c-0.8,9.8-3,19.9-7,29.4
		c8.2-2.5,17.2-5.1,27.1-7.8c43.3-11.8,102-23.4,161.3-29.8c7.4-1,14.8-1.5,22.2-2.1c7.4-0.6,14.8-1.2,22.1-1.8l5.5-0.4
		c1.8-0.1,3.7-0.2,5.5-0.2c3.6-0.2,7.2-0.3,10.9-0.5c7.2-0.3,14.3-0.6,21.3-0.9c7-0.4,13.9-0.3,20.6-0.3c6.7,0,13.3-0.1,19.7-0.1
		c12.8-0.2,24.9,0.4,36.1,0.9c5.6,0.2,10.9,0.4,16,0.7c5.1,0.2,9.9,0.3,14.5,0.8c9.1,0.8,17,1.4,23.5,2c13,1.1,20.4,1.7,20.4,1.7
		s2.6,1.9,2.2,4.3c-0.4,2.4-4,5.4-16.2,7.6c-12.2,2.4-33,3.2-68.1,4.7c-35,1.5-84.4,2.2-153.3,9.8c-68.9,7.7-117.4,17-151.8,23.4
		c-23.4,4.4-40.3,7.6-52.7,9.4c-2.1,2.4-4.3,4.7-6.6,6.8l-2,1.9l-2.1,1.7c-1.4,1.1-2.8,2.2-4.3,3.3l-4.4,2.9l-2.2,1.4l-2.3,1.3
		l-4.6,2.5c-1.6,0.8-3.1,1.4-4.7,2.2c-3.1,1.5-6.3,2.7-9.5,3.8c-2.5,1-5,1.7-7.5,2.5c0.5,0.2,1,0.4,1.6,0.7c1.8,0.9,3.8,1.9,6,3
		c2.2,1.2,4.6,2.5,7.2,4c2.6,1.6,5.2,3.4,8.2,5.3c2.9,2,6.2,4.1,9.3,6.7c3.3,2.6,6.8,5.3,10.5,8.4c14.6,12.4,31.9,30.1,50.8,55.1
		c4.8,6.2,9.4,13,14.4,20.1c4.7,7.2,9.8,14.8,14.7,23c10,16.4,20.1,34.7,30.1,55.4c10,20.6,20.1,43.5,29.8,68.8
		c4.4,11.4,8.7,23.3,12.9,35.7c18.7-1.2,37.2-3.1,55.1-5.3c11-1.7,21.7-3.3,32.3-5c2.6-0.4,5.2-0.8,7.8-1.2c2.6-0.5,5.2-1.1,7.7-1.6
		c5.1-1,10.2-2,15.2-3c5-1,9.9-2,14.7-2.9c2.4-0.5,4.8-1,7.2-1.4c2.4-0.6,4.7-1.1,7-1.7c9.3-2.3,18.3-4.5,26.9-6.5
		c4.3-1.1,8.6-2.1,12.7-3.1c4.1-1.1,8.1-2.3,12-3.4c7.8-2.2,15.2-4.3,22.1-6.3c7-2,13.5-3.8,19.5-5.6c6-1.9,11.4-3.7,16.4-5.3
		c19.8-6.4,31.1-10.1,31.1-10.1s4.8,0.2,5.3,2.6c0.5,2.4-3.3,7.1-20.7,16.2c-17.4,9.1-48.5,23-103.9,39.1c-7,2-14.3,4.1-22,6.2
		c-7.7,1.9-15.9,3.8-24.5,5.8c-4.3,1-8.7,2-13.2,3c-4.5,1-9.1,2.2-13.9,2.9c-9.5,1.7-19.5,3.4-29.9,5.2c-17.5,2.7-36.5,5.1-56.9,6.8
		c0,0.1,0.1,0.2,0.1,0.3c1.1,3.7,2.2,7.4,3.3,11.1l1.1,4l1.4,5.4c0.9,3.6,1.8,7.2,2.8,10.9c-2.8,1.8-5.7,3.7-8.6,5.5
		c-1.4,0.9-2.9,1.8-4.5,2.7l-2.3,1.3l-2.2,1.2c-3.4,1.8-6.8,3.6-10.3,5.2c-3.5,1.7-7,3.3-10.5,4.9c-3.5,1.6-7.1,3.1-10.7,4.7
		c-14.5,6.1-29.6,11.8-45.3,17.1c-1.7,0.6-3.5,1.2-5.2,1.7c0.3,0.6,0.5,1.1,0.8,1.7c4.1,8.1,9.9,20,16.8,35.4
		c7,15.4,15,34.2,23.4,56.2c8.3,22,16.9,47.2,24.2,75.6c7.1,28.3,13.3,59.7,13.5,94.2c0.1,4.3-0.2,8.7-0.3,13
		c-0.4,4.4-0.5,8.8-1.2,13.3c-0.9,8.9-2.9,18-5.4,27c-2.5,9.1-6.3,18-11,26.7c-4.7,8.7-10.8,16.8-17.9,24
		c-3.5,3.7-7.5,6.9-11.4,10.1c-4.2,2.9-8.3,6-12.8,8.3c-4.3,2.7-9,4.6-13.6,6.7l-7.1,2.6c-1.2,0.4-2.4,0.9-3.6,1.3l-3.6,1
		c-19.3,5.6-39.2,7.7-58.8,7.6c-39.3,0-78-8.4-115-16.7c-11.4-2.6-22.7-5.2-34-8l-49,319.8H306.5c0,0-9.2-3.3-0.6-7.6
		c4.3-2.1,13.1-4.5,29.7-6.8c8.3-1.2,18.6-2.3,31.2-3.4c6.3-0.6,13.2-1.1,20.8-1.6c3.8-0.2,7.7-0.5,11.8-0.8l1.6-0.1l0.7-0.1
		c0.4-0.1,0.9-0.1,1.4-0.2c0.8-0.1,1.7-0.2,2.5-0.4c0.1-1.5,0.1-3,0.1-4.6c0.4-3.8,0.8-7.8,1.3-11.8c0.9-8.1,1.9-16.7,2.9-25.9
		c2.2-18.3,4.7-38.6,7.7-61.1c6-45.1,13.7-99.3,23.7-164.2c2-13,4-25.5,5.8-37.7c-54.2-14.1-107.1-30.6-156.6-48.7
		c-33.8-12.3-66-25.4-96.2-38.4c-30.2-12.9-58.4-26-84.3-36.4c-12.8-5.1-25.4-9.5-35.9-10.8c-5.2-0.7-9.3-0.2-11.8,0.9
		c-1.3,0.6-2.3,1.3-3.4,2.4c-1.1,1-2.1,2.6-3.1,4.3c-1.9,3.6-3.4,8-4.5,12.6c-0.6,2.2-1.1,5-1.7,7.5c-0.6,2.6-1.1,5.1-1.7,7.5
		c-2.1,9.8-4.1,18.8-5.9,26.9c-7.1,32.5-11.2,51.1-11.2,51.1s-12.6,26.8-5.7-34.8c0.8-7.7,2-16.8,3.5-27.5
		c0.8-5.3,1.6-11.1,2.6-17.3c0.5-3.1,1-6.3,1.5-9.6c0.3-1.7,0.6-3.3,0.8-5.1c0.3-1.8,0.6-3.6,1-5.4c1.7-7.3,3.9-15.5,10.4-23.1
		c3.2-3.7,7.8-7,12.9-8.7c5.1-1.7,10.5-2.2,15.6-2c10.3,0.4,20.2,3,30.3,6.2c10.1,3.1,20.3,7,31,11.2c21.3,8.5,44.4,18.3,69.9,28.7
		c25.5,10.4,53.5,21.4,84.4,32.6c46.9,16.9,100.6,34.1,162,50c32.6-204.4,51.5-278.6,62-303.7c-15.3,2.7-30.2,4.9-44.9,6.7
		c-19.6,2.3-38.5,3.8-57.1,3.8c-2.3,0.1-4.6,0-7-0.1c-2.3-0.1-4.6-0.1-7-0.3c-2.3-0.2-4.6-0.2-7-0.5l-3.5-0.3l-0.9-0.1
		c-0.2,0-0.9-0.1-1.4-0.2l-3.1-0.5c-4.1-0.5-7.9-1.7-11.6-2.7l-1.4-0.4c-0.3,0-0.4-0.2-0.4-0.5l-0.2-0.7l-0.8-2.8
		c-0.6-1.9-1.2-3.7-1.5-5.7c-1.1-5.2-2.1-10.3-3.1-15.3c-13.3-65.1-18.8-120.1-20.1-165.8c-1.3-45.7,1.2-81.9,5.1-110.3
		c4-28.4,9.1-48.9,13.6-63.7c1.6-5,3.1-9.3,4.6-13.1c-9.7,1.8-19.3,3.1-28.9,3.6c-10.1,0.5-20.3,0-30.3-2.6
		c-9.9-2.5-19.6-7.6-26.6-14.5c-0.9-0.9-1.8-1.7-2.6-2.6c-0.8-0.9-1.5-1.8-2.2-2.8c-1.4-1.8-2.9-3.6-4-5.6c-1.1-1.9-2.3-3.7-3.2-5.6
		c-0.8-1.9-1.6-3.7-2.4-5.5c-0.8-1.8-1.3-3.6-1.9-5.3c-0.6-1.7-1.1-3.4-1.6-5.1c-0.7-3.3-1.4-6.4-2.1-9.4
		c-0.8-5.9-1.7-11.1-1.9-15.7c-0.2-2.2-0.2-4.3-0.3-6.2c-3.6-6.1-7.2-12.4-11-18.7c-8.5-14.4-17.5-29.5-26.8-45.3
		c-9.3-15.8-18.9-32.3-29-49.4c-5-8.6-10.1-17.4-15.4-26.3c-1.3-2.1-2.7-4.6-4-7.1c-1.4-2.4-2.7-5-3.9-7.6
		c-2.5-5.2-4.7-10.7-6.6-16.4c-3.7-11.4-5.8-23.9-5.6-36.6c0.3-12.8,2.9-25.8,7.8-37.8c4.8-12.1,11.6-23.4,19.5-33.8
		c7.9-10.4,17-19.8,26.8-28.7c19.6-17.6,40.5-31.5,61.2-43.5c20.6-12,41.2-22,61.2-30.8c40.1-17.6,78.2-30.7,113.7-41.1
		c8.9-2.6,17.6-5,26.2-7.3c4.3-1.1,8.5-2.2,13-3.2c4.3-0.9,8.6-1.8,12.7-2.7c8.4-1.7,16.6-3.1,24.9-4.3c8.2-1.1,16.4-2,24.8-2.1
		c2.1,0,4.2,0,6.4,0.1c1.1,0.1,2,0.1,3.6,0.3c0.7,0.1,1.4,0.1,2.2,0.3l2.5,0.4c3.3,0.6,6.4,1.6,9.1,3.1c2.7,1.4,5,3.4,6.7,5.7
		c1.7,2.4,2.8,5.3,3,8.1c0.2,2.9-0.2,5.8-1.1,8.6c-1,2.8-2.4,5.6-4.1,8.2l-1.3,1.9c-0.4,0.6-0.7,1-1.1,1.4
		C572.4,319.4,571.8,320,571.2,320.8z M518.1,984.9c2.8,1.4,5.5,2.9,8.4,4.2c9.6,4.1,19.2,8.8,29.5,12.2c0.3,0.1,0.7,0.3,1,0.4
		l43.2-86l-110-146.1l-17.6,182.2L518.1,984.9z M512.4,1491.1c11,2.5,21.8,4.8,32.4,7c5.2,1,10.4,2,15.5,3
		c5.1,0.9,10.2,1.6,15.3,2.5c20.2,2.9,39.7,4.3,58.1,3.6c18.4-0.8,35.6-4,50.7-9.8c7.4-3.2,14.4-6.7,20.5-11.2
		c6-4.5,11.6-9.5,16-15.2c9-11.3,15-24.5,18.4-38c3.6-13.5,5.1-27.2,5.3-40.4c0.5-26.5-2.9-51-7.1-72.9c-4.2-22-9.3-41.5-14.3-58.9
		c-5-17.4-10-32.8-14.5-46.3c-9.1-27-16.4-46.8-21.6-61.4c-3.2-9-5.5-16-7.2-21.5c-27.2,8.8-56.2,16.8-86.9,24.2
		c-23.7,5.7-46.5,10.7-68.7,14.8l-47.8,312.1C488.3,1485.6,500.1,1488.4,512.4,1491.1z M574,843.5c7.3,8.8,15.2,18.5,23.7,29.1
		c4.2,5.3,8.6,10.8,13.2,16.6c2.3,2.9,4.6,5.8,7,8.8c1.6,2,3.2,4.1,4.8,6.2c2.3,2.9,4.6,5.9,6.9,9c-8.8,18-18.3,37.6-28.6,58.7
		c-4.6,9.3-9.4,19.1-14.4,29.2c-1.5,3-3,6-4.5,9c12.5,3.6,25.4,6.6,38.5,9.4c5.7,0.9,11.4,1.9,17.1,2.8c5.7,0.9,11.4,2,17.2,2.5
		c5.8,0.6,11.6,1.2,17.4,1.8c2.9,0.3,5.8,0.7,8.7,0.8l8.8,0.4c19,1.1,38.1,1.2,57,0.6c-4.7-14.2-9.8-28.3-15.1-42.3
		c-12.1-31.3-25.7-62-41.3-91.5c-15.6-29.5-33.3-57.8-53.8-83.6c-10.2-13-21.3-25.1-33.1-36.3c-3-2.7-5.8-5.7-9-8.2l-9.3-7.8
		c-6.5-4.8-12.9-9.7-19.7-13.8c0,0-0.2-0.2-0.4-0.5c-11.5,3.1-22.8,6.3-34.1,9.6c-10.1,2.9-20.1,5.9-30,8.9
		c8.1,7.1,19.6,18.6,35.8,36.8C547,811.4,559.4,825.8,574,843.5z"/>
	<path d="M411.3,534.7c1,0.3,1.9,0.5,2.8,0.6c1.8,0.2,3.2,0.1,4.4-0.3h0c2.3-0.7,3.3-2.6,3.3-2.6s-0.4-0.8-1-2.4
		c-0.8-1.5-1.9-3.7-3.8-6.3c-1.9-2.5-4.6-5.4-8.2-7.9c-3.6-2.6-8.1-4.8-13.5-5.9c-5.3-1.2-11.4-1.3-17.4,0.3c-6,1.6-12,4.7-16.8,9.6
		c-4.9,4.8-8.5,11.1-10.1,18c-0.8,3.5-1.1,7.1-0.9,10.7c0.2,3.6,1,7.2,2.2,10.6c1.3,3.4,2.9,6.6,5.1,9.5c2.2,2.9,4.7,5.5,7.6,7.6
		c5.7,4.3,12.5,6.8,19.3,7.3c6.8,0.6,13.5-0.9,19-3.5c5.6-2.7,10.2-6.6,13.6-10.9c3.3-4.3,5.4-8.9,6.5-13.2
		c1.1-4.3,1.3-8.2,1.2-11.3c-0.2-3.2-0.7-5.6-1.1-7.3c-0.5-1.6-0.7-2.5-0.7-2.5s-1.9-0.8-4.2,0.2c-1.2,0.4-2.4,1.3-3.6,2.6
		c-0.6,0.6-1.2,1.4-1.8,2.3c-0.6,0.9-1.3,1.8-1.9,2.9c-1.4,2.1-2.8,4.6-4.9,7.1c-1,1.3-2.2,2.5-3.5,3.7c-1.4,1.2-2.8,2.2-4.5,3.1
		c-3.2,1.8-7.4,2.7-11.5,1.9c-4.1-0.8-8.3-3.6-10.2-8.5c-1.7-4.9-0.2-9.8,2.4-13c2.6-3.2,6.5-5.2,10.1-5.9c1.8-0.4,3.7-0.5,5.4-0.5
		c1.7,0.1,3.4,0.2,5,0.6c3.2,0.6,5.9,1.6,8.3,2.3C409.1,534.1,410.3,534.4,411.3,534.7z"/>
	<path class="st0" d="M418.6,535L418.6,535c-1.2,0.4-2.7,0.5-4.4,0.3c-0.9-0.1-1.8-0.3-2.8-0.6c-1.1-0.3-2.2-0.6-3.3-1
		c-2.4-0.7-5.1-1.7-8.3-2.3c-1.6-0.4-3.3-0.5-5-0.6c-1.8,0-3.6,0.1-5.4,0.5c-3.6,0.7-7.4,2.7-10.1,5.9c-2.6,3.2-4.1,8.1-2.4,13
		c1.8,4.9,6.1,7.6,10.2,8.5c4.1,0.8,8.3-0.1,11.5-1.9c1.7-0.9,3.1-2,4.5-3.1c1.2-1.2,2.5-2.4,3.5-3.7c2.1-2.5,3.5-5,4.9-7.1
		c0.6-1.1,1.3-2.1,1.9-2.9c0.6-0.9,1.2-1.6,1.8-2.3C416.2,536.3,417.4,535.5,418.6,535L418.6,535z"/>
	<path class="st2" d="M490.2,769.6l-17.6,182.2l45.5,33.1c2.8,1.4,5.5,2.9,8.4,4.2c9.6,4.1,19.2,8.8,29.5,12.2
		c0.3,0.1,0.7,0.3,1,0.4l43.2-86L490.2,769.6z"/>
	<path d="M521.5,501.8c-0.5-1.6-0.7-2.5-0.7-2.5s-2-0.8-4.2,0.2c-1.1,0.5-2.4,1.3-3.6,2.6c-0.6,0.6-1.2,1.4-1.8,2.3
		c-0.6,0.9-1.3,1.8-1.9,2.9c-1.4,2.1-2.9,4.6-4.9,7.1c-1,1.3-2.2,2.5-3.5,3.7c-1.3,1.2-2.8,2.2-4.5,3.1c-3.2,1.8-7.4,2.7-11.5,1.9
		c-4.1-0.8-8.3-3.6-10.2-8.5c-1.7-4.9-0.2-9.8,2.4-13c2.6-3.2,6.4-5.2,10-5.9c1.8-0.4,3.7-0.5,5.5-0.4c1.7,0.1,3.5,0.2,5,0.6
		c3.2,0.6,5.9,1.6,8.3,2.3c1.2,0.4,2.3,0.7,3.3,1c1,0.3,1.9,0.5,2.8,0.6c1.7,0.2,3.2,0.1,4.4-0.3c2.3-0.7,3.4-2.6,3.4-2.6
		s-0.4-0.8-1-2.4c-0.8-1.5-1.9-3.7-3.8-6.3c-2-2.5-4.6-5.3-8.2-7.9c-3.6-2.6-8.2-4.8-13.5-5.9c-5.3-1.2-11.4-1.3-17.4,0.3
		c-6,1.6-12,4.7-16.9,9.6c-4.8,4.8-8.5,11.1-10.1,18c-0.8,3.5-1.1,7.1-0.9,10.7c0.2,3.6,1,7.2,2.2,10.6c1.3,3.4,2.9,6.6,5.1,9.5
		c2.2,2.9,4.7,5.5,7.6,7.6c5.7,4.2,12.5,6.8,19.3,7.3c6.8,0.6,13.4-0.8,19-3.5c5.6-2.7,10.2-6.6,13.5-10.9c3.3-4.3,5.4-8.9,6.5-13.2
		c1.1-4.3,1.3-8.2,1.2-11.3C522.4,505.9,521.9,503.4,521.5,501.8z"/>
	<path class="st0" d="M511.2,504.4c0.6-0.9,1.2-1.6,1.8-2.3c1.2-1.3,2.4-2.2,3.6-2.6c-1.2,0.4-2.7,0.5-4.4,0.3
		c-0.9-0.1-1.8-0.3-2.8-0.6c-1.1-0.3-2.2-0.6-3.3-1c-2.4-0.7-5.2-1.7-8.3-2.3c-1.6-0.3-3.3-0.5-5-0.6c-1.8,0-3.6,0.1-5.5,0.4
		c-3.6,0.7-7.4,2.7-10,5.9c-2.6,3.2-4.1,8.1-2.4,13c1.8,4.9,6.1,7.7,10.2,8.5c4.1,0.8,8.3-0.1,11.5-1.9c1.6-0.9,3.1-2,4.5-3.1
		c1.3-1.2,2.5-2.4,3.5-3.7c2-2.5,3.5-5,4.9-7.1C509.9,506.2,510.6,505.2,511.2,504.4z"/>
	<path class="st1" d="M500.8,762.9c8.1,7.1,19.6,18.6,35.8,36.8c10.4,11.6,22.7,26,37.3,43.7c7.3,8.8,15.2,18.5,23.7,29.1
		c4.2,5.3,8.6,10.8,13.2,16.6c2.3,2.9,4.6,5.8,7,8.8c1.6,2,3.2,4.1,4.8,6.2c2.3,2.9,4.6,5.9,6.9,9c-8.8,18-18.3,37.6-28.6,58.7
		c-4.6,9.3-9.4,19.1-14.4,29.2c-1.5,3-3,6-4.5,9c12.5,3.6,25.4,6.6,38.5,9.4c5.7,0.9,11.4,1.9,17.1,2.8c5.7,0.9,11.4,2,17.2,2.5
		c5.8,0.6,11.6,1.2,17.4,1.8c2.9,0.3,5.8,0.7,8.7,0.8l8.8,0.4c19,1.1,38.1,1.2,57,0.6c-4.7-14.2-9.8-28.3-15.1-42.3
		c-12.1-31.3-25.7-62-41.3-91.5c-15.6-29.5-33.3-57.8-53.8-83.6c-10.2-13-21.3-25.1-33.1-36.3c-3-2.7-5.8-5.7-9-8.2l-9.3-7.8
		c-6.5-4.8-12.9-9.7-19.7-13.8c0,0-0.2-0.2-0.4-0.5c-11.5,3.1-22.8,6.3-34.1,9.6C520.7,757,510.7,759.9,500.8,762.9z"/>
	<path class="st3" d="M205.7,584.4c10.1,17.6,20.1,35,30,52.1c13.5,23.5,26.6,46.2,39,67.7c0.4-1.3,0.9-2.7,1.3-4
		c2.7-8.3,5.2-16.5,7.6-24.6c4.9-16.2,9.3-31.9,13.3-47c8-30.2,14.3-58.2,18.8-83c4.4-24.9,7.2-46.6,8.3-64.4
		c1.1-17.8,0.8-31.6-0.1-40.8c-0.3-4.6-0.9-8-1.2-10.4c-0.1-1.2-0.3-2-0.4-2.6c-0.1-0.6-0.2-0.9-0.2-0.9s0.1-1.8,0.4-3.7
		c0.4-1.9,1.1-3.8,2.3-3.8c1.2,0,3.1,1.8,5.8,7.8c1.9,4.9,4.4,12.7,6.1,24.6c2.2-1.2,5.5-3.1,10-5.6c8.5-4.8,21-12,36.8-21.3
		c15.8-9.3,34.9-20.8,56.5-34.3c21.5-13.6,45.8-29.1,70.8-47.4c12.4-9.2,25.3-19,36.5-30c2.7-2.7,5.4-5.6,7.3-8.1l0.4-0.5l-0.6-0.1
		l-1.1-0.1L552,304c-0.9,0-1.9,0-2.9,0c-7.9,0.1-16.6,1.2-25.4,2.6c-8.8,1.4-17.8,3.2-26.9,5.2c-8.7,1.8-17.9,4.5-27.1,7
		c-9.2,2.6-18.5,5.4-27.7,8.3c-37.2,11.8-75.1,25.8-111.9,43.1c-18.4,8.6-36.6,18.1-54,28.7c-17.4,10.6-34.1,22.3-48.9,35.7
		c-14.8,13.4-27.8,28.4-36.2,45.1c-8.4,16.7-11.5,34.9-8.3,52.6c1.6,8.9,4.6,17.6,8.7,25.9c0.9,2.1,2.1,4.2,3.2,6.2l1.7,3.1l1.9,3.3
		C200.6,575.5,203.2,580,205.7,584.4z"/>
	<g>
		<g>
			<path d="M1525.9,1106.4c-1.5,0.5-3.6,1.3-6.6,2.1c-6.1,1.5-16.3,2.7-32.9-2.1c-16.5-4.8-39.1-15.3-68.6-34.5
				c-29.4-19.4-49.4-34.9-64-45.3c-7.2-5.3-13.1-9.4-17.9-12.4c-4.7-3.1-8.4-5.3-11.2-6.7c-11.3-5.6-9.2,0.6-9.2,0.6
				s2.8,2.5,7.8,6.8c4.9,4.4,12.1,10.5,20.8,17.9c17.4,14.6,41.1,33.4,66.7,50c12.8,8.3,26,16,39.1,22.2c13.1,6.1,26.1,10.8,38,12.9
				c11.9,2.2,22.9,1.3,30.3-1.7c3.7-1.4,6.6-3.3,8.4-4.7c1.8-1.5,2.7-2.6,2.7-2.6s0.2-0.5,0.3-1.2c0-0.3,0-0.7-0.1-1
				c0-0.4-0.2-0.7-0.5-0.8C1528.4,1105.7,1527.4,1105.9,1525.9,1106.4z"/>
			<path d="M1433.6,198.5c-1,7.1-0.1,9.4,1,10c1.1,0.5,2.5-0.7,2.5-0.7s1.5-4,4.2-11c0.7-1.8,1.4-3.7,2.2-5.8
				c0.9-2.1,1.8-4.3,2.8-6.8c2-4.8,4.2-10.3,7-16.1c1.4-2.9,2.8-6,4.2-9.1c1.6-3.1,3.2-6.3,4.9-9.5c1.7-3.3,3.4-6.6,5.3-10
				c1.9-3.3,3.8-6.8,5.9-10.2c8.2-13.7,18.1-27.7,29.2-40.5c11.1-12.8,23.7-24.1,36.6-33c1.6-1.2,3.2-2.2,4.9-3.2
				c1.6-1,3.2-2.1,4.9-3c3.3-1.8,6.5-3.7,9.7-5.1c6.4-3.2,12.7-5.5,18.6-7.4c11.8-3.7,22.1-4.8,29.2-5c3.6-0.1,6.3,0,8.2,0.2
				c1.8,0.2,2.7,0.3,2.7,0.3s0.4-0.2,0.7-0.5c0.4-0.3,0.7-0.8,0.8-1.4c0.3-1.1-1.1-3.3-8.1-5.2c-3.5-0.9-8.4-1.7-15.1-1.6
				c-6.7,0.1-15.3,1-25.6,3.9s-22.5,7.9-35.8,16.2c-13.2,8.4-27.5,20.1-41.5,36.1c-13.9,16.1-23.7,31.4-31.3,44.7
				c-3.6,6.8-7.1,12.9-9.7,18.8c-1.3,2.9-2.6,5.7-3.8,8.3c-1.2,2.7-2.2,5.2-3.2,7.7C1437.2,179.2,1434.5,191.3,1433.6,198.5z"/>
			<path d="M1781.6,1082.9c1.7-1.1,2.7-1.8,2.7-1.8s0.2-0.4,0.4-1c0.1-0.5,0.2-1.3-0.2-1.7c-1-0.8-3.4-0.7-9.7,1.1
				c-3.2,0.8-7.4,2.1-13.1,3.4c-5.7,1.3-12.9,2.6-21.9,3.2c-18,1.2-44.2-0.9-77.6-15.7c-16.7-7.4-30.2-15.5-41.6-22.6
				c-5.6-3.7-10.9-7-15.5-10.3c-2.3-1.6-4.6-3.1-6.7-4.6c-2.1-1.5-4.1-2.9-6-4.3c-15.2-10.9-24.4-17.4-30.1-20.5
				c-5.8-3.2-8.2-3.2-9.1-2.4c-0.9,0.8-0.4,2.4-0.4,2.4s2.9,2.7,8,7.5c1.3,1.2,2.7,2.5,4.2,4c1.6,1.4,3.3,2.9,5.1,4.5
				c3.7,3.2,7.7,6.9,12.4,10.7c4.7,3.8,9.7,8,15.2,12c5.4,4.2,11.5,8.3,17.7,12.6c12.6,8.3,26.6,16.4,41.5,22.9
				c14.9,6.6,30.6,11.6,45.9,13.9c15.2,2.5,30,2.3,42.3,0.2c12.4-2,22.4-5.8,29-9.2C1777.3,1085.6,1779.8,1084,1781.6,1082.9z"/>
			<path d="M1720.8,95.2c16,0.7,30.7,3.8,43,7.3c12.3,3.7,22.2,7.8,28.9,11c3.4,1.6,5.9,3,7.6,3.9c1.7,0.9,2.6,1.5,2.6,1.5
				s0.4,0,0.9-0.1c0.5-0.1,1-0.4,1.3-0.9c0.6-1,0-3.5-5.6-8.2c-2.8-2.3-6.9-5.3-12.8-8.5c-5.9-3.2-13.7-6.9-23.9-10.3
				c-10.3-3.4-23-6.6-38.8-8c-15.7-1.2-34.7-0.8-55.8,4.8c-21.2,5.4-37.9,14.2-51.1,22.8c-3.2,2.3-6.3,4.5-9.3,6.5
				c-2.8,2.2-5.5,4.5-8.1,6.5c-1.3,1.1-2.5,2-3.7,3.1c-1.1,1.1-2.3,2.1-3.3,3.2c-2.1,2.1-4.2,4-6.1,5.9c-3.7,3.9-6.8,7.6-9.7,10.8
				c-2.8,3.2-5,6.5-7,9.1c-4,5.4-6.4,9.8-8,13.1c-3.2,6.6-3.1,9-2.2,9.9c0.9,0.8,2.6,0,2.6,0s2.7-3.3,7.5-9.2c2.3-3,5.5-6.3,9-10.2
				c3.4-4,7.7-8,12.3-12.6c9.4-8.7,21-18.4,34.6-26.7c13.6-8.3,29.3-15.2,45.8-19.5c8.2-2.3,16.6-3.5,24.9-4.5
				C1704.6,95.2,1712.9,94.7,1720.8,95.2z"/>
			<path class="st4" d="M1801.6,262.7c0.9-9.7,1.3-19.4,0.6-28.4c-0.4-4.5-1-8.9-2.1-12.7c-1.1-3.9-2.6-7.1-4.3-9.3
				c-1.7-2.2-3.3-3.1-5.5-3.8c-2.3-0.6-5.5-0.6-9.2,0.3c-7.4,1.6-15.8,6-23.7,10.9c-8,5.1-15.7,11-23.3,17.4
				c-15.1,12.7-29.3,27-43,41.7c-27.4,29.6-52.7,61.5-77,94.3c-24.2,32.7-47.2,66.4-69.4,100.8c-11.1,17.1-21.9,34.4-32.5,51.9
				c-5.4,8.7-10.4,17.3-15.5,26.2l-15.2,26.7c-20.4,35.6-40.2,71.5-60.2,107.3l-6.6,11.9l20.1,14.5l49.9,36.1
				c16.6,12,33.4,23.8,50.1,35.7l25.1,17.7c8.1,5.7,16.8,11.4,25.3,17c34.1,22.5,68.7,44.2,103.9,64.8c35.2,20.5,71.1,40,107.7,57.6
				c18.3,8.8,36.8,17,55.5,24.4c18.7,7.4,37.7,14,56.8,18.6c9.5,2.2,19.1,4.1,28.2,4.7c4.6,0.3,9.1,0.4,13.2,0
				c4.2-0.3,8-1.2,10.8-2.5c1.5-0.6,2.5-1.4,3.5-2.1c0.8-0.8,1.6-1.5,2.1-2.5c1.1-1.8,1.7-4.5,1.7-8c0-7.1-2.9-16-6.6-24.4
				c-3.8-8.6-8.6-17.1-13.8-25.4c-5.2-8.3-10.9-16.5-16.9-24.5c-12-16-24.9-31.6-38.4-46.6c0,0-1.9-2.7-3.5-5.6
				c-1.5-2.7-2.8-5.5-1.9-6.2l0,0c-0.5,0.5-1.6,0.2-3-0.6c-3.4-1.8-8.3-5.8-8.3-5.8c-31.4-33.4-64.9-65.2-99.3-95.8
				c-8.6-7.7-17.3-15.2-26-22.6c-8.8-7.4-17.7-14.8-26.6-22.2l-26.8-22l-13.5-11l-6.7-5.5l-2.1-1.8l-1.7-1.3
				c-0.6-0.4-1.3-0.8-1.3-1.6c-0.6-1.3-0.6-3-2.3-3.6l-0.3-0.5l-0.1-0.1c0.1-0.1,0.3-0.2,0.6-0.3c4.6-2.8,8.5-5.3,9.7-6.9l-12.7-1.7
				l0.3-3.3c-0.2,0.6,1.3-6.2,1.6-7.1c0,0.2-0.1,0.5-0.2,0.9l0.4-0.8l0.8-1.7l3.3-6.9l6.6-13.9l13.1-27.7l13.1-27.7l6.6-13.9
				l3.3-6.9l3.1-7c16.4-37.4,31.8-75.2,45.4-113.5c13.5-38.3,25.7-77.2,33.2-116.4C1799.2,282.2,1800.7,272.4,1801.6,262.7z"/>
			<path d="M1802.2,234.3c0.7,9.1,0.3,18.7-0.6,28.4c-0.9,9.7-2.4,19.5-4.3,29.3c-7.6,39.2-19.7,78.1-33.2,116.4
				c-13.6,38.3-29,76.1-45.4,113.5l-3.1,7l-3.3,6.9l-6.6,13.9l-13.1,27.7l-13.1,27.7l-6.6,13.9l-3.3,6.9l-0.8,1.7l-0.4,0.8
				c0.1-0.5,0.1-0.8,0.2-0.9c-0.3,0.9-1.8,7.6-1.6,7.1l-0.3,3.3l12.7,1.7c-1.2,1.6-5.1,4.1-9.7,6.9c-0.2,0.2-0.5,0.3-0.6,0.3
				l0.1,0.1l0.3,0.5c1.7,0.7,1.7,2.3,2.3,3.6c0.1,0.8,0.8,1.2,1.3,1.6l1.7,1.3l2.1,1.8l6.7,5.5l13.5,11l26.8,22
				c8.9,7.4,17.8,14.7,26.6,22.2c8.7,7.4,17.4,15,26,22.6c34.4,30.6,67.9,62.4,99.3,95.8c0,0,4.9,4.1,8.3,5.8c1.4,0.7,2.5,1.1,3,0.6
				c0.7-0.7,0-3.2-3.6-8.8c-6-9.3-19.8-27.7-50-59.8c-15.1-16-34.4-35.3-59.1-58.3c-12.4-11.5-26.2-23.7-41.5-36.9
				c-7.6-6.6-15.6-13.5-23.9-20.6c-4.2-3.6-8.4-7.2-12.8-10.9c-2.2-1.9-4.4-3.7-6.6-5.6l-2.2-1.9l-0.4-0.9l0.1-0.6
				c0-0.2,0.1-0.3,0-0.4l0.9-1.7c1.2-2.4,2.4-4.8,3.6-7.3c2.4-4.9,4.9-9.9,7.5-15c5-10.2,10.2-20.8,15.6-31.6
				c10.7-21.9,22.5-45,33.5-70.4c11.2-25.3,22.5-52.5,33.6-81.7c11-29.3,21.8-60.6,31-94.7c4.5-17.1,8.6-34.8,11.5-53.5
				c1.4-9.4,2.5-19,3-29c0.4-10,0.3-20.3-1.9-31.4c-1.1-5.5-2.8-11.2-5.8-17c-2.9-5.8-7.9-11.7-14.6-15.6
				c-6.7-3.9-14.5-5.1-21.2-4.7c-6.8,0.4-12.8,2.1-18.4,4.2c-5.6,2.1-10.7,4.6-15.6,7.4c-4.9,2.8-9.6,5.8-14.1,9
				c-9.1,6.3-17.5,13.3-25.8,20.6c-16.5,14.6-32.1,30.7-47.3,47.6c-15.2,16.9-30,34.8-44.7,53.5c-29.3,37.3-58,77.8-86.4,121.2
				c-11.5,17.6-22.6,35-33.2,52.3c-5.3,8.7-10.5,17.1-15.7,25.8c-5,8.6-9.9,17.2-14.7,25.7c-9.6,16.9-19,33.5-28.2,49.8
				c-9.1,16.4-18,32.4-26.8,48.2c-10.3,18.6-20.4,36.9-30.3,54.8l-0.8,1.4c-0.1,0.4-0.8,1-0.5,1.3l2.6,1.9l5.1,3.7
				c3.4,2.5,6.8,4.9,10.2,7.4c3.5,2.6,7.1,5.1,10.6,7.6c6.9,5,13.7,9.8,20.5,14.7c27,19.4,52.9,38,78,55.5
				c12.5,8.7,24.8,17.3,36.8,25.7c3,2.1,6.2,4.2,9.2,6.2c3,2,6.1,4,9.1,6c6,3.9,12,7.8,17.9,11.6c23.7,15.2,46.6,29.4,68.7,42.5
				c44.3,26.2,85.4,48.2,123.6,66.5c38.3,18.1,73.6,32.6,106.5,42.4c16.5,4.9,32.4,8.6,47.9,10.2c7.7,0.8,15.4,1.1,22.9,0.3
				c7.5-0.8,15.1-2.5,21.6-6.8c3.2-2.1,6.1-4.9,8.2-8.1c2.2-3.2,3.4-6.8,4.1-10.3c1.4-7,0.3-13.5-1-19.4c-1.4-5.9-3.5-11.2-5.8-16.3
				c-2.2-5-4.7-9.7-7.2-14c-10.2-17.4-20.7-30.7-29.8-41.6c-18.5-21.8-31.7-34-40.1-41.2c-8.4-7.2-12.2-9.1-13.4-8.6
				c-0.1,0-0.1,0.1-0.2,0.1c-0.9,0.7,0.4,3.5,1.9,6.2c1.6,2.8,3.5,5.6,3.5,5.6c13.5,15.1,26.4,30.6,38.4,46.6
				c6,8,11.7,16.2,16.9,24.5c5.2,8.3,10,16.8,13.8,25.4c3.7,8.5,6.6,17.4,6.6,24.4c0,3.5-0.6,6.2-1.7,8c-0.5,0.9-1.3,1.7-2.1,2.5
				c-1,0.7-2,1.5-3.5,2.1c-2.8,1.3-6.6,2.1-10.8,2.5c-4.2,0.4-8.7,0.3-13.2,0c-9.2-0.7-18.7-2.5-28.2-4.7c-19-4.7-38-11.3-56.8-18.6
				c-18.7-7.4-37.2-15.6-55.5-24.4c-36.6-17.5-72.4-37-107.7-57.6c-35.2-20.6-69.8-42.2-103.9-64.8c-8.5-5.6-17.1-11.3-25.3-17
				l-25.1-17.7c-16.7-11.9-33.5-23.7-50.1-35.7l-49.9-36.1l-20.1-14.5l6.6-11.9c20-35.8,39.8-71.7,60.2-107.3l15.2-26.7
				c5.1-9,10.1-17.5,15.5-26.2c10.6-17.5,21.5-34.8,32.5-51.9c22.1-34.3,45.2-68,69.4-100.8c24.3-32.7,49.6-64.6,77-94.3
				c13.7-14.8,27.9-29,43-41.7c7.5-6.3,15.3-12.2,23.3-17.4c7.9-5,16.3-9.3,23.7-10.9c3.7-0.8,6.9-0.8,9.2-0.3
				c2.2,0.7,3.8,1.6,5.5,3.8c1.7,2.1,3.2,5.4,4.3,9.3C1801.2,225.4,1801.8,229.8,1802.2,234.3z"/>
		</g>
	</g>
</g>
</svg>
