<svg height="512pt" viewBox="0 0 512.01021 512" width="512pt" xmlns="http://www.w3.org/2000/svg"><path d="m466.96875 110.835938c-11.847656-17.113282-25.707031-32.742188-41.28125-46.550782-.332031-.296875-.691406-.5625-1.023438-.855468-5.0625-4.445313-10.34375-8.628907-15.742187-12.667969-6.734375-5.039063-13.652344-9.84375-20.859375-14.203125-100.808594-60.527344-229.882812-44.65625-313.027344 38.492187-83.144531 83.148438-99.007812 212.222657-38.472656 313.03125 21.660156 35.742188 51.636719 65.71875 87.382812 87.375 100.808594 60.53125 229.886719 44.660157 313.03125-38.488281 83.144532-83.152344 99.007813-212.226562 38.46875-313.035156-2.691406-4.453125-5.519531-8.816406-8.476562-13.097656zm-339.777344 346.402343c-1.257812-.8125-2.527344-1.609375-3.769531-2.441406-1.589844-1.066406-3.175781-2.132813-4.738281-3.234375-2.289063-1.617188-4.535156-3.292969-6.765625-4.988281-1.433594-1.085938-2.882813-2.15625-4.289063-3.277344-2.414062-1.917969-4.761718-3.914063-7.097656-5.921875-1.152344-.992188-2.335938-1.945312-3.46875-2.957031-3.316406-2.960938-6.554688-6.011719-9.710938-9.144531l-.605468-.605469c-3.128906-3.144531-6.171875-6.371094-9.125-9.6875-1.074219-1.203125-2.089844-2.457031-3.140625-3.683594-1.933594-2.253906-3.863281-4.523437-5.714844-6.84375-1.179687-1.480469-2.304687-3-3.445313-4.507813-1.636718-2.160156-3.257812-4.328124-4.824218-6.539062-1.140625-1.617188-2.246094-3.261719-3.347656-4.90625-.8125-1.210938-1.589844-2.445312-2.378907-3.671875l330.046875-330.050781c1.257813.808594 2.527344 1.605468 3.769532 2.441406 1.589843 1.0625 3.175781 2.132812 4.738281 3.234375 2.289062 1.613281 4.535156 3.292969 6.765625 4.984375 1.433594 1.089844 2.882812 2.160156 4.289062 3.28125 2.414063 1.917969 4.761719 3.914062 7.097656 5.921875 1.152344.988281 2.335938 1.945313 3.46875 2.957031 3.316407 2.960938 6.554688 6.007813 9.710938 9.144532l.605469.605468c3.128906 3.144532 6.171875 6.371094 9.125 9.6875 1.074219 1.203125 2.089843 2.457032 3.140625 3.683594 1.933594 2.253906 3.863281 4.519531 5.714844 6.84375 1.179687 1.480469 2.304687 3 3.445312 4.507812 1.636719 2.15625 3.257812 4.324219 4.824219 6.539063 1.140625 1.621094 2.246093 3.261719 3.347656 4.90625.8125 1.210937 1.589844 2.445313 2.378906 3.671875zm128.8125-440.164062c39.675782.007812 78.730469 9.890625 113.632813 28.757812l-323.816407 323.808594c-40.03125-74.042969-38.152343-163.683594 4.949219-235.984375 43.101563-72.296875 121.0625-116.582031 205.234375-116.582031zm0 477.867187c-39.675781-.011718-78.730468-9.894531-113.632812-28.757812l323.816406-323.808594c40.03125 74.039062 38.152344 163.683594-4.949219 235.980469-43.101562 72.300781-121.0625 116.585937-205.234375 116.585937zm0 0"/></svg>