<?xml version="1.0" encoding="utf-8"?>
<!-- Generator: Adobe Illustrator 24.2.3, SVG Export Plug-In . SVG Version: 6.00 Build 0)  -->
<svg version="1.1" id="Layer_1" xmlns="http://www.w3.org/2000/svg" xmlns:xlink="http://www.w3.org/1999/xlink" x="0px" y="0px"
	 viewBox="0 0 364 364" style="enable-background:new 0 0 364 364;" xml:space="preserve">
<path d="M36.3,16.3C16.2,16.4-0.1,32.8,0,53l0,258.7c0.1,20.2,16.5,36.4,36.7,36.3h134.2c20.3,0.1,36.9-16.3,37-36.7v-34.9
	c0-3.9-3.1-7-7-7c-3.9,0-7,3.1-7,7v35c-0.1,12.6-10.5,22.7-23.1,22.6H36.3c-12.4-0.1-22.4-10.3-22.3-22.7V53v-0.4
	c0.1-12.4,10.3-22.4,22.7-22.3h134.2c12.6-0.1,22.9,10.1,23,22.7v35.6c0,3.9,3.1,7,7,7c3.9,0,7-3.1,7-7V52.9
	c-0.1-20.3-16.7-36.7-37.1-36.6H36.7C36.6,16.3,36.5,16.3,36.3,16.3z"/>
<path d="M286.3,242.8c-2.7,2.7-2.7,7.2,0,9.9c2.7,2.7,7.2,2.7,9.9,0l64.8-64.8c1.9-1.3,3-3.3,3.1-5.6c0.1-2.2-0.9-4.4-2.7-5.8
	L296.5,102c-2.5-2.9-6.9-3.2-9.9-0.7c-2.9,2.5-3.2,6.9-0.7,9.9l55.6,64H96.2c-3.9,0-7,3.1-7,7c0,3.9,3.1,7,7,7h243.7L286.3,242.8z"
	/>
</svg>
