<?xml version="1.0" encoding="utf-8"?>
<!-- Generator: Adobe Illustrator 24.2.3, SVG Export Plug-In . SVG Version: 6.00 Build 0)  -->
<svg version="1.1" id="Layer_1" xmlns="http://www.w3.org/2000/svg" xmlns:xlink="http://www.w3.org/1999/xlink" x="0px" y="0px"
	 viewBox="0 0 512 512" style="enable-background:new 0 0 512 512;" xml:space="preserve">
<g>
	<g>
		<g>
			<path d="M106.7,275.3c-11.8,0-21.3,9.6-21.3,21.3s9.6,21.3,21.3,21.3s21.3-9.6,21.3-21.3S118.4,275.3,106.7,275.3z"/>
			<path d="M334,222.5c-44.6-14.6-111.3-14.6-156,0c-5.6,1.8-8.6,7.9-6.8,13.5c1.8,5.6,7.9,8.7,13.5,6.8
				c40.4-13.3,102.3-13.3,142.7,0c1.1,0.4,2.2,0.5,3.3,0.5c4.5,0,8.7-2.8,10.1-7.3C342.6,230.4,339.6,224.4,334,222.5z"/>
			<path d="M501.3,232.7c-4.8,0-9.5-0.5-13.9-1.4c2-9.2,3.2-19.4,3.2-30.6c0-17.6-14.4-32-32-32s-32,14.4-32,32
				c0,17.5,14,34.1,34.2,44c-3.1,7.2-6.7,13.2-10.5,18.3c-33.5-55.5-107.9-94.3-194.3-94.3c-49.8,0-97.7,13-135.9,36.8
				c-13-10-28.8-15.5-45.4-15.5c-5.9,0-10.7,4.8-10.7,10.7c0,14.7,4.5,29.1,12.8,41.4c-14.3,16.7-24.4,35.3-29.7,54.6h-4.5
				C19.1,296.7,0,315.8,0,339.3c0,23.7,12,45.4,32.2,58l74.5,46.4v55.6c0,5.9,4.8,10.7,10.7,10.7H160c4,0,7.7-2.3,9.5-5.9l12.6-25.2
				c47.2,13,100.5,13,147.7,0l12.6,25.2c1.8,3.6,5.5,5.9,9.5,5.9h42.7c5.9,0,10.7-4.8,10.7-10.7v-56.5c40.8-30,64-71.3,64-114.2
				c0-15.5-3.1-30.5-8.6-44.7c7.2-8.1,14.7-18.6,20.3-32.2c6.5,1.5,13.4,2.3,20.3,2.3c5.9,0,10.7-4.8,10.7-10.7
				S507.2,232.7,501.3,232.7z M388.6,428.6c-2.9,2-4.6,5.3-4.6,8.8v51.3h-25.4l-13.7-27.3c-2.4-4.7-7.8-7-12.7-5.4
				c-48.2,15.1-104.1,15.1-152.4,0c-5-1.6-10.4,0.7-12.7,5.4l-13.7,27.3H128v-50.9c0-3.7-1.9-7.1-5-9.1l-79.5-49.5
				c-13.9-8.6-22.1-23.6-22.1-39.9c0-11.8,9.6-21.3,21.3-21.3h13c5.1,0,9.5-3.6,10.5-8.6c4.1-21,15.3-41.5,32.3-59.3
				c3.8-4,4-10.2,0.3-14.4c-6-6.8-10-14.6-12-22.9c9.3,2.2,17.9,6.9,25,13.7c3.7,3.6,9.2,4,13.4,1.2C160.9,203.4,207.4,190,256,190
				c105.9,0,192,62.2,192,138.7C448,366.6,426.9,402.1,388.6,428.6z M467.2,223.8c-11.9-6.7-19.2-16-19.2-23.2
				c0-5.9,4.8-10.7,10.7-10.7s10.7,4.8,10.7,10.7C469.3,209.1,468.5,216.8,467.2,223.8z"/>
		</g>
	</g>
</g>
<path d="M343.9,93.6L266.8,172c-3.9,3.9-10.2,4-14.1,0.1L174.2,95c-3.9-3.9-4-10.2-0.1-14.1c3.9-3.9,10.2-4,14.1-0.1l60.8,59.8V10
	c0-5.5,4.5-10,10-10s10,4.5,10,10v131.2l60.6-61.7c3.9-3.9,10.2-4,14.1-0.1C347.7,83.3,347.8,89.6,343.9,93.6z"/>
</svg>
