<?xml version="1.0" encoding="utf-8"?>
<!-- Generator: Adobe Illustrator 24.2.3, SVG Export Plug-In . SVG Version: 6.00 Build 0)  -->
<svg version="1.1" id="Layer_1" xmlns="http://www.w3.org/2000/svg" xmlns:xlink="http://www.w3.org/1999/xlink" x="0px" y="0px"
	 viewBox="0 0 86 86" style="enable-background:new 0 0 86 86;" xml:space="preserve">
<path d="M3.83,86c-0.06,0-0.12-0.01-0.17-0.01l-0.1,0l-0.1,0c-0.05,0-0.1,0-0.15,0.01c-1.38-0.03-2.5-1.17-2.5-2.56
	c0-0.03,0-0.31,0-0.31s0-0.05,0-0.06c0-0.03,0-0.13,0-0.13C0.89,75.99,2.52,69.1,5.53,63c3.12-6.33,7.59-11.47,12.93-14.84
	l3.78-2.39l-3.42-2.89c-5.51-4.65-8.67-11.44-8.67-18.61c0-13.43,10.93-24.36,24.36-24.36s24.36,10.93,24.36,24.36
	c0,7.18-3.16,13.96-8.67,18.61l-3.42,2.89l3.78,2.39c5.34,3.38,9.81,8.51,12.93,14.84c3.01,6.1,4.64,13,4.71,19.94c0,0,0,0.1,0,0.13
	c0,0.01,0,0.09,0,0.09c0,0.06,0,0.25,0,0.28c0,1.39-1.11,2.52-2.5,2.56c-0.05,0-0.1-0.01-0.15-0.01l-0.1,0l-0.1,0
	c-0.06,0-0.11,0-0.17,0.01H3.83z M34.52,48.62c-7.3,0-13.88,2.97-19.04,8.6c-4.49,4.9-7.67,11.67-8.94,19.05l-0.66,3.84h57.28
	l-0.66-3.84c-1.27-7.38-4.45-14.14-8.94-19.05C48.4,51.59,41.82,48.62,34.52,48.62z M34.52,5.01c-10.61,0-19.25,8.64-19.25,19.25
	S23.91,43.5,34.52,43.5s19.25-8.63,19.25-19.25S45.13,5.01,34.52,5.01z"/>
</svg>
