<?xml version="1.0" encoding="utf-8"?>
<!-- Generator: Adobe Illustrator 24.2.3, SVG Export Plug-In . SVG Version: 6.00 Build 0)  -->
<svg version="1.1" id="Capa_1" xmlns="http://www.w3.org/2000/svg" xmlns:xlink="http://www.w3.org/1999/xlink" x="0px" y="0px"
	 viewBox="0 0 512 512" style="enable-background:new 0 0 512 512;" xml:space="preserve">
<g>
	<g>
		<path d="M327.1,116.2c-5.9,0-10.6,4.8-10.6,10.6v0.2c0,5.9,4.8,10.6,10.6,10.6c5.9,0,10.6-4.8,10.6-10.6v-0.2
			C337.7,120.9,332.9,116.2,327.1,116.2z"/>
	</g>
</g>
<g>
	<g>
		<path d="M388.4,163.1V75.7c0-3.4-1.6-6.5-4.3-8.6c-2.7-2-6.2-2.6-9.4-1.6L136,138.6H75.1C35.9,138.6,4,170.5,4,209.7
			c0,37.1,28.6,67.6,64.8,70.8l23.4,112.3c3.8,18.5,20.3,31.9,39.2,31.9c12.1,0,23.4-5.4,31.1-14.8c7.6-9.4,10.6-21.6,8.1-33.4
			l-5.1-24.6c22.4-6.9,39.4-25.6,44.4-48.4l164.7,50.4c1,0.3,2.1,0.5,3.1,0.5c2.3,0,4.5-0.7,6.3-2.1c2.7-2,4.3-5.2,4.3-8.6v-87.3
			c21.3-4.9,37.2-23.9,37.2-46.7C425.7,187,409.7,167.9,388.4,163.1z M75.1,259.5c-27.5,0-49.8-22.3-49.8-49.8s22.3-49.8,49.8-49.8
			H127v99.6H77.6H75.1L75.1,259.5z M146,396.5c-3.6,4.4-8.9,6.9-14.5,6.9c-8.8,0-16.5-6.3-18.4-14.9L90.7,280.8H129l13.6,65.2l0,0
			l7.3,34.8C151,386.3,149.6,392.1,146,396.5z M161.2,330.9l-9.4-45.3l37.8,11.6C186.8,312.7,175.9,325.6,161.2,330.9z M367.2,329.3
			L367.2,329.3l-29.4-9V169.5c0-5.9-4.8-10.6-10.6-10.6c-5.9,0-10.6,4.8-10.6,10.6v144.3l-110.9-34c-1-0.5-2.2-0.9-3.3-1l-53.9-16.5
			V157.1l218.9-67L367.2,329.3L367.2,329.3z M388.4,234.1v-48.7c9.4,4.1,15.9,13.5,15.9,24.4C404.4,220.6,397.8,230,388.4,234.1z"/>
	</g>
</g>
<g>
	<g>
		<path d="M503.9,199.1h-47.5c-5.9,0-10.6,4.8-10.6,10.6c0,5.9,4.8,10.6,10.6,10.6h47.5c5.9,0,10.6-4.8,10.6-10.6
			C514.5,203.8,509.7,199.1,503.9,199.1z"/>
	</g>
</g>
<g>
	<g>
		<path d="M473.5,117c-3.5-4.7-10.1-5.8-14.9-2.3l-23.9,17.4c-4.7,3.5-5.8,10.1-2.3,14.9c2.1,2.9,5.3,4.4,8.6,4.4
			c2.2,0,4.4-0.7,6.3-2l23.9-17.4C475.9,128.4,477,121.7,473.5,117z"/>
	</g>
</g>
<g>
	<g>
		<path d="M471.2,287.6l-23.7-17.3c-4.7-3.5-11.4-2.4-14.9,2.3s-2.4,11.4,2.3,14.9l23.7,17.3c1.9,1.4,4.1,2,6.3,2
			c3.3,0,6.5-1.5,8.6-4.4C477,297.7,475.9,291,471.2,287.6z"/>
	</g>
</g>
</svg>
