<?xml version="1.0" encoding="utf-8"?>
<!-- Generator: Adobe Illustrator 24.2.3, SVG Export Plug-In . SVG Version: 6.00 Build 0)  -->
<svg version="1.1" id="Capa_1" xmlns="http://www.w3.org/2000/svg" xmlns:xlink="http://www.w3.org/1999/xlink" x="0px" y="0px"
	 viewBox="0 0 512 512" style="enable-background:new 0 0 512 512;" xml:space="preserve">
<g>
	<polygon points="186.5,4.1 60.2,4.1 49.3,47.5 175.6,47.5 	"/>
	<path d="M443.5,318.8c0-1.7,0.1-3.4,0.1-5.1c0-37.4-12.1-66.6-36.3-87.6c-24.2-21-59.2-31.5-104.9-31.5c-10.6,0-21.5,0.7-32.5,2.1
		c-11.1,1.4-20.5,2.8-28.4,4.2L272,55.5h195.2l10.4-51.2H228.3l-42.5,200.5H89.3l-8.7,43.4h95.9l-41.9,197.6H20.8L7.9,495.1h225.8
		l0.2-0.7c0.8,0,1.8,0,2.6,0c24.9,0,49.7-3.1,74.4-9.3s46.8-16.4,66.5-30.5c19.6-14.1,35.5-32.6,47.8-55.7
		c5.8-11,10.2-23.3,13.3-36.7h53.2l12.4-43.4H443.5z M373.6,378.5c-7.9,15.5-18,28-30.5,37.7s-26.5,16.9-42.2,21.5
		s-31.4,6.9-47.1,6.9c-11.1,0-23-0.2-35.7-0.7s-21.8-1.6-27.3-3.5L231,250.1c2.3-0.5,5.8-1,10.4-1.7c4.6-0.7,9.6-1.3,14.9-1.7
		c5.3-0.5,10.7-0.9,16.3-1.4c5.5-0.5,10.1-0.7,13.8-0.7c30.5,0,54.6,6,72.3,18c17.8,12,26.7,32.1,26.7,60.2
		C385.4,344.5,381.5,363,373.6,378.5z"/>
</g>
</svg>
