<?xml version="1.0" encoding="utf-8"?>
<!-- Generator: Adobe Illustrator 24.2.3, SVG Export Plug-In . SVG Version: 6.00 Build 0)  -->
<svg version="1.1" id="Layer_1" xmlns="http://www.w3.org/2000/svg" xmlns:xlink="http://www.w3.org/1999/xlink" x="0px" y="0px"
	 viewBox="0 0 86 86" style="enable-background:new 0 0 86 86;" xml:space="preserve">
<g>
	<g>
		<g>
			<path d="M82.27,67.91h-9.52c-1.55-5.15-6.28-8.94-11.93-8.94s-10.38,3.79-11.93,8.94H3.62c-1.97,0-3.57,1.6-3.57,3.58
				c0,1.97,1.6,3.57,3.57,3.57h45.27C50.43,80.21,55.17,84,60.82,84s10.38-3.79,11.93-8.94h9.52c1.98,0,3.57-1.6,3.57-3.57
				C85.84,69.51,84.24,67.91,82.27,67.91z M60.82,76.85c-2.96,0-5.36-2.41-5.36-5.36s2.41-5.36,5.36-5.36s5.36,2.41,5.36,5.36
				S63.77,76.85,60.82,76.85z"/>
		</g>
	</g>
	<g>
		<g>
			<path d="M82.27,10.71h-9.52c-1.55-5.15-6.28-8.94-11.93-8.94s-10.38,3.79-11.93,8.94H3.62c-1.97,0-3.57,1.6-3.57,3.57
				s1.6,3.57,3.57,3.57h45.27c1.55,5.15,6.28,8.94,11.93,8.94s10.38-3.79,11.93-8.94h9.52c1.98,0,3.57-1.6,3.57-3.57
				S84.24,10.71,82.27,10.71z M60.82,19.65c-2.96,0-5.36-2.41-5.36-5.36s2.41-5.36,5.36-5.36s5.36,2.41,5.36,5.36
				S63.77,19.65,60.82,19.65z"/>
		</g>
	</g>
	<g>
		<g>
			<path d="M82.27,39.31H37c-1.55-5.15-6.28-8.94-11.93-8.94s-10.38,3.79-11.93,8.94H3.62c-1.97,0-3.57,1.6-3.57,3.57
				s1.6,3.57,3.57,3.57h9.52c1.55,5.15,6.28,8.94,11.93,8.94S35.44,51.61,37,46.46h45.27c1.98,0,3.57-1.6,3.57-3.57
				C85.84,40.91,84.24,39.31,82.27,39.31z M25.07,48.25c-2.96,0-5.36-2.41-5.36-5.36c0-2.96,2.41-5.36,5.36-5.36
				s5.36,2.41,5.36,5.36C30.43,45.84,28.02,48.25,25.07,48.25z"/>
		</g>
	</g>
</g>
</svg>
