<?xml version="1.0" encoding="utf-8"?>
<!-- Generator: Adobe Illustrator 24.2.3, SVG Export Plug-In . SVG Version: 6.00 Build 0)  -->
<svg version="1.1" id="Layer_1" xmlns="http://www.w3.org/2000/svg" xmlns:xlink="http://www.w3.org/1999/xlink" x="0px" y="0px"
	 viewBox="0 0 86 86" style="enable-background:new 0 0 86 86;" xml:space="preserve">
<g>
	<g>
		<g>
			<path d="M42.8,0c-5.6,0-10.1,4.5-10.1,10.1c0,5.6,4.5,10.1,10.1,10.1c5.6,0,10.1-4.5,10.1-10.1S48.4,0,42.8,0z M42.8,17.3
				c-4,0-7.2-3.2-7.2-7.2c0-4,3.2-7.2,7.2-7.2c4,0,7.2,3.2,7.2,7.2S46.8,17.3,42.8,17.3z"/>
		</g>
	</g>
	<g>
		<g>
			<path d="M47.1,21.6h-8.6c-7.1,0-13,5.8-13,13V59h5.8v27.4h2.9V53.3h-2.9v2.9h-2.9V34.6c0-5.6,4.5-10.1,10.1-10.1h8.6
				c5.6,0,10.1,4.5,10.1,10.1v21.6h-2.9v-2.9h-2.9v33.1h2.9V59h5.8V34.5C60.1,27.4,54.3,21.6,47.1,21.6z"/>
		</g>
	</g>
	<g>
		<g>
			<rect x="41.4" y="59" width="2.9" height="27.4"/>
		</g>
	</g>
	<g>
		<g>
			<path d="M71.6,14.4c-4.8,0-8.6,3.9-8.6,8.6s3.9,8.6,8.6,8.6c4.8,0,8.6-3.9,8.6-8.6S76.4,14.4,71.6,14.4z M71.6,28.8
				c-3.2,0-5.8-2.6-5.8-5.8s2.6-5.8,5.8-5.8s5.8,2.6,5.8,5.8S74.8,28.8,71.6,28.8z"/>
		</g>
	</g>
	<g>
		<g>
			<path d="M75.9,33.1H63V36h13c4,0,7.2,3.2,7.2,7.2v18.7h-2.9V59h-2.9v27.4h2.9V64.8H86V43.2C86,37.6,81.5,33.1,75.9,33.1z"/>
		</g>
	</g>
	<g>
		<g>
			<polygon points="63,59 63,61.9 57.2,61.9 57.2,64.8 63,64.8 63,86.4 65.8,86.4 65.8,59 			"/>
		</g>
	</g>
	<g>
		<g>
			<rect x="70.2" y="64.8" width="2.9" height="21.6"/>
		</g>
	</g>
	<g>
		<g>
			<path d="M14,14.4c-4.8,0-8.6,3.9-8.6,8.6s3.9,8.6,8.6,8.6c4.8,0,8.6-3.9,8.6-8.6S18.8,14.4,14,14.4z M14,28.8
				c-3.2,0-5.8-2.6-5.8-5.8s2.6-5.8,5.8-5.8s5.8,2.6,5.8,5.8S17.2,28.8,14,28.8z"/>
		</g>
	</g>
	<g>
		<g>
			<path d="M9.7,33.1c-5.6,0-10.1,4.5-10.1,10.1v21.6h5.8v21.6h2.9V59H5.4v2.9H2.5V43.2c0-4,3.2-7.2,7.2-7.2h13v-2.9L9.7,33.1
				L9.7,33.1z"/>
		</g>
	</g>
	<g>
		<g>
			<polygon points="22.6,61.9 22.6,59 19.8,59 19.8,86.4 22.6,86.4 22.6,64.8 28.4,64.8 28.4,61.9 			"/>
		</g>
	</g>
	<g>
		<g>
			<rect x="12.6" y="64.8" width="2.9" height="21.6"/>
		</g>
	</g>
</g>
</svg>
