<?xml version="1.0" encoding="utf-8"?>
<!-- Generator: Adobe Illustrator 24.2.3, SVG Export Plug-In . SVG Version: 6.00 Build 0)  -->
<svg version="1.1" id="Layer_1" xmlns="http://www.w3.org/2000/svg" xmlns:xlink="http://www.w3.org/1999/xlink" x="0px" y="0px"
	 viewBox="0 0 86 86" style="enable-background:new 0 0 86 86;" xml:space="preserve">
<g>
	<g>
		<g>
			<path d="M42.81,0c-5.57,0-10.08,4.51-10.08,10.08c0.01,5.56,4.51,10.07,10.08,10.08c5.57,0,10.08-4.51,10.08-10.08
				S48.37,0,42.81,0z M42.81,17.28c-3.98,0-7.2-3.22-7.2-7.2c0-3.97,3.23-7.19,7.2-7.2c3.98,0,7.2,3.22,7.2,7.2
				S46.78,17.28,42.81,17.28z"/>
		</g>
	</g>
	<g>
		<g>
			<path d="M47.13,21.6h-8.64c-7.15,0.01-12.95,5.8-12.96,12.96v24.48h5.76v27.36h2.88V53.27h-2.88v2.88h-2.88v-21.6
				c0.01-5.56,4.51-10.07,10.08-10.08h8.64c5.56,0.01,10.07,4.51,10.08,10.08v21.6h-2.88v-2.88h-2.88v33.12h2.88V59.03h5.76V34.55
				C60.08,27.4,54.28,21.6,47.13,21.6z"/>
		</g>
	</g>
	<g>
		<g>
			<rect x="41.37" y="59.03" width="2.88" height="27.36"/>
		</g>
	</g>
	<g>
		<g>
			<path d="M71.6,14.4c-4.77,0-8.64,3.87-8.64,8.64c0,4.77,3.87,8.63,8.64,8.64c4.77,0,8.64-3.87,8.64-8.64S76.37,14.4,71.6,14.4z
				 M71.6,28.8c-3.18,0-5.76-2.58-5.76-5.76s2.58-5.76,5.76-5.76c3.18,0,5.76,2.58,5.76,5.76S74.78,28.8,71.6,28.8z"/>
		</g>
	</g>
	<g>
		<g>
			<path d="M75.92,33.12H62.96v2.88h12.96c3.97,0,7.19,3.23,7.2,7.2v18.72h-2.88v-2.88h-2.88v27.36h2.88v-21.6H86v-21.6
				C85.99,37.63,81.49,33.12,75.92,33.12z"/>
		</g>
	</g>
	<g>
		<g>
			<polygon points="62.96,59.03 62.96,61.91 57.2,61.91 57.2,64.79 62.96,64.79 62.96,86.39 65.84,86.39 65.84,59.03 			"/>
		</g>
	</g>
	<g>
		<g>
			<rect x="70.16" y="64.79" width="2.88" height="21.6"/>
		</g>
	</g>
	<g>
		<g>
			<path d="M14.01,14.4c-4.77,0-8.64,3.87-8.64,8.64c0,4.77,3.87,8.63,8.64,8.64c4.77,0,8.64-3.87,8.64-8.64S18.78,14.4,14.01,14.4z
				 M14.01,28.8c-3.18,0-5.76-2.58-5.76-5.76s2.58-5.76,5.76-5.76s5.76,2.58,5.76,5.76S17.19,28.8,14.01,28.8z"/>
		</g>
	</g>
	<g>
		<g>
			<path d="M9.69,33.12C4.13,33.12-0.38,37.63-0.39,43.19v21.6h5.76v21.6h2.88V59.03H5.37v2.88H2.49V43.19c0-3.97,3.23-7.19,7.2-7.2
				h12.96v-2.88H9.69z"/>
		</g>
	</g>
	<g>
		<g>
			<polygon points="22.65,61.91 22.65,59.03 19.77,59.03 19.77,86.39 22.65,86.39 22.65,64.79 28.41,64.79 28.41,61.91 			"/>
		</g>
	</g>
	<g>
		<g>
			<rect x="12.57" y="64.79" width="2.88" height="21.6"/>
		</g>
	</g>
</g>
</svg>
