<?xml version="1.0" encoding="utf-8"?>
<!-- Generator: Adobe Illustrator 24.2.3, SVG Export Plug-In . SVG Version: 6.00 Build 0)  -->
<svg version="1.1" id="Layer_1" xmlns="http://www.w3.org/2000/svg" xmlns:xlink="http://www.w3.org/1999/xlink" x="0px" y="0px"
	 viewBox="0 0 512 512" style="enable-background:new 0 0 512 512;" xml:space="preserve">
<style type="text/css">
	.st0{fill:#FFFFFF;stroke:#000000;stroke-width:3;stroke-miterlimit:10;}
	.st1{fill:#FFF56B;}
	.st2{fill:#FFE11C;}
	.st3{fill:#FFD52B;}
</style>
<circle class="st0" cx="256.5" cy="255.5" r="251"/>
<g>
	<g>
		<g>
			<g>
				<g>
					<g>
						<path class="st1" d="M162.8,274.6c-13,13-34.3,12.8-34.3,12.8s-0.2-21.3,12.8-34.3c13-13,34.3-12.8,34.3-12.8
							S175.8,261.6,162.8,274.6L162.8,274.6z"/>
						<path class="st2" d="M92.7,274.6c13,13,34.3,12.8,34.3,12.8s0.2-21.3-12.8-34.3c-13-13-34.3-12.8-34.3-12.8
							S79.6,261.6,92.7,274.6z"/>
					</g>
					<g>
						<path class="st1" d="M162.8,347c-13,13-34.3,12.8-34.3,12.8s-0.2-21.3,12.8-34.3c13-13,34.3-12.8,34.3-12.8
							S175.8,334,162.8,347z"/>
						<path class="st2" d="M92.7,347c13,13,34.3,12.8,34.3,12.8s0.2-21.3-12.8-34.3s-34.3-12.8-34.3-12.8S79.6,334,92.7,347z"/>
					</g>
					<g>
						<path class="st2" d="M162.8,383.4c-13,13-34.3,12.8-34.3,12.8s-0.2-21.3,12.8-34.3c13-13,34.3-12.8,34.3-12.8
							S175.8,370.4,162.8,383.4z"/>
						<path class="st1" d="M92.7,383.4c13,13,34.3,12.8,34.3,12.8s0.2-21.3-12.8-34.3c-13-13-34.3-12.8-34.3-12.8
							S79.6,370.4,92.7,383.4z"/>
					</g>
					<g>
						<path class="st2" d="M162.8,310.7c-13,13-34.3,12.8-34.3,12.8s-0.2-21.3,12.8-34.3c13-13,34.3-12.8,34.3-12.8
							S175.8,297.7,162.8,310.7z"/>
						<path class="st1" d="M92.7,310.7c13,13,34.3,12.8,34.3,12.8s0.2-21.3-12.8-34.3s-34.3-12.8-34.3-12.8S79.6,297.7,92.7,310.7z"
							/>
					</g>
					<path class="st3" d="M142.9,237.5c0,18.4-15.2,33.3-15.2,33.3s-15.2-14.9-15.2-33.3s15.2-33.3,15.2-33.3
						S142.9,219.1,142.9,237.5L142.9,237.5z"/>
				</g>
			</g>
			<g>
				<g>
					<path class="st1" d="M293.4,238.6c-13,13-34.3,12.8-34.3,12.8s-0.2-21.3,12.8-34.3c13-13,34.3-12.8,34.3-12.8
						S306.4,225.6,293.4,238.6L293.4,238.6z"/>
					<path class="st2" d="M223.3,238.6c13,13,34.3,12.8,34.3,12.8s0.2-21.3-12.8-34.3c-13-13-34.3-12.8-34.3-12.8
						S210.2,225.6,223.3,238.6L223.3,238.6z"/>
				</g>
				<g>
					<path class="st1" d="M293.4,311.1c-13,13-34.3,12.8-34.3,12.8s-0.2-21.3,12.8-34.3c13-13,34.3-12.8,34.3-12.8
						S306.4,298.1,293.4,311.1z"/>
					<path class="st2" d="M223.3,311.1c13,13,34.3,12.8,34.3,12.8s0.2-21.3-12.8-34.3c-13-13-34.3-12.8-34.3-12.8
						S210.2,298.1,223.3,311.1L223.3,311.1z"/>
				</g>
				<g>
					<path class="st2" d="M293.4,347.5c-13,13-34.3,12.8-34.3,12.8s-0.2-21.3,12.8-34.3c13-13,34.3-12.8,34.3-12.8
						S306.4,334.5,293.4,347.5z"/>
					<path class="st1" d="M223.3,347.5c13,13,34.3,12.8,34.3,12.8s0.2-21.3-12.8-34.3c-13-13-34.3-12.8-34.3-12.8
						S210.2,334.5,223.3,347.5L223.3,347.5z"/>
				</g>
				<g>
					<path class="st1" d="M293.4,383.9c-13,13-34.3,12.8-34.3,12.8s-0.2-21.3,12.8-34.3c13-13,34.3-12.8,34.3-12.8
						S306.4,370.9,293.4,383.9L293.4,383.9z"/>
					<path class="st2" d="M223.3,383.9c13,13,34.3,12.8,34.3,12.8s0.2-21.3-12.8-34.3c-13-13-34.3-12.8-34.3-12.8
						S210.2,370.9,223.3,383.9L223.3,383.9z"/>
				</g>
				<g>
					<path class="st2" d="M293.4,274.8c-13,13-34.3,12.8-34.3,12.8s-0.2-21.3,12.8-34.3c13-13,34.3-12.8,34.3-12.8
						S306.4,261.8,293.4,274.8z"/>
					<path class="st1" d="M223.3,274.8c13,13,34.3,12.8,34.3,12.8s0.2-21.3-12.8-34.3c-13-13-34.3-12.8-34.3-12.8
						S210.2,261.8,223.3,274.8L223.3,274.8z"/>
				</g>
			</g>
			<g>
				<path class="st3" d="M400.5,237.5c0,18.4-15.2,33.3-15.2,33.3s-15.2-14.9-15.2-33.3s15.2-33.3,15.2-33.3
					S400.5,219.1,400.5,237.5L400.5,237.5z"/>
				<g>
					<path class="st1" d="M420.4,274.6c-13,13-34.3,12.8-34.3,12.8s-0.2-21.3,12.8-34.3c13-13,34.3-12.8,34.3-12.8
						S433.4,261.6,420.4,274.6L420.4,274.6z"/>
					<path class="st2" d="M350.3,274.6c13,13,34.3,12.8,34.3,12.8s0.2-21.3-12.8-34.3c-13-13-34.3-12.8-34.3-12.8
						S337.2,261.6,350.3,274.6L350.3,274.6z"/>
				</g>
				<g>
					<path class="st1" d="M420.4,347c-13,13-34.3,12.8-34.3,12.8s-0.2-21.3,12.8-34.3c13-13,34.3-12.8,34.3-12.8
						S433.4,334,420.4,347z"/>
					<path class="st2" d="M350.3,347c13,13,34.3,12.8,34.3,12.8s0.2-21.3-12.8-34.3c-13-13-34.3-12.8-34.3-12.8S337.2,334,350.3,347
						z"/>
				</g>
				<g>
					<path class="st2" d="M420.4,383.4c-13,13-34.3,12.8-34.3,12.8s-0.2-21.3,12.8-34.3c13-13,34.3-12.8,34.3-12.8
						S433.4,370.4,420.4,383.4z"/>
					<path class="st1" d="M350.3,383.4c13,13,34.3,12.8,34.3,12.8s0.2-21.3-12.8-34.3c-13-13-34.3-12.8-34.3-12.8
						S337.2,370.4,350.3,383.4z"/>
				</g>
				<g>
					<path class="st2" d="M420.4,310.7c-13,13-34.3,12.8-34.3,12.8s-0.2-21.3,12.8-34.3c13-13,34.3-12.8,34.3-12.8
						S433.4,297.7,420.4,310.7z"/>
					<path class="st1" d="M350.3,310.7c13,13,34.3,12.8,34.3,12.8s0.2-21.3-12.8-34.3c-13-13-34.3-12.8-34.3-12.8
						S337.2,297.7,350.3,310.7z"/>
				</g>
			</g>
		</g>
	</g>
	<g>
		<path d="M306.2,113.1c-2.9,0-5.3,2.4-5.3,5.3v80.8c-5.4,0.6-14,2.1-22.2,6.4c0.1-1.4,0.2-2.7,0.2-4.1c0-16.8-11-30.7-15.2-35.4
			V78.8c0-2.9-2.4-5.3-5.3-5.3c-2.9,0-5.3,2.4-5.3,5.3v87.3c-4.2,4.7-15.2,18.6-15.2,35.4c0,1.4,0.1,2.8,0.2,4.1
			c-8.2-4.3-16.8-5.8-22.2-6.4v-80.8c0-2.9-2.4-5.3-5.3-5.3c-2.9,0-5.3,2.4-5.3,5.3v85.9v0c0,1.2,0.1,17.4,8.7,31
			c-2-0.1-3.2-0.1-3.4-0.1c-2.9,0-5.2,2.4-5.3,5.3c0,0.8,0,17.4,8.8,31.2c-2-0.2-3.3-0.1-3.5-0.1c-2.9,0-5.2,2.4-5.3,5.3
			c0,0.8,0,17.5,8.9,31.3c-2.1-0.2-3.4-0.2-3.6-0.2c-2.9,0-5.2,2.4-5.3,5.3c0,0.8,0,17.5,8.9,31.3c-2.1-0.2-3.4-0.2-3.6-0.2
			c-2.9,0-5.2,2.4-5.3,5.3c0,1-0.1,23.7,14.4,38.1c10.7,10.7,25.9,13.4,33.5,14.1v30.4c0,2.9,2.4,5.3,5.3,5.3c2.9,0,5.3-2.4,5.3-5.3
			v-30.4c7.6-0.7,22.8-3.4,33.5-14.1c14.4-14.4,14.4-37.2,14.4-38.1c0-2.9-2.4-5.2-5.3-5.3c-0.2,0-1.5,0-3.6,0.2
			c8.9-13.8,8.9-30.5,8.9-31.3c0-2.9-2.4-5.2-5.3-5.3c-0.2,0-1.5,0-3.6,0.1c8.9-13.8,8.9-30.5,8.9-31.3c0-2.9-2.4-5.2-5.3-5.3
			c-0.2,0-1.5,0-3.5,0.1c8.9-13.8,8.8-30.4,8.8-31.2c0-2.9-2.4-5.2-5.3-5.3c-0.2,0-1.5,0-3.4,0.1c8.6-13.6,8.7-29.7,8.7-31
			c0,0,0,0,0,0v-85.9C311.5,115.5,309.1,113.1,306.2,113.1L306.2,113.1z M227,380.1c-7.4-7.4-9.9-18.2-10.8-24.8
			c6.6,0.8,17.3,3.4,24.8,10.8c7.4,7.4,9.9,18.2,10.8,24.8C245.3,390.1,234.5,387.6,227,380.1L227,380.1z M216.2,319
			c6.6,0.9,17.4,3.4,24.8,10.8c7.4,7.4,9.9,18.2,10.8,24.7c-6.6-0.9-17.4-3.4-24.8-10.8C219.6,336.3,217.1,325.5,216.2,319z
			 M227,307.3c-7.4-7.4-9.9-18.2-10.8-24.7c8.9,1.2,18.3,4.3,24.8,10.8c7.4,7.4,9.9,18.2,10.8,24.8
			C245.3,317.3,234.5,314.7,227,307.3L227,307.3z M216.2,246.3c8.9,1.2,18.3,4.3,24.8,10.8c7.4,7.4,9.9,18.2,10.8,24.7
			c-8.9-1.2-18.3-4.3-24.8-10.8C219.6,263.6,217.1,252.8,216.2,246.3L216.2,246.3z M239,242.4c-4.5-2.5-8.3-3.9-12-7.6
			c-7.4-7.4-9.9-18.2-10.8-24.8c6.6,0.8,17.3,3.4,24.8,10.8c6.4,6.4,9.6,15.9,10.8,24.8C248.4,245.2,243.7,244.3,239,242.4z
			 M263.2,219.3c-5.8,8.6-3.7,8.7-9.8-0.2c-2.7-4.9-4.9-11-4.9-17.5c0-10.5,5.9-19.9,9.9-25.1c4,5.2,9.9,14.6,9.9,25.1
			C268.2,208.1,265.9,214.3,263.2,219.3z M289.6,380.1c-7.4,7.4-18.2,9.9-24.8,10.8c0.9-6.5,3.4-17.3,10.8-24.7
			c7.4-7.4,18.2-9.9,24.8-10.8C299.5,361.9,297,372.7,289.6,380.1z M289.6,343.7c-7.4,7.4-18.2,9.9-24.8,10.8
			c0.9-6.5,3.4-17.3,10.8-24.7c7.4-7.4,18.2-9.9,24.8-10.8C299.5,325.5,297,336.3,289.6,343.7z M289.6,307.3
			c-7.4,7.4-18.2,9.9-24.8,10.8c0.9-6.5,3.4-17.3,10.8-24.7c6.5-6.5,15.9-9.6,24.8-10.8C299.5,289.1,297,299.9,289.6,307.3
			L289.6,307.3z M289.6,271c-6.5,6.5-15.9,9.6-24.8,10.8c0.9-6.5,3.4-17.3,10.8-24.7c6.4-6.4,16-9.6,24.8-10.8
			C299.5,252.8,297,263.6,289.6,271L289.6,271z M289.6,234.8c-6.4,6.4-16,9.6-24.8,10.8c1.1-8.8,4.4-18.3,10.8-24.7
			c7.4-7.4,18.2-9.9,24.8-10.8C299.5,216.6,297,227.4,289.6,234.8z"/>
		<path d="M282.6,176c2.9,0,5.3-2.4,5.3-5.3v-69.3c0-2.9-2.4-5.3-5.3-5.3c-2.9,0-5.3,2.4-5.3,5.3v69.3
			C277.3,173.6,279.7,176,282.6,176z"/>
		<path d="M234,176c2.9,0,5.3-2.4,5.3-5.3v-69.3c0-2.9-2.4-5.3-5.3-5.3s-5.3,2.4-5.3,5.3v69.3C228.7,173.6,231.1,176,234,176z"/>
		<path d="M438.5,276.4c0-2.9-2.4-5.2-5.3-5.3c-0.2,0-1.5,0-3.4,0.1c8.8-13.8,8.7-30.2,8.7-31v-85.8c0-2.9-2.4-5.3-5.3-5.3
			c-2.9,0-5.3,2.4-5.3,5.3v80.8c-5.4,0.6-14,2.1-22.2,6.4c0.1-1.4,0.2-2.7,0.2-4.1c0-16.8-11-30.7-15.2-35.4v-87.3
			c0-2.9-2.4-5.3-5.3-5.3c-2.9,0-5.3,2.4-5.3,5.3v87.3c-4.2,4.7-15.2,18.6-15.2,35.4c0,1.4,0.1,2.8,0.2,4.1
			c-8.2-4.3-16.8-5.8-22.2-6.4v-80.8c0-2.9-2.4-5.3-5.3-5.3c-2.9,0-5.3,2.4-5.3,5.3v85.8c0,0.8,0,17.3,8.7,31
			c-2-0.1-3.2-0.1-3.4-0.1c-2.9,0-5.2,2.4-5.3,5.3c0,0.8,0,17.4,8.8,31.2c-2-0.2-3.3-0.1-3.5-0.1c-2.9,0-5.2,2.4-5.3,5.3
			c0,0.8,0,17.4,8.9,31.3c-2.1-0.2-3.4-0.2-3.6-0.1c-2.9,0-5.2,2.4-5.3,5.3c0,1-0.1,23.7,14.4,38.1c10.7,10.7,25.9,13.4,33.5,14.1
			v30.9c0,2.9,2.4,5.3,5.3,5.3c2.9,0,5.3-2.4,5.3-5.3v-30.9c3.7-0.3,9.3-1.2,15.3-3.2c2.8-0.9,4.3-4,3.3-6.8c-0.9-2.8-4-4.3-6.8-3.3
			c-4,1.3-7.8,2.1-10.7,2.4c0.9-6.5,3.4-17.3,10.8-24.7c7.4-7.4,18.2-9.9,24.8-10.8c-0.7,4.9-2.2,12.3-6.1,18.7
			c-1.5,2.5-0.7,5.8,1.8,7.3c2.5,1.5,5.8,0.7,7.3-1.8c8.2-13.6,8.1-29.4,8.1-30.1c0-2.9-2.4-5.3-5.3-5.3c-0.2,0-1.5,0-3.6,0.1
			c8.9-13.8,8.9-30.5,8.9-31.3c0-2.9-2.4-5.2-5.3-5.3c-0.2,0-1.5,0-3.5,0.1C438.5,293.8,438.5,277.2,438.5,276.4L438.5,276.4z
			 M399.3,260.8c1-1.4,2.1-2.7,3.3-4c7.4-7.4,18.2-9.9,24.8-10.8c-0.9,6.6-3.4,17.4-10.8,24.7c-6.4,6.4-16,9.6-24.8,10.8
			C392.8,273.9,395.5,267.5,399.3,260.8L399.3,260.8z M368,256.8c6.4,6.4,9.6,15.9,10.8,24.7c-8.9-1.2-18.3-4.3-24.8-10.8
			c-7.4-7.4-9.9-18.2-10.8-24.8C349.8,246.9,360.6,249.4,368,256.8z M357,322.1c4.1,2.1,7.7,3.9,11,7.2c7.4,7.4,9.9,18.2,10.8,24.7
			c-6.6-0.9-17.4-3.4-24.8-10.8c-7.4-7.4-9.9-18.2-10.8-24.8C346.9,319,352,320,357,322.1z M354,379.7c-7.4-7.4-9.9-18.2-10.8-24.7
			c6.6,0.9,17.4,3.4,24.8,10.8c7.4,7.4,9.9,18.2,10.8,24.8C372.3,389.6,361.5,387.1,354,379.7L354,379.7z M365.1,314.2
			c-4.1-2.1-7.8-3.9-11.1-7.2c-7.4-7.4-9.9-18.2-10.8-24.7c8.9,1.2,18.3,4.3,24.8,10.8c7.4,7.4,9.9,18.2,10.8,24.8
			C375.1,317.3,370.1,316.3,365.1,314.2L365.1,314.2z M390.2,255.2c-1.4,2.6-3,5.1-4.8,7.4c-5.5-7.1-9.9-16-9.9-25.1
			c0-10.4,5.9-19.9,9.9-25.1c4,5.3,9.9,14.7,9.9,25.1C395.2,244.1,392.9,250.3,390.2,255.2L390.2,255.2z M416.6,343.3
			c-7.4,7.4-18.2,9.9-24.8,10.8c0.9-6.6,3.4-17.4,10.8-24.7c6.5-6.5,15.9-9.6,24.8-10.8C426.6,325.1,424,335.8,416.6,343.3
			L416.6,343.3z M416.6,307c-6.5,6.5-15.9,9.6-24.8,10.8c0.9-6.5,3.4-17.3,10.8-24.7c6.4-6.4,16-9.6,24.8-10.8
			C426.6,288.8,424,299.5,416.6,307z"/>
		<path d="M409.6,211.9c2.9,0,5.3-2.4,5.3-5.3v-69.3c0-2.9-2.4-5.3-5.3-5.3s-5.3,2.4-5.3,5.3v69.3
			C404.3,209.5,406.7,211.9,409.6,211.9z"/>
		<path d="M361,211.9c2.9,0,5.3-2.4,5.3-5.3v-69.3c0-2.9-2.4-5.3-5.3-5.3c-2.9,0-5.3,2.4-5.3,5.3v69.3
			C355.7,209.5,358.1,211.9,361,211.9z"/>
		<path d="M180.9,276.4c0-2.9-2.4-5.2-5.3-5.3c-0.2,0-1.5,0-3.4,0.1c8.6-13.6,8.7-29.8,8.7-31c0,0,0,0,0,0v-85.9
			c0-2.9-2.4-5.3-5.3-5.3c-2.9,0-5.3,2.4-5.3,5.3v80.8c-5.4,0.6-14,2.1-22.2,6.4c1.5-14.5-5.5-28.9-15-39.5v-87.3
			c0-2.9-2.4-5.3-5.3-5.3s-5.3,2.4-5.3,5.3v87.3c-1.8,2-4.8,5.7-7.7,10.5c-1.5,2.5-0.7,5.8,1.8,7.3c2.5,1.5,5.8,0.7,7.3-1.8
			c1.3-2.2,2.7-4.1,3.9-5.7c4,5.3,9.9,14.7,9.9,25.1c0,6.6-2.3,12.8-5.1,17.7c-5.3,7.8-4.2,8-9.8-0.1c-2-3.7-3.8-8.2-4.6-13
			c-0.5-2.9-3.2-4.9-6.1-4.4c-2.2,0.4-3.9,2-4.4,4.1c-8.3-4.4-17.1-6-22.5-6.6v-80.8c0-2.9-2.4-5.3-5.3-5.3s-5.3,2.4-5.3,5.3v85.9v0
			c0,1.2,0.1,17.4,8.7,31c-2-0.1-3.2-0.1-3.4-0.1c-2.9,0-5.2,2.4-5.3,5.3c0,0.8,0,17.4,8.8,31.2c-2-0.2-3.3-0.1-3.5-0.1
			c-2.9,0-5.2,2.4-5.3,5.3c0,0.8,0,17.5,8.9,31.3c-2.1-0.2-3.4-0.2-3.6-0.2c-2.9,0-5.2,2.4-5.3,5.3c0,1-0.1,23.7,14.4,38.1
			c10.7,10.7,25.9,13.4,33.5,14.1v30.9c0,2.9,2.4,5.3,5.3,5.3s5.3-2.4,5.3-5.3v-30.9c7.6-0.7,22.8-3.4,33.5-14.1
			c14.4-14.4,14.4-37.2,14.4-38.1c0-2.9-2.4-5.2-5.3-5.3c-0.2,0-1.5,0-3.6,0.2c8.9-13.8,8.9-30.5,8.9-31.3c0-2.9-2.4-5.2-5.3-5.3
			c-0.2,0-1.5,0-3.5,0.1C180.9,293.8,180.9,277.2,180.9,276.4L180.9,276.4z M96.4,379.7c-7.4-7.4-9.9-18.2-10.8-24.8
			c6.6,0.8,17.3,3.4,24.8,10.8c7.4,7.4,9.9,18.2,10.8,24.8C114.7,389.6,103.9,387.1,96.4,379.7L96.4,379.7z M96.4,343.3
			c-7.4-7.4-9.9-18.2-10.8-24.8c8.9,1.2,18.3,4.3,24.8,10.8c7.4,7.4,9.9,18.2,10.8,24.8C114.7,353.2,103.9,350.7,96.4,343.3z
			 M107.5,314.2c-4.1-2.1-7.8-3.9-11.1-7.2c-7.4-7.4-9.9-18.2-10.8-24.8c8.9,1.1,18.3,4.3,24.8,10.8c7.4,7.4,9.9,18.2,10.8,24.8
			C117.5,317.3,112.5,316.3,107.5,314.2L107.5,314.2z M108.4,278.4c-4.5-2.5-8.3-3.9-12-7.6c-7.4-7.4-9.9-18.2-10.8-24.8
			c6.6,0.8,17.3,3.4,24.8,10.8c6.4,6.4,9.6,15.9,10.8,24.8C117.8,281.1,113.1,280.2,108.4,278.4z M139.2,264.9
			c1.5-3,3.5-5.7,5.8-8.1c7.4-7.4,18.2-9.9,24.8-10.8c-0.9,6.6-3.4,17.4-10.8,24.7c-6.4,6.4-16,9.6-24.8,10.8
			C134.8,277.2,136.1,270.9,139.2,264.9z M159,379.7c-7.4,7.4-18.2,9.9-24.8,10.8c0.9-6.5,3.4-17.3,10.8-24.7
			c7.4-7.4,18.2-9.9,24.8-10.8C168.9,361.5,166.4,372.2,159,379.7z M159,343.3c-7.4,7.4-18.2,9.9-24.8,10.8
			c0.9-6.6,3.4-17.4,10.8-24.7c6.5-6.5,15.9-9.6,24.8-10.8C168.9,325.1,166.4,335.8,159,343.3L159,343.3z M159,307
			c-6.5,6.5-15.9,9.6-24.8,10.8c0.9-6.5,3.4-17.3,10.8-24.7c6.4-6.4,16-9.6,24.8-10.8C168.9,288.8,166.4,299.5,159,307z"/>
		<path d="M152,211.9c2.9,0,5.3-2.4,5.3-5.3v-69.3c0-2.9-2.4-5.3-5.3-5.3s-5.3,2.4-5.3,5.3v69.3C146.7,209.5,149,211.9,152,211.9z"
			/>
		<path d="M103.4,211.9c2.9,0,5.3-2.4,5.3-5.3v-69.3c0-2.9-2.4-5.3-5.3-5.3c-2.9,0-5.3,2.4-5.3,5.3v69.3
			C98.1,209.5,100.5,211.9,103.4,211.9z"/>
	</g>
</g>
</svg>
