<?xml version="1.0" encoding="utf-8"?>
<!-- Generator: Adobe Illustrator 24.2.3, SVG Export Plug-In . SVG Version: 6.00 Build 0)  -->
<svg version="1.1" id="Layer_1" xmlns="http://www.w3.org/2000/svg" xmlns:xlink="http://www.w3.org/1999/xlink" x="0px" y="0px"
	 viewBox="0 0 86 86" style="enable-background:new 0 0 86 86;" xml:space="preserve">
<style type="text/css">
	.st0{fill:#FFFFFF;}
	.st1{fill:#41596B;}
</style>
<g>
	<g>
		<path class="st0" d="M42.52,85.47c-10.24,0-20.12-3.74-27.82-10.53C5.7,66.96,0.53,55.5,0.53,43.48
			C0.53,20.33,19.37,1.5,42.52,1.5S84.5,20.33,84.5,43.48c0,12.02-5.16,23.48-14.17,31.44C62.66,81.72,52.78,85.47,42.52,85.47z"/>
		<path d="M42.52,2C65.39,2,84,20.61,84,43.48c0,11.88-5.1,23.2-14,31.06c-7.58,6.72-17.34,10.42-27.49,10.42
			c-10.12,0-19.88-3.7-27.49-10.4c-8.9-7.88-14-19.21-14-31.08C1.03,20.61,19.64,2,42.52,2 M42.52,1C19.05,1,0.03,20.02,0.03,43.48
			c0,12.66,5.54,24.04,14.33,31.83c7.51,6.62,17.36,10.65,28.15,10.65c10.8,0,20.66-4.03,28.15-10.67C79.46,67.52,85,56.15,85,43.48
			C85,20.02,65.98,1,42.52,1L42.52,1z"/>
	</g>
	<path class="st1" d="M67.34,71.85c-2.17-1.62-6.12-4.32-10.42-6.31c-4.3-1.97-6.82-6.61-6.14-11.27c0-0.07,0.02-0.13,0.03-0.22
		c0,0,9.78-6.62,8.43-13.08c0,0,0.3,0.02,0.75-0.02c4.32-0.4,4.58-6.82,0.32-7.51c-0.03,0-0.08-0.02-0.12-0.02l-0.13-0.7
		c1.3-4.57,4.48-18.4-5.13-17.06c0,0-6.91-11.42-21.51-5.92c-14.62,5.49-10.8,18.58-10.8,18.58l1.81,5.22
		c-3.93,0.97-3.56,7.04,0.62,7.43c0.45,0.03,0.77,0.02,0.77,0.02c-1.37,6.46,8.41,13.08,8.41,13.08c0.02,0.08,0.02,0.15,0.03,0.22
		c0.67,4.67-1.86,9.3-6.14,11.27c-4.32,1.99-8.25,4.7-10.42,6.31c-1.3,0.95-2.46,2.11-3.35,3.46c7.53,6.61,17.38,10.64,28.17,10.64
		c10.8,0,20.66-4.03,28.15-10.67C69.8,73.96,68.64,72.8,67.34,71.85z"/>
</g>
</svg>
