<?xml version="1.0" encoding="utf-8"?>
<!-- Generator: Adobe Illustrator 24.2.3, SVG Export Plug-In . SVG Version: 6.00 Build 0)  -->
<svg version="1.1" id="Layer_1" xmlns="http://www.w3.org/2000/svg" xmlns:xlink="http://www.w3.org/1999/xlink" x="0px" y="0px"
	 viewBox="0 0 68 76" style="enable-background:new 0 0 68 76;" xml:space="preserve">
<path d="M68.49,48.39h-8.36c-1.02-3.71-2.98-6.85-5.9-9.41c-4.53-3.96-10.7-5.96-18.5-6L19.5,32.89L19.91,7.4h31.88v-7.59
	L10.97,0.18L10.8,32.85L0.7,32.79l-0.03,6.34l10.1,0.05l-0.08,15.28H0.18v6.07h10.48l-0.08,16.15l24.93,0.13
	c8.02,0.04,14.26-1.88,18.73-5.76c4.46-3.88,6.71-9.22,6.74-16.03c0-0.19-0.02-0.37-0.02-0.56h7.54V48.39z M34.46,69.72l-15.04-0.08
	l0.16-30.41l14.83,0.08c5.94,0.03,10.43,1.31,13.46,3.83c3.03,2.52,4.53,6.29,4.51,11.31C52.32,64.69,46.35,69.78,34.46,69.72z"/>
</svg>
