<?xml version="1.0" encoding="utf-8"?>
<!-- Generator: Adobe Illustrator 24.2.3, SVG Export Plug-In . SVG Version: 6.00 Build 0)  -->
<svg version="1.1" id="Layer_1" xmlns="http://www.w3.org/2000/svg" xmlns:xlink="http://www.w3.org/1999/xlink" x="0px" y="0px"
	 viewBox="0 0 86 86" style="enable-background:new 0 0 86 86;" xml:space="preserve">
<g>
	<path d="M84.29,22.59c-0.94,0-1.71-0.77-1.71-1.71V6.84c0-1.89-1.54-3.43-3.43-3.43H65.12c-0.94,0-1.71-0.77-1.71-1.71
		S64.17,0,65.12,0h14.04C82.93,0,86,3.07,86,6.84v14.04C86,21.83,85.23,22.59,84.29,22.59z"/>
	<path d="M2.11,22.59c-0.94,0-1.71-0.77-1.71-1.71V6.84C0.4,3.07,3.47,0,7.25,0h14.04c0.94,0,1.71,0.77,1.71,1.71
		s-0.77,1.71-1.71,1.71H7.25c-1.89,0-3.43,1.54-3.43,3.43v14.04C3.82,21.83,3.05,22.59,2.11,22.59z"/>
	<path d="M7.25,85.6c-3.77,0-6.84-3.07-6.84-6.84V64.71c0-0.94,0.77-1.71,1.71-1.71s1.71,0.77,1.71,1.71v14.04
		c0,1.89,1.54,3.43,3.43,3.43h14.04c0.94,0,1.71,0.77,1.71,1.71c0,0.94-0.77,1.71-1.71,1.71H7.25z"/>
	<path d="M65.12,85.6c-0.94,0-1.71-0.77-1.71-1.71c0-0.94,0.77-1.71,1.71-1.71h14.04c1.89,0,3.43-1.54,3.43-3.43V64.71
		c0-0.94,0.77-1.71,1.71-1.71c0.94,0,1.71,0.77,1.71,1.71v14.04c0,3.77-3.07,6.84-6.84,6.84H65.12z"/>
	<path d="M64.09,74.64c-1.89,0-3.42-1.53-3.42-3.42v-7.54H50.39c-1.89,0-3.42-1.53-3.42-3.42V49.99c0-1.89,1.53-3.42,3.42-3.42
		h10.27c1.89,0,3.42,1.53,3.42,3.42v10.28h7.54c1.89,0,3.42,1.53,3.42,3.42v7.53c0,1.89-1.53,3.42-3.42,3.42H64.09z M65.97,63.68
		c-1.04,0-1.89,0.85-1.89,1.89v3.77c0,1.04,0.85,1.89,1.89,1.89h3.77c1.04,0,1.89-0.85,1.89-1.89v-3.77c0-1.04-0.85-1.89-1.89-1.89
		H65.97z"/>
	<path d="M18.21,39.03c-3.77,0-6.84-3.07-6.84-6.84V17.8c0-3.77,3.07-6.84,6.84-6.84h14.38c3.77,0,6.84,3.07,6.84,6.84v14.38
		c0,3.77-3.07,6.84-6.84,6.84H18.21z M24.03,19.85c-2.08,0-3.77,1.69-3.77,3.77v2.74c0,2.08,1.69,3.77,3.77,3.77h2.74
		c2.08,0,3.77-1.69,3.77-3.77v-2.74c0-2.08-1.69-3.77-3.77-3.77H24.03z"/>
	<path d="M53.82,39.03c-3.77,0-6.84-3.07-6.84-6.84V17.8c0-3.77,3.07-6.84,6.84-6.84H68.2c3.77,0,6.84,3.07,6.84,6.84v14.38
		c0,3.77-3.07,6.84-6.84,6.84H53.82z M59.64,19.85c-2.08,0-3.77,1.69-3.77,3.77v2.74c0,2.08,1.69,3.77,3.77,3.77h2.74
		c2.08,0,3.77-1.69,3.77-3.77v-2.74c0-2.08-1.69-3.77-3.77-3.77H59.64z"/>
	<path d="M18.21,74.64c-3.77,0-6.84-3.07-6.84-6.84V53.41c0-3.77,3.07-6.84,6.84-6.84h14.38c3.77,0,6.84,3.07,6.84,6.84v14.38
		c0,3.77-3.07,6.84-6.84,6.84H18.21z M24.03,55.46c-2.08,0-3.77,1.69-3.77,3.77v2.74c0,2.08,1.69,3.77,3.77,3.77h2.74
		c2.08,0,3.77-1.69,3.77-3.77v-2.74c0-2.08-1.69-3.77-3.77-3.77H24.03z"/>
</g>
</svg>
