<?xml version="1.0" encoding="utf-8"?>
<!-- Generator: Adobe Illustrator 24.2.3, SVG Export Plug-In . SVG Version: 6.00 Build 0)  -->
<svg version="1.1" id="Layer_1" xmlns="http://www.w3.org/2000/svg" xmlns:xlink="http://www.w3.org/1999/xlink" x="0px" y="0px"
	 viewBox="0 0 86.2 86" style="enable-background:new 0 0 86.2 86;" xml:space="preserve">
<g>
	<path d="M33.3,22.8c-6.5,0-12.4,2-17.4,5.3V7.9c0-3.8-3.1-6.8-6.8-6.8c-4,0-6.9,3-6.9,6.8v70.3c0,3.8,3,6.8,6.8,6.8
		c3.3,0,6.1-2.3,6.6-5.5c5,3.5,11.1,5.5,17.5,5.5c17.2,0,31.1-13.9,31.1-31.1C64.4,36.7,50.5,22.8,33.3,22.8 M33.6,71.3
		c-9.4,0-17.2-7.8-17.2-17.4S24,36.6,33.6,36.6c9.4,0,17.2,7.8,17.2,17.4C50.7,63.5,43,71.3,33.6,71.3"/>
	<path d="M77.8,1.1c-3.8,0-6.8,2.5-6.8,5.6v25.3v0.8v25.3c0,3.1,3,5.6,6.8,5.6s6.8-2.5,6.8-5.6V32.7v-0.3V6.7
		C84.5,3.6,81.6,1.1,77.8,1.1z"/>
	<circle cx="77.8" cy="77.6" r="7.4"/>
</g>
</svg>
