<?xml version="1.0" encoding="utf-8"?>
<!-- Generator: Adobe Illustrator 24.2.3, SVG Export Plug-In . SVG Version: 6.00 Build 0)  -->
<svg version="1.1" id="Layer_1" xmlns="http://www.w3.org/2000/svg" xmlns:xlink="http://www.w3.org/1999/xlink" x="0px" y="0px"
	 viewBox="0 0 86.2 86" style="enable-background:new 0 0 86.2 86;" xml:space="preserve">
<style type="text/css">
	.st0{fill:#FFFFFF;stroke:#000000;stroke-miterlimit:10;}
	.st1{fill:#5520C6;}
</style>
<circle class="st0" cx="43.1" cy="43.1" r="43.1"/>
<g>
	<path class="st1" d="M36,29.3c-4.4,0-8.5,1.4-11.8,3.6V19.1c0-2.6-2.1-4.6-4.6-4.6c-2.7,0-4.7,2-4.7,4.6V67c0,2.6,2,4.6,4.6,4.6
		c2.2,0,4.2-1.6,4.5-3.7c3.4,2.4,7.5,3.7,11.9,3.7c11.7,0,21.2-9.5,21.2-21.2C57.2,38.7,47.7,29.3,36,29.3 M36.2,62.3
		c-6.4,0-11.7-5.3-11.7-11.8s5.2-11.8,11.7-11.8c6.4,0,11.7,5.3,11.7,11.8C47.8,57,42.6,62.3,36.2,62.3"/>
	<path class="st1" d="M66.3,14.5c-2.6,0-4.6,1.7-4.6,3.8v17.3v0.6v17.3c0,2.1,2,3.8,4.6,3.8s4.6-1.7,4.6-3.8V36v-0.2V18.3
		C70.9,16.2,68.9,14.5,66.3,14.5z"/>
	<circle class="st1" cx="66.3" cy="66.6" r="5"/>
</g>
</svg>
