<?xml version="1.0" encoding="utf-8"?>
<!-- Generator: Adobe Illustrator 24.2.3, SVG Export Plug-In . SVG Version: 6.00 Build 0)  -->
<svg version="1.1" id="Layer_1" xmlns="http://www.w3.org/2000/svg" xmlns:xlink="http://www.w3.org/1999/xlink" x="0px" y="0px"
	 viewBox="0 0 86.15 86" style="enable-background:new 0 0 86.15 86;" xml:space="preserve">
<style type="text/css">
	.st0{fill:#5520C6;}
</style>
<g>
	<path class="st0" d="M33.27,22.82c-6.45,0-12.41,1.99-17.37,5.29V7.93c0-3.81-3.15-6.79-6.79-6.79c-3.97,0-6.95,2.98-6.95,6.79
		v70.32c0,3.81,2.98,6.79,6.79,6.79c3.3,0,6.12-2.32,6.62-5.46c4.97,3.47,11.08,5.46,17.53,5.46c17.21,0,31.11-13.9,31.11-31.11
		C64.37,36.72,50.48,22.82,33.27,22.82 M33.6,71.31c-9.43,0-17.21-7.78-17.21-17.37S24,36.57,33.6,36.57
		c9.43,0,17.21,7.78,17.21,17.37C50.65,63.53,43.03,71.31,33.6,71.31"/>
	<path class="st0" d="M77.75,1.14c-3.81,0-6.79,2.46-6.79,5.59v25.34v0.84v25.34c0,3.14,2.98,5.59,6.79,5.59s6.79-2.46,6.79-5.59
		V32.65v-0.29V6.74C84.54,3.6,81.56,1.14,77.75,1.14z"/>
	<circle class="st0" cx="77.75" cy="77.64" r="7.4"/>
</g>
</svg>
