<?xml version="1.0" encoding="utf-8"?>
<!-- Generator: Adobe Illustrator 24.2.3, SVG Export Plug-In . SVG Version: 6.00 Build 0)  -->
<svg version="1.1" id="yellow_doodle" xmlns="http://www.w3.org/2000/svg" xmlns:xlink="http://www.w3.org/1999/xlink" x="0px"
	 y="0px" viewBox="0 0 2000 702.8" style="enable-background:new 0 0 2000 702.8;" xml:space="preserve">
<style type="text/css">
	.st0{fill:#FFFFFF;}
</style>
<g>
	<path class="st0" d="M1129.9,540.7c0,4.9-0.8,9.9-2.3,15c-1.6,5.1-3.9,9.8-7,14.2c-3.1,4.4-7.1,8.3-12,11.6
		c-4.9,3.3-10.7,5.9-17.3,7.6v1.2c5.9,1,11.5,2.6,16.9,5c5.4,2.3,10.1,5.6,14.2,9.7c4.1,4.1,7.4,9.1,10,15
		c2.5,5.9,3.8,12.8,3.8,20.8c0,10.6-2.2,19.7-6.6,27.5c-4.4,7.7-10.2,14-17.3,18.9c-7.1,4.9-15.3,8.5-24.5,10.9
		c-9.2,2.4-18.6,3.5-28.2,3.5c-3.3,0-7.2,0-11.7,0c-4.5,0-9.2-0.1-14.1-0.4c-4.9-0.3-9.8-0.7-14.7-1.2c-4.9-0.5-9.2-1.2-12.9-2.2
		V495.5c7.2-1.2,15.7-2.2,25.3-2.9c9.6-0.8,20.1-1.2,31.4-1.2c7.6,0,15.4,0.6,23.3,1.9c7.9,1.3,15.1,3.7,21.6,7.3
		c6.5,3.6,11.8,8.7,16,15.1C1127.8,522.2,1129.9,530.5,1129.9,540.7z M1045.6,584.2c3.3,0,7.3-0.1,12-0.3c4.7-0.2,8.6-0.5,11.7-0.9
		c4.7-1.6,9.1-3.5,13.2-5.7c4.1-2.2,7.8-4.9,11-7.9c3.2-3,5.8-6.6,7.6-10.6c1.9-4,2.8-8.4,2.8-13.1c0-6.5-1.2-11.8-3.7-16
		c-2.4-4.2-5.7-7.6-9.8-10.1c-4.1-2.5-8.8-4.4-14.1-5.4c-5.3-1.1-10.7-1.6-16.1-1.6c-6.5,0-12.4,0.1-17.8,0.4
		c-5.4,0.3-9.4,0.7-12.2,1.3v69.9H1045.6z M1061.7,680.5c6.3,0,12.3-0.7,18.2-2.2c5.9-1.5,11.1-3.8,15.6-7
		c4.5-3.2,8.1-7.2,10.7-11.9s4-10.3,4-16.7c0-8-1.6-14.5-4.8-19.4c-3.2-4.9-7.4-8.7-12.6-11.4c-5.2-2.7-11-4.6-17.5-5.6
		c-6.5-1-12.9-1.5-19.4-1.5h-25.5v73.7c1.4,0.4,3.3,0.7,5.9,0.9c2.5,0.2,5.3,0.4,8.2,0.6c2.9,0.2,6,0.3,9.1,0.4
		C1056.7,680.4,1059.4,680.5,1061.7,680.5z"/>
	<path class="st0" d="M1189.2,552.5v83.7c0,7.6,0.4,14.3,1.3,20.1c0.9,5.8,2.4,10.6,4.6,14.4c2.2,3.8,5.1,6.7,8.8,8.7
		c3.7,2,8.4,2.9,14.1,2.9c5.3,0,10-0.8,14.1-2.5c4.1-1.7,7.8-4,11-6.9c3.2-2.9,6.1-6.3,8.5-10.1c2.4-3.8,4.4-7.9,6-12.2v-98.1h23.5
		v105.1c0,7,0.2,14.3,0.7,21.9c0.5,7.5,1.3,14.1,2.5,19.8h-16.1l-5.9-23.2h-1.5c-4.5,7.6-10.6,14-18.2,19.1s-17.3,7.6-29.1,7.6
		c-7.8,0-14.7-0.9-20.7-2.8c-6-1.9-11-5.1-15-9.8c-4-4.7-7-11-9.1-18.9c-2.1-7.9-3.1-18-3.1-30.1v-88.7H1189.2z"/>
	<path class="st0" d="M1383.6,659.3c0-5.9-1.8-10.5-5.3-13.8c-3.5-3.3-7.9-6.1-13.1-8.4c-5.2-2.2-10.9-4.4-17-6.5
		c-6.2-2.1-11.8-4.7-17-7.9c-5.2-3.2-9.5-7.4-13.1-12.5c-3.5-5.1-5.3-11.9-5.3-20.6c0-14.1,4-24.4,12-31c8-6.6,19.2-9.8,33.5-9.8
		c10.6,0,19.4,0.9,26.6,2.8c7.1,1.9,13.4,4.1,18.6,6.6l-5.6,19.4c-4.5-2.2-9.9-4.1-16.3-5.7c-6.4-1.7-13.2-2.5-20.4-2.5
		c-8.6,0-14.9,1.5-18.9,4.4c-4,2.9-6,8-6,15.3c0,5.1,1.8,9.1,5.3,11.9c3.5,2.8,7.9,5.4,13.1,7.6c5.2,2.3,10.9,4.5,17,6.6
		c6.2,2.2,11.8,5,17,8.5c5.2,3.5,9.5,8,13.1,13.4c3.5,5.4,5.3,12.5,5.3,21.3c0,6.3-1,12.1-3.1,17.6c-2.1,5.5-5.2,10.2-9.5,14.1
		c-4.3,3.9-9.6,7-16,9.2c-6.4,2.2-13.9,3.4-22.5,3.4c-11.2,0-20.7-1.1-28.5-3.2c-7.8-2.2-14.4-4.7-19.7-7.6l7-20
		c4.5,2.5,10.4,4.9,17.6,7c7.2,2.2,14.6,3.2,22,3.2c8.4,0,15.4-1.7,20.8-5C1380.9,673.9,1383.6,668,1383.6,659.3z"/>
	<path class="st0" d="M1430.9,507.8c0-4.5,1.5-8.4,4.6-11.6c3-3.2,6.9-4.8,11.6-4.8c4.7,0,8.7,1.6,12,4.8c3.3,3.2,5,7.1,5,11.6
		c0,4.5-1.7,8.2-5,11.2c-3.3,2.9-7.3,4.4-12,4.4c-4.7,0-8.6-1.5-11.6-4.4C1432.4,516.1,1430.9,512.3,1430.9,507.8z M1435.9,552.5
		h23.5v146.8h-23.5V552.5z"/>
	<path class="st0" d="M1593,699.3v-83.7c0-15.3-2.2-26.8-6.6-34.5c-4.4-7.7-12.5-11.6-24.2-11.6c-10.4,0-18.9,2.8-25.7,8.4
		c-6.8,5.6-11.5,12.6-14.2,21v100.4h-23.5V552.5h16.4l4.4,17.9h1.2c4.7-6.3,11-11.4,18.9-15.4c7.9-4,17.4-6,28.3-6
		c8,0,15.1,0.9,21.1,2.8c6.1,1.9,11.1,5.1,15.1,9.8c4,4.7,7,11,9.1,18.9c2.1,7.9,3.1,18,3.1,30.1v88.7H1593z"/>
	<path class="st0" d="M1760.1,687.5c-5.9,4.7-13.3,8.4-22.2,11.2c-8.9,2.7-18.4,4.1-28.3,4.1c-11.2,0-20.8-1.8-29.1-5.4
		c-8.2-3.6-15-8.8-20.3-15.6c-5.3-6.8-9.2-14.8-11.7-24.2c-2.5-9.4-3.8-20-3.8-31.7c0-25.1,5.6-44.1,16.7-57.3
		c11.2-13.1,27.1-19.7,47.9-19.7c6.7,0,13.3,0.7,20,2.2c6.7,1.5,12.6,4.3,17.9,8.4c5.3,4.1,9.6,9.9,12.9,17.5c3.3,7.5,5,17.5,5,29.8
		c0,6.5-0.6,13.6-1.8,21.4h-94.2c0,8.6,0.9,16.2,2.6,22.9c1.8,6.7,4.5,12.3,8.2,16.9c3.7,4.6,8.6,8.1,14.5,10.6
		c6,2.4,13.3,3.7,21.9,3.7c6.7,0,13.3-1.2,20-3.5c6.7-2.4,11.6-5.1,15-8.2L1760.1,687.5z M1709.6,569.5c-11.6,0-20.8,3-27.7,9.1
		c-7,6.1-11.1,16.4-12.5,31.1h72.8c0-14.9-2.8-25.3-8.5-31.3C1728,572.5,1720,569.5,1709.6,569.5z"/>
	<path class="st0" d="M1859.8,659.3c0-5.9-1.8-10.5-5.3-13.8c-3.5-3.3-7.9-6.1-13.1-8.4c-5.2-2.2-10.9-4.4-17-6.5
		c-6.2-2.1-11.8-4.7-17-7.9c-5.2-3.2-9.5-7.4-13.1-12.5c-3.5-5.1-5.3-11.9-5.3-20.6c0-14.1,4-24.4,12-31c8-6.6,19.2-9.8,33.5-9.8
		c10.6,0,19.4,0.9,26.6,2.8c7.1,1.9,13.4,4.1,18.6,6.6l-5.6,19.4c-4.5-2.2-9.9-4.1-16.3-5.7c-6.4-1.7-13.2-2.5-20.4-2.5
		c-8.6,0-14.9,1.5-18.9,4.4c-4,2.9-6,8-6,15.3c0,5.1,1.8,9.1,5.3,11.9c3.5,2.8,7.9,5.4,13.1,7.6c5.2,2.3,10.9,4.5,17,6.6
		c6.2,2.2,11.8,5,17,8.5c5.2,3.5,9.5,8,13.1,13.4c3.5,5.4,5.3,12.5,5.3,21.3c0,6.3-1,12.1-3.1,17.6c-2.1,5.5-5.2,10.2-9.5,14.1
		c-4.3,3.9-9.6,7-16,9.2c-6.4,2.2-13.9,3.4-22.5,3.4c-11.2,0-20.7-1.1-28.5-3.2c-7.8-2.2-14.4-4.7-19.7-7.6l7-20
		c4.5,2.5,10.4,4.9,17.6,7c7.2,2.2,14.6,3.2,22,3.2c8.4,0,15.4-1.7,20.8-5C1857.1,673.9,1859.8,668,1859.8,659.3z"/>
	<path class="st0" d="M1976.5,659.3c0-5.9-1.8-10.5-5.3-13.8c-3.5-3.3-7.9-6.1-13.1-8.4c-5.2-2.2-10.9-4.4-17-6.5
		c-6.2-2.1-11.8-4.7-17-7.9c-5.2-3.2-9.5-7.4-13.1-12.5c-3.5-5.1-5.3-11.9-5.3-20.6c0-14.1,4-24.4,12-31c8-6.6,19.2-9.8,33.5-9.8
		c10.6,0,19.4,0.9,26.6,2.8c7.1,1.9,13.4,4.1,18.6,6.6l-5.6,19.4c-4.5-2.2-9.9-4.1-16.3-5.7c-6.4-1.7-13.2-2.5-20.4-2.5
		c-8.6,0-14.9,1.5-18.9,4.4c-4,2.9-6,8-6,15.3c0,5.1,1.8,9.1,5.3,11.9c3.5,2.8,7.9,5.4,13.1,7.6c5.2,2.3,10.9,4.5,17,6.6
		c6.2,2.2,11.8,5,17,8.5c5.2,3.5,9.5,8,13.1,13.4c3.5,5.4,5.3,12.5,5.3,21.3c0,6.3-1,12.1-3.1,17.6c-2.1,5.5-5.2,10.2-9.5,14.1
		c-4.3,3.9-9.6,7-16,9.2c-6.4,2.2-13.9,3.4-22.5,3.4c-11.2,0-20.7-1.1-28.5-3.2c-7.8-2.2-14.4-4.7-19.7-7.6l7-20
		c4.5,2.5,10.4,4.9,17.6,7c7.2,2.2,14.6,3.2,22,3.2c8.4,0,15.4-1.7,20.8-5C1973.8,673.9,1976.5,668,1976.5,659.3z"/>
</g>
<g>
	<path class="st0" d="M585.7,56.2c-36.6,0-71.4,8.2-102.5,23.8c26.5,13.7,50.3,32.9,70.5,55.8c11-2.7,22-3.7,33.9-3.7
		c89.7,0,162,72.3,162,162s-72.3,162-162,162c-11.9,0-23.8-1.8-35.7-3.7c-19.2,22-42.1,40.3-67.7,53.1
		c31.1,14.6,65.9,23.8,102.5,23.8c130.9,0,236.1-106.2,236.1-236.1S715.6,56.2,585.7,56.2"/>
	<path class="st0" d="M371.5,90.9c-33.9,0-65.9,8.2-94.3,23.8c24.7,14.6,46.7,33.9,63.1,56.7c10.1-2.7,20.1-3.7,31.1-3.7
		c69.5,0,126.3,56.7,126.3,126.3s-56.7,126.3-126.3,126.3c-9.2,0-18.3-0.9-26.5-2.7c-16.5,23.8-36.6,43-61.3,58.6
		c26.5,12.8,55.8,20.1,87.9,20.1c111.6,0,202.2-90.6,202.2-202.2C573.8,180.6,483.2,90.9,371.5,90.9"/>
	<path class="st0" d="M172,123.9c-35.7,0-68.6,11-96.1,29.3V41.5C76,20.5,58.6,4,38.4,4C16.5,4,0,20.5,0,41.5v388.9
		c0,21,16.5,37.5,37.5,37.5c18.3,0,33.9-12.8,36.6-30.2c27.5,19.2,61.3,30.2,97,30.2c95.2,0,172-76.9,172-172
		C344.1,200.8,267.2,123.9,172,123.9 M173.9,392c-52.2,0-95.2-43-95.2-96.1s42.1-96.1,95.2-96.1c52.2,0,95.2,43,95.2,96.1
		C268.1,349,226,392,173.9,392"/>
	<path class="st0" d="M1300.4,123.9L1300.4,123.9c-37.5,0-70.5,15.6-94.3,40.3c-23.8-24.7-57.7-40.3-94.3-40.3
		c-72.3,0-130.9,58.6-130.9,130.9v175.7c0,21,16.5,37.5,37.5,37.5s37.5-16.5,37.5-37.5V256.6c0-27.5,18.3-52.2,44.8-56.7
		c35.7-7.3,66.8,20.1,66.8,54.9v174.8c0,21,17.4,38.4,38.4,38.4s38.4-17.4,38.4-38.4v-172c0-27.5,18.3-52.2,44.8-56.7
		c35.7-7.3,66.8,20.1,66.8,54.9v175.7c0,21,16.5,37.5,37.5,37.5s37.5-16.5,37.5-37.5V254.7C1431.2,182.4,1372.7,123.9,1300.4,123.9"
		/>
	<path class="st0" d="M788.8,108.3c9.2-1.8,19.2-2.7,29.3-2.7c58.6,0,110.7,26.5,144.6,68.6c11.9-22.9,29.3-42.1,50.3-56.7
		c-47.6-53.1-117.1-86.9-194.9-86.9c-36.6,0-70.5,7.3-101.6,20.1C744,66.2,767.8,85.4,788.8,108.3"/>
	<path class="st0" d="M942.6,431.4c-32.9,29.3-76.9,47.6-124.5,47.6c-10.1,0-20.1-0.9-29.3-2.7c-21,22.9-44.8,43-72.3,57.7
		c31.1,12.8,65.9,20.1,101.6,20.1c62.2,0,119-22,163.8-57.7C959,483.5,942.6,459.7,942.6,431.4"/>
</g>
</svg>
