<?xml version="1.0" encoding="utf-8"?>
<!-- Generator: Adobe Illustrator 24.2.3, SVG Export Plug-In . SVG Version: 6.00 Build 0)  -->
<svg version="1.1" id="Layer_1" xmlns="http://www.w3.org/2000/svg" xmlns:xlink="http://www.w3.org/1999/xlink" x="0px" y="0px"
	 viewBox="0 0 219 86" style="enable-background:new 0 0 219 86;" xml:space="preserve">
<style type="text/css">
	.st0{fill:#20D900;}
</style>
<g>
	<path class="st0" d="M89.7,8.7c-5.5,0-10.8,1.2-15.5,3.6c4,2.1,7.6,5,10.6,8.4c1.7-0.4,3.3-0.5,5.1-0.5c13.6,0,24.5,10.9,24.5,24.5
		S103.5,69.1,90,69.1c-1.8,0-3.6-0.3-5.4-0.6c-2.9,3.3-6.4,6.1-10.2,8c4.7,2.2,9.9,3.6,15.5,3.6c19.8,0,35.7-16,35.7-35.7
		S109.3,8.7,89.7,8.7"/>
	<path class="st0" d="M57.4,13.9c-5.1,0-10,1.2-14.2,3.6c3.7,2.2,7,5.1,9.5,8.6c1.5-0.4,3-0.5,4.7-0.5c10.5,0,19.1,8.6,19.1,19.1
		s-8.6,19.1-19.1,19.1c-1.4,0-2.8-0.1-4-0.4c-2.5,3.6-5.5,6.5-9.3,8.9c4,1.9,8.4,3,13.3,3c16.9,0,30.5-13.7,30.5-30.5
		C87.9,27.5,74.2,13.9,57.4,13.9"/>
	<path class="st0" d="M27.2,18.9c-5.4,0-10.4,1.7-14.5,4.4V6.5c0-3.2-2.6-5.7-5.7-5.7c-3.3,0-5.8,2.5-5.8,5.7v58.8
		c0,3.2,2.5,5.7,5.7,5.7c2.8,0,5.1-1.9,5.5-4.6c4.2,2.9,9.3,4.6,14.6,4.6c14.4,0,26-11.6,26-26C53.2,30.5,41.6,18.9,27.2,18.9
		 M27.5,59.4c-7.9,0-14.4-6.5-14.4-14.5s6.4-14.5,14.4-14.5c7.9,0,14.4,6.5,14.4,14.5C41.7,52.9,35.4,59.4,27.5,59.4"/>
	<path class="st0" d="M197.7,18.9L197.7,18.9c-5.7,0-10.6,2.4-14.2,6.1c-3.6-3.7-8.7-6.1-14.2-6.1c-10.9,0-19.8,8.9-19.8,19.8v26.5
		c0,3.2,2.5,5.7,5.7,5.7s5.7-2.5,5.7-5.7V39c0-4.2,2.8-7.9,6.8-8.6c5.4-1.1,10.1,3,10.1,8.3v26.4c0,3.2,2.6,5.8,5.8,5.8
		s5.8-2.6,5.8-5.8v-26c0-4.2,2.8-7.9,6.8-8.6c5.4-1.1,10.1,3,10.1,8.3v26.5c0,3.2,2.5,5.7,5.7,5.7s5.7-2.5,5.7-5.7V38.7
		C217.4,27.8,208.6,18.9,197.7,18.9"/>
	<path class="st0" d="M120.4,16.5c1.4-0.3,2.9-0.4,4.4-0.4c8.9,0,16.7,4,21.8,10.4c1.8-3.5,4.4-6.4,7.6-8.6
		c-7.2-8-17.7-13.1-29.4-13.1c-5.5,0-10.6,1.1-15.3,3C113.6,10.2,117.2,13.1,120.4,16.5"/>
	<path class="st0" d="M143.6,65.3c-5,4.4-11.6,7.2-18.8,7.2c-1.5,0-3-0.1-4.4-0.4c-3.2,3.5-6.8,6.5-10.9,8.7c4.7,1.9,9.9,3,15.3,3
		c9.4,0,18-3.3,24.7-8.7C146.1,73.2,143.6,69.6,143.6,65.3"/>
</g>
</svg>
