<?xml version="1.0" encoding="utf-8"?>
<!-- Generator: Adobe Illustrator 24.2.3, SVG Export Plug-In . SVG Version: 6.00 Build 0)  -->
<svg version="1.1" id="Layer_1" xmlns="http://www.w3.org/2000/svg" xmlns:xlink="http://www.w3.org/1999/xlink" x="0px" y="0px"
	 viewBox="0 0 219 86" style="enable-background:new 0 0 219 86;" xml:space="preserve">
<style type="text/css">
	.st0{fill:#FFFFFF;}
</style>
<g>
	<path class="st0" d="M89.7,8.67c-5.53,0-10.78,1.24-15.48,3.59c4.01,2.07,7.6,4.98,10.64,8.43c1.66-0.41,3.32-0.55,5.11-0.55
		c13.55,0,24.47,10.92,24.47,24.47s-10.92,24.47-24.47,24.47c-1.8,0-3.59-0.28-5.39-0.55c-2.9,3.32-6.36,6.08-10.23,8.02
		c4.7,2.21,9.95,3.59,15.48,3.59c19.77,0,35.66-16.04,35.66-35.66S109.33,8.67,89.7,8.67"/>
	<path class="st0" d="M57.36,13.93c-5.11,0-9.95,1.24-14.24,3.59c3.73,2.21,7.05,5.11,9.54,8.57c1.52-0.41,3.04-0.55,4.7-0.55
		c10.51,0,19.08,8.57,19.08,19.08S67.87,63.7,57.36,63.7c-1.38,0-2.76-0.14-4.01-0.41c-2.49,3.59-5.53,6.5-9.26,8.85
		c4.01,1.94,8.43,3.04,13.27,3.04c16.86,0,30.55-13.69,30.55-30.55C87.91,27.47,74.22,13.93,57.36,13.93"/>
	<path class="st0" d="M27.22,18.9c-5.39,0-10.37,1.66-14.51,4.42V6.46c0-3.18-2.63-5.67-5.67-5.67c-3.32,0-5.81,2.49-5.81,5.67
		v58.75c0,3.18,2.49,5.67,5.67,5.67c2.76,0,5.11-1.94,5.53-4.56c4.15,2.9,9.26,4.56,14.65,4.56c14.38,0,25.99-11.61,25.99-25.99
		C53.21,30.51,41.6,18.9,27.22,18.9 M27.5,59.41c-7.88,0-14.38-6.5-14.38-14.51s6.36-14.51,14.38-14.51
		c7.88,0,14.38,6.5,14.38,14.51C41.74,52.91,35.38,59.41,27.5,59.41"/>
	<path class="st0" d="M197.67,18.9L197.67,18.9c-5.67,0-10.64,2.35-14.24,6.08c-3.59-3.73-8.71-6.08-14.24-6.08
		c-10.92,0-19.77,8.85-19.77,19.77v26.54c0,3.18,2.49,5.67,5.67,5.67s5.67-2.49,5.67-5.67V38.95c0-4.15,2.76-7.88,6.77-8.57
		c5.39-1.11,10.09,3.04,10.09,8.29v26.4c0,3.18,2.63,5.81,5.81,5.81s5.81-2.63,5.81-5.81V39.08c0-4.15,2.76-7.88,6.77-8.57
		c5.39-1.11,10.09,3.04,10.09,8.29v26.54c0,3.18,2.49,5.67,5.67,5.67s5.67-2.49,5.67-5.67V38.67
		C217.43,27.75,208.59,18.9,197.67,18.9"/>
	<path class="st0" d="M120.39,16.55c1.38-0.28,2.9-0.41,4.42-0.41c8.85,0,16.73,4.01,21.84,10.37c1.8-3.46,4.42-6.36,7.6-8.57
		C147.07,9.92,136.57,4.8,124.82,4.8c-5.53,0-10.64,1.11-15.34,3.04C113.62,10.19,117.21,13.1,120.39,16.55"/>
	<path class="st0" d="M143.62,65.35c-4.98,4.42-11.61,7.19-18.8,7.19c-1.52,0-3.04-0.14-4.42-0.41c-3.18,3.46-6.77,6.5-10.92,8.71
		c4.7,1.94,9.95,3.04,15.34,3.04c9.4,0,17.97-3.32,24.74-8.71C146.1,73.23,143.62,69.63,143.62,65.35"/>
</g>
</svg>
