<?xml version="1.0" encoding="utf-8"?>
<!-- Generator: Adobe Illustrator 24.2.3, SVG Export Plug-In . SVG Version: 6.00 Build 0)  -->
<svg version="1.1" id="yellow_man" xmlns="http://www.w3.org/2000/svg" xmlns:xlink="http://www.w3.org/1999/xlink" x="0px" y="0px"
	 viewBox="0 0 1000 1000" style="enable-background:new 0 0 1000 1000;" xml:space="preserve">
<style type="text/css">
	.st0{fill:#FF306A;}
	.st1{fill:#3351FF;}
	.st2{fill:#FFFFFF;}
	.st3{fill:#FFCE45;}
</style>
<g>
	<g>
		<g id="XMLID_16_">
			<g>
				<path d="M885.5,354l0.1,1.4l0.1,2.7l0.1,1.3c-0.3,0.6-0.7,1.3-1,1.9l-2.2,3.9l-2.2,3.8c-0.4,0.6-0.8,1.3-1.2,1.9l-1.2,1.6
					c-1,1.3-1.9,2.8-3.1,4l-3.3,3.9l-3.5,3.6c-4.8,4.7-10.1,8.9-15.9,12.5c-5.8,3.5-12.1,6.3-18.7,8.2c-6.6,2-13.6,2.8-20.6,2.7
					l-2.6-0.1c-0.9,0-1.8-0.1-2.6-0.2l-5.2-0.7c-3.7-0.7-7.2-1.9-10.3-3.2c-6.4-2.7-12.1-6.1-17.6-10c-5.4-3.9-10.5-8.3-15.1-13.4
					c-2.3-2.6-4.4-5.3-6.3-8.4c-1.9-3-3.6-6.3-4.8-9.9c-1.2-3.6-1.9-7.6-1.8-11.8c0.1-4.1,1.3-8.3,3.2-12c0,0,0.5-0.4,1.1-0.7
					c0.6-0.3,1.4-0.4,1.9,0c0.6,0.4,0.9,1.4,1,3.2c0,0.9,0.1,2.1,0,3.5c0.1,1.4,0.1,3.1,0.3,5c0.1,0.7,0.2,1.5,0.4,2.3
					c0.8,3.4,2.3,7.4,5.4,11.8c3.7,5.4,9.6,11.4,18.2,17.4c4.3,3,9.3,6,15,8.6c2.8,1.3,5.9,2.4,8.9,3.2c0.8,0.2,1.5,0.4,2.3,0.5
					c0.7,0.1,1.6,0.2,2.5,0.3c0.9,0.1,1.7,0.2,2.6,0.3c0.9,0.1,1.8,0,2.6,0.1c7.1,0.1,14.9-1.2,22.7-4.3c3.9-1.7,7.9-3.6,11.7-6.3
					c3.9-2.5,7.6-5.6,11.2-9.1c0.9-0.9,1.8-1.8,2.6-2.7c0.8-0.9,1.6-1.9,2.4-2.8c0.8-0.9,1.6-1.8,2.2-2.8l1-1.4l0.1-0.1l0,0l0,0
					c0,0,0,0,0,0c0,0,0.1,0,0.1-0.1c0,0,0.1-0.1,0.1-0.1c0,0,0-0.1-0.1-0.1l0,0c-0.1,0,0.2,0-0.6,0c-1.1,0-2.2-0.1-3.3-0.1
					c-4.4-0.1-8.6-0.3-12.6-0.4c-16.1-0.5-29.5-1.2-40.6-2c-22.2-1.6-35.2-3.5-42.7-5.4c-6.7-1.7-9-3.4-9.5-4.7
					c-0.6-1.6,1.6-2.7,1.6-2.7l74.2,0.6l40.6,0.4l2.3,0l1.2,0c0.2,0,0.4,0,0.5,0l0.4,0.2c1,0.5,2.1,1,3,1.5l3.1,3.1
					c0.1-0.1,0.1-0.1,0.1-0.1c0,0-0.1,0.1-0.1,0.1c0.2-0.1,0.7-0.3,1.6-0.9v0.1l0,0.2l0,0.3L885.5,354z"/>
				<path class="st0" d="M824.9,438.6l36.5,108.9l-40.9,47.1l-42.4-51.1L824.9,438.6C824.9,438.6,824.9,438.6,824.9,438.6z"/>
				<path d="M824.5,293.6c-1.2,0-2.1-0.7-2.1-0.7c0-5.8,2.4-11.6,6.5-15.7c4.1-4.1,9.8-6.6,15.6-6.6c5.8-0.1,11.6,2.2,15.8,6.2
					c4.2,4,6.7,9.7,6.9,15.5c0.2,5.8-2,11.7-6,15.9c-3.9,4.3-9.6,6.9-15.4,7.2c-5.8,0.3-11.7-1.8-16-5.7c-4.3-3.8-7.1-9.5-7.4-15.3
					C822.5,294.4,823.3,293.7,824.5,293.6z M827.2,294.3c0.4,0.2,0.9,0.5,1.4,0.9c0.5,0.4,1.1,0.8,1.6,1.3c1.2,0.9,2.5,2.1,4.2,3.1
					c0.8,0.5,1.8,1,2.8,1.4c1,0.4,2.1,0.7,3.3,0.9c2.3,0.4,5.1,0.1,7.5-1.4c2.3-1.4,4.4-4.2,4.3-7.7c-0.1-3.5-2.3-6.2-4.8-7.5
					c-2.5-1.3-5.2-1.5-7.5-0.9c-1.2,0.3-2.2,0.7-3.2,1.1c-1,0.5-1.9,1-2.7,1.6c-1.6,1.1-2.9,2.3-4.1,3.3c-0.5,0.5-1,1-1.6,1.3
					c-0.5,0.4-0.9,0.7-1.4,1c-0.9,0.5-1.7,0.8-2.4,0.8C825.5,293.6,826.3,293.8,827.2,294.3z"/>
				<path d="M892.6,432.3c0,0,0-0.1,0-0.1c-3.3,0.4-6.7,0.8-10,1.2c-16.9,1.8-33.7,3.1-50.4,4.5c3.3,5.8,7.7,14.8,13.6,28.9
					c3.7,8.9,8.1,19.7,13.1,32.9c2.5,6.6,5.2,13.8,8.1,21.7c1.4,3.9,2.9,8,4.5,12.3c0.8,2.1,1.5,4.3,2.3,6.5
					c1.2,3.4,2.4,6.9,3.6,10.5c-7.7,9.1-16,18.9-25,29.5c-4.1,4.8-8.3,9.7-12.7,14.8c-6.3,7.2-12.7,14.7-19.5,22.5
					c-1-1.2-2-2.4-3-3.6c-6.2-7.5-12.1-14.7-17.9-21.6c-4.4-5.4-8.6-10.5-12.7-15.5c-9.1-11.2-17.4-21.5-25.1-31
					c1.6-3.5,3.2-7,4.8-10.4c1-2.1,2-4.2,2.9-6.3c1.9-4.1,3.8-8,5.6-11.8c3.6-7.6,7-14.5,10.1-20.8c6.3-12.7,11.6-23.1,16.2-31.6
					c6.4-11.9,11.3-20.1,15-25.5c-8.3,0.7-16.5,1.5-24.7,2.4l-7.5,0.8l-3.8,0.4l-4.1,0.4c-2.6,0.2-5.3,0.3-8.1,0.3
					c-0.8,0.9-1.6,1.9-2.4,2.8l-4.5,6c-0.8,1-1.5,2-2.2,3.1l-2.1,3.1c-5.6,8.4-10.6,17.2-14.9,26.5c-8.8,18.4-15.5,37.9-20.8,57.9
					c-5.3,19.9-9.2,40.3-12.2,60.8c-1.5,10.3-2.6,20.6-3.5,30.9c-0.5,5.1-0.8,10.3-1.2,15.5l-0.4,7.7l-0.1,2.1l1.6,0.4
					c2.4,0.6,4.8,1.2,7.2,1.7c2.4,0.5,4.9,1,7.4,1.5l7.5,1.3c10,1.6,20.1,2.7,30.2,3.6c20.3,1.8,40.7,2.6,61.2,2.8
					c20.5,0.2,40.9-0.2,61.2-1.8c10.1-0.7,20.2-1.8,30.2-3.3c2.5-0.4,5-0.8,7.4-1.2c2.5-0.4,4.9-0.9,7.3-1.5c4.8-1,9.6-2.3,14.1-3.8
					l0.7-0.2l0.1,0l0.2-0.1l-0.1-3.8l-0.3-15.3c0-5.1-0.4-10.2-0.7-15.3l-0.9-15.3c-0.4-5.1-1-10.1-1.4-15.2l-0.7-7.6l-0.4-3.8
					l-0.5-3.8l-2.1-15.1l-0.5-3.8l-0.7-3.8l-1.3-7.5c-1.6-10-4-19.9-6.2-29.9l-3.8-14.7c-1.3-4.9-2.9-9.7-4.3-14.6
					c-0.7-2.4-1.6-4.8-2.4-7.2l-2.5-7.2c-0.8-2.4-1.8-4.7-2.6-7.1c-0.9-2.3-1.8-4.7-2.7-7c-3.8-9.3-8.1-18.5-12.9-27
					C893.1,434.4,892.8,433.4,892.6,432.3z M896.4,431.7c0.4,0.4,0.8,0.7,1.2,1.2c2.5,2.7,6.2,7.5,10.9,15.7
					c0.7,1.3,1.5,2.6,2.2,4.1c1.2,0.4,2.7,1.1,4.5,2.1c3.2,1.7,7.2,4.4,12.3,8.7c5,4.3,11.1,10.1,17.9,18.1
					c6.8,8.1,14.3,18.4,21.9,31.8c3.9,6.7,7.5,14.2,11.2,22.5c3.5,8.4,7,17.5,9.9,27.6c6,20.2,8.5,38.1,9.6,53.4
					c0.1,3.8,0.3,7.5,0.4,11c0.1,1.8,0.1,3.5,0,5.1c0,1.7-0.1,3.3-0.1,4.9c0,6.4-0.6,12.2-1,17.4c-0.2,2.6-0.6,5.1-0.9,7.4
					c-0.4,2.3-0.7,4.5-1,6.6c-0.6,4.2-1.6,7.8-2.3,11c-0.8,3.2-1.5,5.9-2.3,8.3c-0.9,2.3-1.6,4.3-2.4,6c-2.9,6.6-5.1,8.1-6.5,7.9
					c-1.4-0.1-2.1-1.9-2.1-1.9c4-22.1,5.7-44.6,4.9-67c0-2.8-0.3-5.6-0.4-8.4c-0.2-2.8-0.3-5.6-0.6-8.4c-0.7-5.6-1.2-11.1-2.2-16.6
					c-0.5-2.7-0.8-5.5-1.4-8.2l-1.7-8.2c-0.6-2.7-1.3-5.4-2-8.1l-1-4.1l-1.2-4c-0.8-2.7-1.5-5.4-2.5-8l-2.7-7.9
					c-2-5.2-4-10.4-6.3-15.5c-4.5-10.2-9.7-20.1-15.5-29.6c-5.8-9.5-12.3-18.6-19.3-27.3c-3-3.7-6.1-7.2-9.3-10.7
					c2.2,4.9,4.4,10.3,6.7,16.5c6.2,16.6,12.7,38,18.1,65.7c5.4,27.6,9.7,61.5,10.7,102.4c0.1,3.1,0.2,6.1,0.3,9.3
					c0,0.6,0,1.2,0,1.8l-0.1,1.8l-0.1,1.8l0,0.4c0,0.1,0,0.3-0.2,0.3l-0.8,0.4c-2.1,1.1-4.3,2.4-6.5,3.1c-2.6,1.1-3.5,1.3-4.9,1.8
					c-1.4,0.5-2.7,0.8-4.1,1.3c-1.4,0.4-2.7,0.7-4.1,1.1c-1.4,0.4-2.8,0.7-4.2,1c-11.1,2.6-22.7,4.3-34.8,5.6
					c-11.3,1.2-23,2-35.1,2.5c2.6,13.7,4,44.5-0.1,111.6c-0.7,11.7-1.5,22.2-2.2,31.7c-0.4,4.8-0.8,9.3-1.2,13.6
					c-0.5,5.9-0.5,4.2-0.8,5.4c0.2,0.1,0.6,0.2,1,0.3c0.1,0,0.1,0,0.2,0l0.8,0c0.6,0,1.1,0.1,1.7,0.1c1.1,0.1,2.2,0.1,3.2,0.2
					c4.2,0.3,8.1,0.6,11.6,0.9c7.1,0.6,12.9,1.3,17.7,2c9.6,1.5,14.9,3.1,17.8,4.6c5.8,3,1.8,5.6,1.8,5.6h-70.6l10.8-175.8
					c-11.3,0.3-22.9,0.4-34.9,0.3c-16-0.2-31.3-0.7-46-1.8c4.4,12.7,9.7,42.9,14,112.2c0.7,11.6,1.3,22.1,1.7,31.6
					c0.2,4.8,0.3,9.3,0.5,13.5c0.1,2.4,0.2,4.8,0.2,7.1c0.1,3.7,0.3,7.4,0.4,10.9c-4.5,0.5-8.8,1-13,1.5c-2.3,0.2-4.5,0.4-6.6,0.6
					c-4.2,0.3-8.1,0.6-11.7,0.8c-7.2,0.4-13.1,0.5-18,0.5c-9.8-0.1-15.4-1-18.5-2.1c-6.3-2.2-2.6-5.3-2.6-5.3l55.9-7.8l-10.1-164
					c-3.8-0.3-7.6-0.6-11.3-1c-10.2-1-20.1-2.4-29.6-4c-2.4-0.4-4.7-0.8-7.1-1.3c-2.3-0.4-4.7-0.9-7-1.5c-2.3-0.5-4.6-1.1-6.9-1.7
					l-2.6-0.7c-1-0.3-2.1-0.6-3.1-1c-2-0.7-4-1.3-6-2.1c0.1-2.3,0.1-4.7,0.2-7c0-1.2,0.1-2.3,0.1-3.5l0.1-2.1
					c0.1-2.4,0.3-4.8,0.4-7.1c0.3-4.7,0.7-9.3,1.1-13.8c0.8-9,1.9-17.6,3-25.9c2.3-16.6,5.1-31.7,8.3-45.5
					c3.2-13.8,6.7-26.3,10.3-37.5c1.8-5.6,3.8-10.9,5.6-15.9c2-5,3.8-9.7,5.8-14.1c7.8-17.6,15.7-30.7,22.7-40.2
					c1.2-1.7,2.5-3.3,3.7-4.8c-5.4,1-12.7,2-22.6,3.1c-15.3,1.7-37,3.4-67.1,7.9c-30.1,4.5-51.1,9.5-66.2,12.6
					c-3.8,0.9-7.1,1.6-10.2,2.2c-3.1,0.6-5.8,1-8.2,1.5c-4.8,0.9-8.5,1.4-11.3,1.5c-5.6,0.2-7.6-1-8.3-2.3c-0.6-1.2,0.2-2.6,0.2-2.6
					l12.4-4.8c2.1-0.8,4.1-1.6,6.2-2.4l6.3-2.1l12.6-4.1l12.7-3.5c2.1-0.6,4.3-1.2,6.4-1.7l6.4-1.5c4.3-1,8.6-2,12.9-2.9
					c8.7-1.6,17.3-3.4,26-4.6c17.4-2.6,34.9-4.4,52.4-5.2c15.7-0.8,31.4-0.9,47.3-0.1c0.4-0.4,0.7-0.8,1.1-1.2c0,0,0,0-0.1,0
					c-5.7-0.8-11.4-2.3-16.8-5c-5.4-2.6-10.3-6.2-14.4-10.6c-4.1-4.3-7.3-9.3-9.8-14.4c-2.5-5.1-4.3-10.4-5.6-15.7
					c-2.6-10.6-3.6-21.3-3.8-31.9c-0.1-10.6,0.5-21,1.6-31.3c2.3-20.7,6.4-40.9,11.3-60.8c4.8-19.1,10.4-37.9,16.9-56.5
					c-9.2-1.8-19.2-3.9-29.9-6.8c-3.8-1.1-7.7-2.2-11.7-3.6c-4-1.4-8.1-2.9-12.4-5.2c-1.1-0.6-2.1-1.2-3.2-1.9
					c-1.4-0.9-3-2.2-4.3-3.6c-1.3-1.4-2.3-3-2.8-4.7c-0.6-1.7-0.6-3.7-0.1-5.5c0.5-1.8,1.5-3.4,2.8-4.9c1.3-1.4,3-2.7,4.7-3.7
					l1.1-0.6l0.9-0.5c0.6-0.3,1.2-0.6,1.8-0.9c1.2-0.6,2.4-1,3.6-1.5c4.8-1.8,9.7-3.2,14.6-4.4c5-1.2,10-2.2,15.2-3.2
					c2.6-0.5,5.2-0.9,7.9-1.4c2.8-0.4,5.4-0.7,8.2-1.1c5.4-0.7,11-1.2,16.7-1.8c22.7-2.1,47.5-3.2,74.5-2.2
					c13.5,0.5,27.5,1.6,42.1,3.8c14.5,2.2,29.6,5.4,44.8,11c7.6,2.8,15,6.2,21.8,10.3c6.9,4.1,13.3,9.1,18.7,14.8
					c5.5,5.8,9.9,12.6,13,19.8c3.1,7.2,4.7,14.8,5.1,22.1c0.2,3.7,0.2,7.3-0.1,10.8c-0.1,1.8-0.3,3.5-0.5,5.2
					c-0.2,1.7-0.4,3.5-0.7,5c-1,6.3-1.9,12.5-2.8,18.6c-1.9,12.1-3.7,23.8-5.4,34.9c-1.7,11.2-3.4,21.9-5,32.1
					c-0.7,4.6-1.4,9.1-2.1,13.5c0.8,2.3,1.6,4.5,2.2,6.9c1.3,5.4,2.6,10.8,2.8,16.8c0.1,5.9-0.7,12.3-3.6,18.2
					c-2.8,5.9-7.5,10.8-12.5,14.1c-5,3.4-10.3,5.7-15.5,7.5c-5.2,1.7-10.4,3.1-15.6,4.1C907.7,430,902.1,430.9,896.4,431.7z
					 M956.5,234.8c-1.5-7.5-4.5-14.5-9.1-20.5c-1.1-1.6-2.4-2.9-3.6-4.4c-1.4-1.4-2.7-2.8-4.2-4.1c-2.9-2.6-6.1-5-9.4-7.1
					c-6.7-4.3-14.1-7.8-21.9-10.7c-15.5-5.7-32.1-9.1-48.9-11.3c-16.8-2.2-33.9-3-51-3.2c-17.1-0.1-34.2,0.6-51.3,1.9
					c-8.5,0.7-17.1,1.5-25.5,2.5c-4,0.5-8.3,1.2-12.5,2c-4.2,0.7-8.3,1.6-12.4,2.5c-4,0.9-8,2-11.7,3.3c-1.8,0.6-3.6,1.3-5.1,2.1
					l-1,0.5l0.8,0.5c2.9,1.8,6.6,3.4,10.4,4.9c7.6,2.9,15.8,5.3,24.1,7.4c8.2,2.1,16.6,4.1,25,5.9c16.8,3.6,33.8,6.7,50.8,9.5
					c16.3,2.7,32.8,5.2,49.2,7.4c-1.9-7.5-2.4-12.8-2.5-16.1c0.1-4.1,0.7-5.5,1.3-5.8c0.7-0.3,1.4,0.7,2,1.7c0.6,1,1,2.1,1,2.1
					c1.6,7.8,4.4,15.6,7.6,23.3c3.2,7.7,7,15.3,11,22.7c8.1,14.9,17.3,29.4,27,43.5c9.7,14.1,20,27.9,30.6,41.4
					c2.7,3.4,5.3,6.7,8,10.1l7.2,8.9l14.2-97.4C957.9,250.2,958,242.3,956.5,234.8z M951,386.2l-0.3-0.3l-1.1-1.2l-2.1-2.4
					c-2.7-3.2-5.5-6.4-8.1-9.5c-1.3-1.6-2.6-3.2-4-4.7c-1.2-1.5-2.4-2.9-3.6-4.4c-2.8-3.5-5.6-7-8.2-10.4
					c-5.3-6.8-10.2-13.4-14.8-19.8c-18.4-25.3-31.5-46.5-40.8-63.8c-9.3-17.4-14.7-30.9-17.7-41c-4,0.4-11,0.5-22.4-0.2
					c-10.6-0.6-24.9-1.9-44.4-4.4c-9.7-1.3-20.7-2.9-33.1-5c-2.1-0.4-4.3-0.8-6.5-1.2c-0.1,2.6-0.5,6.2-1.4,11.5
					c-1,6.2-2.7,14.5-5,25.7c-2.3,11.2-5.3,25.3-8.3,43.1c-1.5,8.9-3,18.7-4.1,29.6c-1.2,10.8-2,22.7-1.8,35.5
					c0.1,6.4,0.6,13,1.5,19.7c1,6.7,2.5,13.6,5.2,20c1.3,3.2,2.9,6.4,4.8,9.2c1.9,2.9,4.1,5.6,6.8,7.8c2.6,2.2,5.6,4.1,8.9,5.6
					c3.3,1.5,7,2.3,10.9,2.9c3.9,0.6,7.9,0.6,11.9,0.4c1-0.1,2-0.2,3-0.2c1-0.1,2-0.1,3.1-0.3c2.1-0.2,4.3-0.5,6.4-0.7
					c8.4-0.9,16.5-1.6,24.3-2.3c15.6-1.3,29.9-2.3,43.1-3.2c26.3-1.9,48.1-3.4,65.2-7.1c8.6-1.8,15.8-4.5,21.2-8.1
					c5.3-3.7,8.6-8.5,10.1-13.5c0.3-1.3,0.6-2.5,0.9-3.7C950.8,388.3,950.9,387.3,951,386.2z M861.4,547.5l-36.5-108.9
					c0,0-0.1,0-0.1,0l-46.6,104.9l42.4,51.1L861.4,547.5z"/>
				<path class="st1" d="M940,655.5l0.1,3.8l-0.2,0.1l-0.1,0l-0.7,0.2c-4.5,1.5-9.2,2.8-14.1,3.8c-2.4,0.6-4.9,1-7.3,1.5
					c-2.5,0.5-4.9,0.9-7.4,1.2c-9.9,1.5-20,2.6-30.2,3.3c-20.3,1.5-40.7,1.9-61.2,1.8c-20.5-0.2-40.9-1-61.2-2.8
					c-10.1-0.9-20.2-2.1-30.2-3.6l-7.5-1.3c-2.5-0.5-4.9-0.9-7.4-1.5c-2.5-0.5-4.9-1.1-7.2-1.7l-1.6-0.4l0.1-2.1l0.4-7.7
					c0.3-5.2,0.7-10.3,1.2-15.5c0.9-10.3,2.1-20.6,3.5-30.9c2.9-20.5,6.8-40.9,12.2-60.8c5.3-19.9,12-39.5,20.8-57.9
					c4.3-9.2,9.4-18.1,14.9-26.5l2.1-3.1c0.7-1,1.4-2.1,2.2-3.1l4.5-6c0.8-0.9,1.6-1.9,2.4-2.8c2.7,0,5.4-0.1,8.1-0.3l4.1-0.4
					l3.8-0.4l7.5-0.8c8.2-0.9,16.5-1.6,24.7-2.4c-3.7,5.5-8.6,13.6-15,25.5c-4.6,8.5-9.9,18.9-16.2,31.6
					c-3.1,6.3-6.5,13.3-10.1,20.8c-1.8,3.8-3.7,7.7-5.6,11.8c-1,2.1-1.9,4.1-2.9,6.3c-1.6,3.4-3.2,6.9-4.8,10.4
					c7.7,9.5,16.1,19.8,25.1,31c4.1,5,8.3,10.1,12.7,15.5c5.7,6.9,11.7,14.2,17.9,21.6c1,1.2,2,2.4,3,3.6
					c6.7-7.8,13.2-15.3,19.5-22.5c4.4-5.1,8.6-10.1,12.7-14.8c9-10.6,17.3-20.4,25-29.5c-1.2-3.6-2.5-7-3.6-10.5
					c-0.8-2.2-1.6-4.4-2.3-6.5c-1.5-4.3-3-8.3-4.5-12.3c-2.9-7.9-5.6-15.1-8.1-21.7c-5-13.2-9.4-24.1-13.1-32.9
					c-5.9-14.1-10.4-23.2-13.6-28.9c16.7-1.4,33.5-2.7,50.4-4.5c3.3-0.4,6.7-0.8,10-1.2c0,0,0,0.1,0,0.1c0.2,1.1,0.5,2.1,0.5,2.1
					c4.8,8.5,9,17.7,12.9,27c1,2.3,1.8,4.7,2.7,7c0.9,2.4,1.9,4.7,2.6,7.1l2.5,7.2c0.8,2.4,1.7,4.8,2.4,7.2c1.4,4.8,3,9.7,4.3,14.6
					l3.8,14.7c2.2,9.9,4.5,19.8,6.2,29.9l1.3,7.5l0.7,3.8l0.5,3.8l2.1,15.1l0.5,3.8l0.4,3.8l0.7,7.6c0.5,5.1,1,10.1,1.4,15.2
					L939,625c0.3,5.1,0.7,10.2,0.7,15.3L940,655.5z"/>
				<path class="st2" d="M862.3,363.1c1.1,0,2.2,0.1,3.3,0.1c0.8,0,0.5,0,0.6,0l0,0c0.1,0,0.1,0.1,0.1,0.1c0,0,0,0.1-0.1,0.1
					c0,0-0.1,0.1-0.1,0.1c0,0,0,0,0,0l0,0l0,0l-0.1,0.1l-1,1.4c-0.7,1-1.4,1.9-2.2,2.8c-0.8,0.9-1.6,1.9-2.4,2.8
					c-0.9,0.9-1.7,1.8-2.6,2.7c-3.6,3.5-7.3,6.6-11.2,9.1c-3.8,2.6-7.8,4.6-11.7,6.3c-7.9,3.2-15.6,4.5-22.7,4.3
					c-0.9,0-1.8,0-2.6-0.1c-0.9-0.1-1.7-0.2-2.6-0.3c-0.8-0.1-1.8-0.1-2.5-0.3c-0.7-0.1-1.5-0.3-2.3-0.5c-3-0.8-6.1-1.9-8.9-3.2
					c-5.7-2.6-10.7-5.6-15-8.6c-8.6-6-14.5-12.1-18.2-17.4c-3-4.4-4.6-8.4-5.4-11.8l2.2-0.4c0.5,1.3,2.8,3,9.5,4.7
					c7.5,1.9,20.5,3.9,42.7,5.4c11.1,0.8,24.5,1.5,40.6,2C853.7,362.9,857.9,363,862.3,363.1z"/>
				<path class="st2" d="M758.2,294.8c0,0,0.9,0.8,2.2,0.7v0c-1.3,0-2.2,0.8-2.2,0.8c0.3,5.8,3.1,11.4,7.4,15.3
					c4.3,3.9,10.2,6,16,5.7c5.8-0.2,11.5-2.9,15.4-7.2c4-4.2,6.2-10.1,6-15.9c-0.1-5.8-2.7-11.5-6.9-15.5c-4.1-4-10-6.3-15.8-6.2
					c-5.8,0-11.6,2.5-15.6,6.6C760.6,283.2,758.1,289,758.2,294.8z M754.2,348.7c-0.3-1.9-0.3-3.6-0.3-5c0.1-1.4,0-2.6,0-3.5
					c0-1.8-0.4-2.8-1-3.2c-0.6-0.4-1.3-0.3-1.9,0c-0.6,0.3-1.1,0.7-1.1,0.7c-1.9,3.6-3,7.8-3.2,12c-0.2,4.1,0.5,8.2,1.8,11.8
					c1.2,3.7,2.9,6.9,4.8,9.9c1.9,3,4,5.8,6.3,8.4c4.6,5.1,9.6,9.5,15.1,13.4c5.4,3.9,11.2,7.3,17.6,10c3.2,1.3,6.6,2.5,10.3,3.2
					l5.2,0.7c0.9,0.1,1.7,0.2,2.6,0.2l2.6,0.1c7,0.1,14-0.7,20.6-2.7c6.6-2,12.9-4.8,18.7-8.2c5.8-3.5,11.1-7.8,15.9-12.5l3.5-3.6
					l3.3-3.9c1.1-1.3,2-2.7,3.1-4l1.2-1.6c0.4-0.6,0.8-1.3,1.2-1.9l2.2-3.8l2.2-3.9c0.3-0.6,0.8-1.3,1-1.9l-0.1-1.3l-0.1-2.7
					l-0.1-1.4l0-0.7l0-0.3l0-0.2v-0.1c-1,0.5-1.4,0.8-1.6,0.9c0,0,0.1-0.1,0.1-0.1c0,0,0,0-0.1,0.1l-3.1-3.1c-0.9-0.5-2-1-3-1.5
					l-0.4-0.2c-0.1-0.1-0.4,0-0.5,0l-1.2,0l-2.3,0l-40.6-0.4l-74.2-0.6c0,0-2.1,1.1-1.6,2.7l-2.2,0.4
					C754.4,350.2,754.3,349.4,754.2,348.7z M950.7,385.9l0.3,0.3c-0.1,1-0.3,2.1-0.4,3.2c-0.2,1.2-0.6,2.5-0.9,3.7
					c-1.5,5-4.8,9.8-10.1,13.5c-5.5,3.6-12.7,6.3-21.2,8.1c-17.1,3.8-38.9,5.3-65.2,7.1c-13.2,0.9-27.5,1.9-43.1,3.2
					c-7.8,0.7-15.9,1.4-24.3,2.3c-2.1,0.2-4.2,0.5-6.4,0.7c-1.1,0.1-2.1,0.2-3.1,0.3c-1,0.1-2,0.2-3,0.2c-3.9,0.1-8,0.2-11.9-0.4
					c-3.9-0.6-7.6-1.4-10.9-2.9c-3.3-1.5-6.3-3.3-8.9-5.6c-2.6-2.2-4.8-4.9-6.8-7.8c-1.9-2.9-3.5-6-4.8-9.2
					c-2.6-6.5-4.2-13.3-5.2-20c-1-6.7-1.4-13.3-1.5-19.7c-0.2-12.8,0.7-24.6,1.8-35.5c1.2-10.8,2.6-20.7,4.1-29.6
					c3-17.8,6-31.9,8.3-43.1c2.3-11.2,4-19.5,5-25.7c0.9-5.2,1.3-8.9,1.4-11.5c2.2,0.4,4.4,0.8,6.5,1.2c12.4,2.2,23.4,3.8,33.1,5
					c19.4,2.5,33.8,3.8,44.4,4.4c11.5,0.7,18.4,0.6,22.4,0.2c3,10.1,8.5,23.7,17.7,41c9.3,17.4,22.4,38.5,40.8,63.8
					c4.6,6.3,9.5,12.9,14.8,19.8c2.6,3.4,5.4,6.9,8.2,10.4c1.2,1.5,2.4,2.9,3.6,4.4c1.3,1.6,2.6,3.2,4,4.7c2.7,3.1,5.4,6.3,8.1,9.5
					l2.1,2.4L950.7,385.9z M861.3,308.2c4-4.2,6.2-10.1,6-15.9c-0.1-5.8-2.7-11.5-6.9-15.5c-4.1-4-10-6.3-15.8-6.2
					c-5.8,0-11.6,2.5-15.6,6.6c-4.1,4.1-6.5,9.9-6.5,15.7c0,0,0.8,0.7,2.1,0.7c-1.2,0.1-2,0.8-2,0.8c0.3,5.8,3.1,11.4,7.4,15.3
					c4.3,3.9,10.2,6,16,5.7C851.7,315.2,857.4,312.5,861.3,308.2z"/>
				<path class="st2" d="M852.4,292.8c0.1,3.5-2,6.3-4.3,7.7c-2.4,1.5-5.1,1.8-7.5,1.4c-1.2-0.2-2.3-0.5-3.3-0.9
					c-1-0.4-2-0.9-2.8-1.4c-1.7-1-3-2.2-4.2-3.1c-0.6-0.5-1.1-0.9-1.6-1.3c-0.5-0.4-1-0.7-1.4-0.9c-0.9-0.5-1.7-0.7-2.4-0.7
					c0.7,0,1.5-0.3,2.4-0.8c0.4-0.3,0.9-0.6,1.4-1c0.5-0.4,1-0.8,1.6-1.3c1.2-1,2.4-2.2,4.1-3.3c0.8-0.6,1.7-1.1,2.7-1.6
					c1-0.5,2.1-0.9,3.2-1.1c2.3-0.5,5.1-0.4,7.5,0.9C850.1,286.6,852.3,289.3,852.4,292.8z"/>
				<path d="M802.9,294.3c0.2,5.8-2,11.7-6,15.9c-3.9,4.3-9.6,6.9-15.4,7.2c-5.8,0.3-11.7-1.8-16-5.7c-4.3-3.8-7.1-9.5-7.4-15.3
					c0,0,0.9-0.8,2.2-0.8c0,0,0,0,0.1,0c0.7,0,1.5,0.2,2.4,0.7c0.4,0.2,0.9,0.5,1.4,0.9c0.5,0.4,1.1,0.8,1.6,1.3
					c1.2,0.9,2.5,2.1,4.2,3.1c0.8,0.5,1.8,1,2.8,1.4c1,0.4,2.1,0.7,3.3,0.9c2.3,0.4,5.1,0.1,7.5-1.4c2.3-1.4,4.4-4.2,4.3-7.7
					c-0.1-3.5-2.3-6.2-4.8-7.5c-2.5-1.3-5.2-1.5-7.5-1c-1.2,0.3-2.2,0.7-3.3,1.1c-1,0.5-1.9,1-2.7,1.6c-1.6,1.2-2.9,2.3-4,3.3
					c-0.5,0.5-1,1-1.6,1.3c-0.5,0.4-0.9,0.7-1.4,1c-0.9,0.5-1.7,0.8-2.4,0.8c0,0,0,0-0.1,0c-1.3,0.1-2.2-0.7-2.2-0.7
					c0-5.8,2.4-11.6,6.5-15.7c4.1-4.1,9.8-6.6,15.6-6.6c5.8-0.1,11.6,2.2,15.8,6.2C800.2,282.7,802.8,288.5,802.9,294.3z"/>
				<path class="st2" d="M762.9,296.2c-0.9-0.5-1.7-0.7-2.4-0.7c0,0,0,0-0.1,0v0c0,0,0,0,0.1,0c0.7,0,1.5-0.3,2.4-0.8
					c0.4-0.3,0.9-0.6,1.4-1c0.5-0.4,1-0.8,1.6-1.3c1.2-1,2.4-2.2,4-3.3c0.8-0.6,1.7-1.1,2.7-1.6c1-0.5,2.1-0.9,3.3-1.1
					c2.3-0.5,5.1-0.4,7.5,1c2.4,1.3,4.6,3.9,4.8,7.5c0.1,3.5-2,6.3-4.3,7.7c-2.4,1.5-5.1,1.8-7.5,1.4c-1.2-0.2-2.3-0.5-3.3-0.9
					c-1-0.4-2-0.9-2.8-1.4c-1.7-1-3-2.2-4.2-3.1c-0.6-0.5-1.1-0.9-1.6-1.3C763.8,296.7,763.4,296.4,762.9,296.2z"/>
				<path class="st3" d="M935.3,346.7c-2.7-3.3-5.4-6.7-8-10.1c-10.6-13.5-20.9-27.3-30.6-41.4c-9.7-14.1-18.9-28.6-27-43.5
					c-4-7.5-7.8-15-11-22.7c-3.2-7.7-6-15.5-7.6-23.3c0,0-0.4-1-1-2.1c-0.6-1-1.4-2-2-1.7c-0.7,0.3-1.2,1.7-1.3,5.8
					c0.1,3.4,0.6,8.6,2.5,16.1c-16.4-2.2-32.8-4.7-49.2-7.4c-17-2.8-34-5.9-50.8-9.5c-8.4-1.8-16.7-3.7-25-5.9
					c-8.2-2.1-16.4-4.5-24.1-7.4c-3.8-1.5-7.5-3.1-10.4-4.9l-0.8-0.5l1-0.5c1.5-0.7,3.3-1.5,5.1-2.1c3.7-1.3,7.7-2.3,11.7-3.3
					c4.1-0.9,8.2-1.8,12.4-2.5c4.2-0.7,8.5-1.5,12.5-2c8.4-1,17-1.9,25.5-2.5c17.1-1.3,34.2-2,51.3-1.9c17.1,0.1,34.2,1,51,3.2
					c16.8,2.2,33.4,5.5,48.9,11.3c7.7,2.8,15.1,6.4,21.9,10.7c3.3,2.2,6.5,4.5,9.4,7.1c1.5,1.3,2.8,2.7,4.2,4.1
					c1.2,1.5,2.6,2.9,3.6,4.4c4.6,6.1,7.6,13.1,9.1,20.5c1.4,7.5,1.4,15.4,0.2,23.3l-14.2,97.4L935.3,346.7z"/>
			</g>
		</g>
	</g>
	<g>
		<g id="XMLID_17_">
			<g>
				<path class="st3" d="M321,245.2c0.9,7.6,0.4,15.4-1.3,23.3l-20.3,96.3l-6.7-9.3c-2.5-3.5-4.9-7-7.4-10.6
					c-9.7-14.2-19.1-28.6-27.9-43.3c-8.8-14.7-17-29.7-24.2-45.1c-3.5-7.7-6.8-15.5-9.5-23.4c-2.7-7.9-5-15.9-6.1-23.8
					c0,0-0.4-1.1-0.9-2.1c-0.5-1-1.3-2.1-1.9-1.8c-0.7,0.2-1.3,1.6-1.7,5.7c-0.1,3.4,0,8.6,1.4,16.3c-16.2-3.2-32.5-6.8-48.6-10.5
					c-16.8-3.9-33.5-8.1-50.1-12.7c-8.3-2.3-16.5-4.8-24.6-7.4c-8.1-2.7-16.1-5.5-23.5-8.9c-3.7-1.7-7.3-3.5-10.1-5.5l-0.7-0.6
					l1-0.4c1.6-0.7,3.4-1.2,5.3-1.8c3.8-1,7.8-1.8,11.9-2.5c4.1-0.7,8.3-1.2,12.5-1.7c4.2-0.5,8.5-0.9,12.6-1.2
					c8.5-0.5,17.1-0.8,25.6-0.9c17.1-0.2,34.3,0.2,51.3,1.4c17,1.2,34,3.2,50.7,6.4c16.6,3.2,33,7.6,48.1,14.3
					c7.5,3.3,14.7,7.3,21.1,12c3.2,2.4,6.2,4.9,8.9,7.7c1.4,1.4,2.6,2.9,3.9,4.3c1.1,1.5,2.4,3,3.4,4.6
					C317.4,230.5,320,237.7,321,245.2z"/>
				<path class="st1" d="M290.6,655.1l0.1,3.8l-0.2,0.1l-0.1,0.1l-0.7,0.2c-4.5,1.5-9.2,2.8-14.1,3.8c-2.4,0.5-4.9,1-7.3,1.5
					c-2.4,0.5-4.9,0.9-7.4,1.2c-9.9,1.5-20,2.6-30.2,3.3c-20.3,1.5-40.7,1.9-61.2,1.8c-20.5-0.2-40.9-1-61.2-2.8
					c-10.1-0.9-20.2-2.1-30.2-3.7l-7.4-1.3c-2.5-0.5-5-0.9-7.4-1.5c-2.4-0.5-4.9-1.1-7.2-1.7l-1.6-0.4l0.1-2.1l0.4-7.7
					c0.3-5.2,0.7-10.3,1.2-15.5c0.9-10.3,2.1-20.6,3.5-30.9c2.9-20.5,6.8-40.9,12.1-60.8c5.3-19.9,12-39.5,20.8-57.9
					c4.3-9.2,9.4-18.1,14.9-26.5l2.1-3.1c0.7-1,1.4-2.1,2.2-3.1l4.5-6c1.3-1.5,2.5-2.9,3.8-4.4c2.6,0.2,5.2,0.3,7.8,0.2l4.1-0.1
					l3.8-0.2l7.6-0.3c7.5-0.3,15-0.5,22.6-0.7c-3.5,5.4-8.1,13.1-13.9,24c-4.6,8.5-9.9,18.9-16.2,31.5c-3.1,6.4-6.5,13.3-10.1,20.8
					c-1.8,3.8-3.7,7.7-5.6,11.8c-1,2.1-1.9,4.1-2.9,6.3c-1.6,3.4-3.2,6.9-4.8,10.4c7.7,9.5,16.1,19.9,25.2,31
					c4.1,5,8.3,10.2,12.7,15.5c5.7,6.9,11.7,14.1,17.9,21.6c1,1.2,2,2.4,2.9,3.6c6.7-7.8,13.2-15.3,19.5-22.5
					c4.4-5.1,8.6-10.1,12.7-14.8c9-10.6,17.3-20.4,25-29.5c-1.2-3.5-2.5-7-3.7-10.5c-0.8-2.2-1.6-4.4-2.3-6.5
					c-1.6-4.3-3-8.3-4.5-12.3c-2.9-7.8-5.6-15.1-8.1-21.7c-5-13.2-9.4-24.1-13.1-32.9c-5.1-12.2-9.1-20.6-12.2-26.4
					c16.7-0.3,33.5-0.6,50.4-1.3c3.8-0.2,7.5-0.4,11.3-0.6c3.9,7.3,7.4,15.1,10.7,22.9c1,2.3,1.8,4.7,2.7,7c0.9,2.4,1.9,4.7,2.6,7.1
					l2.5,7.2c0.8,2.4,1.7,4.8,2.4,7.2c1.4,4.9,3,9.7,4.3,14.6l3.8,14.7c2.2,9.9,4.5,19.8,6.1,29.9l1.3,7.5l0.7,3.8l0.5,3.8l2.1,15.1
					l0.5,3.8l0.4,3.8l0.7,7.6c0.5,5.1,1,10.1,1.4,15.2l0.9,15.3c0.3,5.1,0.7,10.2,0.7,15.3L290.6,655.1z"/>
				<path d="M222.4,281.1c3.9,4.2,6.1,10.1,5.9,15.9c-0.2,5.8-2.8,11.5-7,15.5c-4.2,4-10,6.3-15.8,6.2c-5.8-0.1-11.6-2.5-15.6-6.7
					c-4.1-4.1-6.5-9.9-6.4-15.7c0,0,0.9-0.8,2.3-0.7c0.7,0,1.5,0.3,2.4,0.8c0.4,0.3,0.9,0.6,1.4,1c0.5,0.4,1,0.8,1.6,1.3
					c1.1,1,2.4,2.2,4,3.4c0.8,0.6,1.7,1.1,2.7,1.6c1,0.5,2.1,0.9,3.3,1.1c2.3,0.5,5.1,0.4,7.5-0.9c2.4-1.3,4.6-3.9,4.8-7.4
					c0.1-3.5-1.9-6.3-4.3-7.7c-2.4-1.5-5.1-1.8-7.4-1.4c-1.2,0.2-2.3,0.5-3.3,0.9c-1,0.4-2,0.9-2.8,1.4c-1.7,1-3,2.2-4.3,3.1
					c-0.6,0.5-1.1,0.9-1.6,1.3c-0.5,0.4-1,0.7-1.4,0.9c-0.9,0.5-1.7,0.7-2.4,0.7c-1.4,0-2.3-0.8-2.3-0.8c0.4-5.8,3.1-11.4,7.5-15.2
					c4.3-3.9,10.2-5.9,16-5.6C212.8,274.1,218.5,276.8,222.4,281.1z"/>
				<path class="st2" d="M220.8,370.1c-0.8,0.9-1.5,1.8-2.3,2.6c-0.8,0.8-1.5,1.7-2.2,2.5c-0.8,0.8-1.5,1.5-2.2,2.3
					c-2.9,2.9-5.7,5.4-8.3,7.6c-1.3,1.2-2.6,2.1-3.8,3c-0.6,0.5-1.2,0.9-1.8,1.4c-0.6,0.4-1.2,0.8-1.8,1.2c-1.2,0.8-2.2,1.5-3.3,2.3
					c-1.1,0.7-2.1,1.3-3,1.8c-1,0.6-1.8,1.2-2.7,1.7c-0.9,0.5-1.7,0.9-2.4,1.3c-1.5,0.9-2.8,1.8-3.9,2.4c-4.5,2.6-5.8,4.7-5.7,6.1
					c0,1.4,1.4,2.1,1.4,2.1c9-1,17.6-3.9,25.5-8c7.9-4.1,15-9.3,21.3-15.2c1.5-1.5,3.1-3,4.6-4.6l2.2-2.4c0.1-0.1,0.1-0.1,0.3-0.4
					l0.5-0.6l0.9-1.1l1.8-2.2c0.6-0.7,1.3-1.5,1.8-2.2l1.7-2.3c1.1-1.6,2.3-3.1,3.2-4.6l2.9-4.5l1.4-2.3l0.7-1.2l0.4-0.6l0.1-0.1
					c0,0-0.1,0-0.1,0l-0.3-0.1l-10.3-1.7c-0.8-0.2-1.9-0.2-2.9-0.3l-3-0.2l-6-0.4l-13.4-1l-96.5-7c0,0,0,0-0.1,0.1
					c0-0.3-0.1-0.5-0.1-0.8c-0.5-2.9-0.6-4.8-0.7-6.3c-0.2-1.4-0.3-2.5-0.7-3.1c-0.4-0.6-1.3-0.4-1.2-0.5c-0.3,0.3-0.6,0.6-0.7,0.9
					c-0.2,0.3-0.4,0.6-0.6,0.9c-0.4,0.6-0.7,1.2-0.9,1.7c-0.3,0.6-0.5,1.2-0.6,1.8c-0.2,0.6-0.3,1.2-0.4,1.7
					c-0.5,2.3-0.4,4.5-0.2,6.7c0.4,4.3,1.8,8.1,3.2,11.9c3.1,7.3,7.3,13.9,11.7,20.2c0,0,2.1-0.2,2.3-3.2c0.1-1.5-0.3-3.6-1.5-6.8
					c-1.1-3.2-3.3-7.3-5.7-13.1c-1-2.3-1.7-4.3-2.3-6.1c6.7,4.6,28.5,11.1,94,15.8c3.6,0.3,7.1,0.5,10.4,0.7l0.3,0c0,0,0,0,0,0h0
					l0,0l0,0c0,0,0.1,0,0.2-0.1c0.1,0,0.2,0,0.3-0.1c0,0,0.1,0,0.1,0.1c0,0.1,0.1,0.2-0.1,0.6l-0.1,0.1l0,0.1c0,0,0,0-0.1,0.1
					C221.6,369.2,221.2,369.6,220.8,370.1z M185.8,295.5c-1.4-0.1-2.3,0.7-2.3,0.7c0,5.8,2.3,11.6,6.4,15.7c4,4.1,9.8,6.6,15.6,6.7
					c5.8,0.1,11.6-2.2,15.8-6.2c4.2-4,6.8-9.7,7-15.5c0.2-5.8-2-11.7-5.9-15.9c-3.9-4.3-9.6-7-15.3-7.2c-5.8-0.3-11.7,1.8-16,5.6
					c-4.4,3.8-7.1,9.4-7.5,15.2C183.5,294.7,184.4,295.6,185.8,295.5L185.8,295.5z M305.6,395.6l0.3,0.4c-0.2,1-0.4,2.1-0.6,3.2
					c-0.3,1.2-0.7,2.4-1.1,3.7c-1.8,4.9-5.4,9.5-10.9,12.8c-5.7,3.2-13.1,5.4-21.7,6.7c-17.3,2.7-39.2,2.8-65.6,3
					c-13.2,0.1-27.6,0.2-43.2,0.5c-7.8,0.2-16,0.4-24.4,0.8c-2.1,0.1-4.3,0.2-6.4,0.3c-1.1,0.1-2.1,0.1-3.1,0.1c-1,0-2,0-3,0
					c-4-0.1-8-0.3-11.8-1.2c-3.8-0.8-7.5-1.9-10.7-3.6c-3.2-1.7-6.1-3.7-8.6-6.1c-2.5-2.4-4.5-5.3-6.3-8.2c-1.8-3-3.1-6.2-4.2-9.5
					c-2.2-6.6-3.3-13.6-3.9-20.3c-0.6-6.8-0.6-13.4-0.3-19.8c0.6-12.8,2.2-24.6,4.1-35.3c1.9-10.7,4-20.4,6-29.2
					c4.1-17.6,8-31.4,11-42.5c3-11,5.2-19.2,6.7-25.3c1.2-5.2,1.9-8.8,2.2-11.4c2.2,0.6,4.3,1.1,6.4,1.6c12.2,2.9,23.1,5.3,32.7,7.1
					c19.2,3.8,33.5,5.9,44,7.2c11.4,1.4,18.4,1.8,22.4,1.6c4.7,20.5,18.2,55.5,51.7,108.4c4.2,6.6,8.7,13.5,13.5,20.6
					c2.4,3.6,4.9,7.2,7.5,11c1.1,1.5,2.2,3.1,3.3,4.6c1.2,1.7,2.4,3.3,3.7,5c2.5,3.3,5,6.6,7.5,10l1.9,2.6L305.6,395.6z
					 M163.9,294.8c0.2-5.8-2-11.7-5.9-15.9c-3.9-4.3-9.5-7-15.3-7.2c-5.8-0.3-11.7,1.8-16,5.6c-4.3,3.8-7.1,9.4-7.5,15.2
					c0,0,0.7,0.7,2,0.8c-1.2,0-2,0.7-2,0.7c0,5.8,2.3,11.6,6.4,15.7c4,4.2,9.8,6.6,15.6,6.7c5.8,0.1,11.6-2.1,15.8-6.2
					C161.2,306.3,163.8,300.6,163.9,294.8z"/>
				<path d="M216.7,207.3c0.5,1,0.9,2.1,0.9,2.1c1.1,7.9,3.4,15.9,6.1,23.8c2.7,7.9,6,15.7,9.5,23.4c7.2,15.4,15.4,30.4,24.2,45.1
					c8.8,14.7,18.2,29.1,27.9,43.3c2.4,3.5,4.9,7.1,7.4,10.6l6.7,9.3l20.3-96.3c1.7-7.9,2.3-15.7,1.3-23.3c-1-7.5-3.6-14.7-7.8-21.1
					c-1-1.6-2.2-3.1-3.4-4.6c-1.3-1.4-2.5-2.9-3.9-4.3c-2.7-2.8-5.7-5.3-8.9-7.7c-6.4-4.7-13.6-8.7-21.1-12
					c-15.1-6.7-31.5-11.1-48.1-14.3c-16.6-3.2-33.6-5.2-50.7-6.4c-17-1.2-34.2-1.6-51.3-1.4c-8.6,0.1-17.1,0.4-25.6,0.9
					c-4,0.2-8.4,0.7-12.6,1.2c-4.2,0.5-8.4,1-12.5,1.7c-4.1,0.7-8.2,1.5-11.9,2.5c-1.9,0.5-3.7,1.1-5.3,1.8l-1,0.4l0.7,0.6
					c2.8,2,6.4,3.9,10.1,5.5c7.5,3.4,15.5,6.3,23.5,8.9c8.1,2.7,16.3,5.1,24.6,7.4c16.5,4.6,33.3,8.8,50.1,12.7
					c16.1,3.7,32.4,7.3,48.6,10.5c-1.4-7.6-1.6-12.9-1.4-16.3c0.4-4,1-5.5,1.7-5.7C215.4,205.2,216.1,206.3,216.7,207.3z
					 M477.7,482.8c4.9,4,5.6,6.3,5.1,7.6c-0.5,1.3-2.1,1.6-2.1,1.6l-13.6-5.6l-6.8-2.8l-6.9-2.5l-13.9-5l-14.1-4.4l-7.1-2.2
					l-7.1-1.9l-14.3-3.8c-9.6-2.2-19.2-4.6-28.9-6.4c-19.4-3.9-38.9-6.9-58.6-8.9c-17.3-1.8-34.7-3-51.9-3.3c0.6,1,1.2,2,1.8,3
					c4.7,8.3,10.5,19.9,16.7,36.5c6.2,16.6,12.7,38,18.2,65.7c5.4,27.6,9.7,61.5,10.7,102.4c0.1,3,0.2,6.1,0.2,9.2
					c0,0.6,0,1.2,0,1.8l-0.1,1.8l-0.1,1.8l0,0.4c0,0.1,0,0.3-0.2,0.4l-0.8,0.4c-2.1,1.1-4.3,2.3-6.5,3.1c-2.6,1.1-3.5,1.3-4.9,1.8
					c-1.4,0.5-2.7,0.8-4.1,1.3c-1.4,0.4-2.7,0.7-4.1,1.1c-1.4,0.4-2.8,0.7-4.2,1c-11.1,2.6-22.7,4.3-34.8,5.6
					c-8.6,0.9-17.5,1.6-26.6,2.1c2.4,14.6,3.5,45.5-0.4,109.7c-0.7,11.7-1.5,22.2-2.2,31.7c-0.4,4.8-0.8,9.3-1.2,13.6
					c-0.5,5.9-0.5,4.2-0.8,5.4c0.2,0.1,0.6,0.2,1,0.3c0.1,0,0.1,0,0.2,0l0.8,0c0.6,0,1.1,0.1,1.7,0.1c1.1,0.1,2.2,0.1,3.2,0.2
					c4.2,0.3,8.1,0.6,11.6,0.9c7.1,0.6,12.9,1.3,17.7,2c9.6,1.5,14.9,3.1,17.9,4.6c5.8,3,1.8,5.6,1.8,5.6h-70.6L210,685.1
					c-13.8,0.6-28.1,0.7-43,0.6c-12.7-0.1-25.1-0.5-37-1.2c4.2,14.2,9.1,44.8,13.1,109.3c0.7,11.6,1.3,22.1,1.7,31.6
					c0.2,4.7,0.3,9.3,0.5,13.5c0.1,2.4,0.1,4.8,0.2,7.1c0.1,3.8,0.3,7.4,0.4,10.9c-4.5,0.5-8.8,1-13,1.5c-2.3,0.2-4.5,0.4-6.6,0.6
					c-4.2,0.3-8.1,0.6-11.7,0.8c-7.2,0.4-13.1,0.5-18,0.5c-9.8-0.1-15.4-1-18.5-2.1c-6.3-2.2-2.6-5.3-2.6-5.3l55.8-7.8l-9.9-161
					c-6.7-0.5-13.2-1-19.6-1.7c-10.2-1-20.1-2.4-29.6-4c-2.4-0.4-4.7-0.8-7.1-1.3c-2.3-0.4-4.7-0.9-7-1.5c-2.3-0.5-4.6-1.1-6.9-1.7
					l-2.6-0.7c-1-0.3-2.1-0.6-3.1-1c-2-0.7-4-1.4-6-2.1c0.1-2.3,0.1-4.6,0.2-6.9c0-1.2,0.1-2.3,0.1-3.5l0.1-2.1
					c0.1-2.4,0.3-4.8,0.4-7.1c0.3-4.7,0.7-9.3,1.1-13.8c0.8-9,1.9-17.6,3-25.9c2.3-16.6,5.2-31.7,8.3-45.5
					c3.2-13.8,6.7-26.3,10.3-37.5c1.8-5.6,3.8-10.9,5.6-15.9c2-5,3.8-9.7,5.8-14.1c0.1-0.3,0.3-0.7,0.4-1
					c-5.1,8.1-10.8,17.6-16.7,28.9c-3.8,7.1-7.5,14.9-11.4,23.5c-0.9,2.2-1.9,4.4-2.8,6.6c-0.5,1.1-1,2.3-1.5,3.4
					c-0.4,1.2-0.9,2.3-1.3,3.5c-0.9,2.4-1.9,4.8-2.8,7.2c-0.9,2.5-1.8,5-2.7,7.6c-7.2,20.7-11.3,39-14.4,54.8c-0.7,4-1.3,7.8-2,11.4
					c-0.3,1.8-0.6,3.6-0.8,5.4c-0.3,1.7-0.5,3.4-0.7,5.1c-1.1,6.7-1.6,12.8-2.3,18.3c-0.4,2.8-0.6,5.4-0.8,7.9
					c-0.3,2.5-0.5,4.9-0.7,7.1c-0.6,4.5-0.7,8.5-1.1,12c-0.3,3.5-0.7,6.6-1.1,9.3c-0.3,2.7-0.6,4.9-0.9,6.9
					c-1.3,7.7-3.1,10-4.4,10.2c-1.4,0.3-2.4-1.5-2.4-1.5c-2.1-25.5-1.9-51.2,0.9-76.6c0.3-3.2,0.8-6.4,1.2-9.5
					c0.5-3.2,0.9-6.3,1.4-9.5c1.2-6.3,2.2-12.6,3.7-18.9c2.7-12.5,6.3-24.9,10.4-37c4.1-12.2,9-24,14.6-35.6
					c5.6-11.6,11.8-22.8,18.6-33.7c6.9-10.9,14.4-21.3,22.6-31.2c4.1-5,8.4-9.8,12.9-14.5s9.1-9.2,14.2-13.5c0,0,0.5-0.1,1.2-0.1
					c0.6,0,1.4,0.1,1.8,0.7c0,0,0.1,0.1,0.1,0.2c1.2-1.3,2.4-2.6,3.5-3.7c0.3-0.2,0.5-0.4,0.7-0.7c-0.3-0.1-0.6-0.1-0.9-0.2
					c-5.6-1.2-11.2-3.1-16.4-6c-5.2-2.9-9.9-6.9-13.6-11.5c-3.8-4.6-6.7-9.7-8.8-15c-2.2-5.3-3.6-10.7-4.6-16.1
					c-2-10.8-2.2-21.5-1.8-32c0.5-10.6,1.8-20.9,3.6-31.1c3.6-20.5,8.9-40.4,15.2-60c6-18.8,12.8-37.1,20.5-55.3
					c-9.1-2.4-18.9-5.1-29.4-8.7c-3.7-1.3-7.6-2.7-11.5-4.3c-3.9-1.7-7.9-3.5-12-6c-1-0.6-2.1-1.3-3.1-2.1c-1.3-1-2.9-2.4-4-3.8
					c-1.2-1.5-2.1-3.1-2.5-4.9c-0.4-1.8-0.4-3.7,0.2-5.4c0.6-1.8,1.7-3.3,3.1-4.7c1.4-1.3,3.2-2.5,4.9-3.4l1.1-0.5l1-0.4
					c0.6-0.3,1.2-0.5,1.9-0.8c1.2-0.5,2.5-0.9,3.7-1.3c4.9-1.5,9.8-2.5,14.9-3.4c5-0.9,10.2-1.6,15.4-2.2c2.6-0.3,5.3-0.6,8-0.9
					c2.9-0.2,5.5-0.4,8.2-0.6c5.5-0.3,11.1-0.6,16.8-0.7c22.8-0.6,47.7-0.2,74.5,2.5c13.4,1.4,27.4,3.4,41.8,6.4
					c14.4,3.1,29.2,7.3,44.1,13.8c7.4,3.3,14.5,7.1,21.1,11.7c6.6,4.6,12.6,9.9,17.7,16c5.1,6.1,9.1,13.2,11.7,20.5
					c2.6,7.4,3.7,15,3.7,22.4c0,3.7-0.3,7.3-0.7,10.8c-0.2,1.8-0.5,3.5-0.8,5.2c-0.3,1.7-0.7,3.4-1,4.9c-1.3,6.3-2.7,12.4-4,18.4
					c-2.6,12-5.1,23.5-7.6,34.5c-2.5,11-4.8,21.6-7,31.7c-1,4.5-2,9-3,13.4c0.7,2.3,1.3,4.6,1.8,7c1,5.4,1.9,11,1.7,16.9
					c-0.2,5.9-1.5,12.3-4.7,18c-3.2,5.7-8.2,10.3-13.4,13.3c-5.2,3.1-10.6,5-15.9,6.5c-3.1,0.8-6.2,1.5-9.3,2.1
					c5.3-0.5,11.6-0.8,19.4-0.8c18.1,0,43.8,1.6,79.2,8.6c35.4,7,59.7,15.8,76.4,22.8c4.1,1.9,7.8,3.6,11.1,5.2
					c3.3,1.6,6.2,3,8.6,4.6C471.7,478.4,475.2,480.8,477.7,482.8z M305.9,396l-0.3-0.4l-1-1.3l-1.9-2.6c-2.5-3.4-5-6.7-7.5-10
					c-1.2-1.7-2.4-3.3-3.7-5c-1.1-1.5-2.2-3.1-3.3-4.6c-2.6-3.7-5.1-7.4-7.5-11c-4.8-7.2-9.4-14-13.5-20.6
					c-33.5-52.9-46.9-87.8-51.7-108.4c-4,0.1-11-0.2-22.4-1.6c-10.5-1.3-24.8-3.5-44-7.2c-9.6-1.9-20.5-4.2-32.7-7.1
					c-2.1-0.5-4.2-1-6.4-1.6c-0.3,2.5-0.9,6.2-2.2,11.4c-1.4,6.1-3.7,14.2-6.7,25.3c-3,11-6.9,24.9-11,42.5
					c-2.1,8.8-4.1,18.5-6,29.2c-1.9,10.7-3.5,22.5-4.1,35.3c-0.3,6.4-0.3,13,0.3,19.8c0.6,6.7,1.7,13.7,3.9,20.3
					c1.1,3.3,2.4,6.5,4.2,9.5c1.8,3,3.8,5.8,6.3,8.2c2.5,2.4,5.3,4.5,8.6,6.1c3.2,1.7,6.9,2.8,10.7,3.6c3.8,0.9,7.9,1.1,11.8,1.2
					c1,0,2,0,3,0c1,0,2,0,3.1-0.1c2.1-0.1,4.3-0.2,6.4-0.3c8.5-0.4,16.6-0.6,24.4-0.8c15.6-0.3,30-0.4,43.2-0.5
					c26.4-0.2,48.3-0.3,65.6-3c8.7-1.3,16-3.5,21.7-6.7c5.6-3.3,9.1-7.9,10.9-12.8c0.4-1.3,0.8-2.5,1.1-3.7
					C305.5,398.1,305.7,397,305.9,396z M290.6,659l-0.1-3.8l-0.3-15.3c0-5.1-0.4-10.2-0.7-15.3l-0.9-15.3c-0.4-5.1-1-10.1-1.4-15.2
					l-0.7-7.6l-0.4-3.8l-0.5-3.8l-2.1-15.1l-0.5-3.8l-0.7-3.8l-1.3-7.5c-1.6-10-4-19.9-6.1-29.9l-3.8-14.7
					c-1.3-4.9-2.9-9.7-4.3-14.6c-0.7-2.4-1.6-4.8-2.4-7.2l-2.5-7.2c-0.8-2.4-1.8-4.7-2.6-7.1c-0.9-2.3-1.8-4.7-2.7-7
					c-3.2-7.8-6.8-15.5-10.7-22.9c-3.8,0.2-7.5,0.5-11.3,0.6c-16.9,0.7-33.7,1-50.4,1.3c3.1,5.8,7.1,14.2,12.2,26.4
					c3.7,8.8,8.1,19.7,13.1,32.9c2.5,6.6,5.2,13.8,8.1,21.7c1.4,3.9,2.9,8,4.5,12.3c0.8,2.1,1.5,4.3,2.3,6.5
					c1.2,3.4,2.4,6.9,3.7,10.5c-7.7,9.1-16,18.9-25,29.5c-4.1,4.8-8.3,9.7-12.7,14.8c-6.3,7.2-12.8,14.7-19.5,22.5
					c-1-1.2-2-2.4-2.9-3.6c-6.2-7.5-12.1-14.7-17.9-21.6c-4.4-5.4-8.6-10.6-12.7-15.5c-9.1-11.2-17.4-21.5-25.2-31
					c1.6-3.5,3.2-7,4.8-10.4c1-2.1,2-4.2,2.9-6.3c1.9-4.1,3.8-8,5.6-11.8c3.6-7.6,7-14.5,10.1-20.8c6.3-12.7,11.6-23.1,16.2-31.5
					c5.9-10.8,10.4-18.5,13.9-24c-7.5,0.2-15.1,0.4-22.6,0.7l-7.6,0.3l-3.8,0.2l-4.1,0.1c-2.6,0-5.1,0-7.8-0.2
					c-1.3,1.5-2.5,2.9-3.8,4.4l-4.5,6c-0.8,1-1.5,2-2.2,3.1l-2.1,3.1c-5.6,8.4-10.6,17.2-14.9,26.5c-8.8,18.4-15.5,37.9-20.8,57.9
					c-5.3,19.9-9.2,40.3-12.1,60.8c-1.5,10.3-2.6,20.6-3.5,30.9c-0.5,5.2-0.9,10.3-1.2,15.5l-0.4,7.7l-0.1,2.1l1.6,0.4
					c2.4,0.6,4.8,1.2,7.2,1.7c2.4,0.5,4.9,1,7.4,1.5l7.4,1.3c10,1.6,20.1,2.7,30.2,3.7c20.3,1.8,40.7,2.6,61.2,2.8
					c20.5,0.2,40.9-0.2,61.2-1.8c10.1-0.7,20.2-1.8,30.2-3.3c2.5-0.4,5-0.7,7.4-1.2c2.5-0.4,4.9-0.9,7.3-1.5c4.8-1,9.6-2.3,14.1-3.8
					l0.7-0.2l0.1-0.1L290.6,659z M256.6,437.7c1.1-0.3,2.4-0.7,3.9-1c-2.8,0.3-5.5,0.6-8.2,0.8c0.3,0.4,0.6,0.9,0.9,1.3
					C254.2,438.5,255.3,438.1,256.6,437.7z M212,547.1l-35.8-106.8c-0.6,0-1.2,0-1.7,0L128.8,543l42.4,51.1L212,547.1z"/>
				<path class="st0" d="M176.2,440.2L212,547.1l-40.9,47.1L128.8,543l45.7-102.8C175,440.3,175.6,440.2,176.2,440.2z"/>
				<path class="st2" d="M188.2,296.4c-0.9-0.5-1.7-0.8-2.4-0.8v0c0.7,0,1.5-0.2,2.4-0.7c0.5-0.2,0.9-0.5,1.4-0.9
					c0.5-0.4,1.1-0.8,1.6-1.3c1.2-0.9,2.5-2,4.3-3.1c0.8-0.5,1.8-1,2.8-1.4c1-0.4,2.1-0.7,3.3-0.9c2.3-0.4,5.1,0,7.4,1.4
					c2.3,1.4,4.4,4.2,4.3,7.7c-0.1,3.5-2.4,6.2-4.8,7.4c-2.5,1.3-5.2,1.4-7.5,0.9c-1.2-0.3-2.2-0.7-3.3-1.1c-1-0.5-1.9-1-2.7-1.6
					c-1.6-1.1-2.9-2.3-4-3.4c-0.5-0.5-1-1-1.6-1.3C189.1,297,188.6,296.6,188.2,296.4z"/>
				<path d="M121.5,293.3c0.7,0,1.5,0.3,2.4,0.8c0.4,0.3,0.9,0.6,1.4,1c0.5,0.4,1,0.9,1.6,1.3c1.2,1,2.4,2.2,4,3.4
					c0.8,0.6,1.7,1.1,2.7,1.6c1,0.5,2.1,0.9,3.2,1.1c2.3,0.5,5.1,0.4,7.5-0.9c2.4-1.3,4.7-3.9,4.8-7.4c0.1-3.5-1.9-6.3-4.3-7.8
					c-2.4-1.5-5.1-1.8-7.5-1.4c-1.2,0.2-2.3,0.5-3.3,0.9c-1,0.4-2,0.9-2.8,1.4c-1.7,1-3,2.2-4.3,3.1c-0.6,0.5-1.1,0.9-1.6,1.2
					c-0.5,0.4-1,0.7-1.4,0.9C123,293.1,122.2,293.3,121.5,293.3z M121.2,293.3c-1.2-0.1-2-0.8-2-0.8c0.3-5.8,3.1-11.4,7.5-15.2
					c4.3-3.9,10.2-5.9,16-5.6c5.8,0.3,11.5,2.9,15.3,7.2c3.9,4.2,6.1,10.1,5.9,15.9c-0.2,5.8-2.7,11.5-7,15.5
					c-4.2,4-10,6.3-15.8,6.2c-5.8-0.1-11.6-2.5-15.6-6.7c-4.1-4.1-6.5-9.9-6.4-15.7C119.2,294,120,293.3,121.2,293.3z"/>
				<path class="st2" d="M144.8,286.5c2.3,1.5,4.4,4.2,4.3,7.8c-0.1,3.5-2.4,6.2-4.8,7.4c-2.5,1.3-5.2,1.4-7.5,0.9
					c-1.2-0.3-2.2-0.7-3.2-1.1c-1-0.5-1.9-1-2.7-1.6c-1.6-1.2-2.9-2.4-4-3.4c-0.5-0.5-1-1-1.6-1.3c-0.5-0.4-0.9-0.7-1.4-1
					c-0.9-0.5-1.7-0.8-2.4-0.8c0.7,0,1.5-0.2,2.4-0.7c0.4-0.2,0.9-0.5,1.4-0.9c0.5-0.4,1.1-0.8,1.6-1.2c1.2-0.9,2.5-2,4.3-3.1
					c0.8-0.5,1.8-1,2.8-1.4c1-0.4,2.1-0.7,3.3-0.9C139.7,284.7,142.4,285.1,144.8,286.5z"/>
				<path d="M247.7,355.9l0.3,0.1c0,0,0.1,0,0.1,0l-0.1,0.1l-0.4,0.6l-0.7,1.2l-1.4,2.3l-2.9,4.5c-0.9,1.5-2,3.1-3.2,4.6l-1.7,2.3
					c-0.6,0.8-1.2,1.5-1.8,2.2l-1.8,2.2l-0.9,1.1l-0.5,0.6c-0.2,0.2-0.2,0.2-0.3,0.4l-2.2,2.4c-1.5,1.6-3.1,3.1-4.6,4.6
					c-6.3,5.9-13.4,11.1-21.3,15.2c-7.8,4.1-16.5,7-25.5,8c0,0-1.4-0.7-1.4-2.1c-0.1-1.4,1.2-3.5,5.7-6.1c1.1-0.7,2.4-1.6,3.9-2.4
					c0.7-0.4,1.6-0.9,2.4-1.3c0.8-0.5,1.7-1.1,2.7-1.7c0.9-0.6,1.9-1.2,3-1.8c1-0.7,2.1-1.5,3.3-2.3c0.6-0.4,1.2-0.7,1.8-1.2
					c0.6-0.4,1.2-0.9,1.8-1.4c1.2-1,2.5-1.9,3.8-3c2.6-2.2,5.4-4.7,8.3-7.6c0.7-0.7,1.5-1.5,2.2-2.3c0.7-0.8,1.5-1.6,2.2-2.5
					c0.8-0.8,1.5-1.7,2.3-2.6c0.4-0.4,0.8-0.9,1.2-1.4c0.1-0.1,0.1-0.1,0.1-0.1l0-0.1l0.1-0.1c0.2-0.4,0.1-0.4,0.1-0.6
					c0,0-0.1-0.1-0.1-0.1c-0.1,0-0.2,0-0.3,0.1c-0.1,0-0.1,0-0.2,0.1l0,0l0,0h0c0,0,0,0,0,0l-0.3,0c-3.3-0.2-6.8-0.5-10.4-0.7
					c-65.5-4.7-87.4-11.2-94-15.8c0.6,1.8,1.3,3.8,2.3,6.1c2.4,5.8,4.6,9.9,5.7,13.1c1.2,3.2,1.6,5.3,1.5,6.8
					c-0.2,3-2.3,3.2-2.3,3.2c-4.4-6.3-8.6-12.9-11.7-20.2c-1.5-3.7-2.8-7.6-3.2-11.9c-0.2-2.2-0.3-4.4,0.2-6.7
					c0.1-0.6,0.2-1.2,0.4-1.7c0.2-0.6,0.4-1.2,0.6-1.8c0.2-0.6,0.5-1.2,0.9-1.7c0.1-0.3,0.4-0.6,0.6-0.9c0.2-0.3,0.5-0.6,0.7-0.9
					c-0.1,0,0.8-0.1,1.2,0.5c0.4,0.6,0.5,1.7,0.7,3.1c0.1,1.5,0.2,3.4,0.7,6.3c0,0.2,0.1,0.5,0.1,0.8c0.1,0,0.1-0.1,0.1-0.1l96.5,7
					l13.4,1l6,0.4l3,0.2c1,0.1,2.1,0.1,2.9,0.3L247.7,355.9z"/>
			</g>
		</g>
	</g>
	<g>
		<g id="XMLID_18_">
			<g>
				<path class="st3" d="M644.6,240.1c0.3,7.6-0.9,15.4-3.3,23.1l-28.6,94.2l-5.8-9.8c-2.2-3.7-4.3-7.4-6.4-11.2
					c-8.5-15-16.5-30.2-24-45.6c-7.5-15.4-14.4-31.1-20.2-47c-2.9-8-5.4-16-7.5-24.1c-2-8.1-3.6-16.2-4-24.2c0,0-0.3-1.1-0.7-2.2
					c-0.4-1.1-1.1-2.2-1.8-2c-0.7,0.2-1.5,1.5-2.2,5.5c-0.4,3.3-0.8,8.6,0,16.3c-15.9-4.7-31.8-9.6-47.5-14.7
					c-16.4-5.4-32.7-11-48.8-17c-8-3-16-6.2-23.8-9.5c-7.8-3.4-15.5-6.9-22.7-10.9c-3.5-2-7-4.2-9.5-6.4l-0.7-0.6l1-0.4
					c1.6-0.5,3.5-0.9,5.4-1.3c3.8-0.7,8-1.1,12.1-1.5c4.1-0.3,8.4-0.5,12.6-0.6c4.2-0.1,8.6-0.2,12.6-0.1c8.5,0.2,17.1,0.7,25.6,1.3
					c17.1,1.3,34.1,3.2,51,5.9c16.9,2.7,33.6,6.2,49.9,10.8c16.3,4.7,32.2,10.5,46.7,18.5c7.2,4,14,8.6,20,13.8
					c3,2.6,5.8,5.4,8.2,8.5c1.3,1.5,2.3,3.1,3.5,4.6c1,1.6,2.1,3.2,2.9,4.9C642.3,225.1,644.2,232.5,644.6,240.1z"/>
				<path class="st1" d="M607.1,643.3l0.1,3.8l-0.2,0.1l-0.1,0.1l-0.7,0.2c-4.5,1.5-9.2,2.8-14.1,3.8c-2.4,0.5-4.9,1-7.3,1.5
					c-2.5,0.5-4.9,0.9-7.4,1.2c-10,1.5-20,2.6-30.2,3.3c-20.3,1.5-40.7,1.9-61.2,1.8c-20.5-0.2-40.9-1-61.2-2.8
					c-10.1-1-20.2-2.1-30.2-3.7l-7.5-1.3c-2.5-0.5-4.9-0.9-7.4-1.5c-2.5-0.5-4.9-1.1-7.3-1.7l-1.6-0.4l0.1-2.1l0.4-7.7
					c0.3-5.2,0.7-10.3,1.2-15.5c0.9-10.3,2.1-20.6,3.5-30.9c2.9-20.5,6.8-40.9,12.2-60.8c5.3-19.9,12-39.5,20.8-57.9
					c4.3-9.2,9.4-18.1,14.9-26.5l2.1-3.1c0.7-1,1.4-2.1,2.2-3.1l4.5-6c3.2-3.8,6.4-7.7,10-11.1c0,0,1.3-2.1,1.5-3.5l6.2,0.3
					c10.1,0.5,20.2,1,30.3,1.7c2.1,0.1,4.3,0.3,6.4,0.4c-3.9,5-9.8,14.2-18.7,30.7c-4.6,8.5-9.9,18.9-16.2,31.5
					c-3.1,6.4-6.5,13.3-10.1,20.8c-1.8,3.8-3.7,7.7-5.6,11.8c-1,2.1-2,4.1-3,6.3c-1.6,3.4-3.1,6.9-4.8,10.4
					c7.7,9.5,16.1,19.9,25.1,31c4.1,5,8.3,10.2,12.7,15.5c5.7,6.9,11.7,14.1,17.9,21.6c1,1.2,2,2.4,2.9,3.6
					c6.7-7.8,13.2-15.3,19.5-22.5c4.4-5.1,8.6-10.1,12.7-14.8c9-10.6,17.3-20.5,25-29.5c-1.2-3.5-2.5-7-3.7-10.5
					c-0.8-2.2-1.6-4.4-2.3-6.5c-1.6-4.3-3-8.3-4.5-12.3c-2.9-7.8-5.6-15.1-8.1-21.7c-5-13.2-9.4-24.1-13.1-32.9
					c-7.1-16.9-12.1-26.6-15.5-32c14.7,1,29.4,2,44.2,2.7c6.8,0.3,13.6,0.4,20.4,0.4c4,7.5,7.7,15.4,11,23.5c1,2.3,1.8,4.7,2.8,7
					c0.9,2.4,1.9,4.7,2.6,7.1l2.5,7.2c0.8,2.4,1.7,4.8,2.3,7.2c1.4,4.9,3,9.7,4.3,14.6l3.8,14.7c2.2,9.9,4.5,19.8,6.2,29.9l1.3,7.5
					l0.7,3.8l0.5,3.8l2.1,15.1l0.5,3.8l0.4,3.8l0.7,7.6c0.5,5.1,1,10.1,1.4,15.2l0.9,15.3c0.3,5.1,0.7,10.2,0.7,15.3L607.1,643.3z"
					/>
				<path d="M544,193.2c0.4,1.1,0.7,2.2,0.7,2.2c0.4,7.9,2,16.1,4,24.2c2.1,8.1,4.6,16.1,7.5,24.1c5.8,15.9,12.7,31.6,20.2,47
					c7.5,15.4,15.6,30.6,24,45.6c2.1,3.7,4.3,7.5,6.4,11.2l5.8,9.8l28.6-94.2c2.4-7.7,3.6-15.5,3.3-23.1c-0.4-7.6-2.3-15-6-21.7
					c-0.8-1.7-1.9-3.3-2.9-4.9c-1.2-1.5-2.2-3.2-3.5-4.6c-2.4-3-5.3-5.8-8.2-8.5c-6-5.3-12.8-9.9-20-13.8
					c-14.5-8-30.4-13.8-46.7-18.5c-16.3-4.7-33-8.1-49.9-10.8c-16.9-2.7-33.9-4.6-51-5.9c-8.5-0.6-17.1-1.1-25.6-1.3
					c-4-0.1-8.4,0-12.6,0.1c-4.2,0.1-8.5,0.3-12.6,0.6c-4.1,0.3-8.3,0.8-12.1,1.5c-1.9,0.4-3.8,0.8-5.4,1.3l-1,0.4l0.7,0.6
					c2.6,2.2,6,4.4,9.5,6.4c7.1,4,14.9,7.6,22.7,10.9c7.8,3.4,15.8,6.5,23.8,9.5c16.1,6.1,32.4,11.7,48.8,17
					c15.7,5.1,31.6,10.1,47.5,14.7c-0.8-7.8-0.4-13,0-16.3c0.7-4,1.5-5.4,2.2-5.5C542.9,191,543.5,192.1,544,193.2z M438.9,420.4
					c0.6-0.4,1.2-0.7,1.7-1l-0.6,0C439.6,419.7,439.3,420.1,438.9,420.4z M444.3,419.6c-0.1,1.4-1.5,3.5-1.5,3.5
					c-3.6,3.4-6.7,7.3-10,11.1l-4.5,6c-0.8,1-1.5,2-2.2,3.1l-2.1,3.1c-5.6,8.4-10.6,17.2-14.9,26.5c-8.8,18.4-15.5,37.9-20.8,57.9
					c-5.3,19.9-9.2,40.3-12.2,60.8c-1.5,10.3-2.6,20.6-3.5,30.9c-0.5,5.2-0.8,10.3-1.2,15.5l-0.4,7.7l-0.1,2.1l1.6,0.4
					c2.4,0.6,4.8,1.2,7.3,1.7c2.4,0.6,4.9,1,7.4,1.5l7.5,1.3c10,1.6,20.1,2.7,30.2,3.7c20.3,1.8,40.7,2.6,61.2,2.8
					c20.4,0.2,40.9-0.2,61.2-1.8c10.1-0.7,20.2-1.8,30.2-3.3c2.5-0.4,5-0.7,7.4-1.2c2.5-0.4,4.9-0.9,7.3-1.5c4.9-1,9.6-2.3,14.1-3.8
					l0.7-0.2l0.1-0.1l0.2-0.1l-0.1-3.8l-0.3-15.3c0-5.1-0.4-10.2-0.7-15.3l-0.9-15.3c-0.4-5.1-1-10.1-1.4-15.2l-0.7-7.6l-0.4-3.8
					l-0.5-3.8l-2.1-15.1l-0.5-3.8l-0.7-3.8l-1.3-7.5c-1.6-10-4-19.9-6.2-29.9l-3.8-14.7c-1.3-4.9-2.9-9.7-4.3-14.6
					c-0.7-2.4-1.5-4.8-2.3-7.2l-2.5-7.2c-0.8-2.4-1.8-4.7-2.6-7.1c-0.9-2.3-1.8-4.7-2.8-7c-3.3-8-6.9-15.9-11-23.5
					c-6.9,0-13.7-0.1-20.4-0.4c-14.9-0.6-29.6-1.7-44.2-2.7c3.4,5.4,8.4,15.1,15.5,32c3.7,8.9,8.1,19.7,13.1,32.9
					c2.5,6.6,5.2,13.8,8.1,21.7c1.4,3.9,2.9,8,4.5,12.3c0.8,2.1,1.5,4.3,2.3,6.5c1.2,3.4,2.4,6.9,3.7,10.5c-7.7,9.1-16,18.9-25,29.5
					c-4.1,4.8-8.3,9.7-12.7,14.8c-6.3,7.2-12.7,14.7-19.5,22.5c-1-1.2-2-2.4-2.9-3.6c-6.2-7.5-12.1-14.7-17.9-21.6
					c-4.4-5.4-8.7-10.6-12.7-15.5c-9.1-11.2-17.4-21.5-25.1-31c1.6-3.5,3.2-7,4.8-10.4c1-2.1,2-4.2,3-6.3c1.9-4.1,3.8-8,5.6-11.8
					c3.6-7.6,7-14.5,10.1-20.8c6.3-12.7,11.6-23.1,16.2-31.5c8.9-16.5,14.8-25.7,18.7-30.7c-2.1-0.1-4.3-0.3-6.4-0.4
					c-10.1-0.6-20.2-1.2-30.3-1.7L444.3,419.6z M663.1,549c5,22.5,5.3,42.4,3.4,59c-1.1,8.3-2.3,15.8-4.1,22.6
					c-1.4,6.8-3.6,12.7-5.4,18.1c-3.9,10.7-7.7,18.8-11.3,25c-1.8,3.1-3.2,5.8-4.8,8c-1.6,2.2-2.9,4-4.2,5.5c-4.9,6-7.4,6.9-8.7,6.3
					c-1.3-0.5-1.4-2.5-1.4-2.5c11-21.5,19.2-44.3,23.4-67.8c1.9-11.8,3.2-23.6,2.8-35.5c-0.3-11.9-1.5-23.7-4.3-35.2
					C639,510.1,613,471.9,579.7,444c3.8,7.4,8.1,16.9,12.7,28.8c6.2,16.6,12.7,38,18.1,65.7c5.4,27.6,9.7,61.5,10.7,102.4
					c0.1,3,0.2,6.1,0.3,9.2c0,0.6,0,1.2,0,1.8l-0.1,1.8l-0.1,1.8l0,0.4c0,0.1,0,0.3-0.2,0.4l-0.8,0.4c-2.1,1.1-4.3,2.3-6.5,3.1
					c-2.6,1.1-3.5,1.3-4.9,1.8c-1.4,0.5-2.7,0.8-4.1,1.3c-1.4,0.4-2.7,0.7-4.1,1.1c-1.4,0.4-2.8,0.7-4.2,1
					c-11.1,2.6-22.7,4.3-34.8,5.6c-4.7,0.5-9.5,0.9-14.4,1.3c-0.5,13.1-6.9,44-31,115.4c-4.4,13-8.4,24.5-12.1,34.8
					c-1.9,5.1-3.6,10-5.3,14.5c-0.2,0.6-0.4,1.1-0.6,1.7l-0.3,0.8c-0.1,0.2-0.2,0.5-0.2,0.6l-0.3,0.4c-0.2,0.3-0.4,0.7-0.7,1.1
					c0.3,0.1,0.6,0.2,1,0.4c0.2,0.1,0.5,0.1,0.7,0.2c0,0,0.3,0,0.6,0l0.8,0c0.5,0,1,0.1,1.5,0.1c4.1,0.3,7.8,0.6,11.2,0.9
					c6.8,0.6,12.4,1.3,17,2c9.2,1.4,14.3,3,17.1,4.5c5.5,2.9,1.5,5.4,1.5,5.4h-70.3l0.7-2.2l60.7-180c-17.7,1.1-36.2,1.5-55.8,1.3
					c-23.1-0.3-44.8-1.3-65.2-3.4c-3.8-0.4-7.5-0.8-11.1-1.3c7.2,8.8,21,36,46.9,112.9c4.3,12.9,8.1,24.5,11.4,34.8
					c4.1,13.1,7.6,24.7,10.8,34.9c-8.7,0.8-18.2,1.7-20.8,1.8c-4.1,0.2-7.8,0.4-11.3,0.5c-6.9,0.2-12.6,0.2-17.3,0.1
					c-9.4-0.3-14.7-1.3-17.6-2.4c-5.9-2.3-2.2-5.2-2.2-5.2l50.9-6.2l-58-172.2c-3.8-0.6-7.6-1.1-11.3-1.8c-2.4-0.4-4.8-0.8-7.1-1.3
					c-2.3-0.4-4.7-0.9-7-1.5c-2.3-0.5-4.6-1.1-6.9-1.7l-2.6-0.7c-1-0.3-2.1-0.6-3.1-1c-2-0.7-4-1.4-6-2.1c0.1-2.3,0.1-4.6,0.2-6.9
					c0-1.2,0.1-2.3,0.1-3.5l0.1-2.1c0.1-2.4,0.3-4.8,0.4-7.1c0.3-4.7,0.7-9.3,1.1-13.8c0.9-9,1.9-17.6,3-25.9
					c2.3-16.6,5.2-31.7,8.3-45.5c3.2-13.8,6.7-26.3,10.3-37.5c1.8-5.6,3.8-10.9,5.6-15.9c2-5,3.8-9.7,5.8-14.1
					c7.8-17.6,15.7-30.7,22.7-40.2c1.8-2.4,3.5-4.5,5.1-6.5c1.6-2,3.2-3.8,4.7-5.4c0.3-0.3,0.6-0.6,0.8-0.9
					c-5.3,4.4-11.6,9.5-19.2,15.6c-9.5,7.7-21.1,17-34.6,28.6c-6.7,5.8-13.9,12.2-21.4,19.3c-7.5,7.2-15.3,15.1-22.7,24.2
					c-3.7,4.6-7,9.1-9.7,13.6c-2.7,4.5-4.9,8.9-6.2,13.2c-0.6,2.1-1.1,4.2-1.2,6.1c-0.1,1-0.1,1.9-0.1,2.9c0.1,1.2,0.2,2.3,0.3,3.5
					c0.2,2.3,0.3,4.5,0.6,6.8c0.3,2.2,0.6,4.4,0.9,6.5c0.2,2.1,0.7,4.2,1.1,6.2c0.4,2,0.8,4,1.2,6c1,3.9,1.8,7.6,2.8,11.1
					c2,7,4,13.4,6,19.2c3.9,11.5,7.5,20.6,10.2,27.8c2.7,7.3,4.7,12.7,6,16.8c2.6,8.2,2.3,11,1.2,12c-0.5,0.4-1.3,0.3-1.9,0.1
					c-0.6-0.2-1.1-0.5-1.1-0.5c-3.8-6.1-7.2-12.1-10.5-18.3c-1.7-3.1-3.2-6.2-4.8-9.4c-1.5-3.2-3.1-6.3-4.5-9.5
					c-5.9-12.8-11.1-25.9-15.1-39.6c-1-3.4-2-6.8-2.7-10.3c-0.8-3.5-1.7-7-2.2-10.6l-0.9-5.3c-0.3-1.8-0.4-3.6-0.6-5.4l-0.5-5.4
					c-0.1-0.8-0.1-2-0.1-3.1c0-1.1,0.1-2.1,0.2-3.2c0.4-4.2,1.5-8.2,2.8-11.9c1.4-3.7,3-7.2,4.8-10.4c3.7-6.5,7.9-12.5,12.5-18
					c9.1-11.1,19.1-21,29.5-30.4c10.4-9.4,21.2-18.2,32.2-26.7c16.4-12.6,33.2-24.5,50.4-35.8c-2.9-0.5-5.9-1.1-8.8-2
					c-5.5-1.6-10.9-4-15.8-7.4c-4.9-3.4-9.2-7.7-12.6-12.6c-3.4-4.9-5.8-10.3-7.5-15.7c-1.7-5.4-2.7-11-3.2-16.4
					c-1-10.9-0.4-21.6,1.1-32.1c1.4-10.5,3.7-20.7,6.3-30.7c5.4-20.1,12.4-39.5,20.3-58.4c7.6-18.2,16-35.9,25.2-53.3
					c-8.9-3.2-18.4-6.8-28.5-11.3c-3.6-1.6-7.3-3.4-11.1-5.3c-3.8-2-7.6-4.1-11.5-7c-1-0.7-1.9-1.5-2.9-2.4
					c-1.2-1.1-2.6-2.6-3.7-4.2c-1.1-1.6-1.8-3.3-2.1-5.1c-0.3-1.8-0.1-3.7,0.7-5.4c0.7-1.7,1.9-3.2,3.5-4.4c1.5-1.2,3.4-2.2,5.2-3
					l1.2-0.4l1-0.4c0.7-0.2,1.3-0.4,1.9-0.6c1.3-0.4,2.5-0.7,3.8-0.9c5-1.1,10-1.7,15.1-2.1c5.1-0.4,10.3-0.7,15.5-0.9
					c2.6-0.1,5.3-0.1,8-0.2c2.9,0,5.5,0.1,8.3,0.1c5.5,0.2,11.1,0.4,16.8,0.7c22.8,1.4,47.5,4,74,9c13.3,2.5,27,5.7,41.1,10
					c14,4.4,28.5,9.8,42.7,17.6c7.1,3.9,13.8,8.3,20,13.5c6.2,5.1,11.7,10.9,16.3,17.5c4.6,6.5,7.9,13.9,9.8,21.5
					c1.9,7.6,2.4,15.3,1.7,22.6c-0.3,3.7-0.9,7.2-1.7,10.7c-0.3,1.8-0.8,3.4-1.3,5.1c-0.5,1.7-0.9,3.4-1.4,4.8
					c-1.9,6.1-3.8,12.1-5.6,17.9c-3.7,11.7-7.2,23-10.6,33.7c-3.4,10.8-6.7,21.1-9.8,31c-1.4,4.4-2.8,8.8-4.1,13.1
					c0.5,2.3,0.9,4.7,1.2,7.1c0.5,5.5,0.9,11.1,0.2,17c-0.7,5.9-2.6,12.1-6.3,17.5c-3.7,5.4-9.1,9.5-14.5,12
					c-5.4,2.6-11,4.1-16.4,5.1c-5.4,0.9-10.8,1.5-16,1.7c-1.4,0.1-2.8,0.1-4.1,0.1c1.4,1.9,3,4.3,4.8,7.2c1.6,0.2,4,0.9,7.2,2.3
					c3.5,1.6,8.1,4.2,13.9,8.4c5.7,4.2,12.7,9.9,20.6,18c7.9,8.2,16.8,18.8,25.5,33c1.2,1.7,2.1,3.6,3.2,5.5c1,1.9,2.2,3.8,3.2,5.8
					c2,4.1,4.2,8.3,6,12.9C657.2,527.7,660.4,537.9,663.1,549z M616.4,388.9l-0.2-0.4l-0.9-1.4c-0.6-0.9-1.1-1.8-1.7-2.7
					c-2.2-3.6-4.4-7.1-6.6-10.6c-1.1-1.8-2.1-3.5-3.2-5.3c-1-1.6-1.9-3.2-2.9-4.8c-2.3-3.9-4.4-7.8-6.6-11.6
					c-4.2-7.6-8.1-14.8-11.7-21.7c-28.7-55.6-39.1-91.6-42-112.5c-4-0.2-10.9-1.2-22.2-3.6c-10.3-2.2-24.4-5.6-43.2-11
					c-9.4-2.7-20-6-31.9-10c-2-0.7-4.1-1.4-6.2-2.1c-0.5,2.5-1.5,6.1-3.1,11.1c-2,5.9-4.9,13.9-8.8,24.6c-4,10.7-9,24.2-14.7,41.4
					c-2.8,8.6-5.7,18.1-8.5,28.6c-2.8,10.5-5.4,22.1-7.1,34.8c-0.8,6.3-1.4,12.9-1.5,19.7c0,6.8,0.5,13.8,2.1,20.6
					c0.8,3.4,1.9,6.7,3.4,9.9c1.5,3.1,3.2,6.1,5.5,8.7c2.3,2.6,4.9,4.9,8,6.9c3,2,6.6,3.4,10.3,4.5c3.8,1.2,7.8,1.8,11.7,2.2
					c1,0.1,2,0.1,3,0.2c1,0.1,2,0.1,3.1,0.2c2.2,0.1,4.3,0.2,6.4,0.3c8.4,0.4,16.6,0.9,24.4,1.4c15.6,1,29.9,2.2,43.1,3.3
					c26.3,2.1,48.1,3.9,65.6,2.7c8.7-0.5,16.3-2.1,22.2-4.8c5.8-2.8,9.8-7.1,12-11.8c0.5-1.2,1-2.4,1.4-3.6
					C615.8,391,616.1,389.9,616.4,388.9z M528.5,535.2l-36.5-109l-46.7,105l42.4,51.1L528.5,535.2z"/>
				<path class="st2" d="M505.5,278.4c-1.4-0.2-2.4,0.5-2.4,0.5c-0.6,5.8,1.3,11.7,5,16.2c3.7,4.5,9.2,7.4,14.9,8
					c5.7,0.7,11.8-1.1,16.3-4.7c4.5-3.6,7.6-9.1,8.3-14.8c0.7-5.7-0.9-11.8-4.5-16.4c-3.5-4.6-8.9-7.8-14.7-8.5
					c-5.7-0.8-11.8,0.7-16.4,4.2c-4.7,3.4-7.9,8.8-8.8,14.5C503.4,277.4,504.2,278.3,505.5,278.4L505.5,278.4z M535.3,354.3
					c0,0,0,0-0.1,0.1c-0.4,0.4-0.9,0.9-1.3,1.3c-0.8,0.8-1.6,1.7-2.5,2.4c-0.8,0.8-1.6,1.5-2.4,2.3c-0.8,0.7-1.6,1.4-2.4,2.1
					c-3.2,2.7-6.2,4.9-9,6.9c-1.4,1-2.8,1.8-4.1,2.7c-0.6,0.4-1.3,0.8-1.9,1.2c-0.6,0.4-1.3,0.7-1.9,1c-1.2,0.7-2.4,1.3-3.4,2
					c-1.1,0.6-2.2,1.1-3.2,1.6c-1,0.5-1.9,1-2.8,1.5c-0.9,0.4-1.7,0.8-2.5,1.1c-1.6,0.7-2.9,1.5-4.1,2.1c-4.7,2.2-6.2,4.2-6.2,5.6
					c-0.1,1.4,1.2,2.2,1.2,2.2c9-0.2,17.9-2.4,26.1-5.7c8.2-3.4,15.7-8,22.5-13.3c1.7-1.4,3.4-2.7,5-4.2l2.4-2.2
					c0.1-0.1,0.1-0.1,0.4-0.3l0.5-0.5l1-1l2.1-2.1c0.7-0.7,1.4-1.4,2-2.1l1.9-2.2c1.2-1.5,2.5-2.9,3.5-4.3l3.2-4.3l1.6-2.2l0.8-1.1
					l0.4-0.6l0.1-0.1c0,0-0.1,0-0.1-0.1l-0.3-0.1l-10.1-2.6c-0.8-0.2-1.8-0.4-2.8-0.5l-3-0.5l-6-1l-13.3-2.1l-95.6-15.4
					c0,0,0,0-0.1,0c0-0.3,0-0.5-0.1-0.8c-0.3-3-0.2-4.9-0.2-6.4c0-1.5-0.1-2.5-0.4-3.2c-0.3-0.6-1.2-0.5-1.2-0.6
					c-0.3,0.3-0.6,0.6-0.8,0.8c-0.2,0.3-0.5,0.5-0.7,0.8c-0.4,0.5-0.8,1.1-1.1,1.6c-0.3,0.6-0.6,1.1-0.8,1.7
					c-0.2,0.6-0.4,1.1-0.6,1.7c-0.7,2.3-0.8,4.5-0.8,6.6c0.1,4.3,1,8.3,2.2,12.1c2.5,7.6,6,14.5,9.9,21.1c0,0,2.1,0,2.6-2.9
					c0.3-1.5,0-3.6-0.9-6.9c-0.8-3.3-2.6-7.6-4.5-13.6c-0.7-2.4-1.3-4.5-1.7-6.3c6.2,5.2,27.4,13.5,92.3,24c3.6,0.6,7,1.1,10.3,1.6
					l0.3,0.1c0,0,0,0,0,0v0h0l0,0c0,0,0.1,0,0.1,0c0.1,0,0.2,0,0.3,0c0,0,0.1,0,0.1,0.1c0,0.1,0.1,0.2-0.1,0.5L535.3,354.3
					L535.3,354.3z M616.2,388.5l0.2,0.4c-0.3,1-0.6,2-0.9,3.1c-0.4,1.2-1,2.3-1.4,3.6c-2.2,4.8-6.2,9-12,11.8
					c-5.9,2.7-13.5,4.3-22.2,4.8c-17.5,1.2-39.3-0.6-65.6-2.7c-13.2-1.1-27.5-2.2-43.1-3.3c-7.8-0.5-15.9-1-24.4-1.4
					c-2.1-0.1-4.3-0.2-6.4-0.3c-1.1,0-2.1-0.1-3.1-0.2c-1-0.1-2-0.1-3-0.2c-3.9-0.5-7.9-1-11.7-2.2c-3.8-1.2-7.3-2.6-10.3-4.5
					c-3.1-1.9-5.7-4.2-8-6.9c-2.3-2.6-4-5.6-5.5-8.7c-1.5-3.1-2.5-6.5-3.4-9.9c-1.6-6.8-2.1-13.8-2.1-20.6c0-6.8,0.6-13.4,1.5-19.7
					c1.7-12.7,4.4-24.3,7.1-34.8c2.8-10.5,5.7-20,8.5-28.6c5.6-17.1,10.7-30.6,14.7-41.4c4-10.7,6.9-18.7,8.8-24.6
					c1.7-5,2.6-8.6,3.1-11.1c2.1,0.7,4.2,1.5,6.2,2.1c11.9,4,22.5,7.2,31.9,10c18.8,5.4,32.9,8.8,43.2,11
					c11.3,2.4,18.1,3.4,22.2,3.6c2.9,20.9,13.3,56.9,42,112.5c3.6,6.9,7.5,14.2,11.7,21.7c2.1,3.8,4.3,7.6,6.6,11.6
					c1,1.6,1.9,3.2,2.9,4.8c1.1,1.8,2.1,3.5,3.2,5.3c2.2,3.5,4.4,7,6.6,10.6c0.6,0.9,1.1,1.8,1.7,2.7L616.2,388.5z M483.8,275.8
					c0.7-5.7-0.9-11.8-4.5-16.4c-3.5-4.6-8.9-7.8-14.7-8.5c-5.7-0.8-11.8,0.7-16.4,4.2c-4.7,3.4-7.9,8.8-8.8,14.5c0,0,0.7,0.9,2.1,1
					c-1.3-0.2-2.3,0.5-2.3,0.5c-0.5,5.8,1.3,11.7,5,16.2c3.7,4.5,9.2,7.5,14.9,8c5.8,0.6,11.8-1.1,16.3-4.7
					C480.1,287,483.1,281.5,483.8,275.8z"/>
				<polygon class="st0" points="492,426.2 528.5,535.2 487.6,582.3 445.3,531.2 				"/>
				<path d="M503.2,278.9c0,0,1-0.7,2.4-0.5c0.7,0.1,1.5,0.4,2.3,1c0.4,0.3,0.8,0.7,1.3,1.1c0.5,0.4,0.9,0.9,1.4,1.5
					c1.1,1.1,2.2,2.4,3.7,3.7c0.7,0.7,1.6,1.3,2.5,1.8c1,0.6,2,1.1,3.1,1.4c2.2,0.7,5,0.8,7.6-0.3c2.5-1.1,5-3.5,5.4-7
					c0.4-3.5-1.4-6.5-3.6-8.1c-2.2-1.7-4.9-2.2-7.3-2.1c-1.2,0.1-2.3,0.3-3.4,0.6c-1,0.4-2.1,0.7-2.9,1.2c-1.8,0.9-3.2,1.9-4.5,2.7
					c-0.6,0.4-1.2,0.8-1.8,1.1c-0.5,0.3-1,0.6-1.5,0.8c-0.9,0.4-1.8,0.5-2.5,0.4c-1.4-0.1-2.2-1-2.2-1c0.9-5.7,4.1-11.1,8.8-14.5
					c4.6-3.5,10.7-5,16.4-4.2c5.7,0.8,11.2,3.9,14.7,8.5c3.6,4.6,5.2,10.6,4.5,16.4c-0.7,5.7-3.7,11.2-8.3,14.8
					c-4.5,3.6-10.5,5.4-16.3,4.7c-5.7-0.6-11.3-3.5-14.9-8C504.5,290.6,502.6,284.6,503.2,278.9z"/>
				<path class="st2" d="M507.8,279.4c-0.8-0.6-1.6-0.9-2.3-1v0c0.7,0.1,1.5-0.1,2.5-0.4c0.5-0.2,1-0.4,1.5-0.8
					c0.6-0.3,1.2-0.7,1.8-1.1c1.3-0.8,2.7-1.8,4.5-2.7c0.9-0.5,1.9-0.8,2.9-1.2c1.1-0.3,2.2-0.5,3.4-0.6c2.3-0.2,5.1,0.4,7.3,2.1
					c2.2,1.6,4,4.6,3.6,8.1c-0.5,3.5-2.9,5.9-5.4,7c-2.6,1.1-5.3,1-7.6,0.3c-1.1-0.4-2.2-0.9-3.1-1.4c-0.9-0.6-1.8-1.2-2.5-1.8
					c-1.5-1.3-2.7-2.6-3.7-3.7c-0.5-0.6-1-1-1.4-1.5C508.7,280.1,508.3,279.7,507.8,279.4z"/>
				<path class="st2" d="M465.5,265.9c2.2,1.6,4,4.6,3.6,8.1c-0.5,3.5-2.9,5.9-5.4,7c-2.6,1.1-5.3,1-7.6,0.3
					c-1.1-0.4-2.2-0.9-3.1-1.4c-0.9-0.6-1.8-1.2-2.5-1.8c-1.5-1.3-2.7-2.6-3.7-3.7c-0.5-0.6-1-1-1.4-1.5c-0.4-0.4-0.9-0.8-1.3-1.1
					c-0.8-0.6-1.6-0.9-2.3-1c0.7,0.1,1.5-0.1,2.5-0.4c0.5-0.2,1-0.5,1.5-0.8c0.6-0.3,1.1-0.7,1.7-1.1c1.3-0.8,2.7-1.8,4.5-2.7
					c0.9-0.5,1.9-0.8,2.9-1.2c1.1-0.3,2.2-0.5,3.4-0.6C460.5,263.6,463.2,264.2,465.5,265.9z"/>
				<path d="M441.7,270.6c0.7,0.1,1.5,0.4,2.3,1c0.4,0.3,0.8,0.7,1.3,1.1c0.5,0.4,1,0.9,1.4,1.5c1,1.1,2.2,2.4,3.7,3.7
					c0.7,0.7,1.6,1.3,2.5,1.8c1,0.6,2,1,3.1,1.4c2.2,0.7,5,0.8,7.6-0.3c2.5-1.1,5-3.5,5.4-7c0.4-3.5-1.4-6.5-3.6-8.1
					c-2.2-1.7-5-2.2-7.3-2.1c-1.2,0.1-2.3,0.3-3.4,0.6c-1,0.3-2,0.7-2.9,1.2c-1.8,0.9-3.2,1.9-4.5,2.7c-0.6,0.4-1.2,0.8-1.7,1.1
					c-0.5,0.3-1,0.6-1.5,0.8C443.2,270.5,442.4,270.7,441.7,270.6z M439.3,271.1c0,0,0.9-0.7,2.3-0.5c-1.3-0.1-2.1-1-2.1-1
					c0.9-5.7,4.1-11.1,8.8-14.5c4.6-3.5,10.7-5,16.4-4.2c5.7,0.7,11.2,3.9,14.7,8.5c3.5,4.6,5.2,10.6,4.5,16.4
					c-0.7,5.7-3.7,11.2-8.3,14.8c-4.5,3.6-10.5,5.4-16.3,4.7c-5.7-0.6-11.3-3.5-14.9-8C440.6,282.8,438.7,276.9,439.3,271.1z"/>
				<path d="M535.2,353.5c-0.1,0-0.1,0-0.1,0l0,0h0v0c0,0,0,0,0,0l-0.3-0.1c-3.3-0.5-6.7-1-10.3-1.6c-64.9-10.4-86-18.8-92.3-24
					c0.4,1.8,1,3.9,1.7,6.3c1.9,6,3.7,10.3,4.5,13.6c0.9,3.2,1.1,5.4,0.9,6.9c-0.5,2.9-2.6,2.9-2.6,2.9c-3.9-6.6-7.4-13.6-9.9-21.1
					c-1.1-3.8-2.1-7.8-2.2-12.1c0-2.2,0.1-4.4,0.8-6.6c0.1-0.6,0.3-1.1,0.6-1.7c0.2-0.6,0.4-1.1,0.8-1.7c0.3-0.6,0.6-1.1,1.1-1.6
					c0.2-0.3,0.4-0.5,0.7-0.8c0.2-0.3,0.5-0.5,0.8-0.8c0,0,0.8,0,1.2,0.6c0.3,0.6,0.4,1.7,0.4,3.2c0,1.5-0.1,3.4,0.2,6.4
					c0,0.2,0.1,0.5,0.1,0.8c0.1,0,0.1,0,0.1,0l95.6,15.4l13.3,2.1l6,1l3,0.5c1,0.1,2,0.3,2.8,0.5l10.1,2.6l0.3,0.1
					c0,0,0.1,0,0.1,0.1l-0.1,0.1l-0.4,0.6l-0.8,1.1l-1.6,2.2l-3.2,4.3c-1,1.4-2.3,2.9-3.5,4.3l-1.9,2.2c-0.6,0.7-1.3,1.4-2,2.1
					l-2.1,2.1l-1,1l-0.5,0.5c-0.2,0.2-0.2,0.2-0.4,0.3l-2.4,2.2c-1.6,1.5-3.3,2.8-5,4.2c-6.8,5.3-14.3,9.9-22.5,13.3
					c-8.2,3.4-17,5.6-26.1,5.7c0,0-1.3-0.8-1.2-2.2c0-1.4,1.5-3.4,6.2-5.6c1.2-0.5,2.5-1.3,4.1-2.1c0.8-0.4,1.6-0.7,2.5-1.1
					c0.9-0.5,1.8-0.9,2.8-1.5c1-0.5,2-1,3.2-1.6c1.1-0.6,2.2-1.3,3.4-2c0.6-0.3,1.2-0.6,1.9-1c0.6-0.4,1.3-0.8,1.9-1.2
					c1.3-0.8,2.7-1.6,4.1-2.7c2.8-1.9,5.8-4.2,9-6.9c0.8-0.7,1.6-1.4,2.4-2.1c0.8-0.7,1.6-1.5,2.4-2.3c0.9-0.7,1.6-1.6,2.5-2.4
					c0.4-0.4,0.9-0.8,1.3-1.3c0.1-0.1,0.1-0.1,0.1-0.1l0-0.1l0.1-0.1c0.2-0.4,0.1-0.4,0.1-0.5c0,0,0-0.1-0.1-0.1
					C535.4,353.5,535.3,353.5,535.2,353.5z"/>
			</g>
		</g>
	</g>
</g>
</svg>
