<?xml version="1.0" encoding="utf-8"?>
<!-- Generator: Adobe Illustrator 24.2.3, SVG Export Plug-In . SVG Version: 6.00 Build 0)  -->
<svg version="1.1" id="yellow_man" xmlns="http://www.w3.org/2000/svg" xmlns:xlink="http://www.w3.org/1999/xlink" x="0px" y="0px"
	 viewBox="0 0 1000 1000" style="enable-background:new 0 0 1000 1000;" xml:space="preserve">
<style type="text/css">
	.st0{fill:#3351FF;}
	.st1{fill:#FF306A;}
	.st2{fill:#FFFFFF;}
	.st3{fill:#FFCE45;}
</style>
<g>
	<g>
		<g id="XMLID_1_">
			<g>
				<path class="st0" d="M367.6,675.4l0.1,1.7l0,0.1l0,0.2c-0.1,0-0.2,0-0.2,0.1l-0.1,0h-0.1l-0.7,0.2c-2.4,0.6-4.8,1.2-7.4,1.7
					c-2.5,0.6-5,1.1-7.6,1.5c-2.6,0.5-5.2,0.9-7.8,1.3c-10.6,1.7-21.6,3.1-33,4.2c-22.9,2.2-47.5,3.3-73.7,3.6
					c-31.7,0.3-61.2-0.4-88.2-3.1c-13.5-1.3-26.3-3.1-38.3-5.7c-1.5-0.3-3-0.7-4.4-1c-1.4-0.4-2.9-0.7-4.3-1.1
					c-1.4-0.4-2.8-0.8-4.2-1.2c-1-0.3-2-0.6-3-1l-0.5-0.2c-0.1-0.1,0-0.2-0.1-0.3l0-0.1v-0.1V676l0-2.2c0-1.4,0-2.9,0.1-4.4
					c0.2-46.4,3.7-84.8,8.3-116.3c4.6-31.6,10.2-56.3,15.3-75.8c5.2-19.4,9.9-33.6,13.3-44c1.9-5.4,3.4-9.8,4.6-13.4
					c7.9,0.3,15.5,0.3,23,0.1c9.8-0.3,19.3-0.8,28.6-1.4c8.1-0.6,16-1.1,23.8-1.7l-45,134.3l66.8,76.9l68.5-82.6l-58.3-131
					c15.8-1.1,30.8-2.1,45.2-2.8c1.8-0.1,3.6-0.2,5.4-0.4c0.2,0.3,0.4,0.7,0.7,1.1c0.6,1,1.4,2,2.2,3.2c0.8,1.3,1.6,2.6,2.6,4.1
					c1,1.5,2.1,3.1,3.2,4.9c1.1,1.8,2.3,3.8,3.6,6c1.3,2.1,2.8,4.4,4.2,7c1.4,2.6,3,5.2,4.6,8.2c6.4,11.9,13.6,27.4,20.8,47.9
					c1.9,5.1,3.6,10.6,5.4,16.3c1.7,5.8,3.6,11.8,5.2,18.3c3.4,12.8,6.7,27.1,9.6,42.7c2.9,15.7,5.6,32.9,7.6,51.6
					c1.1,9.4,2,19.2,2.7,29.3c0.4,5.1,0.7,10.3,0.9,15.5C367.3,670.1,367.4,672.8,367.6,675.4z"/>
				<path class="st1" d="M281.8,543.1c-0.9,1.1-1.9,2.2-2.9,3.3c-2.1,2.5-4.3,5.1-6.6,7.7c-4.4,5.2-9,10.7-13.8,16.4
					c-8.1,9.6-16.7,20-26.1,31.1c-8.6-9.8-16.7-19-24.1-27.5c-4.8-5.4-9.4-10.6-13.9-15.6c-2.2-2.5-4.4-5-6.6-7.3
					c-1-1.2-2-2.3-3.1-3.4l-0.3-0.3l0-0.3c0-0.1,0.3-0.8,0.4-1.3c0.2-0.7,0.4-1.3,0.6-1.9c0.8-2.6,1.6-5.1,2.4-7.6
					c1.5-5,3-9.8,4.4-14.4c2.8-9.2,5.3-17.7,7.6-25.6c4.5-15.7,8.1-28.6,10.8-39.4c5.3-20.9,7.4-33.3,8-40.6
					c5.7-0.4,11.3-0.9,16.9-1.3c1.2,7.1,4.5,19.4,11.9,40.3c3.7,10.5,8.5,23.1,14.5,38.3c3,7.6,6.3,15.8,10,24.8
					c1.8,4.5,3.8,9.1,5.8,13.9c1,2.4,2,4.9,3.1,7.4c0.3,0.6,0.5,1.3,0.8,1.9l0.4,0.9l0,0.1l0.1,0.3L281.8,543.1z"/>
				<path d="M271.1,243.7c-0.3-2.2-1.6-4.3-3.4-5.6c-1.8-1.4-4.1-1.9-6.4-1.6c-2.3,0.3-4.3,1.5-5.7,3.3c-1.4,1.8-2,4.1-1.7,6.3
					c0.3,2.3,1.4,4.3,3.2,5.7c1.8,1.4,4.1,2.1,6.3,1.8c2.3-0.2,4.3-1.3,5.8-3.1c1.4-1.8,2.2-4,1.9-6.3c0,0,1.1-0.4,2.6-0.6
					c0.8-0.1,1.7-0.1,2.8,0.3c0.5,0.2,1.1,0.4,1.6,0.8c0.5,0.4,1,0.9,1.5,1.7c0.9,1.4,1.7,3.6,1.5,6.8c-0.3,3.1-1.7,7.2-5.7,11
					c-3.9,3.7-10.8,6.8-19.3,5.1c-2.1-0.4-4.2-1.1-6.3-2.2c-2.1-1.1-4.1-2.5-5.9-4.3c-3.6-3.5-6.4-8.7-7.2-14.6
					c-0.7-5.9,0.7-11.6,3.5-15.9c1.3-2.2,2.9-4,4.7-5.6c1.7-1.6,3.6-2.7,5.5-3.7c7.8-3.6,15.3-2.3,20,0.3c4.8,2.7,7.2,6.3,8.2,9.3
					c1,3,0.7,5.3,0.2,6.9c-0.3,0.8-0.7,1.5-1.1,2c-0.4,0.5-0.9,0.9-1.4,1.2c-0.9,0.6-1.8,0.8-2.6,0.9
					C272.2,243.9,271.1,243.7,271.1,243.7z"/>
				<path class="st2" d="M271.1,244.3c0.2,2.3-0.5,4.5-1.9,6.3c-1.4,1.8-3.5,2.9-5.8,3.1c-2.3,0.3-4.5-0.4-6.3-1.8
					c-1.8-1.4-2.9-3.5-3.2-5.7c-0.3-2.3,0.3-4.5,1.7-6.3c1.4-1.8,3.4-3,5.7-3.3c2.3-0.3,4.5,0.3,6.4,1.6c1.8,1.3,3.1,3.4,3.4,5.6
					c0,0,1.1,0.2,2.7,0C272.2,243.8,271.1,244.3,271.1,244.3z"/>
				<path class="st2" d="M235.6,365.5c-0.7,0.1-1.3,0-2,0c-1.3,0.1-2.8-0.1-4.2-0.2l-4.4-0.4l-4.3-0.9l-2.2-0.4l-2.1-0.7l-4.3-1.3
					c-5.6-2.2-11-4.7-16.2-8c-5.1-3.3-10-7-14.6-11.2c-1.2-1.1-2.4-2.2-3.5-3.4l65.1-8.9l39.5-5.4l3.2-0.4l-1.6,2.7
					c-6.6,10.7-14.4,20.6-23.7,28c-2.3,1.9-4.7,3.4-7.2,4.9c-1.3,0.6-2.5,1.4-3.8,1.9l-1.9,0.9l-1.9,0.7c-1.3,0.5-2.6,0.8-3.9,1.2
					c-1.3,0.2-2.6,0.6-4,0.7L235.6,365.5z"/>
				<path d="M200.1,252.6c0.8-0.1,1.7-0.1,2.8,0.3c0.5,0.2,1.1,0.4,1.6,0.8c0.5,0.4,1,0.9,1.6,1.6c0.9,1.4,1.7,3.7,1.5,6.8
					c-0.3,3.1-1.7,7.2-5.7,11c-3.9,3.7-10.8,6.8-19.3,5.1c-2.1-0.4-4.2-1.1-6.3-2.2c-2.1-1.1-4.1-2.5-5.9-4.3
					c-3.7-3.5-6.4-8.7-7.2-14.6c-0.7-5.9,0.7-11.6,3.4-15.9c1.3-2.2,2.9-4.1,4.7-5.6c1.7-1.6,3.6-2.7,5.6-3.7
					c7.8-3.6,15.3-2.3,20,0.3c4.8,2.7,7.2,6.3,8.2,9.3c1,3,0.7,5.3,0.2,7c-0.3,0.8-0.7,1.5-1.1,2c-0.4,0.5-0.9,0.9-1.3,1.2
					C201.8,252.3,200.9,252.5,200.1,252.6z M197.4,252.7c-0.3-2.2-1.6-4.3-3.4-5.6c-1.8-1.3-4.1-1.9-6.3-1.6
					c-2.3,0.3-4.3,1.5-5.7,3.3c-1.4,1.8-2,4.1-1.7,6.3c0.3,2.3,1.4,4.3,3.2,5.7c1.8,1.4,4,2.1,6.3,1.8c2.3-0.2,4.3-1.3,5.8-3.1
					c1.4-1.8,2.2-4,1.9-6.3c0,0,0.9-0.4,2.4-0.6C198.4,252.8,197.4,252.7,197.4,252.7z"/>
				<path class="st2" d="M197.4,252.7c0,0,1,0.2,2.5,0c-1.5,0.2-2.4,0.6-2.4,0.6c0.2,2.2-0.5,4.5-1.9,6.3c-1.4,1.8-3.5,2.9-5.8,3.1
					c-2.3,0.3-4.5-0.4-6.3-1.8c-1.8-1.4-2.9-3.5-3.2-5.7c-0.3-2.3,0.4-4.5,1.7-6.3c1.4-1.8,3.4-3,5.7-3.3c2.2-0.3,4.5,0.3,6.3,1.6
					C195.8,248.4,197.1,250.4,197.4,252.7z"/>
				<path d="M168.9,328.9c0.7,0.8,1.4,1.7,2.1,2.5c0.1-0.1,0.2-0.1,0.3-0.1c7.7-3.2,21.3-7.2,44.7-12c11.7-2.4,25.9-5,43-7.8
					c4.3-0.7,8.7-1.4,13.4-2.1c2.3-0.3,4.7-0.7,7.1-1.1c3.6-0.5,7.2-1.1,10.9-1.6c2.5-0.4,5-0.7,7.6-1.1c1.3-0.2,2.5-0.3,3.6-0.3
					c1.2-0.1,2.3-0.2,3.5-0.2c2.3-0.2,4.7-0.3,7.1-0.5c0.6,0,1.2-0.1,1.7-0.1l-0.7,1.7c-0.5,1.1-0.9,2.3-1.4,3.4
					c-1.9,4.5-3.7,9.2-6.3,14.2c-1.2,2.5-2.6,5-4,7.5c-0.3,0.6-0.7,1.3-1.1,1.9l-0.6,1c-0.4,0.7-0.8,1.3-1.2,2
					c-6.5,10.6-13.9,19.9-22.1,27.4c-8.2,7.5-17.6,13.2-27.3,16c-4.8,1.4-9.7,2-14.4,2c-1.2,0-2.3-0.1-3.4-0.1
					c-1.1-0.1-2.1-0.3-3.2-0.4c-2.1-0.3-4.1-0.5-6-0.9c-3.8-1-7.6-1.7-10.9-3.1c-1.7-0.6-3.3-1.2-4.9-1.8c-1.5-0.7-3-1.4-4.4-2.1
					c-11.4-5.8-18.8-12.5-24.1-18.2c-5.3-5.7-8.4-10.5-10.3-14.2c0-0.1-0.1-0.1-0.1-0.2l-3.6,0.5c0,0-5.5-2.2,1.2-6.5
					c-0.7-3-0.1-4.5,0.7-5.1c0.7-0.5,1.3-0.7,2-0.6C168.4,328.8,168.9,328.9,168.9,328.9z M284,327.1l1.6-2.7l-3.2,0.4l-39.5,5.4
					l-65.1,8.9c1.2,1.1,2.3,2.3,3.5,3.4c4.6,4.2,9.5,7.9,14.6,11.2c5.1,3.3,10.6,5.8,16.2,8l4.3,1.3l2.1,0.7l2.2,0.4l4.3,0.9
					l4.4,0.4c1.5,0.1,3,0.3,4.2,0.2c0.7,0,1.3,0,2,0l2-0.2c1.3-0.1,2.6-0.4,4-0.7c1.3-0.4,2.6-0.6,3.9-1.2l1.9-0.7l1.9-0.9
					c1.3-0.5,2.5-1.3,3.8-1.9c2.5-1.5,4.9-3,7.2-4.9C269.6,347.8,277.4,337.8,284,327.1z"/>
				<path class="st2" d="M167.6,340.7c1.9,3.7,5,8.5,10.3,14.2c5.3,5.6,12.7,12.4,24.1,18.2c1.4,0.7,2.9,1.4,4.4,2.1
					c1.5,0.7,3.2,1.2,4.9,1.8c3.3,1.4,7,2.1,10.9,3.1c1.9,0.4,4,0.6,6,0.9c1,0.1,2.1,0.3,3.2,0.4c1.1,0,2.3,0.1,3.4,0.1
					c4.6,0,9.5-0.6,14.4-2c9.7-2.8,19.1-8.5,27.3-16c8.2-7.5,15.6-16.8,22.1-27.4c0.4-0.7,0.8-1.3,1.2-2l0.6-1
					c0.3-0.6,0.7-1.2,1.1-1.9c1.4-2.5,2.8-5,4-7.5c2.5-5,4.4-9.6,6.3-14.2c0.5-1.1,1-2.3,1.4-3.4l0.7-1.7c-0.5-0.1-1.2,0.1-1.7,0.1
					c-2.4,0.2-4.7,0.3-7.1,0.5c-1.2,0.1-2.3,0.2-3.5,0.2c-1.1,0.1-2.3,0.1-3.6,0.3c-2.6,0.4-5.1,0.7-7.6,1.1
					c-3.7,0.5-7.4,1.1-10.9,1.6c-2.4,0.4-4.8,0.7-7.1,1.1c-4.7,0.7-9.1,1.5-13.4,2.1c-17.1,2.8-31.3,5.4-43,7.8
					c-23.4,4.8-37,8.8-44.7,12c-0.1,0-0.2,0.1-0.3,0.1c-0.7-0.8-1.4-1.7-2.1-2.5c0,0-0.4-0.2-1.1-0.2c-0.6-0.1-1.3,0.1-2,0.6
					c-0.8,0.6-1.4,2.1-0.7,5.1c-6.7,4.3-1.2,6.5-1.2,6.5l3.6-0.5C167.5,340.5,167.5,340.6,167.6,340.7z M340.5,329.9
					c0.4,7.3,0.3,14.6-0.6,21.6c-0.9,7-2.7,13.7-5.5,19.7c-2.8,6-6.8,11-11.8,14.9c-5.1,3.8-11.1,6.6-17.7,8.3
					c-1.6,0.4-3.4,0.7-5,1.1c-1.7,0.3-3.5,0.5-5.2,0.7c-1.8,0.2-3.5,0.2-5.3,0.4c-1.8,0.1-3.8,0.2-5.7,0.3
					c-7.8,0.3-15.5,0.7-23.3,1.1c-15.5,0.8-31,1.9-46.5,2.9c-15.4,1-30.8,2.1-46.1,2.7c-15.2,0.5-30.5,0.8-44.8-1.1
					c-7.1-1-14-2.6-19.5-5.5c-5.7-2.8-9.2-6.8-11.5-12.1c-2.1-5.4-2.6-12.2-2.1-19.1c0.4-7,1.8-14,3.8-21.1
					c4-14.1,10-27.9,16.8-41.4c6.8-13.5,14.4-26.8,22.4-39.9c8-13.1,16.4-26,24.7-39.2c4.2-6.6,8.3-13.2,12.3-20.5
					c1-1.9,1.9-3.8,2.8-6c0.2-0.6,0.4-1.2,0.7-1.8c0.2-0.6,0.4-1.3,0.6-2l0.2-0.8c27.3-7.9,54.2-16.4,81.1-25.6
					c9-3.1,17.9-6.2,26.8-9.5c0.1,0.4,0.2,0.7,0.2,0.7c14.1,27.1,26.8,55.1,37.4,83.7c5.2,14.3,9.9,28.8,13.6,43.4
					C336.9,300.4,339.7,315.2,340.5,329.9z M281.2,253.2c0.3-3.2-0.6-5.4-1.5-6.8c-0.5-0.7-1-1.3-1.5-1.7c-0.6-0.4-1.1-0.7-1.6-0.8
					c-1-0.3-1.9-0.4-2.8-0.3c0.8-0.1,1.7-0.3,2.6-0.9c0.4-0.3,0.9-0.7,1.4-1.2c0.4-0.5,0.8-1.2,1.1-2c0.5-1.6,0.8-4-0.2-6.9
					c-1-2.9-3.4-6.6-8.2-9.3c-4.7-2.6-12.1-4-20-0.3c-1.9,0.9-3.8,2.1-5.5,3.7c-1.8,1.5-3.4,3.4-4.7,5.6c-2.7,4.3-4.1,10-3.5,15.9
					c0.8,5.9,3.5,11.1,7.2,14.6c1.8,1.8,3.8,3.2,5.9,4.3c2.1,1.1,4.2,1.8,6.3,2.2c8.5,1.7,15.4-1.4,19.3-5.1
					C279.5,260.4,280.9,256.3,281.2,253.2z M207.5,262.2c0.3-3.1-0.6-5.4-1.5-6.8c-0.5-0.7-1-1.2-1.6-1.6c-0.6-0.4-1.1-0.7-1.6-0.8
					c-1-0.3-2-0.3-2.8-0.3c0.8-0.1,1.7-0.3,2.6-0.9c0.4-0.3,0.9-0.7,1.3-1.2c0.4-0.5,0.8-1.2,1.1-2c0.6-1.6,0.8-4-0.2-7
					c-1-2.9-3.4-6.6-8.2-9.3c-4.7-2.6-12.1-4-20-0.3c-1.9,0.9-3.8,2.1-5.6,3.7c-1.8,1.5-3.3,3.4-4.7,5.6c-2.7,4.3-4.1,10-3.4,15.9
					c0.7,5.9,3.5,11.1,7.2,14.6c1.8,1.8,3.8,3.2,5.9,4.3c2.1,1.1,4.2,1.8,6.3,2.2c8.5,1.7,15.4-1.4,19.3-5.1
					C205.8,269.4,207.3,265.3,207.5,262.2z"/>
				<path class="st3" d="M157,180c1.6,6.6-3.6-12.1,1,9.3c-0.3-0.1-0.6-0.1-0.7-0.1c0,0.1,0,0.1-0.1,0.2c0,0.1-0.1,0.4-0.2,0.6
					c-0.3,1-0.9,2.3-1.5,3.6c-2.7,5.4-6.2,11.1-9.6,16.7c-7.1,11.2-14.1,22.3-21,33.1c-13.7,21.9-26.3,43.6-36.3,65.9
					c-4.7,10.6-8.8,21.4-11.8,32.6c-0.8-4.4-1.7-9.2-2.9-14.7c-3.8-18.4-10-43.5-19.3-77.1c-1.2-4.2-2.4-8.6-3.6-13
					c-0.7-2.3-1.1-4.4-1.7-6.7c-0.6-2.2-0.9-4.6-1.3-6.9c-0.6-4.7-1.1-9.5-0.8-14.5c0-2.5,0.4-5,0.7-7.5c0.5-2.5,0.9-5,1.7-7.5
					c1.4-5,3.5-10,6.3-14.7c2.8-4.7,6.3-9.2,10.3-13.5c8.1-8.6,18.5-15.9,30.3-22.3c23.7-12.7,52.8-21.7,85.4-28.2
					c32.7-6.5,69.2-10.8,109.1-12.4c2.5-0.1,5-0.1,7.5-0.2l1.8,0h1.8c1.3,0,2.5,0,3.8,0.1c5.1,0.1,10.2,0.2,15.3,0.5
					c5.1,0.3,10.2,0.7,15.2,1.4c2.5,0.3,5,0.8,7.3,1.3c1.2,0.3,2.3,0.6,3.3,0.9c0.5,0.2,1.1,0.3,1.5,0.5c0.3,0.1,0.2,0.1,0.3,0.1
					c0.1,0.1,0.2,0.2,0.2,0.3c0,0.1-0.1,0.2-0.2,0.3l-0.7,0.6c-0.4,0.4-0.8,0.7-1.3,1.1c-0.9,0.7-1.9,1.4-3,2.1
					c-2.1,1.4-4.3,2.8-6.7,4.1c-9.4,5.3-19.9,10-30.7,14.5c-21.6,8.9-44.8,17.2-69,25.2c-24.2,8-49.5,15.9-75.8,23.4
					c-0.4,0.1-0.7,0.1-1.1,0.2l-1.2,0.3c-0.3,0.1-0.9,0.2-1.1,0.3l-0.3,0.1l-0.5,0.1L157,180z"/>
				<path d="M281.9,158c-8.9,3.3-17.9,6.5-26.8,9.5c-26.9,9.2-53.8,17.7-81.1,25.6l-0.2,0.8c-0.2,0.7-0.4,1.4-0.6,2
					c-0.2,0.6-0.4,1.2-0.7,1.8c-0.9,2.2-1.9,4.1-2.8,6c-3.9,7.4-8.1,13.9-12.3,20.5c-8.4,13.1-16.7,26.1-24.7,39.2
					c-8,13.1-15.6,26.3-22.4,39.9c-6.8,13.5-12.8,27.4-16.8,41.4c-1.9,7-3.4,14.1-3.8,21.1c-0.4,6.9,0,13.7,2.1,19.1
					c2.3,5.3,5.8,9.4,11.5,12.1c5.5,2.8,12.4,4.5,19.5,5.5c14.3,1.9,29.6,1.6,44.8,1.1c15.3-0.6,30.7-1.7,46.1-2.7
					c15.4-1.1,30.9-2.1,46.5-2.9c7.8-0.4,15.5-0.8,23.3-1.1c1.9-0.1,4-0.1,5.7-0.3c1.8-0.1,3.5-0.2,5.3-0.4c1.7-0.3,3.5-0.4,5.2-0.7
					c1.7-0.4,3.4-0.6,5-1.1c6.6-1.7,12.6-4.4,17.7-8.3c5-3.9,9-9,11.8-14.9c2.8-6,4.6-12.7,5.5-19.7c0.9-7,1-14.3,0.6-21.6
					c-0.8-14.6-3.6-29.5-7.3-44.1c-3.7-14.6-8.4-29.1-13.6-43.4c-10.6-28.6-23.3-56.6-37.4-83.7C282.2,158.6,282.1,158.4,281.9,158z
					 M184.6,547.1l0,0.3l0.3,0.3c1,1.1,2,2.2,3.1,3.4c2.2,2.4,4.3,4.8,6.6,7.3c4.5,5,9.1,10.2,13.9,15.6
					c7.5,8.5,15.5,17.7,24.1,27.5c9.4-11.2,18-21.5,26.1-31.1c4.8-5.7,9.4-11.1,13.8-16.4c2.2-2.6,4.4-5.2,6.6-7.7
					c1-1.1,1.9-2.2,2.9-3.3l0.3-0.3l-0.1-0.3l0-0.1l-0.4-0.9c-0.3-0.6-0.5-1.3-0.8-1.9c-1.1-2.5-2.1-5-3.1-7.4
					c-2-4.8-3.9-9.5-5.8-13.9c-3.7-8.9-7-17.2-10-24.8c-6-15.2-10.8-27.8-14.5-38.3c-7.4-20.8-10.8-33.1-11.9-40.3
					c-5.5,0.4-11.1,0.8-16.9,1.3c-0.6,7.3-2.7,19.7-8,40.6c-2.7,10.8-6.2,23.7-10.8,39.4c-2.3,7.8-4.8,16.3-7.6,25.6
					c-1.4,4.6-2.9,9.4-4.4,14.4c-0.8,2.5-1.6,5-2.4,7.6c-0.2,0.6-0.4,1.3-0.6,1.9C184.8,546.3,184.6,547,184.6,547.1z M158,189.4
					c-4.7-21.4,0.6-2.7-1-9.3l0.5-0.2l0.5-0.1l0.3-0.1c0.2-0.1,0.7-0.2,1.1-0.3l1.2-0.3c0.4-0.1,0.7-0.1,1.1-0.2
					c26.3-7.5,51.6-15.4,75.8-23.4c24.2-8.1,47.4-16.3,69-25.2c10.8-4.5,21.3-9.2,30.7-14.5c2.3-1.3,4.6-2.7,6.7-4.1
					c1-0.7,2-1.4,3-2.1c0.4-0.4,0.9-0.7,1.3-1.1l0.7-0.6c0.1-0.1,0.2-0.2,0.2-0.3c0-0.1-0.1-0.2-0.2-0.3c0,0,0,0-0.3-0.1
					c-0.4-0.2-1-0.3-1.5-0.5c-1.1-0.3-2.2-0.6-3.3-0.9c-2.3-0.5-4.8-0.9-7.3-1.3c-5-0.7-10.1-1.1-15.2-1.4
					c-5.1-0.3-10.2-0.4-15.3-0.5c-1.3,0-2.5,0-3.8-0.1h-1.8l-1.8,0c-2.5,0.1-5,0.1-7.5,0.2c-39.9,1.6-76.4,5.8-109.1,12.4
					c-32.6,6.6-61.7,15.5-85.4,28.2c-11.8,6.4-22.2,13.7-30.3,22.3c-4,4.3-7.5,8.8-10.3,13.5c-2.8,4.7-4.8,9.7-6.3,14.7
					c-0.8,2.5-1.2,5-1.7,7.5c-0.3,2.5-0.7,5-0.7,7.5c-0.3,5,0.2,9.8,0.8,14.5c0.5,2.3,0.7,4.7,1.3,6.9c0.6,2.3,1.1,4.4,1.7,6.7
					c1.3,4.5,2.5,8.8,3.6,13c9.4,33.7,15.5,58.7,19.3,77.1c1.2,5.5,2.1,10.3,2.9,14.7c3-11.1,7-21.9,11.8-32.6
					c10-22.3,22.7-44,36.3-65.9c6.9-10.8,13.9-21.9,21-33.1c3.4-5.6,7-11.3,9.6-16.7c0.6-1.3,1.2-2.6,1.5-3.6
					c0.1-0.2,0.2-0.5,0.2-0.6c0-0.1,0-0.1,0.1-0.2C157.5,189.3,157.7,189.3,158,189.4z M58.3,746.6c0.8,0.8,1.5,1.4,1.9,2
					c0.5,0.6,0.8,1.1,0.8,1.4c0,0.4-0.2,0.7-0.6,1c-0.2,0.1-0.4,0.2-0.7,0.3c-0.2,0.1-0.4,0.2-0.6,0.3c-0.8,0.3-1.7,0.4-1.7,0.4
					c-4.9-1.4-9.1-3.5-13-6l-2.9-1.9c-1-0.6-1.8-1.4-2.7-2.1l-2.6-2.2c-0.9-0.7-1.6-1.6-2.4-2.4c-3.3-3.1-5.9-6.7-8.7-10.2l-3.5-5.6
					c-0.6-0.9-1.2-1.8-1.7-2.8l-1.4-2.9C10.7,700.3,7,683.7,5,667.4c-0.4-4.1-0.9-8.2-1.2-12.3l-0.4-12.3c-0.1-2.1-0.2-4.1-0.2-6.2
					l0.2-6.3l0.1-3.2l0.3-3.1l0.7-6.3C7,601,12,585.1,18.3,570c6.3-15.2,13.9-29.6,22.3-43.4c8.4-13.9,17.6-27.2,27.2-40.1
					c18-23.7,37.5-46.1,58.7-67.1c-2.1-0.2-4.3-0.4-6.4-0.7c-1.4-0.2-2.7-0.4-4.1-0.6c-1.4-0.3-2.7-0.6-4.1-0.8
					c-5.5-1.3-11.2-2.8-16.7-5.8c-5.5-2.9-10.9-7.2-14.8-12.9c-3.8-5.7-6-12.2-6.9-18.5c-0.2-1.6-0.3-3.1-0.5-4.7
					c-0.1-0.8-0.1-1.6-0.2-2.3v-2.3c0-1.5,0-3.1,0.1-4.6c0.1-1.5,0.2-3,0.4-4.5c0-0.3,0.1-0.6,0.1-0.8c-1-5-2.2-10.1-3.5-15.2
					c-1.8-7.4-3.8-14.8-5.8-22.2c-4.1-14.8-8.4-29.6-12.9-44.4l-6.7-22.2l-3.4-11.1l-1.7-5.5l-0.4-1.4l-0.4-1.5l-0.8-3
					c-2.1-8.1-3.4-16.6-3.3-25.3c0.1-8.6,1.7-17.4,4.7-25.6c3-8.2,7.6-15.7,13-22.4c5.4-6.6,11.5-12.4,18.1-17.5
					c13.1-10.1,27.6-17.6,42.4-23.7c14.8-6.1,30-10.9,45.2-14.8c15.3-4,30.7-7.1,46.2-9.6c15.5-2.6,31-4.5,46.6-6
					c15.6-1.5,31.2-2.6,46.9-3l3-0.1h3.1l5.9,0.1c4,0.1,7.9,0.2,11.9,0.4c8,0.4,15.9,1,24.3,2.7c2.1,0.4,4.3,0.9,6.5,1.6
					c1.7,0.5,6.1,2.1,9,4.3c3,2.2,5.1,5.2,5.8,8.7c0.7,3.5,0,7.1-1.9,10.3c-0.9,1.6-2.1,3.1-3.4,4.5c-0.7,0.7-1.3,1.4-1.8,1.8
					c-0.5,0.4-0.9,0.8-1.3,1.2c-1.8,1.5-3.6,2.8-5.4,4c-3.6,2.4-7.1,4.5-10.7,6.4c-14.3,7.7-28.7,13.6-43.3,19.4
					c-4.1,1.6-8.3,3.2-12.4,4.7c0.4,0.5,0.8,1.1,1.2,1.7c4.2,6,10.6,16,19.5,32.7c4.4,8.3,9.4,18.3,14.8,30.3
					c5.4,12,11.3,26.1,16.9,42.7c5.6,16.7,11.3,35.9,14,58.6c0.7,5.7,1,11.6,1.1,17.7c0,6.1-0.4,12.5-1.5,19
					c-1.1,6.5-3,13.3-6.2,19.8c-3.2,6.5-7.8,12.7-13.8,17.8c-5.9,5.1-13.1,8.8-20.8,11.2c-3.7,1.2-7.5,2-11.4,2.7
					c2.9,3.2,5.7,6.5,8.5,9.7l4.2,5.6c1.1-0.1,2.4-0.2,3.9-0.2c7.4-0.2,19.8,1,40.3,0.9c10.3-0.1,22.6-0.5,37.2-2.6
					c1.8-0.3,3.7-0.5,5.6-0.8c1.9-0.3,3.8-0.7,5.8-1.1c3.9-0.6,8-1.7,12.2-2.6c8.3-2.2,17.3-4.7,26.6-8.5c18.8-7.2,33.6-16,46-24.2
					c3-2.1,6-4.1,8.7-6.1c2.8-2,5.3-4,7.8-5.9c1.2-0.9,2.5-1.9,3.7-2.7c1.1-1,2.3-1.9,3.3-2.8c2.2-1.8,4.3-3.5,6.3-5.2
					c4-3.3,7.4-6.5,10.6-9.1c0.8-0.7,1.6-1.3,2.3-2c0.7-0.7,1.4-1.3,2.1-1.9c1.4-1.2,2.7-2.4,4-3.5c2.5-2.2,4.8-4,6.7-5.6
					c1.9-1.6,3.6-3,5.1-4.1c6-4.4,8.9-4.7,10.3-3.8c1.4,0.8,1.2,2.8,1.2,2.8c-14.2,19.4-30.6,37.4-49.3,52.9l-3.5,2.9l-3.7,2.7
					l-7.3,5.5l-7.6,5.1c-1.3,0.8-2.5,1.7-3.8,2.5l-4,2.3c-10.4,6.4-21.5,11.6-32.8,16.1c-2.9,1.1-5.7,2.3-8.6,3.2l-8.7,2.8l-8.9,2.3
					c-3,0.8-6,1.3-8.9,2c-12,2.4-24.2,3.8-36.3,4.2c-12.2,0.4-24.4-0.2-36.5-1.8c-7.8-1.1-15.4-2.5-23.1-4.4l0.2,0.3
					c6.9,10.5,13.1,21.4,18.4,32.6c10.7,22.5,18.7,45.9,25.1,69.7c6.3,23.8,11,47.9,14.4,72.1c1.7,12.1,3.1,24.3,4.2,36.5
					c0.6,6.1,1,12.2,1.4,18.3l0.5,9.2l0.2,6.6l0.2,9c-2.7,1-5.5,1.9-8.2,2.8c-1.4,0.5-2.8,0.9-4.3,1.2l-2.5,0.7c-3,0.8-6,1.5-9,2.1
					c-3,0.7-6,1.2-9,1.8l-9,1.5c-6.4,1-12.9,1.9-19.3,2.6c0.1,13.9-6.7,48.9-35.8,135c-5,14.9-9.7,28.2-13.9,40.1
					c-2.1,5.9-4.2,11.5-6.1,16.7c-0.2,0.6-0.5,1.3-0.7,1.9l-0.4,1c-0.1,0.2-0.2,0.6-0.2,0.6l-0.3,0.5c-0.2,0.3-0.5,0.8-0.8,1.3
					c0.3,0.1,0.7,0.3,1.2,0.4c0.3,0.1,0.6,0.2,0.8,0.2c0,0,0.4,0,0.7,0.1l0.9,0.1c0.6,0.1,1.2,0.1,1.8,0.1c4.7,0.3,9,0.7,12.9,1
					c7.9,0.7,14.3,1.5,19.6,2.3c10.6,1.7,16.5,3.5,19.7,5.2c6.3,3.4,1.7,6.2,1.7,6.2h-81.1l0-0.1l71.4-211.7c-2.7,0.3-5.3,0.5-8,0.8
					c-24,2.1-48,3.1-71.9,3.3c-23.6,0.2-47.3-0.3-71-2c8.7,12.4,24.4,45.3,52.1,127.4c5,14.9,9.4,28.3,13.2,40.3
					c4.8,15.6,9.1,29.3,12.8,41.4c-5.1-0.2-9.9-0.3-14.6-0.4c-2.3-0.1-4.5-0.2-6.6-0.2l-1.1-0.1l-0.9-0.1c-0.6,0-1.2-0.1-1.8-0.1
					c-4.7-0.3-9-0.6-12.9-1c-7.9-0.7-14.3-1.5-19.6-2.3c-10.6-1.7-16.5-3.5-19.7-5.2c-6.3-3.4-1.7-6.2-1.7-6.2h57.2l-65.5-194.2
					c-9.3-0.8-18.5-1.9-27.8-3.3c-3-0.4-6-0.9-9-1.5c-3-0.5-6-1.1-9-1.8c-6-1.3-12-2.8-18.2-4.9l-0.6-0.2c-0.2-0.1-0.3-0.1-0.7-0.3
					l-1.9-0.8c-1.3-0.6-2.5-0.9-3.8-1.6c-1.3-0.7-2.6-1.3-3.8-2l-0.9-0.5l-0.5-0.3c-0.2-0.1-0.4-0.2-0.3-0.4l-0.1-2.1
					c-0.3-2.8-0.2-5.7-0.1-8.6l0.1-4.6l0.3-18c0-6,0.5-12,0.8-18l1.1-18c0.4-6,1.1-12,1.7-18l0.9-9l0.4-4.5l0.6-4.5l2.5-17.9
					l0.6-4.5l0.8-4.5l1.6-8.9c1.9-11.9,4.7-23.6,7.3-35.4l4.5-17.5c1.6-5.8,3.4-11.6,5.1-17.4c2.9-9.1,6-18.2,9.4-27.1
					c-4.8,6.4-10.5,14-17.4,23.1c-8.4,11.4-18.5,25-29.7,42.1c-5.6,8.5-11.4,17.9-17.2,28.2c-5.8,10.4-11.7,21.8-16.9,34.4
					c-5.2,12.6-9,24.7-11.4,36c-0.5,2.8-1.2,5.6-1.5,8.3c-0.3,2.7-0.7,5.4-1,8c-0.2,2.6-0.3,5.2-0.4,7.7c-0.1,2.6,0,5.2,0,7.7
					c0,20.1,1.9,36.6,5.3,49.8c3.4,13.2,8,23,12.5,30.2c4.6,7.2,9.2,12,12.7,15.4C54,743,56.7,745.1,58.3,746.6z M367.6,677.2
					l-0.1-1.7c-0.1-2.7-0.2-5.3-0.3-8c-0.3-5.3-0.6-10.5-0.9-15.5c-0.7-10.2-1.6-20-2.7-29.3c-2.1-18.8-4.7-35.9-7.6-51.6
					c-2.9-15.7-6.2-29.9-9.6-42.7c-1.6-6.4-3.5-12.5-5.2-18.3c-1.9-5.7-3.5-11.2-5.4-16.3c-7.2-20.5-14.4-36-20.8-47.9
					c-1.6-3-3.2-5.7-4.6-8.2c-1.4-2.6-2.9-4.9-4.2-7c-1.3-2.2-2.5-4.1-3.6-6c-1.2-1.8-2.3-3.4-3.2-4.9c-1-1.5-1.8-2.9-2.6-4.1
					c-0.8-1.2-1.5-2.3-2.2-3.2c-0.2-0.4-0.4-0.7-0.7-1.1c-1.8,0.2-3.6,0.3-5.4,0.4c-14.4,0.7-29.5,1.7-45.2,2.8l58.3,131l-68.5,82.6
					L166,551.2l45-134.3c-7.8,0.6-15.7,1.2-23.8,1.7c-9.3,0.6-18.8,1.2-28.6,1.4c-7.5,0.2-15.1,0.3-23-0.1
					c-1.2,3.6-2.7,7.9-4.6,13.4c-3.4,10.4-8.1,24.5-13.3,44c-5.1,19.4-10.7,44.2-15.3,75.8c-4.6,31.6-8.1,70-8.3,116.3
					c0,1.4,0,2.9-0.1,4.4l0,2.2v0.3v0.1l0,0.1c0,0.2,0,0.3,0.1,0.3l0.5,0.2c1,0.3,2,0.6,3,1c1.3,0.4,2.8,0.8,4.2,1.2
					c1.4,0.4,2.9,0.7,4.3,1.1c1.5,0.3,2.9,0.7,4.4,1c12,2.6,24.8,4.3,38.3,5.7c26.9,2.7,56.4,3.5,88.2,3.1
					c26.2-0.3,50.8-1.3,73.7-3.6c11.5-1.1,22.5-2.5,33-4.2c2.6-0.4,5.3-0.8,7.8-1.3c2.6-0.5,5.1-1,7.6-1.5c2.5-0.5,5-1.1,7.4-1.7
					l0.7-0.2h0.1l0.1,0c0.1,0,0.2,0,0.2-0.1l0-0.2L367.6,677.2z"/>
			</g>
		</g>
	</g>
	<g>
		<g id="XMLID_2_">
			<g>
				<path d="M969.2,896.7c0-0.7,1.9-1.3,3.6-2.3c0.9-0.5,1.7-1.1,2.3-1.5c0.3-0.2,0.5-0.4,0.7-0.6c0.2-0.1,0.3-0.2,0.3-0.2
					c2.9-1.8,5-4.9,5.6-8.2c0-0.4,0.1-0.8,0.2-1.3l0.1-1.3v-4.3v-8.5v-34.1v-68.3V629.6V356.5l0-68.1c-0.1-3.4-1.6-6.7-4.1-9
					c-1.3-1.2-2.7-2.1-4.3-2.6c-0.4-0.2-0.8-0.3-1.2-0.4c-0.4-0.1-0.8-0.2-1.2-0.2c-0.4-0.1-0.8-0.1-1.3-0.1c-0.3,0-0.3,0-0.7,0
					h-1.1h-34.1H797.3H524.2c-3.4,0-6.7,1.4-9.1,3.9c-1.2,1.2-2.1,2.7-2.7,4.3c-0.2,0.4-0.3,0.8-0.4,1.2c-0.1,0.4-0.2,0.8-0.3,1.2
					c-0.1,0.4-0.2,0.8-0.1,1.3l-0.1,0.6c0,0.2,0,0.7,0,1v34.1v68.3v136.6v273.1v68.3v8.5v2.1v1.1l0,0.6l0,0.6l0.1,0.6l0.1,0.6
					l0.2,0.6c0.8,3.2,3.1,6.2,6.1,7.9c1.5,0.8,3.1,1.4,4.8,1.6l1.3,0.1c0.6,0,1.4,0,2.1,0h4.3h17.1H684h273.1
					C957.1,894.2,969.2,895.2,969.2,896.7c0,1.6-13.8,3.8-70.9,6c-55.3,2.1-151.2,4.3-314.6,5.9c-10.2,0.1-20.7,0.2-31.4,0.3
					c-5.4,0-10.8,0.1-16.3,0.1c-2.7,0-5.5,0.1-8.3,0.1l-2.1,0c-0.7,0-1.3,0-2.3,0c-1.8-0.1-3.7-0.3-5.5-0.7
					c-7.2-1.6-13.7-6.3-17.6-12.8c-1.9-3.2-3.2-6.9-3.7-10.8c-0.1-0.9-0.1-1.9-0.2-2.9c0-0.5,0-0.8,0-1.2v-1.1c0-1.5,0-3,0-4.4
					c-0.1-11.8-0.2-24-0.3-36.4c-0.2-49.7-0.5-104-0.8-163.4c-0.2-59.4-0.3-123.8-0.5-193.6c-0.1-34.9-0.1-71.2-0.1-109
					c0-18.9,0-38.1,0-57.7c0-4.9,0-9.8,0-14.8c0-2.5,0-4.9,0-7.4v-3.7c0-0.5,0-1.5,0.1-2.4c0-0.9,0.1-1.7,0.3-2.6
					c1-7,4.6-13.5,9.9-18.1c5.3-4.6,12.4-7.3,19.5-7.3c162.5,0,301.4,0.3,420.1,0.7c7.4,0,14.8,0.1,22,0.1h2.7
					c1.1,0.1,2.4,0.1,3.6,0.2c2.5,0.3,4.9,0.9,7.1,1.8c4.6,1.8,8.5,4.8,11.6,8.5c3,3.7,5.2,8.2,6.1,12.9c0.2,1.2,0.4,2.4,0.4,3.6
					l0.1,1.8v1.3c0,1.8,0,3.5,0,5.2c0,7-0.1,13.8-0.1,20.6c-0.2,27.2-0.3,53.2-0.5,78c-0.4,49.7-0.8,94.7-1.1,135.6
					c-1.6,163.3-3.7,259.3-5.9,314.6c-0.6,13.8-1.1,25.1-1.6,34.3c-0.1,1.1-0.1,2.3-0.2,3.3c-0.1,1-0.2,1.9-0.4,2.8
					c-0.4,1.8-1.1,3.4-1.8,4.8c-1.6,2.8-3.6,4.7-5.4,6c-3.8,2.6-7,2.8-8.9,2.7c-0.5-0.1-0.9-0.1-1.2-0.2c-0.3-0.1-0.6-0.2-0.9-0.3
					c-0.4-0.2-0.7-0.4-0.8-0.6C969.2,896.8,969.2,896.8,969.2,896.7z"/>
				<path d="M906.8,499c0,1.6-6.5,3.8-32.9,6c-25.7,2.1-70.3,4.3-146.2,5.9c-37.9,0.8-83.7,1.5-138.9,1.9h-1.3c-0.4,0-0.8,0-1.5,0
					c-1.2,0-2.4-0.1-3.6-0.3c-2.4-0.3-4.8-1.1-7.1-2.1c-2.3-1-4.3-2.4-6.3-3.9c-1.9-1.6-3.6-3.5-5.1-5.5c-2.8-4.2-4.7-9.2-4.9-14.4
					c-0.1-1.5-0.1-2.1-0.1-3.1l0-2.8c0-1.8,0-3.7,0-5.6c-0.1-15-0.2-30.6-0.2-46.8c-0.1-16.2-0.1-33.1-0.1-50.6c0-4.4,0-8.8,0-13.3
					c0-2.2,0-4.5,0-6.7v-3.4v-0.4l0-0.6l0.1-1.2c0-0.8,0.1-1.6,0.3-2.4c1-6.5,4.3-12.6,9.4-16.9c5-4.4,11.7-6.9,18.5-6.9
					c75.5,0,140.1,0.3,195.2,0.7c27.6,0.3,52.8,0.6,75.9,0.8c11.5,0.2,22.6,0.4,33,0.5c5.2,0.1,10.4,0.2,15.4,0.3
					c0.5,0,1.5,0.1,2.3,0.1c0.8,0,1.6,0.2,2.4,0.3c0.8,0.1,1.6,0.3,2.4,0.5c0.8,0.2,1.5,0.4,2.3,0.8c3,1.1,5.7,2.8,8,4.8
					c4.6,4.1,7.5,9.7,8.2,15.5c0.1,0.7,0.2,1.4,0.2,2.2l0,1.1l0,0.5l0,0.4c0,1.1-0.1,2.2-0.1,3.3c-0.1,2.2-0.1,4.4-0.2,6.5
					c-0.2,8.5-0.4,16.6-0.7,24.2c-0.5,15.3-0.9,28.7-1.4,40.7c-1,23.8-2.1,41.4-3.2,54.3c-0.1,1.6-0.3,3.2-0.6,4.6
					c-0.3,1.4-0.8,2.7-1.3,3.8c-1.1,2.3-2.5,4.1-4,5.4c-3,2.6-5.9,3.5-8,3.8c-2.1,0.3-3.6-0.1-4.4-0.4c-0.9-0.4-1.2-0.8-1.3-1.2
					C906.8,499.1,906.8,499.1,906.8,499z M906.8,499c0-0.8,0.9-1.4,1.6-1.9c0.4-0.3,0.8-0.5,1.1-0.8c0.3-0.2,0.5-0.3,0.5-0.3
					c2.8-0.8,5.4-2.9,6.7-5.6c0.7-1.3,1.1-2.8,1.2-4.2c0.1-0.5,0.1-2.1,0.1-3.4v-4v-31.7v-63.5v-15.9v-7.9v-4v-2
					c0-0.4-0.1-0.7-0.1-1.1c-0.3-3-1.9-5.8-4.2-7.6c-1.2-0.9-2.5-1.6-4-2c-0.3-0.1-0.7-0.2-1.1-0.2c-0.4-0.1-0.7-0.1-1.1-0.1l-0.6,0
					h-0.9h-2h-63.5H586.6c-3,0-5.9,1.3-8,3.5c-1,1.1-1.8,2.4-2.4,3.8c-0.1,0.3-0.3,0.7-0.3,1.1c-0.1,0.3-0.2,0.7-0.2,1.1
					c-0.1,0.4-0.1,0.7-0.1,1.1l0,0.6v0.9v31.7V450v31.7l0,3.8c0,0.7,0.1,1.5,0.2,2.2c0.3,1.4,0.9,2.8,1.8,4c1.7,2.5,4.5,4.1,7.4,4.5
					c0.4,0.1,0.7,0.1,1.1,0.1c0.2,0,0.3,0,0.6,0h1h4h7.9h15.9h31.7h253.8C901.1,496.5,906.8,497.5,906.8,499z"/>
				<path class="st2" d="M917.8,478.9v4c0,1.3,0,2.9-0.1,3.4c-0.1,1.5-0.5,2.9-1.2,4.2c-1.3,2.7-3.9,4.8-6.7,5.6
					c0,0-0.2,0.1-0.5,0.3c-0.3,0.2-0.7,0.4-1.1,0.8c-0.7,0.6-1.6,1.1-1.6,1.9c0-1.5-5.6-2.5-5.6-2.5H647.3h-31.7h-15.9h-7.9h-4h-1
					c-0.3,0-0.4,0-0.6,0c-0.4,0-0.7,0-1.1-0.1c-2.9-0.4-5.7-2.1-7.4-4.5c-0.9-1.2-1.5-2.6-1.8-4c-0.1-0.7-0.2-1.5-0.2-2.2l0-3.8V450
					v-63.4v-31.7v-0.9l0-0.6c0-0.4,0.1-0.7,0.1-1.1c0-0.4,0.1-0.7,0.2-1.1c0.1-0.4,0.2-0.7,0.3-1.1c0.5-1.4,1.3-2.7,2.4-3.8
					c2.1-2.2,5-3.5,8-3.5h253.8h63.5h2h0.9l0.6,0c0.4,0,0.7,0.1,1.1,0.1c0.4,0,0.7,0.1,1.1,0.2c1.4,0.4,2.8,1.1,4,2
					c2.4,1.8,4,4.7,4.2,7.6c0,0.4,0,0.7,0.1,1.1v2v4v7.9v15.9v63.5V478.9z M871.1,426.8c1-2.1,1.7-4.9,1.1-8c-0.5-3-2.3-5.7-4.1-7.4
					c-1.8-1.8-3.8-2.9-5.7-3.8c-1.9-0.9-3.8-1.7-5.8-2.2c-1.9-0.6-3.8-1-5.6-1.4c-1.9-0.4-3.8-0.6-5.6-0.8c-1.1-0.1-2.2-0.2-3.3-0.2
					c-0.2-5.7-0.6-10.5-1.1-14.4c1.1-0.2,2-0.5,2.8-0.7c4.9-1.3,6.3-2.7,6.5-3.8c0.1-1.1-1-1.9-1-1.9c-3.1-0.2-6.3-0.3-9.5-0.3
					c-3.4-15.5-9.2-11.4-9.2-11.4l-0.1,11.7c-2.1,0.2-4.2,0.4-6.3,0.7c-4.3,0.7-8.6,1.5-13.2,3.6c-0.6,0.2-1.2,0.6-1.7,0.9
					c-0.5,0.3-1.3,0.8-2,1.3c-0.7,0.5-1.5,1.3-2.2,1.9c-0.6,0.7-1.3,1.5-1.7,2.3c-0.9,1.7-1.5,3.6-1.4,5.5c0.1,1.9,0.7,3.8,1.7,5.4
					c0.6,0.8,1.1,1.6,1.8,2.3c0.3,0.3,0.7,0.7,1,1l0.9,0.7c1.2,0.9,2.3,1.6,3.4,2.2c2.3,1.2,4.5,2,6.7,2.6c4.2,1.2,8.5,1.7,12.6,1.9
					l-0.2,23c-3.4,0.5-6.8,0.8-10.1,0.6c-6.9-0.3-13.3-2.6-16.9-7.1c0,0-1.1-0.2-2,0.5c-0.4,0.4-0.8,0.9-0.8,2.1
					c0,1.1,0.4,2.7,1.8,4.8c1.4,2.1,4.1,4.6,8.6,6.5c4.4,1.9,10.6,3.2,18.3,2.9c0.3,0,0.7-0.1,1-0.1l-0.1,12.8c0,0,6.5,4.6,10-14.2
					c0.5-0.1,1-0.2,1.6-0.3c4.5-1.1,9.4-2.8,14.4-5.4c2.5-1.3,5.1-2.9,7.7-4.9c1.3-1,2.6-2.2,3.8-3.6
					C868.8,430.5,870.1,428.9,871.1,426.8z M778,426.3c0.9-2.1,1.7-4.9,1.1-8c-0.5-3.1-2.3-5.7-4.1-7.4c-1.8-1.8-3.8-2.9-5.7-3.9
					c-1.9-0.9-3.8-1.6-5.8-2.2c-1.9-0.6-3.8-1-5.6-1.4c-1.9-0.4-3.8-0.6-5.6-0.8c-1.1-0.1-2.2-0.2-3.3-0.2
					c-0.2-5.7-0.6-10.5-1.1-14.4c1.1-0.2,2-0.5,2.8-0.7c4.9-1.3,6.3-2.7,6.4-3.8c0.2-1.1-1-1.9-1-1.9c-3.1-0.2-6.3-0.3-9.5-0.3
					c-3.4-15.5-9.2-11.4-9.2-11.4l-0.1,11.7c-2.1,0.2-4.2,0.4-6.3,0.7c-4.3,0.7-8.6,1.5-13.2,3.6c-0.6,0.3-1.2,0.6-1.8,0.9
					c-0.5,0.3-1.3,0.8-2,1.3c-0.7,0.5-1.5,1.3-2.2,1.9c-0.7,0.7-1.3,1.5-1.7,2.3c-0.9,1.7-1.5,3.6-1.4,5.5c0.1,1.9,0.7,3.8,1.7,5.4
					c0.6,0.8,1.1,1.6,1.8,2.3c0.3,0.3,0.7,0.7,1.1,1l0.9,0.7c1.2,0.9,2.3,1.6,3.4,2.2c2.2,1.2,4.5,2,6.7,2.6
					c4.2,1.2,8.5,1.7,12.6,1.9l-0.2,23c-3.4,0.5-6.8,0.8-10.1,0.6c-7-0.3-13.3-2.5-16.9-7.1c0,0-1.1-0.2-2,0.5
					c-0.4,0.4-0.8,1-0.8,2.1c0,1.1,0.4,2.7,1.8,4.8c1.4,2.1,4.1,4.6,8.6,6.5c4.4,2,10.6,3.3,18.3,2.9c0.3,0,0.7-0.1,1-0.1l-0.1,12.7
					c0,0,6.4,4.6,10-14.2c0.5-0.1,1.1-0.2,1.6-0.4c4.5-1.1,9.4-2.8,14.4-5.4c2.5-1.3,5.1-2.9,7.7-5c1.3-1,2.6-2.2,3.8-3.6
					C775.7,430.1,777,428.5,778,426.3z M679.5,425.8c1-2.1,1.7-4.9,1.1-8c-0.5-3.1-2.3-5.7-4.1-7.4c-1.8-1.8-3.8-2.9-5.7-3.8
					c-1.9-0.9-3.8-1.7-5.8-2.2c-1.9-0.6-3.8-1-5.6-1.4c-1.9-0.4-3.8-0.6-5.6-0.8c-1.1-0.1-2.2-0.2-3.3-0.2
					c-0.2-5.7-0.6-10.5-1.1-14.4c1.1-0.2,2-0.5,2.8-0.7c4.9-1.3,6.3-2.7,6.5-3.8c0.1-1.1-1-1.9-1-1.9c-3.1-0.2-6.3-0.3-9.5-0.3
					c-3.4-15.5-9.2-11.4-9.2-11.4l-0.1,11.7c-2.1,0.2-4.2,0.4-6.3,0.7c-4.3,0.7-8.6,1.5-13.2,3.6c-0.6,0.2-1.2,0.6-1.7,0.9
					c-0.5,0.3-1.3,0.8-2,1.3c-0.7,0.5-1.5,1.3-2.2,1.9c-0.7,0.7-1.3,1.5-1.7,2.3c-0.9,1.7-1.5,3.6-1.4,5.5c0.1,1.9,0.7,3.8,1.7,5.4
					c0.6,0.8,1.1,1.6,1.8,2.3c0.3,0.3,0.7,0.7,1,1l0.9,0.7c1.2,0.9,2.3,1.6,3.4,2.2c2.2,1.2,4.5,2,6.7,2.6c4.2,1.2,8.5,1.7,12.6,1.9
					l-0.2,23c-3.4,0.5-6.8,0.8-10.1,0.6c-6.9-0.3-13.3-2.5-16.9-7.1c0,0-1.1-0.2-2,0.5c-0.4,0.4-0.8,1-0.8,2.1
					c0,1.1,0.4,2.7,1.8,4.8c1.4,2.1,4.1,4.6,8.6,6.5c4.4,2,10.6,3.2,18.3,2.9c0.3,0,0.7-0.1,1-0.1l-0.1,12.7c0,0,6.5,4.6,10-14.2
					c0.5-0.1,1-0.2,1.6-0.4c4.5-1.1,9.4-2.8,14.4-5.4c2.5-1.3,5.1-2.9,7.7-5c1.3-1,2.6-2.2,3.8-3.6
					C677.3,429.6,678.5,428,679.5,425.8z"/>
				<path class="st2" d="M910.1,843.9v2.2c0,0.3,0,0.4-0.1,0.7c-0.1,0.4-0.2,0.8-0.5,1.2c-0.5,0.7-1.2,1.3-2,1.5
					c0,0-0.2,0.4-0.4,0.8c-0.2,0.5-0.5,1.1-0.5,1.8c0-1.5-3.2-2.5-3.2-2.5h-71.9h-35.9h-18c-4,0-3.6,0-4.6-0.4
					c-0.8-0.4-1.4-1.2-1.6-1.9c-0.1-0.2-0.1-0.4-0.1-0.6c0-0.1,0-0.2,0-0.3c0-0.1,0-0.1,0-0.2v-0.6V841v-9v-18v-35.9v-35.9l0-17.3
					c0.1-1.7,1.7-3.3,3.4-3.2h71.9h35.9h18h4.5h1.1h0.5l0.2,0c0.2,0,0.4,0,0.6,0.1c0.8,0.2,1.6,0.7,2.1,1.4c0.2,0.4,0.4,0.8,0.5,1.2
					c0,0.2,0.1,0.4,0.1,0.6c0,0,0,0.6,0,0.9v1.1v9V754V790v35.9V843.9z M818.5,814l50.5-50.5c0,0-1.3-10.9-31.3,19.2
					C807.6,812.7,818.5,814,818.5,814z"/>
				<path class="st2" d="M910.1,665.4v2.2c0,0.3,0,0.4-0.1,0.7c-0.1,0.4-0.2,0.8-0.5,1.2c-0.5,0.7-1.2,1.3-2,1.5
					c0,0-0.2,0.4-0.4,0.8c-0.2,0.5-0.5,1.1-0.5,1.8c0-1.5-3.2-2.5-3.2-2.5h-71.9h-35.9h-18c-4,0-3.6,0-4.6-0.4
					c-0.8-0.4-1.4-1.2-1.6-2c-0.1-0.2-0.1-0.4-0.1-0.6c0-0.1,0-0.2,0-0.3c0-0.1,0-0.1,0-0.2v-0.6v-4.5v-9v-18v-35.9v-35.9l0-17.3
					c0.1-1.7,1.7-3.2,3.4-3.2h71.9h35.9h18h4.5h1.1h0.5l0.2,0c0.2,0,0.4,0.1,0.6,0.1c0.8,0.2,1.6,0.7,2.1,1.5
					c0.2,0.4,0.4,0.8,0.5,1.2c0,0.2,0.1,0.4,0.1,0.6c0,0,0,0.6,0,0.9v1.1v9v18v35.9v35.9V665.4z M876.4,611.5c0,0,6.8-8.6-35.7-8.6
					c-42.5,0-35.7,8.6-35.7,8.6H876.4z"/>
				<path class="st3" d="M908.1,500.4c0.9,0.4,2.3,0.7,4.4,0.4c2.1-0.3,5-1.1,8-3.8c1.5-1.3,2.9-3.1,4-5.4c0.6-1.1,1-2.4,1.3-3.8
					c0.3-1.4,0.4-2.9,0.6-4.6c1.1-12.8,2.1-30.4,3.2-54.3c0.5-11.9,1-25.4,1.4-40.7c0.2-7.6,0.4-15.7,0.7-24.2
					c0.1-2.1,0.1-4.3,0.2-6.5c0-1.1,0.1-2.2,0.1-3.3l0-0.4l0-0.5l0-1.1c0-0.7-0.1-1.4-0.2-2.2c-0.7-5.7-3.6-11.4-8.2-15.5
					c-2.3-2-5-3.7-8-4.8c-0.7-0.3-1.5-0.6-2.3-0.8c-0.8-0.2-1.6-0.4-2.4-0.5c-0.8-0.1-1.6-0.3-2.4-0.3c-0.8-0.1-1.7-0.1-2.3-0.1
					c-5-0.1-10.1-0.2-15.4-0.3c-10.5-0.2-21.5-0.3-33-0.5c-23.1-0.2-48.3-0.5-75.9-0.8c-55.2-0.5-119.7-0.7-195.2-0.7
					c-6.8,0-13.5,2.6-18.5,6.9c-5,4.3-8.4,10.5-9.4,16.9c-0.1,0.8-0.2,1.6-0.3,2.4l-0.1,1.2l0,0.6v0.4v3.4c0,2.3,0,4.5,0,6.7
					c0,4.5,0,8.9,0,13.3c0.1,17.5,0.1,34.4,0.1,50.6c0.1,16.2,0.2,31.8,0.2,46.8c0,1.9,0,3.7,0,5.6l0,2.8c0,1,0,1.7,0.1,3.1
					c0.2,5.2,2,10.2,4.9,14.4c1.5,2.1,3.2,3.9,5.1,5.5c1.9,1.6,4,3,6.3,3.9c2.3,1,4.6,1.7,7.1,2.1c1.2,0.2,2.4,0.3,3.6,0.3
					c0.7,0,1.1,0,1.5,0h1.3c55.2-0.5,101-1.1,138.9-1.9c75.9-1.6,120.5-3.7,146.2-5.9c26.4-2.2,32.9-4.4,32.9-6c0,0,0,0.1,0,0.1
					C906.8,499.6,907.2,500,908.1,500.4z M906.7,852.3c0.1,0.7,0.6,1.9,2.9,2.3c1.1,0.1,2.8,0,4.6-1.2c1.8-1.1,3.9-3.4,4.5-7
					c2.2-14.5,4.3-39.8,5.9-82.8c0.4-10.8,0.8-22.6,1.1-35.7c0-0.8,0-1.6,0.1-2.5l0-0.3l0-0.5l0-1c0-0.7-0.2-1.3-0.2-2
					c-0.4-2.6-1.5-5.2-3-7.5c-3-4.5-8.2-7.8-14-8.4l-1.1-0.1l-0.9-0.1l-1.4,0c-0.9,0-1.8,0-2.7-0.1c-1.8,0-3.7-0.1-5.5-0.1
					c-3.7-0.1-7.6-0.1-11.5-0.2c-31.2-0.5-67.8-0.7-110.5-0.7c-4.6,0-9.1,1.6-12.6,4.4c-3.5,2.7-6.1,6.6-7.2,10.9
					c-0.3,1.1-0.5,2.2-0.6,3.2l-0.1,1.6l0,0.4v0.2v0.5c0,1.3,0,2.5,0,3.8c0,2.5,0,5,0,7.5c0,9.9,0.1,19.5,0.1,28.7
					c0.1,18.4,0.3,35.3,0.5,51c0.1,7.8,0.3,15.3,0.4,22.4c0,1.8,0.1,3.6,0.1,5.3l0,1.3l0,0.9l0.1,1.1c0.2,1.4,0.4,2.7,0.9,4.1
					c1.7,5.2,5.7,9.4,10.4,11.5c2.4,1.1,4.9,1.6,7.4,1.6c0.7,0,0.9,0,1.4,0l1.2,0c0.8,0,1.6,0,2.3-0.1c3.1-0.1,6.2-0.2,9.1-0.3
					c5.9-0.2,11.6-0.4,17-0.6c43-1.6,68.2-3.8,82.8-5.9c14.9-2.2,18.6-4.4,18.7-6C906.7,852.2,906.7,852.2,906.7,852.3z
					 M906.7,673.9c0.1,0.7,0.6,1.9,2.9,2.3c1.1,0.1,2.8,0,4.6-1.2c1.8-1.1,3.9-3.3,4.5-7c2.2-14.5,4.3-39.8,5.9-82.8
					c0.4-10.7,0.8-22.6,1.1-35.7c0-0.8,0-1.6,0.1-2.5l0-0.3l0-0.5l0-1c0-0.7-0.2-1.3-0.2-2c-0.4-2.6-1.5-5.2-3-7.5
					c-3-4.5-8.2-7.8-14-8.4l-1.1-0.1l-0.9,0l-1.4,0c-0.9,0-1.8,0-2.7-0.1c-1.8,0-3.7-0.1-5.5-0.1c-3.7-0.1-7.6-0.1-11.5-0.2
					c-31.2-0.5-67.8-0.7-110.5-0.7c-4.6,0-9.1,1.6-12.6,4.4c-3.5,2.8-6.1,6.6-7.2,10.9c-0.3,1.1-0.5,2.2-0.6,3.3l-0.1,1.6l0,0.4v0.2
					v0.5c0,1.3,0,2.6,0,3.8c0,2.5,0,5,0,7.5c0,9.9,0.1,19.5,0.1,28.7c0.1,18.4,0.3,35.3,0.5,50.9c0.1,7.8,0.3,15.3,0.4,22.4
					c0,1.8,0.1,3.6,0.1,5.3l0,1.3l0,0.9l0.1,1c0.2,1.4,0.4,2.7,0.9,4.1c1.7,5.2,5.7,9.4,10.4,11.5c2.4,1.1,4.9,1.6,7.4,1.6
					c0.7,0,0.9,0,1.4,0l1.2,0c0.8,0,1.6-0.1,2.3-0.1c3.1-0.1,6.2-0.2,9.1-0.3c5.9-0.2,11.6-0.4,17-0.6c43-1.6,68.2-3.7,82.8-5.9
					c14.9-2.2,18.6-4.4,18.7-6C906.7,673.8,906.7,673.8,906.7,673.9z M692.9,679.8c14.9-2.2,18.6-4.4,18.7-6c0,0.1,0,0.1,0,0.1
					c0.1,0.7,0.6,1.9,2.9,2.3c1.1,0.1,2.7,0,4.6-1.2c1.8-1.1,3.9-3.3,4.5-7c2.2-14.5,4.3-39.8,5.9-82.8c0.4-10.7,0.8-22.6,1.1-35.7
					c0-0.8,0.1-1.6,0.1-2.5v-0.3v-0.5l-0.1-1c0-0.7-0.1-1.3-0.2-2c-0.4-2.6-1.5-5.2-3-7.5c-3-4.5-8.2-7.8-14-8.4l-1.1-0.1l-0.9,0
					l-1.3,0c-0.9,0-1.8,0-2.7-0.1c-1.8,0-3.7-0.1-5.6-0.1c-3.7-0.1-7.6-0.1-11.5-0.2c-31.2-0.5-67.8-0.7-110.5-0.7
					c-4.6,0-9.1,1.6-12.6,4.4c-3.5,2.8-6.1,6.6-7.2,10.9c-0.3,1.1-0.5,2.2-0.6,3.3l-0.1,1.6l0,0.4v0.2v0.5c0,1.3,0,2.6,0,3.8
					c0,2.5,0,5,0,7.5c0.1,9.9,0.1,19.5,0.2,28.7c0.1,18.4,0.3,35.3,0.5,50.9c0.1,7.8,0.3,15.3,0.4,22.4c0,1.8,0.1,3.6,0.1,5.3l0,1.3
					l0.1,0.9l0.1,1c0.1,1.4,0.4,2.7,0.9,4.1c1.7,5.2,5.7,9.4,10.4,11.5c2.4,1.1,4.9,1.6,7.4,1.6c0.7,0,0.9,0,1.4,0l1.2,0
					c0.8,0,1.6-0.1,2.3-0.1c3.1-0.1,6.2-0.2,9.1-0.3c5.9-0.2,11.6-0.4,17-0.6C653.1,684,678.3,681.9,692.9,679.8z M692.9,858.2
					c14.9-2.2,18.6-4.4,18.7-6c0,0.1,0,0.1,0,0.1c0.1,0.7,0.6,1.9,2.9,2.3c1.1,0.1,2.7,0,4.6-1.2c1.8-1.1,3.9-3.4,4.5-7
					c2.2-14.5,4.3-39.8,5.9-82.8c0.4-10.8,0.8-22.6,1.1-35.7c0-0.8,0.1-1.6,0.1-2.5v-0.3v-0.5l-0.1-1c0-0.7-0.1-1.3-0.2-2
					c-0.4-2.6-1.5-5.2-3-7.5c-3-4.5-8.2-7.8-14-8.4l-1.1-0.1l-0.9-0.1l-1.3,0c-0.9,0-1.8,0-2.7-0.1c-1.8,0-3.7-0.1-5.6-0.1
					c-3.7-0.1-7.6-0.1-11.5-0.2c-31.2-0.5-67.8-0.7-110.5-0.7c-4.6,0-9.1,1.6-12.6,4.4c-3.5,2.7-6.1,6.6-7.2,10.9
					c-0.3,1.1-0.5,2.2-0.6,3.2l-0.1,1.6l0,0.4v0.2v0.5c0,1.3,0,2.5,0,3.8c0,2.5,0,5,0,7.5c0.1,9.9,0.1,19.5,0.2,28.7
					c0.1,18.4,0.3,35.3,0.5,51c0.1,7.8,0.3,15.3,0.4,22.4c0,1.8,0.1,3.6,0.1,5.3l0,1.3l0.1,0.9l0.1,1.1c0.1,1.4,0.4,2.7,0.9,4.1
					c1.7,5.2,5.7,9.4,10.4,11.5c2.4,1.1,4.9,1.6,7.4,1.6c0.7,0,0.9,0,1.4,0l1.2,0c0.8,0,1.6,0,2.3-0.1c3.1-0.1,6.2-0.2,9.1-0.3
					c5.9-0.2,11.6-0.4,17-0.6C653.1,862.4,678.3,860.3,692.9,858.2z M981.9,877.1v4.3l-0.1,1.3c0,0.4-0.1,0.8-0.2,1.3
					c-0.6,3.3-2.7,6.3-5.6,8.2c0,0-0.1,0.1-0.3,0.2c-0.2,0.1-0.4,0.4-0.7,0.6c-0.6,0.4-1.4,1-2.3,1.5c-1.6,0.9-3.6,1.6-3.6,2.3
					c0-1.5-12.1-2.5-12.1-2.5H684H547.4h-17.1h-4.3c-0.7,0-1.5,0-2.1,0l-1.3-0.1c-1.7-0.2-3.3-0.7-4.8-1.6c-3-1.7-5.2-4.6-6.1-7.9
					l-0.2-0.6l-0.1-0.6l-0.1-0.6l0-0.6l0-0.6v-1.1v-2.1v-8.5v-68.3V528.5V391.9v-68.3v-34.1c0-0.3,0-0.8,0-1l0.1-0.6
					c0-0.4,0.1-0.8,0.1-1.3c0-0.4,0.2-0.8,0.3-1.2c0.1-0.4,0.2-0.8,0.4-1.2c0.6-1.6,1.5-3,2.7-4.3c2.4-2.5,5.7-3.9,9.1-3.9h273.1
					h136.5h34.1h1.1c0.4,0,0.5,0,0.7,0c0.4,0,0.8,0,1.3,0.1c0.4,0.1,0.8,0.1,1.2,0.2c0.4,0.1,0.8,0.2,1.2,0.4
					c1.6,0.6,3.1,1.5,4.3,2.6c2.5,2.3,4,5.6,4.1,9l0,68.1v273.1v136.6v68.3v34.1V877.1z"/>
				<path d="M840.7,603c42.5,0,35.7,8.6,35.7,8.6H805C805,611.5,798.2,603,840.7,603z"/>
				<path d="M869,763.4L818.5,814c0,0-10.9-1.3,19.2-31.3C867.7,752.6,869,763.4,869,763.4z"/>
				<path class="st3" d="M860.3,420.5c0.2,0.2,0.2,0.3,0.2,0.4c0,0.1,0,0.1,0,0.4c-0.1,0.5-0.7,1.6-1.5,2.7
					c-1.8,2.2-4.7,4.3-7.7,6.1c-3,1.7-6.3,3.2-9.6,4.4c0.4-5.3,0.7-11.5,0.8-19c0-0.2,0-0.4,0-0.6c0.1,0,0.2,0,0.3,0
					c1.8,0.2,3.6,0.4,5.3,0.7c1.7,0.3,3.6,0.7,5.2,1.3c1.7,0.5,3.2,1.1,4.5,1.8C859,419.2,860,420,860.3,420.5z"/>
				<path d="M839.9,381.7c3.2,0,6.3,0.1,9.5,0.3c0,0,1.1,0.8,1,1.9c-0.1,1.1-1.6,2.5-6.5,3.8c-0.8,0.2-1.8,0.5-2.8,0.7
					c0.5,3.9,0.9,8.7,1.1,14.4c1.1,0.1,2.2,0.1,3.3,0.2c1.8,0.2,3.7,0.4,5.6,0.8c1.8,0.4,3.7,0.8,5.6,1.4c1.9,0.6,3.8,1.3,5.8,2.2
					c1.9,0.9,3.9,2.1,5.7,3.8c1.8,1.7,3.6,4.3,4.1,7.4c0.6,3.1-0.2,5.9-1.1,8c-1,2.1-2.2,3.8-3.5,5.2c-1.2,1.4-2.5,2.6-3.8,3.6
					c-2.6,2.1-5.2,3.6-7.7,4.9c-5.1,2.6-9.9,4.3-14.4,5.4c-0.5,0.1-1.1,0.2-1.6,0.3c-3.6,18.8-10,14.2-10,14.2l0.1-12.8
					c-0.3,0-0.7,0.1-1,0.1c-7.7,0.3-13.8-1-18.3-2.9c-4.5-2-7.1-4.5-8.6-6.5c-1.5-2.1-1.8-3.7-1.8-4.8c0-1.1,0.4-1.7,0.8-2.1
					c0.9-0.7,2-0.5,2-0.5c3.6,4.5,10,6.8,16.9,7.1c3.3,0.1,6.7-0.1,10.1-0.6l0.2-23c-4.1-0.2-8.4-0.7-12.6-1.9
					c-2.2-0.6-4.5-1.4-6.7-2.6c-1.1-0.6-2.2-1.3-3.4-2.2l-0.9-0.7c-0.3-0.3-0.7-0.7-1-1c-0.7-0.7-1.3-1.5-1.8-2.3
					c-1.1-1.6-1.6-3.5-1.7-5.4c-0.1-1.9,0.5-3.8,1.4-5.5c0.4-0.9,1.1-1.6,1.7-2.3c0.7-0.7,1.5-1.4,2.2-1.9c0.7-0.5,1.5-1,2-1.3
					c0.6-0.3,1.2-0.7,1.7-0.9c4.6-2.1,8.9-2.9,13.2-3.6c2.1-0.3,4.2-0.5,6.3-0.7l0.1-11.7C830.7,370.3,836.5,366.2,839.9,381.7z
					 M860.5,421.3c0.1-0.3,0-0.4,0-0.4c0-0.1,0-0.2-0.2-0.4c-0.3-0.5-1.3-1.3-2.6-1.9c-1.3-0.7-2.8-1.3-4.5-1.8
					c-1.6-0.5-3.4-0.9-5.2-1.3c-1.7-0.3-3.5-0.5-5.3-0.7c-0.1,0-0.2,0-0.3,0c0,0.2,0,0.4,0,0.6c-0.1,7.5-0.3,13.7-0.8,19
					c3.3-1.2,6.6-2.7,9.6-4.4c3-1.8,5.9-3.9,7.7-6.1C859.8,422.9,860.4,421.8,860.5,421.3z M830.5,402.6l0.1-11.8
					c-1.3,0.3-2.6,0.6-4,1c-2.7,0.7-5.6,1.5-8.6,2.8c-1.4,0.6-3,1.4-3.9,2.2l-0.3,0.2c-0.1,0.1-0.1,0.1-0.1,0.2
					c-0.1,0.1-0.1,0.2-0.2,0.3c-0.1,0.2-0.1,0.4,0,0.6c0.1,0.2,0.2,0.4,0.3,0.5c0.1,0.1,0.2,0.1,0.2,0.1c0,0,0.2,0.1,0.3,0.2
					c0.1,0.1,0.2,0.2,0.4,0.3c1.4,0.8,3.3,1.6,5.4,2.2c2.1,0.6,4.5,1,7,1.2C828.2,402.5,829.3,402.5,830.5,402.6z"/>
				<path class="st3" d="M830.5,390.7l-0.1,11.8c-1.2,0-2.2-0.1-3.3-0.2c-2.5-0.2-4.8-0.6-7-1.2c-2.1-0.6-4-1.3-5.4-2.2
					c-0.2-0.1-0.3-0.2-0.4-0.3c-0.1-0.1-0.3-0.2-0.3-0.2c-0.1,0-0.2-0.1-0.2-0.1c-0.2-0.1-0.3-0.3-0.3-0.5c-0.1-0.2-0.1-0.4,0-0.6
					c0.1-0.1,0.1-0.2,0.2-0.3c0-0.1,0.1-0.1,0.1-0.2l0.3-0.2c0.9-0.7,2.5-1.6,3.9-2.2c2.9-1.2,5.9-2.1,8.6-2.8
					C827.9,391.3,829.3,391,830.5,390.7z"/>
				<path d="M906.7,673.7c0-0.7,0.3-1.4,0.5-1.8c0.2-0.4,0.4-0.8,0.4-0.8c0.8-0.2,1.6-0.8,2-1.5c0.2-0.4,0.4-0.8,0.5-1.2
					c0-0.2,0-0.4,0.1-0.7v-2.2v-18v-35.9v-35.9v-18v-9v-1.1c0-0.3,0-0.9,0-0.9c0-0.2-0.1-0.4-0.1-0.6c-0.1-0.4-0.3-0.8-0.5-1.2
					c-0.5-0.7-1.3-1.3-2.1-1.5c-0.2,0-0.4-0.1-0.6-0.1l-0.2,0h-0.5H905h-4.5h-18h-35.9h-71.9c-1.7-0.1-3.4,1.5-3.4,3.2l0,17.3v35.9
					v35.9v18v9v4.5v0.6c0,0.1,0,0.1,0,0.2c0,0.1,0,0.2,0,0.3c0,0.2,0.1,0.4,0.1,0.6c0.3,0.8,0.9,1.6,1.6,2c1,0.4,0.7,0.4,4.6,0.4h18
					h35.9h71.9C903.5,671.2,906.7,672.2,906.7,673.7z M774.2,686.6c-2.5,0-5.1-0.6-7.4-1.6c-4.7-2.1-8.6-6.2-10.4-11.5
					c-0.4-1.3-0.7-2.7-0.9-4.1l-0.1-1l0-0.9l0-1.3c0-1.7-0.1-3.5-0.1-5.3c-0.1-7.2-0.3-14.6-0.4-22.4c-0.2-15.6-0.4-32.6-0.5-50.9
					c-0.1-9.2-0.1-18.8-0.1-28.7c0-2.5,0-5,0-7.5c0-1.3,0-2.5,0-3.8V547v-0.2l0-0.4l0.1-1.6c0.1-1.1,0.3-2.2,0.6-3.3
					c1.1-4.3,3.7-8.2,7.2-10.9c3.5-2.8,8.1-4.3,12.6-4.4c42.7,0,79.3,0.3,110.5,0.7c3.9,0.1,7.7,0.1,11.5,0.2c1.9,0,3.7,0.1,5.5,0.1
					c0.9,0,1.8,0,2.7,0.1l1.4,0l0.9,0l1.1,0.1c5.8,0.6,11,3.9,14,8.4c1.5,2.3,2.6,4.8,3,7.5c0.1,0.7,0.2,1.3,0.2,2l0,1l0,0.5l0,0.3
					c0,0.8,0,1.6-0.1,2.5c-0.3,13.1-0.7,24.9-1.1,35.7c-1.6,43-3.7,68.2-5.9,82.8c-0.6,3.7-2.7,5.9-4.5,7c-1.8,1.1-3.5,1.3-4.6,1.2
					c-2.3-0.3-2.8-1.5-2.9-2.3c0,0,0-0.1,0-0.1c-0.1,1.6-3.8,3.8-18.7,6c-14.5,2.1-39.8,4.3-82.8,5.9c-5.4,0.2-11,0.4-17,0.6
					c-3,0.1-6,0.2-9.1,0.3c-0.8,0-1.6,0-2.3,0.1l-1.2,0C775.2,686.6,775,686.6,774.2,686.6z"/>
				<path d="M906.7,852.1c0-0.7,0.3-1.4,0.5-1.8c0.2-0.4,0.4-0.8,0.4-0.8c0.8-0.2,1.6-0.8,2-1.5c0.2-0.4,0.4-0.8,0.5-1.2
					c0-0.2,0-0.4,0.1-0.7v-2.2v-18V790V754v-17.9v-9V726c0-0.3,0-0.9,0-0.9c0-0.2-0.1-0.4-0.1-0.6c-0.1-0.4-0.3-0.8-0.5-1.2
					c-0.5-0.7-1.3-1.3-2.1-1.4c-0.2-0.1-0.4-0.1-0.6-0.1l-0.2,0h-0.5H905h-4.5h-18h-35.9h-71.9c-1.7-0.1-3.4,1.5-3.4,3.2l0,17.3
					v35.9v35.9v18v9v4.5v0.6c0,0.1,0,0.1,0,0.2c0,0.1,0,0.2,0,0.3c0,0.2,0.1,0.4,0.1,0.6c0.3,0.8,0.9,1.6,1.6,1.9
					c1,0.4,0.7,0.4,4.6,0.4h18h35.9h71.9C903.5,849.6,906.7,850.6,906.7,852.1z M774.2,865c-2.5,0-5.1-0.6-7.4-1.6
					c-4.7-2.1-8.6-6.2-10.4-11.5c-0.4-1.3-0.7-2.7-0.9-4.1l-0.1-1.1l0-0.9l0-1.3c0-1.7-0.1-3.5-0.1-5.3c-0.1-7.1-0.3-14.6-0.4-22.4
					c-0.2-15.6-0.4-32.6-0.5-51c-0.1-9.2-0.1-18.7-0.1-28.7c0-2.5,0-5,0-7.5c0-1.3,0-2.5,0-3.8v-0.5v-0.2l0-0.4l0.1-1.6
					c0.1-1.1,0.3-2.2,0.6-3.2c1.1-4.3,3.7-8.2,7.2-10.9c3.5-2.8,8.1-4.3,12.6-4.4c42.7,0,79.3,0.3,110.5,0.7
					c3.9,0.1,7.7,0.1,11.5,0.2c1.9,0,3.7,0.1,5.5,0.1c0.9,0,1.8,0,2.7,0.1l1.4,0l0.9,0.1l1.1,0.1c5.8,0.6,11,3.9,14,8.4
					c1.5,2.3,2.6,4.8,3,7.5c0.1,0.7,0.2,1.3,0.2,2l0,1l0,0.5l0,0.3c0,0.8,0,1.7-0.1,2.5c-0.3,13.1-0.7,24.9-1.1,35.7
					c-1.6,43-3.7,68.2-5.9,82.8c-0.6,3.7-2.7,5.9-4.5,7c-1.8,1.1-3.5,1.3-4.6,1.2c-2.3-0.4-2.8-1.5-2.9-2.3c0,0,0-0.1,0-0.1
					c-0.1,1.6-3.8,3.8-18.7,6c-14.5,2.1-39.8,4.3-82.8,5.9c-5.4,0.2-11,0.4-17,0.6c-3,0.1-6,0.2-9.1,0.3c-0.8,0-1.6,0.1-2.3,0.1
					l-1.2,0C775.2,865,775,865,774.2,865z"/>
				<path class="st3" d="M767.4,420.8c-0.1,0.5-0.7,1.6-1.6,2.7c-1.8,2.2-4.7,4.3-7.7,6.1c-3,1.7-6.2,3.2-9.6,4.4
					c0.4-5.2,0.7-11.5,0.8-19c0-0.2,0-0.4,0-0.6c0.1,0,0.2,0,0.3,0c1.8,0.1,3.6,0.4,5.3,0.7c1.7,0.3,3.5,0.7,5.2,1.2
					c1.7,0.5,3.2,1.1,4.5,1.8c1.3,0.7,2.3,1.5,2.6,1.9c0.2,0.2,0.2,0.3,0.2,0.4C767.4,420.5,767.4,420.6,767.4,420.8z"/>
				<path d="M746.8,381.2c3.2,0,6.4,0.1,9.5,0.3c0,0,1.1,0.8,1,1.9c-0.1,1.1-1.6,2.5-6.4,3.8c-0.8,0.2-1.8,0.5-2.8,0.7
					c0.5,3.9,0.9,8.7,1.1,14.4c1.1,0.1,2.1,0.1,3.3,0.2c1.8,0.2,3.7,0.4,5.6,0.8c1.8,0.4,3.7,0.8,5.6,1.4c1.9,0.6,3.9,1.3,5.8,2.2
					c1.9,0.9,3.8,2.1,5.7,3.9c1.8,1.7,3.6,4.3,4.1,7.4c0.6,3.1-0.2,5.9-1.1,8c-1,2.1-2.2,3.7-3.5,5.2c-1.2,1.4-2.5,2.6-3.8,3.6
					c-2.6,2.1-5.2,3.6-7.7,5c-5.1,2.6-9.9,4.3-14.4,5.4c-0.5,0.1-1.1,0.2-1.6,0.4c-3.6,18.8-10,14.2-10,14.2l0.1-12.7
					c-0.3,0-0.7,0.1-1,0.1c-7.7,0.3-13.8-0.9-18.3-2.9c-4.5-1.9-7.1-4.5-8.6-6.5c-1.5-2.1-1.8-3.7-1.8-4.8c0-1.1,0.4-1.7,0.8-2.1
					c0.9-0.7,2-0.5,2-0.5c3.6,4.5,10,6.8,16.9,7.1c3.3,0.2,6.7-0.1,10.1-0.6l0.2-23c-4.1-0.2-8.4-0.7-12.6-1.9
					c-2.2-0.6-4.5-1.4-6.7-2.6c-1.1-0.6-2.2-1.3-3.4-2.2l-0.9-0.7c-0.3-0.3-0.7-0.7-1.1-1c-0.7-0.7-1.2-1.5-1.8-2.3
					c-1.1-1.6-1.6-3.5-1.7-5.4c-0.1-1.9,0.5-3.8,1.4-5.5c0.4-0.8,1.1-1.6,1.7-2.3c0.7-0.7,1.5-1.4,2.2-1.9c0.7-0.5,1.4-1,2-1.3
					c0.6-0.3,1.2-0.7,1.8-0.9c4.6-2.1,8.9-2.9,13.2-3.6c2.1-0.3,4.2-0.5,6.3-0.7l0.1-11.7C737.6,369.9,743.4,365.8,746.8,381.2z
					 M767.4,420.8c0.1-0.3,0-0.3,0-0.4c0-0.1,0-0.2-0.2-0.4c-0.3-0.5-1.3-1.3-2.6-1.9c-1.3-0.7-2.8-1.3-4.5-1.8
					c-1.6-0.5-3.4-0.9-5.2-1.2c-1.7-0.3-3.5-0.5-5.3-0.7c-0.1,0-0.2,0-0.3,0c0,0.2,0,0.4,0,0.6c-0.1,7.5-0.3,13.7-0.8,19
					c3.4-1.2,6.6-2.7,9.6-4.4c3-1.8,5.9-3.9,7.7-6.1C766.7,422.4,767.3,421.4,767.4,420.8z M737.3,402.1l0.1-11.8
					c-1.3,0.3-2.6,0.6-4.1,0.9c-2.7,0.7-5.6,1.5-8.6,2.8c-1.4,0.6-3,1.4-3.8,2.2l-0.3,0.2c-0.1,0.1-0.1,0.1-0.1,0.1
					c-0.1,0.1-0.1,0.2-0.2,0.3c-0.1,0.2-0.1,0.4-0.1,0.6c0.1,0.2,0.2,0.4,0.4,0.5c0.1,0.1,0.2,0.1,0.2,0.1c0,0,0.1,0.1,0.3,0.2
					c0.1,0.1,0.2,0.2,0.4,0.3c1.3,0.8,3.3,1.6,5.4,2.2c2.1,0.6,4.5,1,7,1.2C735.1,402,736.2,402,737.3,402.1z"/>
				<path class="st3" d="M737.4,390.3l-0.1,11.8c-1.2,0-2.2-0.1-3.3-0.2c-2.5-0.2-4.9-0.6-7-1.2c-2.1-0.6-4-1.3-5.4-2.2
					c-0.2-0.1-0.3-0.2-0.4-0.3c-0.1-0.1-0.3-0.2-0.3-0.2c-0.1,0-0.2-0.1-0.2-0.1c-0.2-0.1-0.3-0.3-0.4-0.5c-0.1-0.2,0-0.4,0.1-0.6
					c0-0.1,0.1-0.2,0.2-0.3c0-0.1,0.1-0.1,0.1-0.1l0.3-0.2c0.9-0.7,2.5-1.6,3.8-2.2c2.9-1.2,5.9-2.1,8.6-2.8
					C734.8,390.9,736.1,390.5,737.4,390.3z"/>
				<path class="st2" d="M715,843.9v2.2c0,0.3,0,0.4-0.1,0.7c-0.1,0.4-0.2,0.8-0.5,1.2c-0.4,0.7-1.2,1.3-2,1.5c0,0-0.2,0.4-0.4,0.8
					c-0.2,0.5-0.5,1.1-0.5,1.8c0-1.5-3.2-2.5-3.2-2.5h-71.9h-35.9h-18c-4,0-3.6,0-4.6-0.4c-0.8-0.4-1.4-1.2-1.6-1.9
					c-0.1-0.2-0.1-0.4-0.1-0.6c0-0.1,0-0.2,0-0.3c0-0.1,0-0.1,0-0.2v-0.6V841v-9v-18v-35.9v-35.9l0-17.3c0.1-1.7,1.7-3.3,3.4-3.2
					h71.8h35.9h18h4.5h1.1h0.6l0.2,0c0.2,0,0.4,0,0.6,0.1c0.8,0.2,1.6,0.7,2.1,1.4c0.3,0.4,0.4,0.8,0.5,1.2c0,0.2,0.1,0.4,0.1,0.6
					c0,0,0,0.6,0,0.9v1.1v9V754V790v35.9V843.9z M651.6,785.7l22.2-22.2c0,0-1.2-10.1-28.3,16.2c-27.1-26.3-28.3-16.2-28.3-16.2
					l22.2,22.2c-26.3,27.1-16.2,28.3-16.2,28.3l22.2-22.2l22.2,22.2C667.8,814,677.9,812.8,651.6,785.7z"/>
				<path class="st2" d="M715,665.4v2.2c0,0.3,0,0.4-0.1,0.7c-0.1,0.4-0.2,0.8-0.5,1.2c-0.4,0.7-1.2,1.3-2,1.5c0,0-0.2,0.4-0.4,0.8
					c-0.2,0.5-0.5,1.1-0.5,1.8c0-1.5-3.2-2.5-3.2-2.5h-71.9h-35.9h-18c-4,0-3.6,0-4.6-0.4c-0.8-0.4-1.4-1.2-1.6-2
					c-0.1-0.2-0.1-0.4-0.1-0.6c0-0.1,0-0.2,0-0.3c0-0.1,0-0.1,0-0.2v-0.6v-4.5v-9v-18v-35.9v-35.9l0-17.3c0.1-1.7,1.7-3.2,3.4-3.2
					h71.8h35.9h18h4.5h1.1h0.6l0.2,0c0.2,0,0.4,0.1,0.6,0.1c0.8,0.2,1.6,0.7,2.1,1.5c0.3,0.4,0.4,0.8,0.5,1.2c0,0.2,0.1,0.4,0.1,0.6
					c0,0,0,0.6,0,0.9v1.1v9v18v35.9v35.9V665.4z M681.3,611.5c0,0,6.3-8-31.5-8.5c-0.6-37.8-8.5-31.5-8.5-31.5V603
					c-37.7,0.6-31.4,8.5-31.4,8.5h31.4V643c0,0,8,6.3,8.5-31.4H681.3z"/>
				<path d="M649.8,603c37.8,0.6,31.5,8.5,31.5,8.5h-31.5c-0.6,37.7-8.5,31.4-8.5,31.4v-31.4h-31.4c0,0-6.3-8,31.4-8.5v-31.5
					C641.3,571.5,649.3,565.2,649.8,603z"/>
				<path d="M673.9,763.4l-22.2,22.2c26.3,27.1,16.2,28.3,16.2,28.3l-22.2-22.2L623.4,814c0,0-10.1-1.2,16.2-28.3l-22.2-22.2
					c0,0,1.2-10.1,28.3,16.2C672.7,753.4,673.9,763.4,673.9,763.4z"/>
				<path class="st3" d="M666.1,417.6c1.3,0.7,2.3,1.5,2.6,1.9c0.2,0.2,0.2,0.3,0.2,0.4c0,0.1,0.1,0.1,0,0.4
					c-0.1,0.5-0.7,1.6-1.5,2.7c-1.8,2.2-4.7,4.3-7.7,6.1c-3,1.7-6.3,3.2-9.6,4.4c0.4-5.2,0.7-11.5,0.8-19c0-0.2,0-0.4,0-0.6
					c0.1,0,0.2,0,0.3,0c1.8,0.1,3.6,0.3,5.3,0.7c1.7,0.3,3.5,0.7,5.2,1.2C663.3,416.3,664.8,416.9,666.1,417.6z"/>
				<path d="M658.8,383c-0.1,1.1-1.6,2.5-6.5,3.8c-0.8,0.2-1.8,0.5-2.8,0.7c0.5,3.9,0.9,8.7,1.1,14.4c1.1,0.1,2.2,0.1,3.3,0.2
					c1.8,0.2,3.7,0.4,5.6,0.8c1.8,0.4,3.7,0.8,5.6,1.4c1.9,0.6,3.8,1.3,5.8,2.2c1.9,0.9,3.9,2.1,5.7,3.8c1.8,1.7,3.6,4.3,4.1,7.4
					c0.6,3.1-0.2,5.9-1.1,8c-1,2.1-2.2,3.8-3.5,5.2c-1.3,1.4-2.6,2.6-3.8,3.6c-2.6,2.1-5.2,3.6-7.7,5c-5.1,2.6-9.9,4.3-14.4,5.4
					c-0.5,0.1-1.1,0.2-1.6,0.4c-3.6,18.8-10,14.2-10,14.2l0.1-12.7c-0.3,0-0.7,0.1-1,0.1c-7.7,0.3-13.8-0.9-18.3-2.9
					c-4.5-1.9-7.1-4.5-8.6-6.5c-1.5-2.1-1.8-3.7-1.8-4.8c0-1.1,0.4-1.7,0.8-2.1c0.9-0.7,2-0.5,2-0.5c3.6,4.5,10,6.8,16.9,7.1
					c3.3,0.2,6.7-0.1,10.1-0.6l0.2-23c-4.1-0.2-8.4-0.7-12.6-1.9c-2.2-0.6-4.5-1.4-6.7-2.6c-1.1-0.6-2.2-1.2-3.4-2.2l-0.9-0.7
					c-0.3-0.3-0.7-0.7-1-1c-0.7-0.7-1.3-1.5-1.8-2.3c-1.1-1.6-1.6-3.5-1.7-5.4c-0.1-1.9,0.5-3.8,1.4-5.5c0.5-0.8,1.1-1.6,1.7-2.3
					c0.7-0.6,1.5-1.4,2.2-1.9c0.7-0.5,1.4-1,2-1.3c0.6-0.3,1.2-0.7,1.7-0.9c4.6-2.1,8.9-2.9,13.2-3.6c2.1-0.3,4.2-0.5,6.3-0.7
					l0.1-11.7c0,0,5.8-4.1,9.2,11.4c3.2,0,6.3,0.1,9.5,0.3C657.8,381,659,381.9,658.8,383z M668.9,420.4c0.1-0.3,0.1-0.3,0-0.4
					c0-0.1,0-0.2-0.2-0.4c-0.3-0.5-1.3-1.3-2.6-1.9c-1.3-0.7-2.8-1.3-4.5-1.8c-1.6-0.5-3.5-0.9-5.2-1.2c-1.7-0.3-3.5-0.5-5.3-0.7
					c-0.1,0-0.2,0-0.3,0c0,0.2,0,0.4,0,0.6c-0.1,7.5-0.3,13.7-0.8,19c3.3-1.2,6.6-2.7,9.6-4.4c3-1.8,5.9-3.9,7.7-6.1
					C668.2,422,668.8,420.9,668.9,420.4z M638.9,401.6l0.1-11.8c-1.3,0.3-2.6,0.6-4,0.9c-2.7,0.7-5.6,1.5-8.6,2.8
					c-1.4,0.6-3,1.4-3.9,2.2l-0.3,0.2c-0.1,0.1-0.1,0.1-0.1,0.2c-0.1,0.1-0.1,0.2-0.2,0.3c-0.1,0.2-0.1,0.4,0,0.6
					c0.1,0.2,0.2,0.4,0.4,0.5c0.1,0.1,0.2,0.1,0.2,0.2c0,0,0.2,0.1,0.3,0.2c0.1,0.1,0.2,0.2,0.4,0.3c1.4,0.8,3.3,1.6,5.4,2.2
					c2.1,0.6,4.5,1,7,1.2C636.7,401.5,637.7,401.6,638.9,401.6z"/>
				<path class="st3" d="M639,389.8l-0.1,11.8c-1.2,0-2.2-0.1-3.3-0.2c-2.5-0.2-4.8-0.6-7-1.2c-2.1-0.6-4-1.3-5.4-2.2
					c-0.2-0.1-0.3-0.2-0.4-0.3c-0.1-0.1-0.3-0.2-0.3-0.2c-0.1,0-0.2-0.1-0.2-0.2c-0.2-0.1-0.3-0.3-0.4-0.5c-0.1-0.2-0.1-0.4,0-0.6
					c0.1-0.1,0.1-0.2,0.2-0.3c0-0.1,0.1-0.1,0.1-0.2l0.3-0.2c0.9-0.7,2.5-1.6,3.9-2.2c2.9-1.2,5.9-2.1,8.6-2.8
					C636.3,390.4,637.7,390.1,639,389.8z"/>
				<path d="M711.5,673.7c0-0.7,0.3-1.3,0.5-1.8c0.2-0.4,0.4-0.8,0.4-0.8c0.8-0.2,1.6-0.8,2-1.5c0.2-0.4,0.4-0.8,0.5-1.2
					c0.1-0.2,0.1-0.4,0.1-0.7v-2.2v-18v-35.9v-35.9v-18v-9v-1.1c0-0.3,0-0.9,0-0.9c0-0.2,0-0.4-0.1-0.6c-0.1-0.4-0.2-0.8-0.5-1.2
					c-0.5-0.7-1.3-1.3-2.1-1.5c-0.2,0-0.4-0.1-0.6-0.1l-0.2,0H711h-1.1h-4.5h-18h-35.9h-71.8c-1.7-0.1-3.4,1.5-3.4,3.2l0,17.3v35.9
					v35.9v18v9v4.5v0.6c0,0.1,0,0.1,0,0.2c0,0.1,0,0.2,0,0.3c0,0.2,0.1,0.4,0.1,0.6c0.3,0.8,0.9,1.6,1.6,2c1,0.4,0.6,0.4,4.6,0.4h18
					h35.9h71.9C708.4,671.2,711.5,672.2,711.5,673.7z M711.5,673.7c-0.1,1.6-3.7,3.8-18.7,6c-14.6,2.1-39.8,4.3-82.8,5.9
					c-5.4,0.2-11,0.4-17,0.6c-3,0.1-6,0.2-9.1,0.3c-0.8,0-1.6,0-2.3,0.1l-1.2,0c-0.4,0-0.7,0-1.4,0c-2.5,0-5.1-0.6-7.4-1.6
					c-4.7-2.1-8.6-6.2-10.4-11.5c-0.4-1.3-0.7-2.7-0.9-4.1l-0.1-1l-0.1-0.9l0-1.3c0-1.7-0.1-3.5-0.1-5.3c-0.1-7.2-0.3-14.6-0.4-22.4
					c-0.2-15.6-0.4-32.6-0.5-50.9c-0.1-9.2-0.1-18.8-0.2-28.7c0-2.5,0-5,0-7.5c0-1.3,0-2.5,0-3.8V547v-0.2l0-0.4l0.1-1.6
					c0.1-1.1,0.3-2.2,0.6-3.3c1.1-4.3,3.7-8.2,7.2-10.9c3.5-2.8,8.1-4.3,12.6-4.4c42.7,0,79.3,0.3,110.5,0.7
					c3.9,0.1,7.7,0.1,11.5,0.2c1.9,0,3.7,0.1,5.6,0.1c0.9,0,1.8,0,2.7,0.1l1.3,0l0.9,0l1.1,0.1c5.8,0.6,11,3.9,14,8.4
					c1.5,2.3,2.6,4.8,3,7.5c0.1,0.7,0.2,1.3,0.2,2l0.1,1v0.5v0.3c0,0.8-0.1,1.6-0.1,2.5c-0.3,13.1-0.7,24.9-1.1,35.7
					c-1.6,43-3.7,68.2-5.9,82.8c-0.6,3.7-2.7,5.9-4.5,7c-1.9,1.1-3.5,1.3-4.6,1.2c-2.3-0.3-2.8-1.5-2.9-2.3
					C711.5,673.8,711.5,673.8,711.5,673.7z"/>
				<path d="M711.5,852.1c0-0.7,0.3-1.3,0.5-1.8c0.2-0.4,0.4-0.8,0.4-0.8c0.8-0.2,1.6-0.8,2-1.5c0.2-0.4,0.4-0.8,0.5-1.2
					c0.1-0.2,0.1-0.4,0.1-0.7v-2.2v-18V790V754v-17.9v-9V726c0-0.3,0-0.9,0-0.9c0-0.2,0-0.4-0.1-0.6c-0.1-0.4-0.2-0.8-0.5-1.2
					c-0.5-0.7-1.3-1.3-2.1-1.4c-0.2-0.1-0.4-0.1-0.6-0.1l-0.2,0H711h-1.1h-4.5h-18h-35.9h-71.8c-1.7-0.1-3.4,1.5-3.4,3.2l0,17.3
					v35.9v35.9v18v9v4.5v0.6c0,0.1,0,0.1,0,0.2c0,0.1,0,0.2,0,0.3c0,0.2,0.1,0.4,0.1,0.6c0.3,0.8,0.9,1.6,1.6,1.9
					c1,0.4,0.6,0.4,4.6,0.4h18h35.9h71.9C708.4,849.6,711.5,850.6,711.5,852.1z M711.5,852.2c-0.1,1.6-3.7,3.8-18.7,6
					c-14.6,2.1-39.8,4.3-82.8,5.9c-5.4,0.2-11,0.4-17,0.6c-3,0.1-6,0.2-9.1,0.3c-0.8,0-1.6,0.1-2.3,0.1l-1.2,0c-0.4,0-0.7,0-1.4,0
					c-2.5,0-5.1-0.6-7.4-1.6c-4.7-2.1-8.6-6.2-10.4-11.5c-0.4-1.3-0.7-2.7-0.9-4.1l-0.1-1.1l-0.1-0.9l0-1.3c0-1.7-0.1-3.5-0.1-5.3
					c-0.1-7.1-0.3-14.6-0.4-22.4c-0.2-15.6-0.4-32.6-0.5-51c-0.1-9.2-0.1-18.7-0.2-28.7c0-2.5,0-5,0-7.5c0-1.3,0-2.5,0-3.8v-0.5
					v-0.2l0-0.4l0.1-1.6c0.1-1.1,0.3-2.2,0.6-3.2c1.1-4.3,3.7-8.2,7.2-10.9c3.5-2.8,8.1-4.3,12.6-4.4c42.7,0,79.3,0.3,110.5,0.7
					c3.9,0.1,7.7,0.1,11.5,0.2c1.9,0,3.7,0.1,5.6,0.1c0.9,0,1.8,0,2.7,0.1l1.3,0l0.9,0.1l1.1,0.1c5.8,0.6,11,3.9,14,8.4
					c1.5,2.3,2.6,4.8,3,7.5c0.1,0.7,0.2,1.3,0.2,2l0.1,1v0.5v0.3c0,0.8-0.1,1.7-0.1,2.5c-0.3,13.1-0.7,24.9-1.1,35.7
					c-1.6,43-3.7,68.2-5.9,82.8c-0.6,3.7-2.7,5.9-4.5,7c-1.9,1.1-3.5,1.3-4.6,1.2c-2.3-0.4-2.8-1.5-2.9-2.3
					C711.5,852.2,711.5,852.2,711.5,852.2z"/>
			</g>
		</g>
	</g>
</g>
</svg>
