<?xml version="1.0" encoding="utf-8"?>
<!-- Generator: Adobe Illustrator 24.2.3, SVG Export Plug-In . SVG Version: 6.00 Build 0)  -->
<svg version="1.1" id="yellow_man" xmlns="http://www.w3.org/2000/svg" xmlns:xlink="http://www.w3.org/1999/xlink" x="0px" y="0px"
	 viewBox="0 0 1000 1000" style="enable-background:new 0 0 1000 1000;" xml:space="preserve">
<style type="text/css">
	.st0{fill:#FFCE45;}
	.st1{fill:#3351FF;}
	.st2{fill:#FFFFFF;}
	.st3{fill:#FF306A;}
</style>
<g>
	<g id="XMLID_47_">
		<g>
			<path class="st0" d="M650.5,129.1c0.3,8.7-1.1,17.6-3.8,26.4l-32.8,107.8l-6.7-11.3c-2.5-4.2-4.9-8.5-7.4-12.8
				c-9.7-17.1-18.9-34.5-27.5-52.2s-16.4-35.6-23.1-53.8c-3.3-9.1-6.2-18.3-8.5-27.6c-2.3-9.2-4.1-18.6-4.6-27.7
				c0,0-0.3-1.3-0.8-2.5c-0.5-1.3-1.2-2.5-2-2.3c-0.8,0.2-1.7,1.8-2.5,6.3c-0.5,3.8-0.9,9.8,0,18.7c-18.2-5.3-36.3-11-54.4-16.8
				c-18.8-6.1-37.4-12.5-55.8-19.5c-9.2-3.5-18.3-7.1-27.3-10.9c-8.9-3.9-17.8-7.9-25.9-12.5c-4-2.3-8-4.8-10.9-7.3l-0.8-0.7L357,30
				c1.8-0.6,4-1.1,6.1-1.5c4.4-0.8,9.1-1.3,13.9-1.7c4.8-0.4,9.6-0.6,14.4-0.7c4.8-0.1,9.8-0.2,14.4-0.1c9.7,0.3,19.5,0.8,29.3,1.5
				c19.6,1.5,39.1,3.7,58.4,6.7c19.3,3.1,38.5,7,57.1,12.4c18.6,5.4,36.9,12,53.4,21.2c8.3,4.5,16,9.8,22.9,15.8
				c3.4,3,6.6,6.2,9.4,9.7c1.5,1.7,2.7,3.5,4,5.3c1.1,1.9,2.4,3.7,3.4,5.6C647.8,111.9,650,120.4,650.5,129.1z"/>
			<path class="st1" d="M607.6,590.5l0.1,4.4l-0.2,0.1l-0.2,0.1l-0.8,0.3c-5.1,1.7-10.6,3.2-16.1,4.3c-2.8,0.6-5.6,1.2-8.4,1.7
				c-2.8,0.5-5.6,1-8.5,1.4c-11.4,1.7-22.9,3-34.5,3.8c-23.2,1.7-46.6,2.2-70,2c-23.4-0.2-46.8-1.1-70-3.2
				c-11.6-1.1-23.2-2.3-34.6-4.2l-8.5-1.4c-2.8-0.6-5.7-1.1-8.4-1.7c-2.8-0.6-5.6-1.2-8.3-1.9l-1.8-0.5l0.1-2.4l0.5-8.9
				c0.4-5.9,0.8-11.8,1.4-17.7c1-11.8,2.4-23.6,4.1-35.3c3.3-23.5,7.8-46.8,13.9-69.6c6.1-22.8,13.7-45.2,23.8-66.2
				c4.9-10.6,10.7-20.7,17.1-30.3l2.4-3.6c0.8-1.2,1.6-2.4,2.5-3.5l5.2-6.9c1.6-1.9,3.2-3.8,4.8-5.6c5-2.4,6.1-4.4,5.9-5.5
				c0-0.2-0.1-0.4-0.2-0.6c0.3-0.3,0.6-0.7,1-1c0,0,1.5-2.4,1.6-4l7.1,0.3c11.5,0.5,23.1,1.2,34.6,1.9c2.4,0.1,4.9,0.3,7.3,0.5
				c-4.5,5.7-11.3,16.3-21.4,35.1c-5.2,9.7-11.4,21.6-18.5,36.1c-3.6,7.3-7.5,15.2-11.6,23.8c-2.1,4.3-4.2,8.8-6.4,13.5
				c-1.1,2.3-2.2,4.7-3.4,7.2c-1.8,3.9-3.6,7.8-5.5,11.9c8.8,10.9,18.4,22.7,28.8,35.5c4.7,5.7,9.5,11.6,14.5,17.8
				c6.6,8,13.4,16.2,20.5,24.7c1.1,1.4,2.3,2.7,3.4,4.1c7.7-8.9,15.1-17.5,22.3-25.7c5-5.9,9.9-11.5,14.5-17
				c10.3-12.2,19.8-23.4,28.7-33.8c-1.4-4.1-2.8-8-4.2-12c-0.9-2.5-1.8-5-2.7-7.5c-1.8-4.9-3.5-9.5-5.1-14c-3.3-9-6.4-17.2-9.3-24.8
				c-5.8-15.1-10.7-27.5-15-37.7c-8.2-19.3-13.8-30.4-17.7-36.6c16.8,1.1,33.6,2.3,50.6,3c7.7,0.3,15.5,0.5,23.4,0.4
				c4.6,8.6,8.8,17.7,12.6,26.9c1.1,2.7,2.1,5.4,3.1,8.1c1,2.7,2.1,5.4,3,8.1l2.8,8.2c0.9,2.7,1.9,5.5,2.7,8.3
				c1.6,5.6,3.4,11.1,4.9,16.7l4.4,16.9c2.5,11.4,5.2,22.7,7,34.2l1.5,8.6l0.8,4.3l0.6,4.3l2.4,17.3l0.6,4.3l0.4,4.4l0.9,8.7
				c0.5,5.8,1.2,11.6,1.6,17.4l1,17.5c0.3,5.8,0.8,11.6,0.8,17.5L607.6,590.5z"/>
			<path d="M530.8,79.5c0.8-4.6,1.7-6.1,2.5-6.3c0.8-0.2,1.5,1,2,2.3c0.5,1.2,0.8,2.5,0.8,2.5c0.5,9.1,2.3,18.4,4.6,27.7
				c2.3,9.3,5.3,18.5,8.5,27.6c6.6,18.2,14.5,36.2,23.1,53.8s17.8,35,27.5,52.2c2.4,4.3,4.9,8.5,7.4,12.8l6.7,11.3l32.8-107.8
				c2.7-8.8,4.1-17.7,3.8-26.4c-0.4-8.7-2.6-17.2-6.8-24.8c-0.9-2-2.2-3.8-3.4-5.6c-1.3-1.8-2.5-3.6-4-5.3c-2.8-3.5-6-6.7-9.4-9.7
				c-6.9-6-14.6-11.3-22.9-15.8c-16.5-9.2-34.8-15.8-53.4-21.2c-18.7-5.3-37.8-9.2-57.1-12.4c-19.3-3.1-38.8-5.3-58.4-6.7
				c-9.8-0.7-19.6-1.3-29.3-1.5c-4.6-0.1-9.6,0-14.4,0.1c-4.8,0.1-9.7,0.3-14.4,0.7c-4.7,0.4-9.4,0.9-13.9,1.7
				c-2.2,0.4-4.3,0.9-6.1,1.5l-1.2,0.4l0.8,0.7c2.9,2.5,6.9,5,10.9,7.3c8.2,4.6,17,8.7,25.9,12.5c9,3.8,18.1,7.5,27.3,10.9
				c18.4,6.9,37,13.3,55.8,19.5c18,5.9,36.2,11.5,54.4,16.8C529.9,89.3,530.3,83.3,530.8,79.5z M417,334.4l-1.7-0.1l-4.7-0.3
				c-6.3-0.5-12.6-1.4-18.9-3.3c-6.3-1.9-12.5-4.6-18.1-8.5c-5.6-3.8-10.6-8.8-14.4-14.4c-3.9-5.6-6.6-11.7-8.6-18
				c-1.9-6.2-3.1-12.5-3.6-18.8c-1.2-12.5-0.4-24.7,1.2-36.7c1.6-12,4.2-23.7,7.2-35.1c6.1-23,14.2-45.2,23.3-66.9
				c8.7-20.8,18.3-41.1,28.8-61c-10.2-3.6-21-7.8-32.7-12.9c-4.1-1.8-8.4-3.8-12.7-6.1c-4.3-2.3-8.7-4.7-13.1-8
				c-1.1-0.8-2.2-1.7-3.3-2.7c-1.4-1.3-3-3-4.2-4.8c-1.2-1.8-2-3.8-2.4-5.8c-0.3-2.1-0.1-4.3,0.8-6.2c0.9-1.9,2.2-3.6,4-5
				c1.7-1.4,3.9-2.5,6-3.4l1.3-0.5l1.1-0.4c0.8-0.3,1.5-0.5,2.2-0.7c1.5-0.4,2.9-0.8,4.4-1.1c5.8-1.2,11.5-1.9,17.3-2.4
				c5.8-0.5,11.7-0.8,17.8-1c3-0.1,6-0.1,9.2-0.2c3.3,0,6.3,0.1,9.4,0.2c6.3,0.2,12.7,0.5,19.2,0.9c26.1,1.6,54.3,4.5,84.7,10.3
				c15.2,2.9,30.9,6.6,47,11.5c16.1,5,32.6,11.2,48.8,20.2c8.1,4.5,15.8,9.5,22.9,15.4c7,5.9,13.4,12.5,18.6,20
				c5.3,7.5,9.1,15.9,11.3,24.6c2.2,8.6,2.7,17.5,2,25.9c-0.4,4.2-1,8.3-1.9,12.2c-0.4,2-0.9,3.9-1.5,5.8c-0.5,1.9-1.1,3.8-1.6,5.5
				c-2.2,7-4.3,13.8-6.4,20.5c-4.2,13.4-8.2,26.3-12.1,38.6c-3.9,12.3-7.6,24.1-11.2,35.4c-1.6,5.1-3.2,10.1-4.7,15
				c0.5,2.7,1,5.4,1.3,8.2c0.6,6.3,1,12.7,0.2,19.4c-0.8,6.7-2.9,13.8-7.2,20c-4.2,6.2-10.4,10.9-16.6,13.8
				c-6.3,3-12.6,4.6-18.8,5.8c-6.2,1-12.3,1.7-18.4,2c-1.6,0.1-3.1,0.1-4.7,0.2c0.7,1,1.4,2,2.2,3.1c1.7,0.8,3.8,1.9,6.4,3.5
				c8.2,5.3,21.5,15.7,41.2,36.4c9.7,10.5,21,23.5,33.3,40.4c6.1,8.4,12.4,17.9,18.7,28.6c6.3,10.7,12.5,22.5,18.1,35.9
				s9.6,26.5,11.9,39c0.5,3.2,1.1,6.2,1.5,9.3c0.3,3.1,0.6,6.1,0.8,9c0.1,3,0.1,5.9,0.2,8.7c0,2.8-0.3,5.5-0.4,8.1
				c-1,21.1-4.4,38.7-9.6,52.6c-5.3,13.9-12.1,23.9-18.8,30.4c-6.7,6.6-12.9,9.8-17.5,11.3c-4.7,1.4-7.8,1.4-9.7,0.9
				c-0.9-0.2-1.5-0.6-2-1c-0.3-0.4-0.4-0.8-0.5-1.2c-0.1-0.4-0.1-0.8-0.1-1.1c0-0.2,0-0.3,0-0.5c0.1-0.2,0.1-0.3,0.2-0.4
				c0.3-0.5,0.5-0.9,0.5-0.9c0.7-0.2,1.4-0.4,2.1-0.7l2.1-0.9c0.7-0.3,1.4-0.8,2.1-1.1l1.1-0.5l1-0.7l2.1-1.4c0.7-0.4,1.3-1,1.9-1.5
				l1.9-1.6c0.7-0.5,1.2-1.2,1.8-1.8c2.5-2.3,4.5-5.1,6.6-7.8l2.8-4.5c0.4-0.8,1-1.5,1.4-2.3l1.2-2.4c6.4-12.8,9.8-27.5,11.6-42.4
				c0.4-3.8,0.8-7.5,1.1-11.3l0.4-11.4c0-1.9,0.2-3.8,0.1-5.7l-0.2-5.5l-0.1-2.7l-0.3-2.8l-0.6-5.5c-2.1-14.7-6.7-29.2-12.4-43.2
				c-5.8-14.1-13-27.7-21-40.8c-8-13.2-16.8-25.9-26.1-38.3c-13.2-17.4-27.3-34.1-42.3-50c3.8,7.8,8,17.2,12.4,28.8
				c7.1,18.9,14.5,43.5,20.8,75.1c6.2,31.6,11.1,70.4,12.3,117.2c0.1,3.5,0.2,7,0.3,10.6c0,0.7,0.1,1.4,0,2.1l-0.1,2l-0.1,2.1l0,0.5
				c0,0.2,0,0.4-0.2,0.4l-0.9,0.5c-2.4,1.3-5,2.7-7.5,3.6c-2.9,1.2-4,1.5-5.6,2.1c-1.6,0.5-3.1,1-4.7,1.4c-1.6,0.5-3.1,0.9-4.7,1.3
				c-1.6,0.4-3.2,0.8-4.8,1.2c-12.6,2.9-25.7,4.8-39.3,6.4c1.8,15.6-2,65.3-30.5,212.6c-6.6,34.1-12.5,62.9-17.7,87.1
				c-2.6,12.1-5.1,23.1-7.4,33.1c-1.2,5-2.3,9.7-3.3,14.2c-0.1,0.5-0.3,1.1-0.4,1.7l-0.2,0.8c-0.1,0.2-0.1,0.2-0.1,0.2l-0.1,0.1
				c-0.1,0.3-0.2,0.7-0.4,1c-0.3,0.8-0.5,1.5-0.8,2.3c1,0.2,1.9,0.3,2.7,0.5l0.8,0.1c0.1,0,0.5,0.1,0.8,0.1l0.9,0.1
				c1.3,0.1,2.5,0.2,3.7,0.3c4.8,0.3,9.2,0.7,13.2,1c8,0.7,14.5,1.5,19.8,2.2c10.6,1.5,16.2,3.1,19.1,4.6c5.7,2.9,0.1,5.2,0.1,5.2
				h-78.1l71-366.4c-25.9,2.5-53.6,3.3-83.2,3c-26.4-0.3-51.3-1.5-74.6-3.9c-5.2-0.5-10.2-1.1-15.2-1.8
				c7.3,12.1,22.2,57.7,51.5,210.1c6.8,35.3,12.1,65,16.4,89.9c2.1,12.5,3.9,23.8,5.5,34c0.8,5.1,1.5,10,2.2,14.5
				c0.2,1.1,0.3,2.3,0.5,3.4c0.3,1.8,0.6,3.6,0.9,5.4c0.5,3.5,1.1,6.8,1.6,10.1c-4.4,0.2-8.6,0.3-12.7,0.5c-1,0-1.9,0.1-2.8,0.1
				c-0.6,0-1.2,0-1.8,0c-1.2,0-2.4,0-3.5,0c-4.6,0-8.8,0-12.6-0.1c-7.7-0.1-14-0.4-19.1-0.8c-10.2-0.8-15.7-1.9-18.4-3.1
				c-5.5-2.4-0.3-5.1-0.3-5.1l54.9-4.2L370,619c-4.1-0.6-8.3-1.2-12.3-1.9c-2.7-0.5-5.4-0.9-8.1-1.5c-2.7-0.5-5.3-1.1-8-1.7
				c-2.6-0.6-5.3-1.3-7.9-2l-3-0.8c-1.2-0.3-2.4-0.7-3.5-1.1c-2.3-0.8-4.6-1.6-6.8-2.4c0.1-2.7,0.1-5.3,0.2-8
				c0.1-1.3,0.1-2.6,0.1-3.9l0.1-2.4c0.2-2.7,0.3-5.5,0.5-8.2c0.4-5.4,0.8-10.7,1.3-15.8c1-10.3,2.1-20.2,3.5-29.7
				c2.6-19,5.9-36.3,9.5-52.1c3.6-15.8,7.6-30.1,11.8-42.9c2-6.4,4.3-12.5,6.4-18.2c2.3-5.7,4.4-11.1,6.7-16.1
				c8.9-20.2,17.9-35.1,26-46.1c2-2.7,4-5.2,5.8-7.5c1.8-2.3,3.6-4.3,5.3-6.1c0.2-0.2,0.3-0.4,0.5-0.5c-3.2,0.7-6.7,1.3-10.8,1.8
				c-9.1,1.1-20.8,1.7-35.5,0.4c-14.7-1.3-32.4-4.4-52.8-11.5c-2.6-0.8-5.1-1.8-7.7-2.9c-2.6-1-5.3-2.1-8-3.3
				c-2.7-1.3-5.4-2.5-8.1-3.8c-1.4-0.7-2.8-1.3-4.2-2c-1.4-0.8-2.7-1.5-4.1-2.3c-2.8-1.5-5.6-3.1-8.5-4.7c-2.8-1.8-5.6-3.6-8.5-5.4
				c-1.4-0.9-2.9-1.8-4.4-2.8c-1.4-1-2.8-2.1-4.3-3.1c-2.9-2.1-5.9-4.1-8.7-6.5c-23.1-18.4-39.8-37.6-52.3-54.8
				c-6.5-8.5-11.4-17-16.1-24.5c-2.2-3.8-4.2-7.6-6.1-11.2c-1.8-3.6-3.8-6.9-5.3-10.2c-3-6.6-5.7-12.6-8-18
				c-2.1-5.5-3.8-10.4-5.2-14.7c-3-8.6-4.3-15.3-5.2-20.2c-1.7-9.8-0.6-12.9,0.8-13.6c1.4-0.7,3.3,1,3.3,1
				c11.2,29.4,25.1,57.8,42.3,83.9l6.5,9.7l7,9.3l3.5,4.7c1.2,1.5,2.5,3,3.8,4.5l7.6,8.9c10.6,11.4,21.7,22.3,33.9,31.8
				c12.2,9.5,25.3,17.9,39,24.9c13.7,7,28.2,12.6,43.1,16.7c14.9,4.1,30.2,6.6,45.6,7.6c7.7,0.4,15.4,0.7,23.1,0.3
				c5.5-0.2,11-0.7,16.4-1.4c0,0,0,0,0,0c1.1-0.9,2.2-1.6,3.1-2.2C414.8,335.6,416,334.9,417,334.4z M421.2,334.5
				c-0.1,1.6-1.6,4-1.6,4c-0.3,0.3-0.6,0.7-1,1c0.1,0.2,0.2,0.4,0.2,0.6c0.3,1.2-0.9,3.2-5.9,5.5c-1.6,1.9-3.2,3.8-4.8,5.6l-5.2,6.9
				c-0.9,1.1-1.7,2.3-2.5,3.5l-2.4,3.6c-6.4,9.6-12.1,19.7-17.1,30.3c-10.1,21-17.7,43.4-23.8,66.2c-6.1,22.8-10.6,46.1-13.9,69.6
				c-1.7,11.7-3,23.5-4.1,35.3c-0.5,5.9-1,11.8-1.4,17.7l-0.5,8.9l-0.1,2.4l1.8,0.5c2.7,0.7,5.5,1.3,8.3,1.9
				c2.8,0.6,5.6,1.1,8.4,1.7l8.5,1.4c11.4,1.8,23,3.1,34.6,4.2c23.2,2.1,46.6,3,70,3.2c23.4,0.2,46.8-0.3,70-2
				c11.6-0.8,23.1-2.1,34.5-3.8c2.9-0.4,5.7-0.9,8.5-1.4c2.8-0.5,5.6-1,8.4-1.7c5.5-1.2,11-2.6,16.1-4.3l0.8-0.3l0.2-0.1l0.2-0.1
				l-0.1-4.4l-0.3-17.5c0-5.9-0.5-11.7-0.8-17.5l-1-17.5c-0.4-5.8-1.1-11.6-1.6-17.4l-0.9-8.7l-0.4-4.4l-0.6-4.3l-2.4-17.3l-0.6-4.3
				l-0.8-4.3l-1.5-8.6c-1.8-11.5-4.5-22.8-7-34.2l-4.4-16.9c-1.5-5.6-3.3-11.1-4.9-16.7c-0.8-2.8-1.8-5.5-2.7-8.3l-2.8-8.2
				c-0.9-2.7-2-5.4-3-8.1c-1-2.7-2-5.4-3.1-8.1c-3.8-9.2-7.9-18.2-12.6-26.9c-7.9,0.1-15.6-0.1-23.4-0.4c-17-0.7-33.8-1.9-50.6-3
				c3.9,6.2,9.6,17.3,17.7,36.6c4.3,10.1,9.2,22.5,15,37.7c2.9,7.6,6,15.8,9.3,24.8c1.6,4.5,3.3,9.2,5.1,14c0.9,2.4,1.8,4.9,2.7,7.5
				c1.4,3.9,2.8,7.9,4.2,12c-8.8,10.4-18.3,21.6-28.7,33.8c-4.7,5.4-9.5,11.1-14.5,17c-7.2,8.3-14.6,16.8-22.3,25.7
				c-1.1-1.4-2.2-2.7-3.4-4.1c-7.1-8.5-13.9-16.8-20.5-24.7c-5-6.1-9.9-12.1-14.5-17.8c-10.4-12.8-20-24.6-28.8-35.5
				c1.8-4,3.7-8,5.5-11.9c1.1-2.4,2.3-4.8,3.4-7.2c2.2-4.7,4.4-9.2,6.4-13.5c4.1-8.6,8-16.6,11.6-23.8c7.2-14.5,13.3-26.4,18.5-36.1
				c10.2-18.8,16.9-29.4,21.4-35.1c-2.4-0.2-4.9-0.3-7.3-0.5c-11.6-0.7-23.1-1.4-34.6-1.9L421.2,334.5z M618.2,299.4l-0.3-0.4
				l-1-1.6c-0.7-1-1.3-2.1-2-3.1c-2.6-4.1-5.1-8.2-7.6-12.2c-1.2-2-2.4-4.1-3.6-6.1c-1.1-1.9-2.2-3.7-3.3-5.5
				c-2.6-4.5-5.1-8.9-7.5-13.2c-4.8-8.6-9.3-16.9-13.4-24.9c-16.5-31.8-27.6-58-35.1-79.2c-7.5-21.2-11.3-37.5-13-49.5
				c-4.6-0.2-12.5-1.3-25.4-4.1c-11.8-2.5-27.9-6.4-49.4-12.6c-10.8-3.1-22.9-6.8-36.5-11.4c-2.3-0.8-4.7-1.6-7.1-2.4
				c-0.5,2.9-1.7,7-3.6,12.7c-2.2,6.8-5.6,15.9-10.1,28.1c-4.5,12.3-10.3,27.7-16.7,47.3c-3.2,9.8-6.6,20.7-9.8,32.7
				c-3.2,12-6.2,25.3-8.2,39.8c-1,7.2-1.6,14.8-1.7,22.6c-0.1,7.8,0.5,15.8,2.4,23.5c0.9,3.9,2.1,7.7,3.9,11.3c1.7,3.6,3.7,7,6.3,10
				c2.6,3,5.7,5.6,9.1,7.8c3.5,2.3,7.6,3.9,11.9,5.2c4.3,1.4,8.9,2,13.3,2.6c1.1,0.1,2.3,0.2,3.4,0.2c1.1,0.1,2.2,0.2,3.5,0.2
				c2.5,0.1,4.9,0.2,7.3,0.3c9.7,0.4,19,1,27.9,1.6c17.9,1.2,34.3,2.5,49.3,3.8c30.1,2.4,55,4.5,75,3.1c10-0.6,18.6-2.4,25.4-5.5
				c6.7-3.3,11.2-8.1,13.8-13.5c0.5-1.4,1.1-2.7,1.6-4.1C617.6,301.8,617.9,300.6,618.2,299.4z M517.6,466.9l-41.8-124.8
				l-53.4,120.2l48.5,58.5L517.6,466.9z"/>
			<path class="st2" d="M518.6,167.5c2.5,1.9,4.6,5.2,4.1,9.3c-0.5,4-3.3,6.8-6.2,8c-2.9,1.2-6.1,1.1-8.7,0.3
				c-1.3-0.4-2.5-1-3.6-1.6c-1-0.7-2.1-1.4-2.9-2.1c-1.7-1.5-3.1-3-4.3-4.2c-0.5-0.6-1.1-1.2-1.6-1.7c-0.5-0.5-1-0.9-1.5-1.3
				c-0.9-0.7-1.8-1.1-2.6-1.2c0.8,0.1,1.8-0.1,2.9-0.5c0.5-0.2,1.1-0.5,1.7-0.9c0.6-0.3,1.3-0.8,2-1.3c1.5-0.9,3.1-2.1,5.2-3.1
				c1-0.5,2.2-0.9,3.3-1.4c1.2-0.3,2.5-0.6,3.9-0.7C512.9,165,516,165.6,518.6,167.5z"/>
			<polygon class="st3" points="475.8,342.1 517.6,466.9 470.9,520.7 422.4,462.3 			"/>
			<path d="M488.6,173.5c0,0,1.1-0.8,2.6-0.6c-1.5-0.2-2.4-1.2-2.4-1.2c1-6.6,4.7-12.7,10-16.6c5.3-4,12.2-5.7,18.8-4.8
				c6.6,0.9,12.8,4.5,16.8,9.8c4.1,5.2,6,12.1,5.1,18.7c-0.8,6.6-4.3,12.8-9.5,16.9c-5.1,4.1-12,6.2-18.6,5.4
				c-6.6-0.7-12.9-4-17.1-9.2C490.1,187,488,180.1,488.6,173.5z M491.3,172.9c0.8,0.1,1.7,0.5,2.6,1.2c0.5,0.3,1,0.8,1.5,1.3
				c0.5,0.5,1.1,1.1,1.6,1.7c1.2,1.3,2.5,2.8,4.3,4.2c0.8,0.8,1.8,1.4,2.9,2.1c1.1,0.6,2.3,1.2,3.6,1.6c2.6,0.8,5.7,0.9,8.7-0.3
				c2.9-1.2,5.7-4,6.2-8c0.4-4-1.6-7.4-4.1-9.3c-2.6-1.9-5.7-2.6-8.3-2.4c-1.4,0.1-2.7,0.4-3.9,0.7c-1.2,0.4-2.3,0.8-3.3,1.4
				c-2,1-3.7,2.2-5.2,3.1c-0.7,0.5-1.4,0.9-2,1.3c-0.6,0.4-1.2,0.7-1.7,0.9C493.1,172.9,492.1,173,491.3,172.9z"/>
			<path class="st2" d="M445.5,158.6c2.5,1.9,4.6,5.2,4.1,9.2c-0.5,4-3.3,6.8-6.2,8c-2.9,1.2-6.1,1.1-8.7,0.3
				c-1.3-0.4-2.5-1-3.6-1.6c-1-0.7-2.1-1.4-2.9-2.1c-1.7-1.5-3-3-4.2-4.2c-0.6-0.6-1.1-1.2-1.6-1.7c-0.5-0.5-1-0.9-1.5-1.3
				c-0.9-0.7-1.8-1.1-2.6-1.2c0.8,0.1,1.8-0.1,2.8-0.5c0.5-0.2,1.1-0.5,1.7-0.9c0.6-0.4,1.3-0.8,2-1.3c1.5-0.9,3.1-2.1,5.2-3.1
				c1-0.5,2.1-1,3.3-1.4c1.2-0.4,2.5-0.6,3.9-0.7C439.8,156.1,442.9,156.7,445.5,158.6z"/>
			<path d="M418.2,164c0.8,0.1,1.7,0.5,2.6,1.2c0.5,0.3,1,0.8,1.5,1.3c0.5,0.5,1.1,1.1,1.6,1.7c1.2,1.3,2.5,2.8,4.2,4.2
				c0.8,0.8,1.9,1.4,2.9,2.1c1.1,0.6,2.3,1.2,3.6,1.6c2.6,0.8,5.7,0.9,8.7-0.3c2.9-1.2,5.7-4,6.2-8c0.5-4-1.6-7.4-4.1-9.2
				c-2.6-1.9-5.7-2.6-8.4-2.4c-1.4,0.1-2.7,0.3-3.9,0.7c-1.2,0.4-2.3,0.8-3.3,1.4c-2.1,1-3.7,2.2-5.2,3.1c-0.7,0.5-1.4,0.9-2,1.3
				c-0.6,0.4-1.2,0.7-1.7,0.9C420,164,419,164.1,418.2,164z M418.1,164c-1.5-0.2-2.4-1.2-2.4-1.2c1-6.5,4.7-12.7,10-16.6
				c5.3-4,12.3-5.7,18.8-4.8c6.6,0.9,12.8,4.5,16.8,9.7c4.1,5.2,5.9,12.2,5.1,18.7c-0.8,6.6-4.3,12.8-9.5,16.9
				c-5.2,4.2-12.1,6.2-18.6,5.4c-6.6-0.7-12.9-4-17.1-9.2c-4.2-5.1-6.4-11.9-5.8-18.5C415.5,164.6,416.6,163.8,418.1,164z"/>
			<path class="st2" d="M418.4,241.7c8.8,1.2,16.9,2.3,24.4,3.4c17.1,2.3,31.3,3.9,43.1,5c23.6,2.2,37.7,2.3,46,1.5
				c16.5-1.6,9.8-7,9.8-7l-78.2-12.6l-39.1-6.3l-16.4-2.6l-2.4-0.4c-0.8-0.1-1.5-0.2-2.2-0.2l-4.3-0.4l-4.4-0.4l-2.2-0.2l-1.1-0.1
				c-0.2,0-0.4,0-0.5,0l0.2,0.5l3.3,8.3c1.1,2.8,2.2,5.6,3.5,8.4c1.3,2.9,2.7,5.8,4.3,8.7c0.7,1.4,1.7,3.2,2,3.6
				c0.4,0.8,0.8,1.5,1.3,2.3c7,12,15.4,23.5,26.7,32.9c2.8,2.4,5.9,4.5,9.1,6.5c1.7,0.9,3.3,1.9,5,2.7l2.6,1.2l2.7,1.1
				c1.8,0.8,3.7,1.2,5.6,1.8c1.9,0.4,3.8,0.9,5.8,1.1l2.9,0.4c1,0.1,2,0.1,2.9,0.1c2,0.1,3.8-0.1,5.7-0.2c1.8-0.1,3.7-0.2,5.5-0.4
				l5.4-1l2.7-0.5l2.7-0.7l5.3-1.5c6.8-2.4,13.5-5.3,19.6-9.1c6.1-3.7,11.9-7.9,17.2-12.5c5.3-4.6,10.2-9.6,14.8-15.3
				c0,0,0.1-0.6,0.1-1.3c-0.1-0.7-0.2-1.6-0.9-2c-1.5-0.7-4.4-0.1-11.4,4.3c-3.6,2.1-8.1,5.2-14.4,8.9c-6.3,3.6-14.3,8.2-24.9,11.5
				c-1.3,0.4-2.7,0.8-4.1,1.2c-1.4,0.4-2.8,0.6-4.3,1c-2.9,0.8-6.1,1-9.3,1.4c-1.6,0.2-3.3,0.1-5,0.2c-0.9,0-1.7,0.1-2.6,0.1
				c-0.8-0.1-1.6-0.1-2.4-0.2c-3.3-0.3-6.6-1-10-2.3c-6.7-2.6-13.6-7.2-20.1-13.7c-6.5-6.5-12.6-14.8-18.2-24.4
				c-0.4-0.6-0.7-1.2-1-1.8l-0.5-0.9c0,0,0,0,0,0h0c0,0,0,0-0.1-0.1C418.2,241.8,418.3,241.8,418.4,241.7z M617.9,299l0.3,0.4
				c-0.3,1.2-0.7,2.3-1,3.6c-0.5,1.4-1.1,2.7-1.6,4.1c-2.5,5.4-7.1,10.3-13.8,13.5c-6.8,3.1-15.4,4.9-25.4,5.5
				c-20,1.3-44.9-0.7-75-3.1c-15.1-1.2-31.5-2.6-49.3-3.8c-8.9-0.6-18.2-1.1-27.9-1.6c-2.4-0.1-4.8-0.2-7.3-0.3
				c-1.3-0.1-2.4-0.1-3.5-0.2c-1.1-0.1-2.3-0.2-3.4-0.2c-4.5-0.5-9.1-1.2-13.3-2.6c-4.3-1.3-8.4-2.9-11.9-5.2
				c-3.5-2.2-6.5-4.8-9.1-7.8c-2.6-3-4.6-6.4-6.3-10c-1.7-3.6-2.9-7.4-3.9-11.3c-1.9-7.8-2.4-15.8-2.4-23.5c0-7.8,0.7-15.3,1.7-22.6
				c2-14.5,5-27.8,8.2-39.8c3.2-12.1,6.6-22.9,9.8-32.7c6.5-19.6,12.2-35,16.7-47.3c4.5-12.3,7.9-21.4,10.1-28.1
				c1.9-5.8,3-9.8,3.6-12.7c2.4,0.8,4.8,1.7,7.1,2.4c13.6,4.6,25.8,8.3,36.5,11.4c21.5,6.2,37.6,10.1,49.4,12.6
				c12.9,2.7,20.7,3.9,25.4,4.1c1.7,12,5.5,28.2,13,49.5c7.5,21.2,18.7,47.4,35.1,79.2c4.1,7.9,8.6,16.2,13.4,24.9
				c2.4,4.3,4.9,8.7,7.5,13.2c1.1,1.8,2.2,3.7,3.3,5.5c1.2,2,2.4,4,3.6,6.1c2.5,4,5,8.1,7.6,12.2c0.7,1,1.3,2.1,2,3.1L617.9,299z
				 M539.6,178.8c0.8-6.6-1.1-13.5-5.1-18.7c-4-5.3-10.2-8.9-16.8-9.8c-6.5-0.9-13.5,0.8-18.8,4.8c-5.3,3.9-9.1,10.1-10,16.6
				c0,0,0.8,1,2.4,1.2c-1.5-0.2-2.6,0.6-2.6,0.6c-0.6,6.6,1.5,13.4,5.8,18.5c4.2,5.1,10.5,8.5,17.1,9.2c6.6,0.8,13.5-1.3,18.6-5.4
				C535.3,191.7,538.8,185.4,539.6,178.8z M466.5,169.9c0.8-6.6-1.1-13.5-5.1-18.7c-4-5.3-10.2-8.9-16.8-9.7
				c-6.5-0.9-13.5,0.8-18.8,4.8c-5.3,3.9-9.1,10.1-10,16.6c0,0,0.9,1,2.4,1.2c-1.5-0.2-2.6,0.6-2.6,0.6c-0.6,6.6,1.5,13.4,5.8,18.5
				c4.2,5.1,10.5,8.5,17.1,9.2c6.6,0.7,13.5-1.3,18.6-5.4C462.2,182.8,465.7,176.5,466.5,169.9z"/>
			<path d="M394.2,230.1l-3.3-8.3l-0.2-0.5c0.2,0,0.3,0,0.5,0l1.1,0.1l2.2,0.2l4.4,0.4l4.3,0.4c0.8,0.1,1.4,0.1,2.2,0.2l2.4,0.4
				l16.4,2.6l39.1,6.3l78.2,12.6c0,0,6.7,5.4-9.8,7c-8.3,0.8-22.3,0.7-46-1.5c-11.8-1.1-26-2.7-43.1-5c-7.5-1-15.6-2.2-24.4-3.4
				c-0.1,0.1-0.1,0.1,0,0.2c0,0,0.1,0,0.1,0.1h0c0,0,0,0,0,0l0.5,0.9c0.3,0.6,0.7,1.2,1,1.8c5.6,9.6,11.7,17.9,18.2,24.4
				c6.5,6.5,13.3,11.1,20.1,13.7c3.4,1.3,6.7,2,10,2.3c0.8,0.1,1.6,0.1,2.4,0.2c0.9,0,1.7-0.1,2.6-0.1c1.7-0.1,3.4,0,5-0.2
				c3.2-0.5,6.4-0.6,9.3-1.4c1.5-0.3,2.9-0.6,4.3-1c1.4-0.4,2.7-0.8,4.1-1.2c10.6-3.3,18.6-7.8,24.9-11.5c6.3-3.7,10.9-6.8,14.4-8.9
				c7-4.4,10-5.1,11.4-4.3c0.7,0.4,0.9,1.3,0.9,2c0.1,0.7-0.1,1.3-0.1,1.3c-4.6,5.6-9.5,10.6-14.8,15.3c-5.3,4.6-11.1,8.8-17.2,12.5
				c-6.1,3.7-12.8,6.6-19.6,9.1l-5.3,1.5l-2.7,0.7l-2.7,0.5l-5.4,1c-1.8,0.2-3.7,0.3-5.5,0.4c-1.8,0.1-3.6,0.3-5.7,0.2
				c-1-0.1-2,0-2.9-0.1l-2.9-0.4c-2-0.2-3.9-0.7-5.8-1.1c-1.8-0.6-3.8-1-5.6-1.8l-2.7-1.1l-2.6-1.2c-1.8-0.8-3.3-1.8-5-2.7
				c-3.2-2-6.3-4.1-9.1-6.5c-11.3-9.4-19.7-20.9-26.7-32.9c-0.4-0.7-0.9-1.5-1.3-2.3c-0.3-0.5-1.3-2.2-2-3.6c-1.6-2.9-3-5.8-4.3-8.7
				C396.4,235.7,395.3,232.9,394.2,230.1z"/>
		</g>
	</g>
</g>
</svg>
