<?xml version="1.0" encoding="utf-8"?>
<!-- Generator: Adobe Illustrator 24.2.3, SVG Export Plug-In . SVG Version: 6.00 Build 0)  -->
<svg version="1.1" id="yellow_man" xmlns="http://www.w3.org/2000/svg" xmlns:xlink="http://www.w3.org/1999/xlink" x="0px" y="0px"
	 viewBox="0 0 1000 1000" style="enable-background:new 0 0 1000 1000;" xml:space="preserve">
<style type="text/css">
	.st0{fill:#20F400;}
	.st1{fill:#FFFFFF;}
	.st2{fill:#FFCE45;}
	.st3{fill:#3351FF;}
	.st4{fill:#FF306A;}
</style>
<g>
	<g>
		<g id="XMLID_53_">
			<g>
				<path d="M468.9,713l0,0.7l0,1c0,1.3-0.1,2.7-0.3,4l-0.3,2l-0.5,2c-0.3,1.3-0.8,2.6-1.3,3.9c-2,5.1-5.3,9.7-9.5,13.4
					c-4.2,3.7-9.4,6.3-15,7.7c-1.4,0.3-2.9,0.5-4.3,0.7l-2.2,0.1l-1.1,0.1h-0.8c-2.1,0-4.2,0-6.3,0c-16.9,0.1-34.4,0.2-52.7,0.3
					c-36.5,0.1-75.9,0.1-118.3,0.2c-42.4-0.1-81.8-0.1-118.3-0.2c-18.3-0.1-35.8-0.2-52.7-0.3c-2.1,0-4.2,0-6.3,0h-0.8l-1.1-0.1
					l-2.2-0.1c-1.4-0.2-2.9-0.4-4.2-0.7c-5.6-1.3-10.8-4-15-7.7c-4.2-3.7-7.5-8.3-9.5-13.4c-0.5-1.3-1-2.6-1.3-3.9l-0.5-2l-0.3-2
					c-0.2-1.3-0.3-2.7-0.3-4l0-1l0-0.7v-1.5c0.6-62,1.4-113.5,2.4-156.2c0.5-21.3,1-40.5,1.6-57.6c0.1-4.3,0.3-8.5,0.4-12.5
					c0-1,0.1-2,0.1-3l0.1-1.5l0.1-1.7c0.1-2.4,0.7-4.6,1.4-6.8c2.9-8.7,9.5-14.9,16.6-17.8c3.6-1.5,7.3-2.1,10.9-2.1
					c3.4,0.1,6.2,0.3,9.2,0.4c5.9,0.3,11.3,0.6,16.3,0.9c10.1,0.6,18.7,1.3,25.9,1.9c15.7,1.4,25.2,2.8,30.6,4.1v6.2H88.3h-8.9
					c-0.3,0-0.9,0-1,0l-0.6,0c-0.4,0-0.9,0-1.3,0.1c-0.9,0.1-1.7,0.3-2.5,0.6c-3.3,1.1-6.2,3.5-8,6.5c-0.9,1.5-1.5,3.1-1.8,4.9
					c-0.2,0.9-0.2,1.7-0.2,2.6v4.5V503v142.7v35.7v17.8v8.9v4.5v1.1c0,0.3,0,0.5,0,0.7c0.1,0.4,0,0.9,0.1,1.3c0.4,3.4,2.2,6.7,4.8,9
					c2.6,2.4,6,3.7,9.5,3.7l35.5,0h142.7h142.7l35.5,0c3.5,0,6.9-1.4,9.5-3.7c2.6-2.3,4.4-5.6,4.8-9c0.1-0.4,0-0.9,0.1-1.3
					c0-0.2,0-0.4,0-0.7v-1.1v-4.5v-8.9v-17.8v-35.7V503v-17.8v-4.5c-0.1-0.9-0.1-1.8-0.2-2.6c-0.3-1.7-0.9-3.4-1.8-4.9
					c-1.8-3-4.7-5.4-8-6.5c-0.8-0.3-1.7-0.5-2.5-0.6c-0.4-0.1-0.9-0.1-1.3-0.1l-0.6,0c-0.1,0-0.7,0-1,0h-8.9h-71.3
					c0,0-2.6-0.5-4.5-1.3l0.3-3.6c3.9-1.6,13.6-3.6,34.9-5.5c7.2-0.6,15.8-1.3,25.9-1.9c5-0.3,10.5-0.6,16.3-0.9
					c3-0.1,5.8-0.4,9.2-0.4c3.6,0,7.3,0.6,10.9,2.1c7.1,2.9,13.7,9.2,16.6,17.8c0.7,2.1,1.2,4.4,1.4,6.8l0.1,1.7l0.1,1.5
					c0,1,0.1,2,0.1,3c0.1,4.1,0.3,8.2,0.4,12.5c0.6,17.1,1.1,36.3,1.6,57.6c1,42.7,1.8,94.1,2.4,156.2V713z"/>
				<path d="M356.4,540c60,0,50.4,10.3,50.4,10.3H306C306,550.4,296.4,540,356.4,540z"/>
				<path d="M356.4,580.6c60,0,50.4,10.3,50.4,10.3H306C306,590.9,296.4,580.6,356.4,580.6z"/>
				<path d="M356.4,621.2c60,0,50.4,10.3,50.4,10.3H306C306,631.5,296.4,621.2,356.4,621.2z"/>
				<path d="M356.4,661.8c60,0,50.4,10.3,50.4,10.3H306C306,672.1,296.4,661.8,356.4,661.8z"/>
				<path class="st0" d="M316,493.1c13.6-1.7,16.9-3.5,16.9-4.7c0,0,0,0.1,0,0.1c0.1,0.6,0.7,1.5,2.9,1.8c1.1,0.1,2.6,0,4.5-0.8
					c1.8-0.8,4.1-2.4,5.7-5.3c0.8-1.4,1.5-3.2,1.7-5.2c0.2-2,0.4-4.1,0.6-6.4c0.2-2.4,0.4-5,0.6-7.8c1.9,0.8,4.5,1.3,4.5,1.3h71.3
					h8.9c0.3,0,0.9,0,1,0l0.6,0c0.4,0,0.9,0,1.3,0.1c0.9,0.1,1.7,0.3,2.5,0.6c3.3,1.1,6.2,3.5,8,6.5c0.9,1.5,1.5,3.1,1.8,4.9
					c0.2,0.9,0.2,1.7,0.2,2.6v4.5V503v142.7v35.7v17.8v8.9v4.5v1.1c0,0.3,0,0.5,0,0.7c-0.1,0.4,0,0.9-0.1,1.3
					c-0.4,3.4-2.2,6.7-4.8,9c-2.6,2.4-6,3.7-9.5,3.7l-35.5,0H256.5H113.8l-35.5,0c-3.5,0-6.9-1.4-9.5-3.7c-2.6-2.3-4.4-5.6-4.8-9
					c-0.1-0.4,0-0.9-0.1-1.3c0-0.2,0-0.4,0-0.7v-1.1v-4.5v-8.9v-17.8v-35.7V503v-17.8v-4.5c0.1-0.9,0.1-1.8,0.2-2.6
					c0.3-1.7,0.9-3.4,1.8-4.9c1.8-3,4.7-5.4,8-6.5c0.8-0.3,1.7-0.5,2.5-0.6c0.4-0.1,0.9-0.1,1.3-0.1l0.6,0c0.1,0,0.7,0,1,0h8.9h71.2
					h0c0,1.1,0,2.1,0,3.2c0,1.9,0,3.8,0.1,5.7c0,0.9,0,1.9,0,2.8l0,1.5c0,0.7,0,1.3,0.1,2c0.6,5.3,3.4,10.1,7.3,13.3
					c1.9,1.6,4.2,2.8,6.5,3.6c1.2,0.4,2.4,0.7,3.6,0.8c0.6,0.1,1.2,0.1,1.8,0.2c0.6,0,1.2,0,1.6,0c3.4-0.1,6.7-0.1,9.9-0.2
					c6.5-0.1,12.6-0.2,18.5-0.4c11.8-0.2,22.5-0.5,32.2-0.9C280.1,496.4,302.9,494.7,316,493.1z M406.9,550.4
					c0,0,9.6-10.3-50.4-10.3c-60,0-50.4,10.3-50.4,10.3H406.9z M406.9,590.9c0,0,9.6-10.3-50.4-10.3c-60,0-50.4,10.3-50.4,10.3
					H406.9z M406.9,631.5c0,0,9.6-10.3-50.4-10.3c-60,0-50.4,10.3-50.4,10.3H406.9z M406.9,672.1c0,0,9.6-10.3-50.4-10.3
					c-60,0-50.4,10.3-50.4,10.3H406.9z M268,574.5c0.4-4.2,0.1-8.7-1-13c-1.1-4.4-3-8.6-5.7-12.4c-5.3-7.6-12.7-13.3-20.8-17.7
					c-8.1-4.5-16.3-7.5-24.2-10c-8-2.4-15.7-4.2-23.2-5.7c-15-2.8-28.9-4.2-41.8-5c-3.2-0.2-6.3-0.3-9.5-0.4c-1.6,0-3.1,0-4.7-0.1
					c-1.5,0-3,0.1-4.5,0.1c-6,0.2-11.6,0.5-17.4,1.7l-1.1,0.2l-1.5,0.5c-1,0.2-2.1,0.8-3.1,1.2c-1.9,1.1-3.5,2.4-4.2,4.2
					c-0.8,1.9-0.4,3.9,0.5,5.6c0.9,1.7,2.5,3.2,4.1,4.5c0.6,0.5,1.3,1,1.9,1.3c0.5,0.4,1.1,0.7,1.6,1c1.1,0.6,2.2,1.2,3.2,1.8
					c2.1,1.1,4.2,2.1,6.3,3c5.4,2.4,10.4,4.2,15.2,5.9c-5.1,9.6-9.7,19.4-13.9,29.4c-4.5,10.7-8.5,21.7-11.5,33
					c-1.5,5.7-2.8,11.5-3.6,17.4c-0.8,5.9-1.2,12-0.6,18.3c0.3,3.1,0.9,6.4,1.9,9.6c-7,9.3-13.1,19.2-17.7,30.2
					c-0.6,1.4-1.2,2.9-1.6,4.4c-0.5,1.5-1,2.9-1.4,4.5c-0.4,1.5-0.9,3-1.1,4.6l-0.5,2.9c-0.2,1.4-0.2,2.8-0.3,4.2l-0.3,4.3
					c0,0.7-0.1,1.5-0.1,2.1l2.1,0.1c2.8,0.1,5.7,0.1,8.6,0.1h8.9h69.9h69.9h8.7h7.2l4.2-0.2l0.5,0c0.1,0,0.1-0.1,0.1-0.2v-0.3l0-1.1
					l0-2.1c0-1.4,0-2.8,0-4.3c-0.1-1.4-0.1-3.2-0.2-3.6c-0.1-1.5-0.2-3.1-0.4-4.6c-0.3-3.1-0.9-6.1-1.5-9.1c-1.3-6-3.1-12-5.8-17.7
					c-2.6-5.6-6-10.8-10.4-15.4c-0.1-2.8-0.4-5.6-1-8.3c0.7-2.3,1.4-4.6,2.2-6.9c1.8-5.5,3.6-11.3,5.5-17.4c1.9-6.1,3.9-12.4,6-19
					c1-3.3,2.1-6.7,3.1-10.1C266.6,582.8,267.7,578.7,268,574.5z"/>
				<path class="st1" d="M333.6,486.9c-0.4,0.4-0.8,0.9-0.8,1.4c0-1.2-2.9-2-2.9-2H200.2H184h-4c-0.7,0-1.4-0.1-2.1-0.3
					c-1.4-0.4-2.6-1.2-3.5-2.4c-0.9-1.1-1.5-2.4-1.7-3.9c-0.1-0.4,0-0.6-0.1-1.2v-2v-4.1v-16.2v-32.4v-8.1v-2c0-0.4,0-0.7,0.1-1.1
					c0.1-0.7,0.3-1.4,0.6-2c1.2-2.6,4-4.4,6.8-4.4h129.8h16.2h4.1c1.3,0,3,0,3.4,0c1.4,0.2,2.7,0.7,3.9,1.6c1.1,0.9,2,2.1,2.5,3.5
					c0.2,0.7,0.4,1.4,0.4,2.1c0,0.2,0,1.1,0,1.7v2v16.2v32.4v8.1v4.1c0,0.3,0,0.7,0,0.9l0,0.5c0,0.4-0.1,0.7-0.2,1
					c-0.6,2.8-3,5.1-5.8,5.7C334.4,486.2,334,486.4,333.6,486.9z M302.8,441.4c0.9-2.7,1.2-6.2,0-9.8c-1.2-3.6-4.1-7.4-8.7-9.5
					c-1.1-0.5-2.4-0.9-3.7-1.2c-1.3-0.3-2.8-0.3-3.8-0.4c-2.2-0.1-4.5-0.2-6.9-0.3c-4.8-0.2-10.1-0.4-15.8-0.5
					c-11.5-0.3-25-0.4-40.7-0.4c-5.5,0-10.6,2.5-13.9,6.3c-3.4,3.7-5,8.7-4.6,13.4c0.3,4.7,2.4,9,5.4,11.9c3,3,6.9,4.8,10.8,5.2
					c0.5,0.1,1,0.1,1.4,0.1c0.5,0,1,0,1.3,0c0.7,0,1.4,0,2.1,0c1.4,0,2.7-0.1,4-0.1c2.6-0.1,5.2-0.2,7.6-0.3
					c4.8-0.2,9.2-0.4,13.1-0.6c15.8-1,25.1-2.3,30.5-3.6c5.4-1.3,6.8-2.6,6.9-3.6c0,0.5,0.3,1,1.2,1.6c0.9,0.5,2.6,1,5.3,0.2
					c1.3-0.4,2.9-1.1,4.4-2.4C300.3,446.1,301.8,444.1,302.8,441.4z"/>
				<path class="st1" d="M295.2,434.2c1.3,2.4,1.2,5.4-0.1,7.8c-1.3,2.4-3.9,4.1-6.6,4.3c0,0-0.7,0.6-0.7,1.6c0-0.9-1.2-1.5-1.2-1.5
					h-52.9H227h-3.3c-0.6,0-0.9,0-1.2,0c-0.3,0-0.7-0.1-1-0.1c-2.6-0.5-5-2.5-6-5.1c-0.5-1.2-0.7-2.6-0.6-4c0.2-1.4,0.6-2.6,1.4-3.8
					c0.8-1.1,1.8-2.1,3-2.7c1.2-0.6,2.5-1,3.9-1h52.9h6.6h3.3h1.7c0.4,0,0.7,0,1,0.1C291.4,430,293.9,431.7,295.2,434.2z"/>
				<path class="st1" d="M250.4,656.9c1.4,3.3,3.5,7.7,5.1,13.9c1.6,6.2,3.2,14.2,3.5,24.3l0,0.9c0,0.2,0,0.2,0,0.3l-0.1,0.6
					l-0.1,0.5c0,0.1-0.1,0.1-0.2,0.1l-0.3,0l-0.6-0.1l-0.2,0c0,0,0,0-0.1,0h-0.3l-0.6,0c-1.5,0-3.1-0.1-4.7-0.1
					c-6.4-0.2-13.3-0.3-20.9-0.5c-15.2-0.3-33-0.4-53.8-0.4c-0.8,0-1.6,0-2.4,0c1.2-2.6,2-6.4,2-12c0-4.9-0.6-8.3-1.5-10.9
					c8.5,0.6,17.1,1.2,25.7,1.6c5.8,0.2,11.6,0.4,17.6,0.1c6-0.4,12.2-1,18.6-3.9c3.2-1.5,6.3-3.9,8.5-7.1c2-2.9,3-6.2,3.5-9.3
					C249.6,655.3,249.9,656.1,250.4,656.9z"/>
				<path d="M288.5,446.3c2.7-0.2,5.2-1.9,6.6-4.3c1.3-2.4,1.4-5.4,0.1-7.8c-1.2-2.5-3.7-4.2-6.4-4.5c-0.4-0.1-0.7,0-1-0.1H286h-3.3
					h-6.6h-52.9c-1.4,0-2.7,0.4-3.9,1c-1.2,0.6-2.2,1.6-3,2.7c-0.7,1.1-1.2,2.4-1.4,3.8c-0.1,1.4,0.1,2.7,0.6,4c1,2.5,3.4,4.5,6,5.1
					c0.3,0,0.7,0.1,1,0.1c0.4,0,0.6,0,1.2,0h3.3h6.6h52.9c0,0,1.2,0.6,1.2,1.5C287.8,446.9,288.5,446.3,288.5,446.3z M225.6,456.1
					c-0.7,0-1.4,0-2.1,0c-0.3,0-0.8,0-1.3,0c-0.5,0-1,0-1.4-0.1c-3.9-0.4-7.8-2.2-10.8-5.2c-3-3-5.1-7.3-5.4-11.9
					c-0.3-4.6,1.3-9.6,4.6-13.4c3.3-3.8,8.4-6.3,13.9-6.3c15.7,0,29.2,0.2,40.7,0.4c5.7,0.1,11,0.3,15.8,0.5
					c2.4,0.1,4.7,0.2,6.9,0.3c1,0.1,2.5,0.1,3.8,0.4c1.3,0.2,2.5,0.7,3.7,1.2c4.6,2.1,7.4,5.9,8.7,9.5c1.2,3.7,1,7.1,0,9.8
					c-1,2.7-2.5,4.7-4,6c-1.6,1.3-3.1,2-4.4,2.4c-2.7,0.7-4.4,0.2-5.3-0.2c-0.9-0.5-1.2-1.1-1.2-1.6c-0.1,1-1.5,2.3-6.9,3.6
					c-5.4,1.3-14.7,2.6-30.5,3.6c-4,0.2-8.3,0.5-13.1,0.6c-2.4,0.1-4.9,0.2-7.6,0.3C228.4,456,227,456.1,225.6,456.1z"/>
				<path class="st1" d="M205.4,594.2c0.4-3.5-0.6-7.2-2.7-9.9c-2.1-2.8-5.4-4.7-8.9-5.2c-3.5-0.5-7.2,0.4-10,2.5
					c-2.8,2.1-4.8,5.3-5.3,8.8c0,0,0.6,0.6,1.5,0.6c-1-0.1-1.6,0.3-1.6,0.3c-0.3,3.5,0.8,7.1,3,9.8c2.2,2.7,5.6,4.5,9.1,4.9
					c3.5,0.4,7.1-0.7,9.9-2.9C203.1,601,205,597.7,205.4,594.2z M206.5,581.6c3.6,10.5,9,23.5,17,39.1c2,3.9,4.2,8,6.5,12.3
					c0.6,1.1,1.2,2.1,1.8,3.2c0.9,1.5,1.7,3,2.6,4.6c2.3,3.9,4.7,7.8,7.3,11.9l0.8,1.3c-0.3,1-0.6,2-1.1,2.9
					c-1.3,2.6-3.5,4.8-6.7,6.3c-3.3,1.4-7.4,2.2-12.3,2.5c-9.8,0.5-22-0.5-36.8-1.8c-7.4-0.6-15.5-1.3-24.3-1.9
					c-4.4-0.3-9-0.6-13.7-0.8c-1.2-0.1-2.4-0.1-3.6-0.2c-1.2-0.1-2.2-0.1-3.4-0.2c-2.2-0.3-4.4-0.6-6.4-1.2
					c-4.1-1.2-7.4-3.3-9.8-6.1c-2.4-2.8-3.9-6.3-4.8-10.1c-0.9-3.7-1.2-7.6-1.2-11.3c0-3.8,0.3-7.5,0.8-11
					c1.9-14.2,5.6-25.9,8.6-35.6c3.1-9.6,5.8-17.3,7.9-23.3c2.1-6.1,3.6-10.6,4.6-14c0.7-2.5,1.2-4.4,1.4-5.8
					c1.2,0.4,2.5,0.9,3.7,1.2c6.7,2.2,12.7,4,18.1,5.5c10.6,2.9,18.5,4.7,24.4,5.9c6.3,1.2,10.1,1.6,12.4,1.6c0,0.1,0,0.2,0,0.4
					C201.3,563.1,202.8,571.1,206.5,581.6z M209,634.6c0,0,0-0.3,0-0.7c-0.1-0.4-0.2-0.9-0.6-1.1c-0.5-0.2-1.2-0.3-2.4,0l-5.5-2.9
					c8.2-1.3,5-4.4,5-4.4l-38.4-6.2l-19.7-3.2c-3.2-0.5-6.5-1.1-9.5-1.5l-4.2-0.3l-2.1-0.2l-1-0.1l-0.5,0c-0.1,0-0.2,0-0.3,0
					l0.1,0.2l3.2,8.1c1.1,2.7,2.6,5.6,4.2,8.4l0.9,1.6l0.7,1.1c0.5,0.7,0.9,1.5,1.4,2.2c1,1.5,2,2.9,3.1,4.3
					c2.2,2.7,4.6,5.4,7.5,7.8c2.8,2.4,6.1,4.4,9.8,5.8c1.8,0.7,3.8,1.2,5.8,1.5c2,0.3,4.1,0.3,5.9,0.2l2.8-0.2l2.7-0.5
					c1.9-0.2,3.6-0.9,5.4-1.4c3.5-1.2,6.8-2.7,9.8-4.6C199.2,644.7,204.5,640.2,209,634.6z M169.4,589.8c0.4-3.5-0.6-7.1-2.7-9.9
					c-2.1-2.8-5.4-4.7-8.9-5.2c-3.5-0.5-7.2,0.4-10,2.6c-2.8,2.1-4.8,5.3-5.3,8.8c0,0,0.6,0.6,1.5,0.7c-1-0.2-1.6,0.3-1.6,0.3
					c-0.3,3.5,0.8,7.1,3.1,9.8c2.2,2.7,5.6,4.5,9.1,4.9c3.5,0.4,7.2-0.7,9.9-2.9C167.2,596.7,169,593.3,169.4,589.8z"/>
				<path d="M146.3,535.7c17.6,6.6,35.7,12.4,53.9,17.8c-0.1-1.4-0.1-2.6-0.1-3.6c0-2,0.3-3.5,0.5-4.6c0.5-2.2,1-3,1.4-3.1
					c1-0.1,1.8,2.3,1.8,2.3c0.5,8.8,3.2,18,6.3,26.9c3.3,8.9,7.1,17.7,11.3,26.4c4.2,8.6,8.8,17.2,13.5,25.6
					c1.2,2.1,2.4,4.2,3.6,6.3l1.8,3.1c0.2,0.4,0.3,0.5,0.3,0.5l15.5-50.8c1.3-4.3,2-8.5,1.9-12.7c-0.2-4.1-1.2-8.1-3.2-11.8
					c-3.9-7.3-11.1-13.1-19.1-17.5c-8-4.5-16.9-7.7-26-10.3c-9.1-2.6-18.5-4.5-28-6.1c-9.5-1.5-19-2.6-28.6-3.3
					c-4.8-0.4-9.6-0.6-14.3-0.7c-4.6-0.1-9.5,0-14.1,0.4c-2.3,0.2-4.6,0.4-6.7,0.8l-1.5,0.3l-0.3,0.1l0.3,0.2l0.4,0.3l0.7,0.4
					c0.9,0.6,1.9,1.2,2.8,1.7C128.3,528.7,137.3,532.3,146.3,535.7z M112.5,653.9c-0.4,1-0.9,2.1-1.5,3.5c-1.5,3.3-3.6,7.6-6.2,13.6
					c-1.3,3-2.7,6.4-4,10.2c-1.4,3.9-2.6,8.2-3.3,13c-0.1,0.6-0.1,1.2-0.2,1.8c0,0.2,0,0.4,0,0.6c0.1,0.3,0,0.8,0.2,0.9
					c0.4-0.1,0.7-0.1,1.1-0.2l0.1,0l0.1,0H99l1.2,0c0.8,0,1.6,0,2.4-0.1c6.3-0.2,13.3-0.3,20.9-0.5c12.5-0.2,26.8-0.4,43-0.4v-23.5
					c-5.6-0.4-11.2-0.7-16.8-0.9l-4.2-0.2l-2.1-0.1l-2.3-0.1c-3.1-0.2-6.3-0.7-9.5-1.7c-3.2-1-6.3-2.4-9.2-4.3
					c-2.9-2-5.4-4.5-7.3-7.3C114,656.7,113.2,655.3,112.5,653.9z M140.4,548.4c-1,3.4-2.5,7.9-4.6,14c-2.1,6.1-4.9,13.7-7.9,23.3
					c-3,9.6-6.6,21.4-8.6,35.6c-0.4,3.5-0.7,7.2-0.8,11c0,3.7,0.3,7.6,1.2,11.3c0.9,3.7,2.4,7.2,4.8,10.1c2.4,2.8,5.7,4.9,9.8,6.1
					c2,0.6,4.2,1,6.4,1.2c1.1,0.1,2.1,0.1,3.4,0.2c1.2,0.1,2.4,0.1,3.6,0.2c4.7,0.2,9.3,0.5,13.7,0.8c8.8,0.6,16.9,1.3,24.3,1.9
					c14.8,1.2,27,2.3,36.8,1.8c4.9-0.2,9-1.1,12.3-2.5c3.2-1.5,5.4-3.7,6.7-6.3c0.5-1,0.8-1.9,1.1-2.9l-0.8-1.3
					c-2.5-4.1-5-8-7.3-11.9c-0.9-1.5-1.8-3.1-2.6-4.6c-0.6-1.1-1.2-2.2-1.8-3.2c-2.4-4.3-4.5-8.3-6.5-12.3
					c-8-15.7-13.4-28.6-17-39.1c-3.6-10.5-5.2-18.6-6-24.5c0-0.1,0-0.2,0-0.4c-2.3,0-6.2-0.4-12.4-1.6c-5.9-1.1-13.8-2.9-24.4-5.9
					c-5.3-1.5-11.3-3.2-18.1-5.5c-1.2-0.4-2.4-0.8-3.7-1.2C141.6,544,141.2,545.9,140.4,548.4z M255.5,670.8
					c-1.7-6.2-3.7-10.6-5.1-13.9c-0.4-0.8-0.8-1.6-1.1-2.3c-0.5,3.1-1.5,6.4-3.5,9.3c-2.2,3.2-5.4,5.6-8.5,7.1
					c-6.4,3-12.7,3.5-18.6,3.9c-6,0.3-11.8,0.2-17.6-0.1c-8.6-0.4-17.2-1-25.7-1.6c0.9,2.5,1.5,6,1.5,10.9c0,5.6-0.8,9.4-2,12
					c0.8,0,1.6,0,2.4,0c20.8,0,38.6,0.2,53.8,0.4c7.6,0.2,14.6,0.4,20.9,0.5c1.6,0,3.1,0.1,4.7,0.1l0.6,0h0.3c0.1,0,0.1,0,0.1,0
					l0.2,0l0.6,0.1l0.3,0c0.1,0,0.2,0,0.2-0.1l0.1-0.5l0.1-0.6c0-0.1,0-0.2,0-0.3l0-0.9C258.7,685,257.1,677,255.5,670.8z
					 M249.6,648c4.4,4.6,7.8,9.8,10.4,15.4c2.6,5.7,4.5,11.7,5.8,17.7c0.6,3,1.1,6,1.5,9.1c0.2,1.5,0.3,3,0.4,4.6
					c0.1,0.5,0.1,2.3,0.2,3.6c0.1,1.5,0,2.9,0,4.3l0,2.1l0,1.1v0.3c0,0.1,0,0.2-0.1,0.2l-0.5,0l-4.2,0.2h-7.2h-8.7h-69.9h-69.9h-8.9
					c-2.9,0-5.9,0-8.6-0.1l-2.1-0.1c0-0.6,0.1-1.4,0.1-2.1l0.3-4.3c0.1-1.4,0.1-2.9,0.3-4.2l0.5-2.9c0.2-1.6,0.7-3.1,1.1-4.6
					c0.4-1.6,0.9-3,1.4-4.5c0.5-1.5,1.1-2.9,1.6-4.4c4.6-11,10.7-20.9,17.7-30.2c-1-3.2-1.6-6.4-1.9-9.6c-0.6-6.3-0.2-12.3,0.6-18.3
					c0.8-5.9,2.1-11.7,3.6-17.4c3-11.3,7-22.3,11.5-33c4.2-10,8.8-19.8,13.9-29.4c-4.7-1.7-9.8-3.6-15.2-5.9c-2-0.9-4.1-1.9-6.3-3
					c-1.1-0.6-2.1-1.1-3.2-1.8c-0.5-0.3-1.1-0.7-1.6-1c-0.5-0.3-1.2-0.9-1.9-1.3c-1.6-1.3-3.2-2.8-4.1-4.5c-0.9-1.7-1.2-3.7-0.5-5.6
					c0.7-1.8,2.2-3.2,4.2-4.2c1-0.4,2.1-1,3.1-1.2l1.5-0.5l1.1-0.2c5.7-1.2,11.4-1.5,17.4-1.7c1.5,0,3-0.1,4.5-0.1
					c1.5,0,3.1,0.1,4.7,0.1c3.1,0.1,6.2,0.2,9.5,0.4c12.9,0.7,26.8,2.2,41.8,5c7.5,1.4,15.2,3.2,23.2,5.7c7.9,2.5,16.1,5.5,24.2,10
					c8,4.4,15.5,10.1,20.8,17.7c2.6,3.7,4.6,8,5.7,12.4c1.1,4.4,1.4,8.8,1,13c-0.3,4.2-1.4,8.3-2.5,11.8c-1.1,3.4-2.1,6.8-3.1,10.1
					c-2.1,6.6-4.1,12.9-6,19c-1.9,6.1-3.8,11.9-5.5,17.4c-0.7,2.3-1.5,4.6-2.2,6.9C249.2,642.4,249.5,645.1,249.6,648z"/>
				<path class="st1" d="M183.5,593.3c-1.4-1.2-2.5-2-3.5-2.1c1,0.1,2.3-0.3,3.9-1.2c1.6-0.8,3.8-2,6.3-1.9c1.2,0,2.5,0.5,3.4,1.3
					c0.9,0.8,1.6,2.1,1.5,3.6c-0.2,1.5-1.2,2.6-2.3,3.2c-1.1,0.6-2.5,0.7-3.7,0.5C186.7,596.1,184.9,594.4,183.5,593.3z"/>
				<path d="M183.9,589.9c-1.6,0.9-2.9,1.4-3.9,1.2c-1-0.1-1.5-0.6-1.5-0.6c0.5-3.5,2.5-6.7,5.3-8.8c2.8-2.1,6.5-3,10-2.5
					c3.5,0.5,6.8,2.4,8.9,5.2c2.1,2.8,3.1,6.5,2.7,9.9c-0.4,3.5-2.3,6.8-5,9c-2.7,2.2-6.4,3.3-9.9,2.9c-3.5-0.4-6.8-2.1-9.1-4.9
					c-2.2-2.7-3.4-6.3-3-9.8c0,0,0.7-0.4,1.6-0.3c1,0.1,2.1,0.9,3.5,2.1c1.4,1.2,3.2,2.9,5.7,3.4c1.2,0.2,2.5,0.1,3.7-0.5
					c1.1-0.6,2.1-1.7,2.3-3.2c0.2-1.5-0.5-2.8-1.5-3.6c-1-0.8-2.2-1.3-3.4-1.3C187.7,587.9,185.5,589.1,183.9,589.9z"/>
				<path d="M159.5,466L159.5,466l0-6.2c0-4.7-0.1-9.6-0.1-14.5c0-8.3-0.1-16.9-0.1-25.9c0-1.1,0-2.2,0-3.4c0-1.2-0.1-2,0.1-4
					c0.2-3.4,1.4-6.7,3.2-9.6c1.8-2.9,4.4-5.3,7.5-7c3-1.7,6.6-2.6,10.1-2.6c38.6,0,71.6,0.2,99.8,0.6c14.1,0.2,27,0.5,38.8,0.7
					c3,0.1,5.8,0.1,8.6,0.2c1.4,0,2.8,0.1,4.2,0.1c1.1,0,3.4,0.1,5,0.5c7.2,1.6,12.5,7.2,14.2,13.4c0.4,1.6,0.7,3.1,0.7,4.7
					c0,0.9,0,1.4,0,2c0,0.6,0,1.1-0.1,1.7c-0.1,2.3-0.2,4.5-0.2,6.7c-0.2,4.4-0.4,8.5-0.5,12.4c-0.4,7.8-0.7,14.7-1.1,20.8
					c-0.1,1.6-0.2,3.1-0.3,4.6l-0.3,3.6c-0.2,2.8-0.4,5.4-0.6,7.8c-0.2,2.3-0.4,4.4-0.6,6.4c-0.2,2-0.9,3.8-1.7,5.2
					c-1.7,2.9-3.9,4.5-5.7,5.3c-1.9,0.8-3.4,0.9-4.5,0.8c-2.2-0.3-2.8-1.2-2.9-1.8c0,0,0-0.1,0-0.1c0-0.6,0.4-1.1,0.8-1.4
					c0.4-0.4,0.7-0.7,0.7-0.7c2.8-0.5,5.2-2.9,5.8-5.7c0.1-0.3,0.1-0.7,0.2-1l0-0.5c0-0.2,0-0.6,0-0.9v-4.1v-8.1v-32.4v-16.2v-2
					c0-0.6,0-1.5,0-1.7c0-0.7-0.2-1.4-0.4-2.1c-0.4-1.4-1.3-2.6-2.5-3.5c-1.1-0.9-2.5-1.4-3.9-1.6c-0.4,0-2.1,0-3.4,0h-4.1h-16.2
					H180.1c-2.8,0-5.6,1.8-6.8,4.4c-0.3,0.6-0.5,1.3-0.6,2c-0.1,0.3,0,0.7-0.1,1.1v2v8.1v32.4v16.2v4.1v2c0,0.6,0,0.8,0.1,1.2
					c0.2,1.4,0.8,2.7,1.7,3.9c0.9,1.1,2.2,1.9,3.5,2.4c0.7,0.2,1.4,0.3,2.1,0.3h4h16.2H330c0,0,2.9,0.8,2.9,2c0,1.3-3.3,3-16.9,4.7
					c-13.1,1.7-35.9,3.4-74.7,4.6c-9.7,0.3-20.4,0.6-32.2,0.9c-5.9,0.1-12.1,0.2-18.5,0.4c-3.2,0.1-6.5,0.1-9.9,0.2
					c-0.4,0-1,0-1.6,0c-0.6,0-1.2-0.1-1.8-0.2c-1.2-0.1-2.4-0.5-3.6-0.8c-2.3-0.8-4.6-2-6.5-3.6c-3.9-3.2-6.7-8-7.3-13.3
					c-0.1-0.7-0.1-1.3-0.1-2l0-1.5c0-0.9,0-1.9,0-2.8c0-1.9,0-3.8-0.1-5.7C159.5,468.1,159.5,467.1,159.5,466z"/>
				<path class="st1" d="M157.7,585c0.9,0.8,1.6,2.1,1.5,3.6c-0.2,1.5-1.2,2.6-2.3,3.2c-1.1,0.6-2.5,0.7-3.7,0.5
					c-2.5-0.5-4.3-2.2-5.7-3.4c-1.4-1.2-2.5-2-3.5-2.1c1,0.1,2.3-0.4,3.9-1.2c1.6-0.8,3.8-2,6.3-1.9
					C155.5,583.7,156.8,584.1,157.7,585z"/>
				<path d="M147.6,588.9c1.4,1.2,3.2,2.9,5.7,3.4c1.2,0.2,2.5,0.1,3.7-0.5c1.1-0.6,2.1-1.7,2.3-3.2c0.2-1.5-0.5-2.8-1.5-3.6
					c-1-0.8-2.2-1.3-3.5-1.3c-2.5-0.1-4.7,1.1-6.3,1.9c-1.6,0.9-2.9,1.4-3.9,1.2c-1-0.1-1.5-0.7-1.5-0.7c0.5-3.5,2.5-6.7,5.3-8.8
					c2.8-2.1,6.5-3.1,10-2.6c3.5,0.5,6.8,2.4,8.9,5.2c2.2,2.8,3.2,6.4,2.7,9.9c-0.4,3.5-2.3,6.8-5,9c-2.7,2.2-6.4,3.3-9.9,2.9
					c-3.5-0.3-6.8-2.1-9.1-4.9c-2.2-2.7-3.4-6.3-3.1-9.8c0,0,0.7-0.4,1.6-0.3C145.1,586.9,146.2,587.6,147.6,588.9z"/>
				<path d="M209,634.6c-4.6,5.6-9.9,10.2-16,13.9c-3.1,1.9-6.4,3.3-9.8,4.6c-1.8,0.5-3.5,1.1-5.4,1.4l-2.7,0.5l-2.8,0.2
					c-1.8,0.2-3.9,0.1-5.9-0.2c-2-0.3-4-0.8-5.8-1.5c-3.7-1.4-7-3.5-9.8-5.8c-2.9-2.4-5.3-5-7.5-7.8c-1.1-1.4-2.1-2.8-3.1-4.3
					c-0.5-0.7-1-1.5-1.4-2.2l-0.7-1.1l-0.9-1.6c-1.6-2.8-3-5.7-4.2-8.4l-3.2-8.1l-0.1-0.2c0.1,0,0.2,0,0.3,0l0.5,0l1,0.1l2.1,0.2
					l4.2,0.3c3,0.4,6.3,1,9.5,1.5l19.7,3.2l38.4,6.2c0,0,3.2,3.1-5,4.4c-4.1,0.7-11,0.9-22.7,0c-5.8-0.5-12.8-1.2-21.2-2.2
					c-2.1-0.3-4.3-0.6-6.6-0.9c-1.1-0.1-2.2-0.3-3.3-0.5c-0.1,0-0.1,0-0.1,0c-0.1,0.1,0.1,0.2,0.1,0.1l0.2,0.4l0.5,0.9
					c0.4,0.6,0.7,1.1,1.1,1.6c0.7,1.1,1.4,2.1,2.2,3.1c1.5,2,3,3.8,4.5,5.3c3.1,3.1,6.3,5.4,9.5,6.6c1.6,0.6,3.1,1,4.7,1.1
					c0.4,0,0.8,0.1,1.1,0.1c0.4,0,0.8,0,1.2,0c0.8,0,1.6,0,2.4-0.1c3.1-0.3,6-0.8,8.5-1.6c5.1-1.5,9.1-3.6,12.3-5.3
					c3.2-1.8,5.5-3.1,7.3-4.1c1.6-0.9,2.9-1.4,3.8-1.7c1.2-0.3,1.9-0.3,2.4,0c0.4,0.2,0.5,0.7,0.6,1.1
					C209.1,634.3,209,634.6,209,634.6z"/>
				<path class="st1" d="M117.8,521.2c2.1-0.4,4.4-0.6,6.7-0.8c4.6-0.3,9.5-0.4,14.1-0.4c4.7,0.1,9.6,0.4,14.3,0.7
					c9.6,0.7,19.2,1.8,28.6,3.3c9.5,1.5,18.8,3.4,28,6.1c9.1,2.6,18,5.9,26,10.3c8,4.4,15.2,10.2,19.1,17.5c2,3.6,3,7.6,3.2,11.8
					c0.1,4.2-0.5,8.4-1.9,12.7l-15.5,50.8c0,0-0.1-0.1-0.3-0.5l-1.8-3.1c-1.2-2.1-2.4-4.2-3.6-6.3c-4.7-8.4-9.3-16.9-13.5-25.6
					c-4.2-8.7-8-17.5-11.3-26.4c-3.1-8.9-5.8-18.1-6.3-26.9c0,0-0.8-2.5-1.8-2.3c-0.5,0.1-1,0.9-1.4,3.1c-0.2,1.1-0.5,2.6-0.5,4.6
					c0,1.1,0.1,2.3,0.1,3.6c-18.1-5.4-36.2-11.2-53.9-17.8c-9-3.4-18-7-26-11.5c-1-0.6-2-1.1-2.8-1.7l-0.7-0.4l-0.4-0.3l-0.3-0.2
					l0.3-0.1L117.8,521.2z"/>
				<path class="st1" d="M97.4,694.1c0.7-4.8,2-9.2,3.3-13c1.3-3.9,2.7-7.2,4-10.2c2.6-6,4.7-10.3,6.2-13.6c0.6-1.3,1.1-2.5,1.5-3.5
					c0.7,1.4,1.5,2.8,2.4,4.2c2,2.9,4.5,5.4,7.3,7.3c2.9,2,6,3.4,9.2,4.3c3.2,1,6.3,1.4,9.5,1.7l2.3,0.1l2.1,0.1l4.2,0.2
					c5.6,0.3,11.2,0.6,16.8,0.9v23.5c-16.2,0-30.5,0.2-43,0.4c-7.6,0.2-14.6,0.4-20.9,0.5c-0.8,0-1.6,0-2.4,0.1l-1.2,0h-0.3l-0.1,0
					l-0.1,0c-0.4,0.1-0.7,0.1-1.1,0.2c-0.2-0.1-0.1-0.6-0.2-0.9c0-0.2,0-0.4,0-0.6C97.3,695.3,97.3,694.7,97.4,694.1z"/>
			</g>
		</g>
	</g>
	<g>
		<g id="XMLID_52_">
			<g>
				<path class="st2" d="M898.4,144.8c0.4,10.6-1.3,21.4-4.7,32.1l-39.8,131l-8.1-13.7c-3-5.2-6-10.3-9-15.6
					c-11.8-20.8-23-42-33.4-63.4c-10.4-21.4-20-43.3-28.1-65.4c-4-11.1-7.5-22.3-10.4-33.6c-2.8-11.2-5-22.6-5.6-33.6
					c0,0-0.4-1.5-1-3.1c-0.6-1.5-1.5-3-2.5-2.8c-1,0.2-2,2.1-3,7.7c-0.6,4.6-1.1,11.9,0,22.7c-22.1-6.5-44.2-13.3-66.1-20.5
					C664.1,79.3,641.4,71.5,619,63c-11.2-4.2-22.3-8.6-33.1-13.3c-10.9-4.7-21.6-9.6-31.5-15.2c-4.9-2.8-9.7-5.8-13.3-8.9l-1-0.9
					l1.4-0.5c2.2-0.7,4.8-1.3,7.5-1.8c5.4-1,11.1-1.6,16.8-2c5.8-0.4,11.6-0.7,17.5-0.8c5.9-0.1,12-0.2,17.6-0.1
					c11.8,0.3,23.7,1,35.6,1.9c23.8,1.8,47.5,4.5,71,8.2c23.5,3.8,46.8,8.6,69.4,15c22.6,6.5,44.8,14.6,64.9,25.7
					c10.1,5.5,19.5,11.9,27.8,19.3c4.1,3.7,8,7.6,11.4,11.8c1.8,2,3.3,4.3,4.9,6.4c1.4,2.3,2.9,4.5,4.1,6.8
					C895.2,123.9,897.9,134.2,898.4,144.8z"/>
				<path class="st3" d="M846.2,705.7l0.1,5.3l-0.3,0.1l-0.2,0.1l-1,0.3c-6.2,2.1-12.8,3.8-19.6,5.3c-3.4,0.7-6.8,1.4-10.2,2
					c-3.4,0.7-6.9,1.2-10.3,1.7c-13.8,2.1-27.9,3.6-42,4.6c-28.2,2.1-56.6,2.7-85.1,2.4c-28.5-0.2-56.9-1.4-85.1-3.8
					c-14.1-1.3-28.1-2.9-42-5.1l-10.4-1.7c-3.4-0.7-6.9-1.3-10.2-2c-3.4-0.7-6.8-1.5-10.1-2.3l-2.2-0.6l0.1-3l0.6-10.8
					c0.5-7.2,1-14.4,1.6-21.5c1.3-14.4,2.9-28.7,5-43c4-28.5,9.5-56.9,16.9-84.6c7.4-27.7,16.7-54.9,28.9-80.5
					c6-12.9,13-25.1,20.8-36.8l2.9-4.4c1-1.5,2-2.9,3-4.3l6.3-8.3c4.5-5.3,8.9-10.7,13.9-15.4c0,0,1.8-3,2-4.9l8.6,0.4
					c14,0.6,28.1,1.5,42.1,2.3c3,0.2,5.9,0.4,8.9,0.6c-5.5,6.9-13.7,19.8-26,42.7c-6.3,11.8-13.8,26.2-22.5,43.9
					c-4.4,8.8-9.1,18.5-14.1,29c-2.5,5.3-5.1,10.7-7.8,16.4c-1.4,2.9-2.7,5.8-4.1,8.7c-2.2,4.7-4.4,9.6-6.6,14.4
					c10.7,13.3,22.4,27.6,35,43.2c5.7,6.9,11.6,14.1,17.7,21.6c8,9.7,16.3,19.7,24.9,30.1c1.4,1.7,2.7,3.3,4.1,5
					c9.3-10.8,18.4-21.2,27.1-31.3c6.1-7.1,12-14,17.7-20.6c12.5-14.8,24.1-28.5,34.8-41.1c-1.7-4.9-3.4-9.8-5.1-14.6
					c-1.1-3.1-2.2-6.1-3.3-9.1c-2.1-5.9-4.2-11.6-6.2-17.1c-4-10.9-7.8-20.9-11.3-30.1c-7-18.4-13.1-33.5-18.3-45.8
					c-9.9-23.5-16.8-37-21.6-44.5c20.4,1.4,40.8,2.8,61.5,3.7c9.4,0.4,18.9,0.6,28.4,0.6c5.6,10.5,10.7,21.4,15.3,32.6
					c1.4,3.2,2.5,6.5,3.8,9.8c1.2,3.3,2.6,6.5,3.7,9.8l3.4,10c1.1,3.3,2.3,6.6,3.3,10c2,6.8,4.1,13.5,6,20.3l5.3,20.5
					c3,13.8,6.3,27.6,8.6,41.5l1.9,10.5l0.9,5.2l0.7,5.3l2.9,21l0.7,5.3l0.5,5.3l1,10.6c0.7,7.1,1.5,14.1,2,21.2l1.2,21.2
					c0.4,7.1,1,14.2,1,21.3L846.2,705.7z"/>
				<path d="M619.7,394.5c-0.2,1.9-2,4.9-2,4.9c-5,4.8-9.4,10.2-13.9,15.4l-6.3,8.3c-1.1,1.4-2.1,2.8-3,4.3l-2.9,4.4
					c-7.7,11.7-14.7,24-20.8,36.8c-12.2,25.6-21.5,52.8-28.9,80.5c-7.4,27.7-12.8,56.1-16.9,84.6c-2,14.3-3.7,28.6-5,43
					c-0.6,7.2-1.2,14.4-1.6,21.5l-0.6,10.8l-0.1,3l2.2,0.6c3.3,0.8,6.7,1.6,10.1,2.3c3.4,0.8,6.8,1.4,10.2,2l10.4,1.7
					c13.9,2.2,27.9,3.7,42,5.1c28.2,2.5,56.6,3.6,85.1,3.8c28.5,0.2,56.9-0.3,85.1-2.4c14.1-1,28.1-2.5,42-4.6
					c3.5-0.5,6.9-1,10.3-1.7c3.4-0.6,6.8-1.3,10.2-2c6.7-1.4,13.4-3.2,19.6-5.3l1-0.3l0.2-0.1l0.3-0.1l-0.1-5.3l-0.4-21.3
					c0-7.1-0.6-14.2-1-21.3l-1.2-21.2c-0.5-7.1-1.3-14.1-2-21.2l-1-10.6l-0.5-5.3l-0.7-5.3l-2.9-21l-0.7-5.3l-0.9-5.2l-1.9-10.5
					c-2.2-14-5.5-27.7-8.6-41.5l-5.3-20.5c-1.8-6.8-4-13.5-6-20.3c-1-3.4-2.2-6.7-3.3-10l-3.4-10c-1.1-3.3-2.5-6.6-3.7-9.8
					c-1.3-3.3-2.5-6.6-3.8-9.8c-4.6-11.2-9.7-22.2-15.3-32.6c-9.6,0.1-19-0.2-28.4-0.6c-20.7-0.9-41.1-2.3-61.5-3.7
					c4.8,7.5,11.6,21,21.6,44.5c5.2,12.3,11.2,27.4,18.3,45.8c3.5,9.2,7.2,19.2,11.3,30.1c2,5.5,4.1,11.2,6.2,17.1
					c1.1,3,2.2,6,3.3,9.1c1.6,4.8,3.4,9.6,5.1,14.6c-10.7,12.6-22.3,26.3-34.8,41.1c-5.7,6.6-11.6,13.5-17.7,20.6
					c-8.7,10.1-17.7,20.5-27.1,31.3c-1.4-1.6-2.7-3.3-4.1-5c-8.6-10.4-16.9-20.4-24.9-30.1c-6.1-7.5-12-14.7-17.7-21.6
					c-12.6-15.6-24.2-29.9-35-43.2c2.2-4.9,4.5-9.7,6.6-14.4c1.4-3,2.7-5.9,4.1-8.7c2.7-5.7,5.3-11.2,7.8-16.4
					c5-10.5,9.7-20.1,14.1-29c8.7-17.7,16.2-32.1,22.5-43.9c12.4-22.9,20.6-35.8,26-42.7c-3-0.2-5.9-0.4-8.9-0.6
					c-14.1-0.9-28.1-1.7-42.1-2.3L619.7,394.5z M694.1,979l-0.4,0.6c-0.3,0.4-0.6,0.9-1,1.6c0.4,0.1,0.9,0.3,1.5,0.5
					c0.3,0.1,0.7,0.2,1,0.3c0,0,0.5,0,0.8,0.1l1.1,0.1c0.7,0,1.4,0.1,2.1,0.1c5.6,0.4,10.8,0.8,15.6,1.2c9.5,0.9,17.3,1.8,23.7,2.8
					c12.8,2,19.9,4.2,23.7,6.2c7.7,4.1,2.1,7.5,2.1,7.5h-97.8l0.7-2L752,746.5c-24.6,1.5-50.4,2-77.6,1.8
					c-32.1-0.4-62.3-1.8-90.7-4.7c-5.2-0.5-10.4-1.1-15.5-1.8c10,12.2,29.1,50.1,65.1,156.8c6.1,18,11.3,34.2,15.9,48.7
					c5.8,18.8,10.9,35.3,15.4,49.9c-6.1-0.2-12-0.3-17.6-0.5c-2.7-0.1-5.4-0.2-8-0.3l-1.4-0.1l-1.1-0.1c-0.7,0-1.4-0.1-2.1-0.1
					c-5.6-0.4-10.8-0.8-15.6-1.2c-9.5-0.9-17.3-1.8-23.7-2.8c-12.8-2-19.9-4.2-23.7-6.2c-7.7-4.1-2.1-7.5-2.1-7.5h69l-80.2-237.9
					c-5.3-0.8-10.5-1.6-15.7-2.4c-3.3-0.6-6.6-1.2-9.9-1.8c-3.2-0.6-6.5-1.3-9.7-2.1c-3.2-0.7-6.4-1.5-9.6-2.4l-3.6-1
					c-1.5-0.4-2.9-0.9-4.3-1.4c-2.8-0.9-5.6-1.9-8.3-2.9c0.1-3.2,0.1-6.5,0.2-9.7c0.1-1.6,0.1-3.2,0.2-4.8l0.1-2.9
					c0.2-3.3,0.4-6.6,0.6-9.9c0.4-6.5,1-12.9,1.5-19.2c1.2-12.5,2.6-24.5,4.2-36.1c3.2-23,7.2-44.1,11.5-63.3
					c4.4-19.2,9.3-36.5,14.4-52.1c2.5-7.8,5.2-15.1,7.8-22.1c2.8-6.9,5.3-13.5,8.1-19.6c10.8-24.5,21.8-42.7,31.6-56
					c2.4-3.3,4.9-6.3,7.1-9.1c2.1-2.8,4.4-5.2,6.5-7.5c2.1-2.2,3.9-4.3,5.7-6.1c1.9-1.7,3.6-3.3,5.2-4.7c1.6-1.4,3-2.6,4.3-3.7
					c1.4-1.1,2.6-1.9,3.8-2.7c1.8-1.2,3.2-2.1,4.5-2.7l-2.1-0.1l-5.7-0.4c-7.6-0.6-15.3-1.7-22.9-4c-51-5.8-102.3-8.1-153.5-6.5
					c-29.6,1.2-59.2,3.5-88.4,7.7l-11,1.6l-5.5,0.8l-5.5,1l-10.9,2c-3.6,0.6-7.2,1.5-10.8,2.2c-14.4,3-28.8,6.6-42.3,11
					c0,0-0.6-0.1-1.2-0.5c-0.6-0.4-1.3-1-1.6-1.9c-0.6-1.8,0.6-5.1,8.7-10.2c8-5,22.8-11.8,49.2-18.6c3.3-0.8,6.8-1.7,10.4-2.6
					c3.7-0.9,7.5-1.6,11.6-2.4c4.1-0.8,8.3-1.7,12.8-2.5c4.5-0.7,9.2-1.4,14.1-2.1c9.8-1.6,20.5-2.5,32-3.7
					c5.8-0.7,11.8-0.9,18.1-1.3c6.3-0.3,12.8-0.9,19.5-1c6.7-0.1,13.3-0.2,19.5-0.4c3.1,0,6.2-0.1,9.2-0.1c3,0,6,0.1,8.9,0.2
					c5.8,0.2,11.4,0.4,16.8,0.5c5.4,0.2,10.5,0.3,15.4,0.8c9.8,0.7,18.8,1.5,27,2.3c4.1,0.3,8,0.9,11.7,1.4s7.2,1.1,10.6,1.6
					c0.4,0,0.7,0.1,1.1,0.2c-2.1-2.3-4-4.7-5.7-7.2c-4.7-6.8-8.1-14.3-10.4-21.8c-2.4-7.6-3.7-15.2-4.4-22.8
					c-1.4-15.2-0.5-30.1,1.5-44.6c2-14.6,5.1-28.8,8.8-42.7C547.1,202,557,175,568,148.6c10.6-25.3,22.2-49.9,35.1-74.2
					c-12.4-4.4-25.6-9.4-39.7-15.7c-5-2.3-10.2-4.7-15.4-7.4c-5.2-2.8-10.5-5.8-15.9-9.7c-1.4-1-2.7-2.1-4.1-3.3
					c-1.7-1.5-3.7-3.7-5.1-5.8c-1.5-2.2-2.5-4.6-2.9-7.1c-0.4-2.5-0.1-5.2,0.9-7.5c1-2.4,2.7-4.4,4.8-6.1c2.1-1.7,4.8-3.1,7.2-4.1
					l1.6-0.6l1.4-0.5c0.9-0.3,1.8-0.6,2.7-0.8c1.8-0.5,3.5-0.9,5.3-1.3c7-1.5,14-2.3,21-3c7.1-0.6,14.3-1,21.6-1.2
					c3.7-0.1,7.4-0.2,11.2-0.2c4,0,7.6,0.1,11.5,0.2c7.6,0.2,15.4,0.6,23.3,1c31.7,1.9,66.1,5.5,103,12.5c18.4,3.5,37.5,8,57.1,14
					c19.5,6.1,39.6,13.6,59.4,24.5c9.8,5.5,19.3,11.6,27.8,18.7c8.6,7.1,16.3,15.2,22.7,24.3c6.4,9.1,11,19.4,13.7,29.9
					c2.7,10.5,3.3,21.3,2.4,31.4c-0.5,5.1-1.2,10.1-2.3,14.9c-0.5,2.4-1.1,4.8-1.8,7.1c-0.7,2.3-1.3,4.7-2,6.7
					c-2.6,8.5-5.2,16.8-7.8,25c-5.1,16.3-10,32-14.7,46.9c-4.7,15-9.2,29.4-13.6,43.1c-1.9,6.2-3.8,12.2-5.7,18.2
					c0.6,3.3,1.2,6.6,1.6,9.9c0.7,7.6,1.3,15.4,0.3,23.6c-1,8.1-3.5,16.8-8.7,24.4c-5.1,7.6-12.6,13.2-20.2,16.8
					c-7.6,3.6-15.3,5.6-22.8,7c-7.5,1.2-15,2.1-22.3,2.4c-1.9,0.1-3.8,0.1-5.7,0.2c0.8,1.2,1.7,2.4,2.6,3.8c2.1,0.9,4.6,2.3,7.8,4.3
					c10,6.5,26.2,19,50,44.3c11.8,12.7,25.6,28.6,40.5,49.2c7.5,10.2,15.1,21.8,22.8,34.7c7.6,12.9,15.2,27.4,22,43.7
					c6.8,16.3,11.6,32.2,14.5,47.4c0.6,3.8,1.4,7.5,1.8,11.2c0.4,3.7,0.8,7.4,1,11c0.1,3.6,0.2,7.1,0.2,10.6c0,3.4-0.3,6.6-0.4,9.9
					c-1.2,25.6-5.4,47-11.7,63.9c-6.4,16.9-14.8,29-22.8,37c-8.1,8-15.7,11.9-21.2,13.8c-5.7,1.7-9.5,1.7-11.8,1.1
					c-1.1-0.3-1.9-0.7-2.4-1.2c-0.4-0.5-0.5-1-0.6-1.5c-0.1-0.5-0.1-0.9-0.1-1.3c0-0.2,0-0.4,0-0.6c0.1-0.2,0.1-0.4,0.2-0.5
					c0.3-0.6,0.6-1.1,0.6-1.1c0.8-0.3,1.7-0.5,2.5-0.8l2.6-1.1c0.9-0.4,1.7-0.9,2.6-1.4l1.3-0.7l1.2-0.8l2.5-1.6
					c0.9-0.5,1.6-1.3,2.4-1.9l2.4-1.9c0.8-0.6,1.4-1.5,2.2-2.2c3-2.8,5.5-6.2,8.1-9.5l3.4-5.4c0.5-0.9,1.2-1.8,1.6-2.7l1.4-3
					c7.8-15.6,11.9-33.5,14.2-51.6c0.4-4.6,1-9.1,1.4-13.7l0.4-13.9c0.1-2.3,0.2-4.7,0.2-6.9l-0.3-6.7l-0.1-3.4l-0.4-3.3l-0.7-6.7
					c-2.6-17.8-8.1-35.5-15.1-52.5c-7.1-17.1-15.8-33.6-25.5-49.7c-9.7-16-20.4-31.5-31.7-46.6c-16-21.1-33.2-41.5-51.4-60.8
					c4.6,9.5,9.7,21,15,35c8.6,23,17.7,52.9,25.3,91.3c7.5,38.4,13.5,85.5,14.9,142.5c0.1,4.2,0.2,8.5,0.4,12.9c0,0.9,0.1,1.7,0,2.6
					l-0.1,2.5l-0.1,2.5l0,0.6c0,0.2,0,0.4-0.2,0.5l-1.1,0.6c-2.9,1.6-6,3.3-9,4.4c-3.6,1.5-4.9,1.8-6.8,2.5
					c-1.9,0.7-3.8,1.2-5.7,1.7c-1.9,0.6-3.8,1-5.7,1.6c-1.9,0.5-3.9,1-5.8,1.4c-15.5,3.6-31.6,6-48.4,7.8c-6.6,0.7-13.3,1.3-20,1.8
					c-0.7,18.2-9.6,61.2-43.1,160.5c-6.1,18-11.7,34.1-16.8,48.4c-2.6,7.2-5,13.9-7.4,20.2c-0.3,0.8-0.6,1.6-0.9,2.4l-0.4,1.1
					C694.3,978.6,694.1,979,694.1,979z M758.4,79.6c0.6,1.5,1,3.1,1,3.1c0.6,11.1,2.8,22.4,5.6,33.6c2.9,11.3,6.4,22.5,10.4,33.6
					c8.1,22.2,17.7,44,28.1,65.4c10.4,21.4,21.6,42.6,33.4,63.4c3,5.2,5.9,10.4,9,15.6l8.1,13.7l39.8-131c3.4-10.7,5-21.5,4.7-32.1
					c-0.5-10.6-3.2-20.9-8.3-30.1c-1.1-2.4-2.7-4.6-4.1-6.8c-1.6-2.1-3.1-4.4-4.9-6.4c-3.4-4.2-7.3-8.1-11.4-11.8
					c-8.3-7.3-17.8-13.7-27.8-19.3c-20.1-11.1-42.3-19.2-64.9-25.7c-22.7-6.5-45.9-11.2-69.4-15c-23.5-3.7-47.2-6.4-71-8.2
					c-11.9-0.9-23.8-1.5-35.6-1.9c-5.6-0.1-11.7,0-17.6,0.1c-5.9,0.1-11.7,0.4-17.5,0.8c-5.8,0.5-11.5,1.1-16.8,2
					c-2.7,0.5-5.2,1.1-7.5,1.8l-1.4,0.5l1,0.9c3.6,3.1,8.4,6.1,13.3,8.9c9.9,5.6,20.7,10.5,31.5,15.2c10.9,4.7,22,9.1,33.1,13.3
					c22.4,8.4,45.1,16.2,67.8,23.7c21.9,7.1,44,14,66.1,20.5c-1.1-10.8-0.6-18.1,0-22.7c1-5.6,2.1-7.5,3-7.7
					C756.9,76.6,757.8,78.1,758.4,79.6z M859.2,351.8l-0.3-0.5l-1.2-1.9c-0.8-1.2-1.6-2.5-2.4-3.8c-3.1-5-6.2-9.9-9.2-14.8
					c-1.5-2.5-3-4.9-4.5-7.4c-1.3-2.3-2.7-4.5-4-6.7c-3.2-5.5-6.2-10.8-9.1-16.1c-5.9-10.5-11.3-20.6-16.3-30.3
					c-40-77.3-54.4-127.4-58.5-156.4c-5.6-0.3-15.2-1.6-30.9-5c-14.4-3.1-33.9-7.8-60.1-15.3c-13.1-3.8-27.9-8.3-44.4-13.8
					c-2.8-1-5.7-2-8.7-3c-0.7,3.5-2,8.5-4.4,15.5c-2.7,8.2-6.8,19.3-12.3,34.2c-5.5,14.9-12.5,33.7-20.4,57.5
					c-3.9,11.9-8,25.1-11.9,39.8c-3.9,14.6-7.5,30.8-9.9,48.4c-1.2,8.8-2,18-2,27.5c-0.1,9.4,0.6,19.2,2.9,28.6
					c1.1,4.7,2.6,9.4,4.7,13.7c2.1,4.3,4.5,8.5,7.7,12.1c3.1,3.6,6.9,6.8,11.1,9.5c4.2,2.7,9.2,4.7,14.4,6.3
					c5.2,1.7,10.8,2.4,16.2,3.1c1.4,0.1,2.8,0.2,4.1,0.3c1.4,0.1,2.7,0.2,4.3,0.2c3,0.1,6,0.3,8.9,0.4c11.8,0.5,23,1.2,33.9,1.9
					c21.7,1.4,41.6,3.1,60,4.5c36.6,2.9,66.9,5.4,91.2,3.8c12.2-0.7,22.6-2.9,30.9-6.7c8.1-4,13.6-9.8,16.7-16.4
					c0.7-1.7,1.4-3.3,2-5C858.4,354.7,858.8,353.2,859.2,351.8z M736.9,555.4l-50.8-151.7l-65,146.1l58.9,71.1L736.9,555.4z"/>
				<polygon class="st4" points="686.1,403.7 736.9,555.4 680,620.8 621.1,549.8 				"/>
				<path d="M708.4,197.4c-1.3,0.5-2.5,0.7-3.5,0.6c-1.9-0.1-3-1.4-3-1.4c1.2-8,5.7-15.4,12.2-20.2c6.4-4.9,14.9-7,22.8-5.9
					c8,1.1,15.5,5.5,20.4,11.9c4.9,6.3,7.2,14.8,6.2,22.8c-0.9,8-5.2,15.6-11.5,20.6c-6.3,5-14.6,7.5-22.7,6.6
					c-8-0.8-15.7-4.9-20.8-11.1c-5.1-6.2-7.7-14.5-7-22.5c0,0,1.4-1,3.3-0.7c1,0.1,2.1,0.6,3.2,1.4c0.6,0.4,1.2,0.9,1.8,1.5
					c0.6,0.6,1.3,1.3,2,2.1c1.5,1.5,3.1,3.4,5.2,5.1c1,0.9,2.3,1.7,3.5,2.6c1.3,0.8,2.8,1.5,4.4,2c3.1,1,7,1.1,10.5-0.4
					c3.5-1.5,6.9-4.9,7.5-9.7c0.6-4.9-1.9-9-5-11.3c-3.1-2.3-6.9-3.1-10.2-2.9c-1.6,0.1-3.2,0.4-4.7,0.9c-1.4,0.5-2.8,1-4,1.6
					c-2.5,1.2-4.5,2.6-6.3,3.7c-0.8,0.6-1.6,1.1-2.4,1.5C709.8,196.8,709.1,197.2,708.4,197.4z"/>
				<path class="st1" d="M704.9,198.1c1,0.1,2.1-0.1,3.5-0.6c0.7-0.3,1.4-0.6,2.1-1.1c0.8-0.4,1.6-1,2.4-1.5
					c1.8-1.1,3.8-2.5,6.3-3.7c1.2-0.6,2.6-1.1,4-1.6c1.5-0.4,3.1-0.7,4.7-0.9c3.3-0.2,7.1,0.6,10.2,2.9c3.1,2.3,5.5,6.4,5,11.3
					c-0.6,4.9-4,8.2-7.5,9.7c-3.6,1.5-7.4,1.4-10.5,0.4c-1.6-0.5-3-1.2-4.4-2c-1.3-0.8-2.5-1.6-3.5-2.6c-2.1-1.8-3.7-3.6-5.2-5.1
					c-0.7-0.8-1.4-1.5-2-2.1c-0.6-0.6-1.2-1.1-1.8-1.5C707,198.7,705.9,198.2,704.9,198.1L704.9,198.1z"/>
				<path class="st1" d="M649.2,180.6c3.1,2.3,5.6,6.4,5,11.2c-0.6,4.9-4,8.2-7.5,9.7c-3.6,1.5-7.4,1.4-10.6,0.4
					c-1.6-0.5-3-1.2-4.4-2c-1.3-0.8-2.5-1.6-3.5-2.6c-2.1-1.8-3.7-3.6-5.2-5.1c-0.7-0.8-1.3-1.5-2-2.1c-0.6-0.6-1.2-1.1-1.8-1.5
					c-1.2-0.9-2.2-1.3-3.2-1.5c1,0.1,2.1-0.1,3.5-0.6c0.7-0.3,1.4-0.6,2.1-1.1c0.8-0.4,1.6-0.9,2.4-1.5c1.8-1.1,3.8-2.5,6.2-3.7
					c1.2-0.6,2.6-1.2,4.1-1.6c1.5-0.4,3-0.7,4.7-0.9C642.3,177.5,646.1,178.3,649.2,180.6z"/>
				<path d="M612.8,187.9c0,0,1.3-1,3.1-0.7c-1.9-0.2-2.9-1.4-2.9-1.4c1.2-8,5.7-15.4,12.2-20.2c6.4-4.8,14.9-7,22.9-5.8
					c8,1,15.5,5.5,20.4,11.8c5,6.3,7.2,14.8,6.2,22.8c-0.9,8-5.2,15.6-11.5,20.6c-6.3,5-14.7,7.5-22.7,6.6
					c-8-0.8-15.7-4.9-20.8-11.2C614.6,204.3,612,195.9,612.8,187.9z M616.1,187.2c1,0.1,2,0.6,3.2,1.5c0.6,0.4,1.2,0.9,1.8,1.5
					c0.6,0.6,1.3,1.3,2,2.1c1.5,1.5,3.1,3.4,5.2,5.1c1,0.9,2.2,1.7,3.5,2.6c1.4,0.8,2.8,1.5,4.4,2c3.1,1,7,1.1,10.6-0.4
					c3.5-1.5,6.9-4.9,7.5-9.7c0.6-4.9-1.9-9-5-11.2c-3.1-2.3-6.9-3.1-10.1-2.9c-1.7,0.1-3.2,0.4-4.7,0.9c-1.4,0.5-2.9,1-4.1,1.6
					c-2.5,1.2-4.5,2.6-6.2,3.7c-0.8,0.6-1.6,1.1-2.4,1.5c-0.7,0.4-1.4,0.8-2.1,1.1C618.2,187.2,617,187.3,616.1,187.2z"/>
				<path class="st1" d="M616.3,281.7c10.7,1.5,20.5,2.9,29.6,4.1c20.7,2.8,38,4.7,52.4,6.1c28.7,2.7,45.8,2.8,55.9,1.8
					c20-2,11.9-8.6,11.9-8.6l-95-15.3l-47.5-7.6l-19.9-3.2l-3-0.5c-1-0.1-1.8-0.2-2.7-0.3l-5.3-0.5l-5.3-0.5l-2.6-0.2l-1.3-0.1
					c-0.2,0-0.5,0-0.6,0l0.3,0.6l4,10.1c1.3,3.3,2.6,6.7,4.2,10.2c1.6,3.5,3.3,7.1,5.2,10.6c0.9,1.7,2.1,3.9,2.4,4.4
					c0.5,0.9,1,1.9,1.6,2.7c8.5,14.6,18.7,28.5,32.5,40c3.4,2.9,7.1,5.5,11,7.9c2,1.1,4,2.3,6.1,3.3l3.1,1.5l3.3,1.3
					c2.2,0.9,4.5,1.5,6.8,2.2c2.3,0.5,4.6,1.1,7,1.4l3.6,0.4c1.2,0.1,2.4,0.1,3.6,0.2c2.5,0.1,4.7,0,6.9-0.2
					c2.2-0.2,4.5-0.3,6.7-0.5l6.6-1.2l3.3-0.6l3.2-0.9l6.4-1.8c8.3-3,16.4-6.5,23.8-11.1c7.4-4.5,14.4-9.6,20.9-15.2
					c6.5-5.7,12.4-11.7,18-18.6c0,0,0.2-0.7,0.1-1.6c-0.1-0.8-0.3-1.9-1.1-2.4c-1.8-0.9-5.3-0.1-13.9,5.2
					c-4.3,2.6-9.9,6.4-17.6,10.9c-7.7,4.4-17.4,9.9-30.2,14c-1.6,0.5-3.2,1-4.9,1.5c-1.7,0.5-3.5,0.8-5.2,1.2
					c-3.5,1-7.4,1.2-11.3,1.7c-2,0.2-4,0.1-6.1,0.2c-1,0-2.1,0.1-3.1,0.1c-1-0.1-2-0.1-3-0.2c-4-0.4-8-1.2-12.1-2.8
					c-8.2-3.1-16.5-8.7-24.4-16.7c-7.9-7.9-15.4-18-22.1-29.7c-0.4-0.7-0.9-1.5-1.3-2.2l-0.6-1.1c0,0,0,0,0,0h0c0,0,0,0-0.1-0.1
					C616.1,281.8,616.1,281.7,616.3,281.7z M704.9,198.1L704.9,198.1c-1.9-0.3-3.3,0.7-3.3,0.7c-0.7,8,1.9,16.3,7,22.5
					c5.1,6.2,12.8,10.3,20.8,11.1c8,0.9,16.4-1.6,22.7-6.6c6.3-5,10.6-12.6,11.5-20.6c1-8-1.3-16.4-6.2-22.8
					c-4.9-6.4-12.4-10.8-20.4-11.9c-8-1.1-16.4,1-22.8,5.9c-6.5,4.7-11,12.2-12.2,20.2C701.9,196.6,703,197.9,704.9,198.1z
					 M858.9,351.3l0.3,0.5c-0.4,1.4-0.8,2.8-1.2,4.3c-0.6,1.6-1.3,3.3-2,5c-3.1,6.6-8.6,12.5-16.7,16.4c-8.3,3.8-18.7,6-30.9,6.7
					c-24.3,1.6-54.6-0.9-91.2-3.8c-18.3-1.5-38.3-3.1-60-4.5c-10.9-0.7-22.2-1.4-33.9-1.9c-2.9-0.1-5.9-0.3-8.9-0.4
					c-1.5,0-2.9-0.1-4.3-0.2c-1.4-0.1-2.7-0.2-4.1-0.3c-5.5-0.7-11-1.4-16.2-3.1c-5.2-1.6-10.2-3.6-14.4-6.3
					c-4.2-2.7-8-5.9-11.1-9.5c-3.2-3.6-5.6-7.8-7.7-12.1c-2.1-4.4-3.6-9-4.7-13.7c-2.3-9.5-3-19.2-2.9-28.6c0-9.5,0.8-18.7,2-27.5
					c2.4-17.6,6.1-33.8,9.9-48.4c3.9-14.7,8-27.9,11.9-39.8c7.8-23.8,14.9-42.6,20.4-57.5c5.5-14.9,9.6-26,12.3-34.2
					c2.4-7,3.7-12,4.4-15.5c2.9,1,5.8,2,8.7,3c16.6,5.6,31.3,10.1,44.4,13.8c26.2,7.6,45.7,12.3,60.1,15.3c15.7,3.3,25.2,4.7,30.9,5
					c4.1,29.1,18.5,79.1,58.5,156.4c5,9.7,10.4,19.7,16.3,30.3c2.9,5.3,6,10.6,9.1,16.1c1.3,2.2,2.6,4.5,4,6.7
					c1.5,2.4,3,4.9,4.5,7.4c3,4.9,6.1,9.8,9.2,14.8c0.8,1.2,1.6,2.5,2.4,3.8L858.9,351.3z M674.7,194.4c1-8-1.3-16.4-6.2-22.8
					c-4.9-6.4-12.4-10.8-20.4-11.8c-8-1.1-16.4,1-22.9,5.8c-6.5,4.8-11,12.2-12.2,20.2c0,0,1,1.2,2.9,1.4c-1.8-0.2-3.1,0.7-3.1,0.7
					c-0.8,8,1.8,16.3,7,22.5c5.1,6.2,12.8,10.4,20.8,11.2c8,0.9,16.4-1.6,22.7-6.6C669.5,210,673.8,202.4,674.7,194.4z"/>
				<path d="M584.6,257l2.6,0.2l5.3,0.5l5.3,0.5c0.9,0.1,1.7,0.1,2.7,0.3l3,0.5l19.9,3.2l47.5,7.6l95,15.3c0,0,8.2,6.6-11.9,8.6
					c-10,1-27.1,0.9-55.9-1.8c-14.4-1.3-31.6-3.3-52.4-6.1c-9.1-1.2-18.9-2.6-29.6-4.1c-0.1,0.1-0.1,0.1,0,0.2c0,0,0.1,0.1,0.1,0.1
					h0c0,0,0,0,0,0l0.6,1.1c0.4,0.7,0.8,1.5,1.3,2.2C625,297,632.5,307,640.3,315c7.9,7.9,16.2,13.6,24.4,16.7
					c4.1,1.6,8.2,2.4,12.1,2.8c1,0.1,2,0.1,3,0.2c1,0,2.1-0.1,3.1-0.1c2.1-0.1,4.1,0,6.1-0.2c3.9-0.6,7.8-0.8,11.3-1.7
					c1.8-0.4,3.6-0.7,5.2-1.2c1.7-0.5,3.3-1,4.9-1.5c12.8-4.1,22.6-9.6,30.2-14c7.7-4.5,13.2-8.3,17.6-10.9
					c8.6-5.3,12.1-6.1,13.9-5.2c0.9,0.5,1,1.6,1.1,2.4c0.1,0.9-0.1,1.6-0.1,1.6c-5.6,6.8-11.5,12.9-18,18.6
					c-6.5,5.6-13.5,10.7-20.9,15.2c-7.4,4.5-15.5,8.1-23.8,11.1l-6.4,1.8l-3.2,0.9l-3.3,0.6l-6.6,1.2c-2.2,0.2-4.5,0.3-6.7,0.5
					c-2.2,0.2-4.4,0.4-6.9,0.2c-1.2-0.1-2.4,0-3.6-0.2l-3.6-0.4c-2.4-0.2-4.7-0.9-7-1.4c-2.3-0.7-4.6-1.2-6.8-2.2l-3.3-1.3l-3.1-1.5
					c-2.1-1-4.1-2.2-6.1-3.3c-3.9-2.4-7.6-5-11-7.9c-13.7-11.5-23.9-25.5-32.5-40c-0.5-0.9-1.1-1.8-1.6-2.7
					c-0.3-0.6-1.5-2.7-2.4-4.4c-1.9-3.5-3.6-7.1-5.2-10.6c-1.6-3.5-2.9-6.9-4.2-10.2l-4-10.1l-0.3-0.6c0.2,0,0.4,0,0.6,0L584.6,257z
					"/>
			</g>
		</g>
	</g>
</g>
</svg>
