<?xml version="1.0" encoding="utf-8"?>
<!-- Generator: Adobe Illustrator 24.2.3, SVG Export Plug-In . SVG Version: 6.00 Build 0)  -->
<svg version="1.1" id="yellow_man" xmlns="http://www.w3.org/2000/svg" xmlns:xlink="http://www.w3.org/1999/xlink" x="0px" y="0px"
	 viewBox="0 0 1000 1000" style="enable-background:new 0 0 1000 1000;" xml:space="preserve">
<style type="text/css">
	.st0{fill:#FFCE45;}
	.st1{fill:#3351FF;}
	.st2{fill:#FFFFFF;}
	.st3{fill:#FF306A;}
	.st4{fill:#DB05FF;}
	.st5{fill:#20F400;}
</style>
<g>
	<g>
		<g id="XMLID_46_">
			<g>
				<path class="st0" d="M962.7,266.7c0.2,6.9-0.8,13.9-3,20.8L934,372.3l-5.3-8.9c-2-3.3-3.9-6.7-5.8-10.1
					c-7.6-13.5-14.9-27.1-21.6-41c-6.7-13.9-12.9-28-18.2-42.3c-2.6-7.2-4.9-14.4-6.7-21.7c-1.8-7.3-3.2-14.6-3.6-21.8
					c0,0-0.2-1-0.6-2c-0.4-1-1-1.9-1.6-1.8c-0.6,0.1-1.3,1.4-2,5c-0.4,3-0.7,7.7,0,14.7c-14.3-4.2-28.6-8.6-42.8-13.3
					c-14.8-4.8-29.4-9.9-43.9-15.3c-7.2-2.7-14.4-5.6-21.5-8.6c-7-3-14-6.2-20.4-9.8c-3.2-1.8-6.3-3.8-8.6-5.8l-0.6-0.6l0.9-0.3
					c1.4-0.5,3.1-0.8,4.8-1.2c3.5-0.6,7.2-1,10.9-1.3c3.7-0.3,7.5-0.4,11.4-0.5c3.8-0.1,7.7-0.2,11.3-0.1c7.7,0.2,15.4,0.6,23.1,1.2
					c15.4,1.1,30.7,2.9,45.9,5.3c15.2,2.4,30.3,5.5,44.9,9.7c14.6,4.2,29,9.4,42,16.6c6.5,3.6,12.6,7.7,18,12.5
					c2.7,2.4,5.2,4.9,7.4,7.6c1.2,1.3,2.1,2.8,3.2,4.2c0.9,1.5,1.9,2.9,2.6,4.4C960.7,253.2,962.4,259.9,962.7,266.7z"/>
				<path class="st1" d="M929,629.7l0.1,3.4l-0.2,0.1l-0.1,0l-0.6,0.2c-4,1.4-8.3,2.5-12.7,3.4c-2.2,0.5-4.4,0.9-6.6,1.3
					c-2.2,0.4-4.4,0.8-6.7,1.1c-8.9,1.4-18,2.3-27.2,3c-18.2,1.4-36.7,1.7-55.1,1.6c-18.4-0.2-36.8-0.9-55.1-2.5
					c-9.1-0.8-18.2-1.9-27.2-3.3l-6.7-1.1c-2.2-0.4-4.4-0.8-6.6-1.3c-2.2-0.5-4.4-1-6.5-1.5l-1.4-0.4l0.1-1.9l0.4-7
					c0.3-4.6,0.6-9.3,1.1-13.9c0.8-9.3,1.9-18.6,3.2-27.8c2.6-18.5,6.1-36.8,10.9-54.8c4.8-17.9,10.8-35.5,18.7-52.1
					c3.9-8.3,8.4-16.3,13.4-23.8l1.9-2.8c0.6-1,1.3-1.9,2-2.8l4.1-5.4c2.9-3.4,5.8-6.9,9-10c0,0,1.2-1.9,1.3-3.2l5.6,0.2
					c9.1,0.4,18.2,0.9,27.3,1.5c1.9,0.1,3.8,0.3,5.8,0.4c-3.5,4.5-8.9,12.8-16.9,27.6c-4.1,7.6-8.9,17-14.6,28.4
					c-2.8,5.7-5.9,12-9.1,18.8c-1.6,3.4-3.3,6.9-5.1,10.6c-0.9,1.8-1.8,3.7-2.7,5.6c-1.4,3.1-2.8,6.2-4.3,9.3
					c7,8.6,14.5,17.9,22.6,28c3.7,4.5,7.5,9.1,11.5,14c5.2,6.3,10.5,12.7,16.1,19.5c0.9,1.1,1.8,2.2,2.7,3.2
					c6-7,11.9-13.7,17.5-20.3c3.9-4.6,7.8-9.1,11.4-13.3c8.1-9.6,15.6-18.4,22.6-26.6c-1.1-3.2-2.2-6.3-3.3-9.4
					c-0.7-2-1.4-3.9-2.1-5.9c-1.4-3.8-2.7-7.5-4-11c-2.6-7.1-5-13.6-7.3-19.5c-4.5-11.9-8.4-21.6-11.8-29.6
					c-6.4-15.2-10.9-24-14-28.8c13.2,0.9,26.4,1.8,39.8,2.4c6.1,0.3,12.2,0.4,18.4,0.4c3.6,6.8,6.9,13.9,9.9,21.1
					c0.9,2.1,1.6,4.2,2.5,6.3c0.8,2.1,1.7,4.2,2.4,6.4l2.2,6.5c0.7,2.2,1.5,4.3,2.1,6.5c1.3,4.4,2.7,8.7,3.9,13.1l3.4,13.3
					c2,8.9,4.1,17.8,5.5,26.9l1.2,6.8l0.6,3.4l0.5,3.4l1.9,13.6l0.5,3.4l0.3,3.4l0.7,6.8c0.4,4.6,0.9,9.1,1.3,13.7l0.8,13.8
					c0.2,4.6,0.6,9.2,0.6,13.8L929,629.7z"/>
				<path d="M779.1,428.2l-1.4-0.1l-3.7-0.2c-4.9-0.4-9.9-1.1-14.8-2.6c-33-3.7-66.2-5.2-99.3-4.2c-19.2,0.8-38.3,2.3-57.2,4.9
					l-7.1,1.1l-3.5,0.5l-3.5,0.6l-7,1.3c-2.4,0.4-4.7,1-7,1.4c-9.3,1.9-18.6,4.2-27.4,7.1c0,0-0.4-0.1-0.8-0.4
					c-0.4-0.2-0.8-0.6-1-1.2c-0.4-1.2,0.4-3.3,5.6-6.6c5.2-3.2,14.7-7.6,31.8-12.1c2.1-0.5,4.4-1.1,6.8-1.7c2.4-0.6,4.9-1,7.5-1.6
					c2.6-0.5,5.4-1.1,8.3-1.6c2.9-0.4,5.9-0.9,9.1-1.4c6.3-1,13.2-1.6,20.7-2.4c3.8-0.4,7.7-0.6,11.7-0.8c4.1-0.2,8.3-0.5,12.6-0.7
					c4.4-0.1,8.6-0.1,12.7-0.2c2,0,4,0,6-0.1c2,0,3.9,0.1,5.8,0.1c3.7,0.1,7.4,0.2,10.8,0.3c3.5,0.1,6.8,0.2,10,0.5
					c6.4,0.5,12.2,1,17.5,1.5c2.7,0.2,5.2,0.6,7.6,0.9c2.4,0.4,4.7,0.7,6.9,1c0.2,0,0.5,0.1,0.7,0.1c-1.3-1.5-2.6-3-3.7-4.7
					c-3-4.4-5.2-9.3-6.8-14.1c-1.5-4.9-2.4-9.9-2.9-14.8c-0.9-9.8-0.3-19.5,1-28.9c1.3-9.4,3.3-18.6,5.7-27.6
					c4.8-18.1,11.2-35.5,18.3-52.6c6.9-16.3,14.4-32.3,22.7-48c-8-2.8-16.6-6.1-25.7-10.1c-3.3-1.5-6.6-3-10-4.8
					c-3.4-1.8-6.8-3.7-10.3-6.3c-0.9-0.7-1.8-1.3-2.6-2.1c-1.1-1-2.4-2.4-3.3-3.8c-1-1.4-1.6-3-1.9-4.6c-0.3-1.6-0.1-3.3,0.6-4.9
					c0.7-1.5,1.8-2.9,3.1-4c1.3-1.1,3.1-2,4.7-2.7l1-0.4l0.9-0.3c0.6-0.2,1.2-0.4,1.7-0.5c1.1-0.3,2.3-0.6,3.4-0.9
					c4.5-1,9-1.5,13.6-1.9c4.6-0.4,9.2-0.6,14-0.8c2.4-0.1,4.8-0.1,7.2-0.1c2.6,0,4.9,0.1,7.4,0.1c4.9,0.1,10,0.4,15.1,0.7
					c20.5,1.3,42.7,3.5,66.6,8.1c11.9,2.3,24.3,5.2,37,9c12.6,3.9,25.6,8.8,38.4,15.9c6.4,3.5,12.5,7.5,18,12.1
					c5.5,4.6,10.6,9.8,14.7,15.8c4.1,5.9,7.1,12.5,8.9,19.3c1.7,6.8,2.1,13.8,1.6,20.3c-0.3,3.3-0.8,6.5-1.5,9.6
					c-0.3,1.6-0.7,3.1-1.2,4.6c-0.4,1.5-0.9,3-1.3,4.4c-1.7,5.5-3.4,10.9-5,16.2c-3.3,10.6-6.5,20.7-9.5,30.4
					c-3.1,9.7-6,19-8.8,27.9c-1.3,4-2.5,7.9-3.7,11.8c0.4,2.1,0.8,4.2,1,6.4c0.5,4.9,0.8,10,0.2,15.3c-0.7,5.3-2.3,10.9-5.7,15.8
					c-3.3,4.9-8.2,8.6-13,10.8c-4.9,2.3-9.9,3.7-14.8,4.6c-4.9,0.8-9.7,1.4-14.4,1.6c-1.2,0.1-2.5,0.1-3.7,0.1
					c0.6,0.7,1.1,1.5,1.7,2.4c1.3,0.6,3,1.5,5,2.8c6.5,4.2,16.9,12.3,32.4,28.7c7.6,8.2,16.5,18.5,26.2,31.8
					c4.8,6.6,9.8,14.1,14.7,22.5c4.9,8.4,9.9,17.7,14.2,28.3c4.4,10.6,7.5,20.8,9.4,30.7c0.4,2.5,0.9,4.9,1.1,7.3
					c0.2,2.4,0.5,4.8,0.7,7.1c0.1,2.3,0.1,4.6,0.2,6.9c0,2.2-0.2,4.3-0.3,6.4c-0.8,16.6-3.5,30.4-7.6,41.3
					c-4.1,10.9-9.6,18.8-14.8,23.9c-5.2,5.2-10.1,7.7-13.7,8.9c-3.7,1.1-6.2,1.1-7.6,0.7c-0.7-0.2-1.2-0.5-1.5-0.8
					c-0.3-0.3-0.3-0.6-0.4-1c-0.1-0.3-0.1-0.6-0.1-0.9c0-0.1,0-0.2,0-0.4c0-0.1,0.1-0.2,0.1-0.3c0.2-0.4,0.4-0.7,0.4-0.7
					c0.5-0.2,1.1-0.4,1.6-0.6l1.7-0.7c0.6-0.3,1.1-0.6,1.7-0.9l0.8-0.4l0.8-0.5l1.6-1.1c0.6-0.3,1-0.8,1.5-1.2l1.5-1.2
					c0.5-0.4,0.9-0.9,1.4-1.4c2-1.8,3.5-4,5.2-6.2l2.2-3.5c0.4-0.6,0.8-1.1,1.1-1.8l0.9-1.9c5.1-10.1,7.7-21.7,9.2-33.4
					c0.3-3,0.6-5.9,0.9-8.9l0.3-9c0-1.5,0.1-3,0.1-4.5l-0.2-4.3l-0.1-2.2l-0.2-2.2l-0.5-4.3c-1.7-11.5-5.2-23-9.8-34
					c-4.6-11.1-10.2-21.8-16.5-32.1c-6.3-10.4-13.2-20.4-20.5-30.2c-10.3-13.7-21.5-26.9-33.3-39.4c3,6.1,6.3,13.6,9.7,22.7
					c5.6,14.9,11.4,34.2,16.3,59.1c4.9,24.9,8.8,55.4,9.7,92.2c0.1,2.7,0.1,5.5,0.2,8.3c0,0.6,0,1.1,0,1.7l-0.1,1.6l-0.1,1.6l0,0.4
					c0,0.1,0,0.3-0.2,0.3l-0.7,0.4c-1.9,1-3.9,2.1-5.8,2.8c-2.3,1-3.1,1.2-4.4,1.6c-1.2,0.4-2.5,0.7-3.7,1.1c-1.2,0.4-2.5,0.7-3.7,1
					c-1.2,0.3-2.5,0.7-3.7,0.9c-10,2.3-20.5,3.9-31.3,5c-4.3,0.5-8.6,0.8-13,1.2c-0.4,11.8-6.2,39.7-27.9,103.9
					c-3.9,11.7-7.5,22-10.9,31.3c-1.7,4.6-3.3,9-4.8,13c-0.2,0.5-0.4,1-0.6,1.5l-0.3,0.7c-0.1,0.2-0.2,0.4-0.2,0.5l-0.2,0.4
					c-0.2,0.3-0.4,0.6-0.6,1c0.2,0.1,0.5,0.2,0.9,0.3c0.2,0.1,0.4,0.1,0.6,0.2c0,0,0.3,0,0.5,0l0.7,0c0.5,0,0.9,0.1,1.4,0.1
					c3.7,0.2,7,0.5,10.1,0.8c6.2,0.6,11.2,1.2,15.3,1.8c8.3,1.3,12.9,2.7,15.3,4c5,2.6,1.4,4.9,1.4,4.9h-63.3l0.4-1.3L868,656.1
					c-15.9,1-32.6,1.3-50.2,1.1c-20.8-0.2-40.3-1.1-58.7-3.1c-3.4-0.3-6.7-0.7-10-1.1c6.5,7.9,18.8,32.4,42.1,101.5
					c3.9,11.7,7.3,22.1,10.3,31.5c3.8,12.2,7.1,22.9,10,32.3c-3.9-0.1-7.7-0.2-11.4-0.3c-1.8-0.1-3.5-0.1-5.2-0.2l-0.9-0.1l-0.7,0
					c-0.5,0-0.9-0.1-1.4-0.1c-3.7-0.2-7-0.5-10.1-0.8c-6.1-0.6-11.2-1.2-15.3-1.8c-8.3-1.3-12.9-2.7-15.4-4
					c-4.9-2.6-1.4-4.9-1.4-4.9h44.7l-51.9-154c-3.4-0.5-6.8-1-10.2-1.6c-2.1-0.4-4.3-0.7-6.4-1.2c-2.1-0.4-4.2-0.8-6.3-1.3
					c-2.1-0.4-4.1-1-6.2-1.5l-2.3-0.6c-0.9-0.3-1.9-0.6-2.8-0.9c-1.8-0.6-3.6-1.2-5.4-1.9c0.1-2.1,0.1-4.2,0.1-6.3
					c0-1,0.1-2.1,0.1-3.1l0.1-1.9c0.1-2.2,0.3-4.3,0.4-6.4c0.3-4.2,0.6-8.4,1-12.4c0.8-8.1,1.7-15.9,2.7-23.4
					c2-14.9,4.6-28.5,7.5-41c2.8-12.4,6-23.6,9.3-33.7c1.6-5.1,3.4-9.8,5-14.3c1.8-4.5,3.4-8.7,5.3-12.7c7-15.9,14.1-27.6,20.4-36.2
					c1.6-2.2,3.2-4.1,4.6-5.9c1.4-1.8,2.9-3.4,4.2-4.8c1.3-1.4,2.6-2.8,3.7-3.9c1.2-1.1,2.3-2.2,3.4-3.1c1-0.9,2-1.7,2.8-2.4
					c0.9-0.7,1.7-1.2,2.4-1.7C777.3,429.2,778.3,428.6,779.1,428.2z M782.4,428.3c-0.1,1.2-1.3,3.2-1.3,3.2c-3.2,3.1-6.1,6.6-9,10
					l-4.1,5.4c-0.7,0.9-1.3,1.8-2,2.8l-1.9,2.8c-5,7.6-9.5,15.5-13.4,23.8c-7.9,16.6-13.9,34.2-18.7,52.1
					c-4.8,17.9-8.3,36.3-10.9,54.8c-1.3,9.2-2.4,18.5-3.2,27.8c-0.4,4.6-0.8,9.3-1.1,13.9l-0.4,7l-0.1,1.9l1.4,0.4
					c2.1,0.5,4.3,1.1,6.5,1.5c2.2,0.5,4.4,0.9,6.6,1.3l6.7,1.1c9,1.4,18.1,2.4,27.2,3.3c18.3,1.6,36.6,2.3,55.1,2.5
					c18.4,0.1,36.8-0.2,55.1-1.6c9.1-0.6,18.2-1.6,27.2-3c2.3-0.3,4.5-0.7,6.7-1.1c2.2-0.4,4.4-0.8,6.6-1.3c4.4-0.9,8.7-2,12.7-3.4
					l0.6-0.2l0.1,0l0.2-0.1l-0.1-3.4l-0.3-13.8c0-4.6-0.4-9.2-0.6-13.8l-0.8-13.8c-0.4-4.6-0.9-9.1-1.3-13.7l-0.7-6.8l-0.3-3.4
					l-0.5-3.4l-1.9-13.6l-0.5-3.4l-0.6-3.4l-1.2-6.8c-1.5-9.1-3.6-17.9-5.5-26.9l-3.4-13.3c-1.2-4.4-2.6-8.7-3.9-13.1
					c-0.6-2.2-1.4-4.3-2.1-6.5l-2.2-6.5c-0.7-2.2-1.6-4.3-2.4-6.4c-0.8-2.1-1.6-4.3-2.5-6.3c-3-7.2-6.3-14.3-9.9-21.1
					c-6.2,0.1-12.3-0.1-18.4-0.4c-13.4-0.6-26.6-1.5-39.8-2.4c3.1,4.9,7.5,13.6,14,28.8c3.4,8,7.3,17.7,11.8,29.6
					c2.3,6,4.7,12.4,7.3,19.5c1.3,3.5,2.6,7.2,4,11c0.7,1.9,1.4,3.9,2.1,5.9c1.1,3.1,2.2,6.2,3.3,9.4c-6.9,8.2-14.4,17-22.6,26.6
					c-3.7,4.3-7.5,8.7-11.4,13.3c-5.6,6.5-11.5,13.3-17.5,20.3c-0.9-1.1-1.8-2.1-2.7-3.2c-5.6-6.7-10.9-13.2-16.1-19.5
					c-4-4.8-7.8-9.5-11.5-14c-8.2-10.1-15.7-19.4-22.6-28c1.5-3.2,2.9-6.3,4.3-9.3c0.9-1.9,1.8-3.8,2.7-5.6
					c1.8-3.7,3.4-7.2,5.1-10.6c3.3-6.8,6.3-13,9.1-18.8c5.7-11.4,10.5-20.8,14.6-28.4c8-14.8,13.3-23.1,16.9-27.6
					c-1.9-0.1-3.8-0.3-5.8-0.4c-9.1-0.6-18.2-1.1-27.3-1.5L782.4,428.3z M872.1,224.5c0.4,1,0.6,2,0.6,2c0.4,7.2,1.8,14.5,3.6,21.8
					c1.8,7.3,4.1,14.5,6.7,21.7c5.2,14.4,11.4,28.5,18.2,42.3c6.7,13.9,14,27.6,21.6,41c1.9,3.4,3.8,6.7,5.8,10.1l5.3,8.9l25.8-84.8
					c2.2-6.9,3.2-13.9,3-20.8c-0.4-6.8-2.1-13.5-5.4-19.5c-0.7-1.5-1.8-3-2.6-4.4c-1-1.4-2-2.8-3.2-4.2c-2.2-2.7-4.7-5.2-7.4-7.6
					c-5.4-4.7-11.5-8.9-18-12.5c-13-7.2-27.4-12.4-42-16.6c-14.7-4.2-29.7-7.3-44.9-9.7c-15.2-2.4-30.5-4.1-45.9-5.3
					c-7.7-0.6-15.4-1-23.1-1.2c-3.6-0.1-7.6,0-11.3,0.1c-3.8,0.1-7.6,0.3-11.4,0.5c-3.7,0.3-7.4,0.7-10.9,1.3
					c-1.7,0.3-3.4,0.7-4.8,1.2l-0.9,0.3l0.6,0.6c2.3,2,5.4,4,8.6,5.8c6.4,3.6,13.4,6.8,20.4,9.8c7,3,14.2,5.9,21.5,8.6
					c14.5,5.4,29.1,10.5,43.9,15.3c14.2,4.6,28.5,9.1,42.8,13.3c-0.7-7-0.4-11.7,0-14.7c0.7-3.6,1.3-4.8,2-5
					C871.2,222.6,871.7,223.5,872.1,224.5z M937.4,400.7l-0.2-0.4l-0.8-1.2c-0.5-0.8-1-1.6-1.5-2.4c-2-3.2-4-6.4-6-9.6
					c-1-1.6-1.9-3.2-2.9-4.8c-0.9-1.5-1.7-2.9-2.6-4.4c-2-3.5-4-7-5.9-10.4c-3.8-6.8-7.3-13.3-10.5-19.6
					c-25.9-50-35.2-82.4-37.9-101.2c-3.6-0.2-9.8-1.1-20-3.2c-9.3-2-21.9-5.1-38.9-9.9c-8.5-2.5-18-5.4-28.7-9
					c-1.8-0.6-3.7-1.3-5.6-1.9c-0.4,2.3-1.3,5.5-2.8,10c-1.8,5.3-4.4,12.5-7.9,22.2c-3.5,9.6-8.1,21.8-13.2,37.2
					c-2.5,7.7-5.2,16.2-7.7,25.7c-2.5,9.5-4.9,19.9-6.4,31.3c-0.7,5.7-1.3,11.7-1.3,17.8c0,6.1,0.4,12.4,1.9,18.5
					c0.7,3.1,1.7,6.1,3,8.9c1.3,2.8,2.9,5.5,5,7.9c2,2.3,4.4,4.4,7.2,6.2c2.7,1.8,5.9,3,9.3,4.1c3.4,1.1,7,1.6,10.5,2
					c0.9,0.1,1.8,0.1,2.7,0.2c0.9,0.1,1.8,0.1,2.8,0.2c1.9,0.1,3.9,0.2,5.8,0.3c7.6,0.4,14.9,0.8,21.9,1.2c14.1,0.9,27,2,38.8,2.9
					c23.7,1.9,43.3,3.5,59,2.5c7.9-0.5,14.6-1.9,20-4.3c5.2-2.6,8.8-6.3,10.8-10.6c0.4-1.1,0.9-2.1,1.3-3.2
					C936.8,402.6,937.1,401.6,937.4,400.7z M858.2,532.4l-32.9-98.2l-42,94.5l38.1,46L858.2,532.4z"/>
				<path class="st2" d="M859,296.9c2,1.5,3.6,4.1,3.2,7.3c-0.4,3.2-2.6,5.3-4.9,6.3c-2.3,1-4.8,0.9-6.8,0.2c-1-0.3-2-0.8-2.8-1.3
					c-0.8-0.5-1.6-1.1-2.3-1.7c-1.4-1.2-2.4-2.3-3.4-3.3c-0.4-0.5-0.9-0.9-1.3-1.3c-0.4-0.4-0.8-0.7-1.1-1c-0.7-0.5-1.5-0.8-2.1-0.9
					c0.6,0.1,1.4-0.1,2.3-0.4c0.4-0.2,0.9-0.4,1.3-0.7c0.5-0.3,1-0.6,1.6-1c1.2-0.7,2.5-1.6,4.1-2.4c0.8-0.4,1.7-0.8,2.6-1.1
					c1-0.3,2-0.5,3.1-0.6C854.5,294.9,857,295.4,859,296.9z"/>
				<polygon class="st3" points="825.3,434.3 858.2,532.4 821.4,574.8 783.3,528.8 				"/>
				<path d="M837.4,301.2c-1.2-0.1-1.9-0.9-1.9-0.9c0.8-5.2,3.7-10,7.9-13.1c4.2-3.1,9.6-4.5,14.8-3.8c5.2,0.7,10.1,3.5,13.2,7.7
					c3.2,4.1,4.7,9.6,4,14.7c-0.6,5.2-3.4,10.1-7.5,13.3c-4.1,3.3-9.5,4.9-14.7,4.3c-5.2-0.5-10.2-3.2-13.4-7.2
					c-3.3-4-5-9.4-4.5-14.6C835.4,301.6,836.3,301,837.4,301.2z M837.5,301.2c0.6,0.1,1.3,0.4,2.1,0.9c0.4,0.3,0.8,0.6,1.1,1
					c0.4,0.4,0.9,0.8,1.3,1.3c0.9,1,2,2.2,3.4,3.3c0.6,0.6,1.5,1.1,2.3,1.7c0.9,0.5,1.8,0.9,2.8,1.3c2,0.6,4.5,0.7,6.8-0.2
					c2.3-1,4.5-3.1,4.9-6.3c0.4-3.2-1.3-5.8-3.2-7.3c-2-1.5-4.5-2-6.6-1.9c-1.1,0.1-2.1,0.3-3.1,0.6c-0.9,0.3-1.8,0.7-2.6,1.1
					c-1.6,0.8-2.9,1.7-4.1,2.4c-0.5,0.4-1.1,0.7-1.6,1c-0.5,0.3-0.9,0.5-1.3,0.7C838.9,301.1,838.2,301.3,837.5,301.2z"/>
				<path d="M782.3,293.8c-0.8,0.4-1.6,0.5-2.2,0.4c-1.3-0.1-2-0.9-2-0.9c0.8-5.2,3.7-10,7.9-13.1c4.2-3.1,9.6-4.5,14.8-3.8
					c5.2,0.7,10.1,3.5,13.2,7.7c3.2,4.1,4.7,9.6,4,14.7c-0.6,5.2-3.4,10.1-7.5,13.3c-4.1,3.3-9.5,4.9-14.7,4.3
					c-5.2-0.5-10.2-3.2-13.4-7.2c-3.3-4-5-9.4-4.5-14.6c0,0,0.9-0.6,2.1-0.4c0.6,0.1,1.3,0.4,2.1,0.9c0.4,0.3,0.8,0.6,1.1,1
					c0.4,0.4,0.8,0.8,1.3,1.3c0.9,1,2,2.2,3.3,3.3c0.7,0.6,1.5,1.1,2.3,1.7c0.9,0.5,1.8,1,2.8,1.3c2,0.6,4.5,0.7,6.8-0.2
					c2.3-1,4.5-3.2,4.9-6.3c0.4-3.2-1.2-5.8-3.2-7.3c-2-1.5-4.5-2-6.6-1.9c-1.1,0.1-2.1,0.3-3,0.6c-0.9,0.3-1.8,0.6-2.6,1.1
					c-1.6,0.8-2.9,1.7-4.1,2.4c-0.5,0.4-1.1,0.7-1.6,1C783.1,293.4,782.7,293.6,782.3,293.8z"/>
				<path class="st2" d="M780,294.2c0.6,0.1,1.4-0.1,2.2-0.4c0.4-0.2,0.9-0.4,1.3-0.7c0.5-0.3,1-0.6,1.6-1c1.2-0.7,2.4-1.6,4.1-2.4
					c0.8-0.4,1.7-0.7,2.6-1.1c1-0.3,2-0.5,3-0.6c2.1-0.1,4.6,0.4,6.6,1.9c2,1.5,3.6,4.1,3.2,7.3c-0.4,3.1-2.6,5.3-4.9,6.3
					c-2.3,1-4.8,0.9-6.8,0.2c-1-0.3-2-0.8-2.8-1.3c-0.8-0.5-1.6-1.1-2.3-1.7c-1.4-1.2-2.4-2.3-3.3-3.3c-0.4-0.5-0.9-0.9-1.3-1.3
					c-0.4-0.4-0.8-0.7-1.1-1C781.4,294.6,780.6,294.3,780,294.2L780,294.2z"/>
				<path class="st2" d="M780,294.2L780,294.2c-1.2-0.2-2.1,0.4-2.1,0.4c-0.5,5.2,1.2,10.6,4.5,14.6c3.3,4,8.3,6.7,13.4,7.2
					c5.2,0.6,10.6-1,14.7-4.3c4.1-3.2,6.8-8.2,7.5-13.3c0.6-5.2-0.8-10.6-4-14.7c-3.1-4.1-8-7-13.2-7.7c-5.1-0.7-10.6,0.6-14.8,3.8
					c-4.2,3.1-7.1,7.9-7.9,13.1C778.1,293.3,778.8,294.1,780,294.2z M780.1,355.3c6.9,1,13.3,1.8,19.2,2.7
					c13.4,1.8,24.6,3.1,33.9,3.9c18.6,1.7,29.7,1.8,36.2,1.2c13-1.3,7.7-5.5,7.7-5.5l-61.5-9.9l-30.7-5l-12.9-2.1l-1.9-0.3
					c-0.6-0.1-1.2-0.1-1.8-0.2l-3.4-0.3l-3.4-0.3l-1.7-0.1l-0.9-0.1c-0.1,0-0.3,0-0.4,0l0.2,0.4l2.6,6.5c0.8,2.2,1.7,4.4,2.7,6.6
					c1,2.3,2.2,4.6,3.4,6.9c0.6,1.1,1.3,2.5,1.5,2.8c0.3,0.6,0.7,1.2,1,1.8c5.5,9.4,12.1,18.5,21,25.9c2.2,1.9,4.6,3.5,7.1,5.1
					c1.3,0.7,2.6,1.5,3.9,2.1l2,1l2.1,0.8c1.4,0.6,2.9,1,4.4,1.4c1.5,0.3,3,0.7,4.5,0.9l2.3,0.3c0.8,0.1,1.5,0.1,2.3,0.1
					c1.6,0.1,3,0,4.5-0.1c1.4-0.1,2.9-0.2,4.3-0.3l4.3-0.7l2.1-0.4l2.1-0.6l4.2-1.2c5.4-1.9,10.6-4.2,15.4-7.2
					c4.8-2.9,9.3-6.2,13.5-9.8c4.2-3.7,8.1-7.6,11.7-12c0,0,0.1-0.5,0.1-1c0-0.5-0.2-1.3-0.7-1.5c-1.2-0.6-3.4-0.1-9,3.4
					c-2.8,1.7-6.4,4.1-11.4,7c-5,2.9-11.3,6.4-19.6,9c-1,0.3-2.1,0.6-3.2,1c-1.1,0.3-2.2,0.5-3.4,0.8c-2.3,0.6-4.8,0.8-7.3,1.1
					c-1.3,0.1-2.6,0.1-3.9,0.1c-0.7,0-1.3,0-2,0.1c-0.6-0.1-1.3-0.1-1.9-0.1c-2.6-0.3-5.2-0.8-7.9-1.8c-5.3-2-10.7-5.7-15.8-10.8
					c-5.1-5.1-9.9-11.6-14.3-19.2c-0.3-0.5-0.6-0.9-0.8-1.4l-0.4-0.7c0,0,0,0,0,0h0c0,0,0,0-0.1,0
					C780,355.4,780.1,355.4,780.1,355.3z M937.1,400.4l0.2,0.4c-0.3,0.9-0.5,1.8-0.8,2.8c-0.4,1.1-0.9,2.1-1.3,3.2
					c-2,4.3-5.6,8.1-10.8,10.6c-5.3,2.4-12.1,3.9-20,4.3c-15.7,1.1-35.3-0.6-59-2.5c-11.9-1-24.8-2-38.8-2.9
					c-7-0.5-14.3-0.9-21.9-1.2c-1.9-0.1-3.8-0.2-5.8-0.3c-1,0-1.9-0.1-2.8-0.2c-0.9-0.1-1.8-0.1-2.7-0.2c-3.5-0.4-7.1-0.9-10.5-2
					c-3.4-1.1-6.6-2.3-9.3-4.1c-2.7-1.7-5.1-3.8-7.2-6.2c-2.1-2.3-3.6-5.1-5-7.9c-1.3-2.8-2.3-5.8-3-8.9c-1.5-6.1-1.9-12.4-1.9-18.5
					c0-6.1,0.6-12.1,1.3-17.8c1.5-11.4,3.9-21.9,6.4-31.3c2.5-9.5,5.1-18,7.7-25.7c5.1-15.4,9.6-27.6,13.2-37.2
					c3.6-9.7,6.2-16.8,7.9-22.2c1.5-4.5,2.4-7.7,2.8-10c1.9,0.7,3.8,1.3,5.6,1.9c10.7,3.6,20.3,6.5,28.7,9c17,4.9,29.6,7.9,38.9,9.9
					c10.1,2.1,16.3,3,20,3.2c2.7,18.8,12,51.2,37.9,101.2c3.2,6.3,6.7,12.8,10.5,19.6c1.9,3.4,3.9,6.9,5.9,10.4
					c0.8,1.5,1.7,2.9,2.6,4.4c0.9,1.6,1.9,3.2,2.9,4.8c2,3.2,3.9,6.4,6,9.6c0.5,0.8,1,1.6,1.5,2.4L937.1,400.4z M875.5,305.8
					c0.7-5.2-0.8-10.6-4-14.7c-3.2-4.1-8-7-13.2-7.7c-5.1-0.8-10.6,0.6-14.8,3.8c-4.2,3.1-7.1,7.9-7.9,13.1c0,0,0.7,0.8,1.9,0.9
					c-1.2-0.2-2,0.4-2,0.4c-0.5,5.2,1.2,10.6,4.5,14.6c3.3,4,8.3,6.7,13.4,7.2c5.2,0.6,10.6-1,14.7-4.3
					C872.1,315.9,874.9,311,875.5,305.8z"/>
				<path d="M761.1,346.2l-2.6-6.5l-0.2-0.4c0.1,0,0.3,0,0.4,0l0.9,0.1l1.7,0.1l3.4,0.3l3.4,0.3c0.6,0.1,1.1,0.1,1.8,0.2l1.9,0.3
					l12.9,2.1l30.7,5l61.5,9.9c0,0,5.3,4.2-7.7,5.5c-6.5,0.6-17.6,0.6-36.2-1.2c-9.3-0.9-20.5-2.1-33.9-3.9
					c-5.9-0.8-12.2-1.7-19.2-2.7c-0.1,0.1-0.1,0.1,0,0.1c0,0,0,0,0.1,0h0c0,0,0,0,0,0l0.4,0.7c0.3,0.5,0.5,1,0.8,1.4
					c4.4,7.6,9.2,14.1,14.3,19.2c5.1,5.1,10.5,8.8,15.8,10.8c2.7,1,5.3,1.5,7.9,1.8c0.6,0.1,1.3,0.1,1.9,0.1c0.7,0,1.3,0,2-0.1
					c1.3-0.1,2.7,0,3.9-0.1c2.5-0.4,5-0.5,7.3-1.1c1.2-0.3,2.3-0.4,3.4-0.8c1.1-0.3,2.2-0.7,3.2-1c8.3-2.6,14.6-6.2,19.6-9
					c5-2.9,8.6-5.4,11.4-7c5.5-3.4,7.8-4,9-3.4c0.6,0.3,0.7,1,0.7,1.5c0,0.5-0.1,1-0.1,1c-3.6,4.4-7.5,8.4-11.7,12
					c-4.2,3.6-8.7,6.9-13.5,9.8c-4.8,2.9-10.1,5.2-15.4,7.2l-4.2,1.2l-2.1,0.6l-2.1,0.4l-4.3,0.7c-1.4,0.1-2.9,0.2-4.3,0.3
					c-1.4,0.1-2.9,0.2-4.5,0.1c-0.8,0-1.5,0-2.3-0.1l-2.3-0.3c-1.5-0.2-3-0.6-4.5-0.9c-1.5-0.5-3-0.8-4.4-1.4l-2.1-0.8l-2-1
					c-1.4-0.6-2.6-1.4-3.9-2.1c-2.5-1.6-4.9-3.2-7.1-5.1c-8.9-7.4-15.5-16.5-21-25.9c-0.4-0.6-0.7-1.2-1-1.8c-0.2-0.4-1-1.7-1.5-2.8
					c-1.2-2.3-2.3-4.6-3.4-6.9C762.9,350.6,762,348.4,761.1,346.2z"/>
			</g>
		</g>
	</g>
	<g>
		<g id="XMLID_44_">
			<g>
				<path class="st2" d="M701.7,302.4l-0.2,0.8l-0.7,2.7c-0.9,3.7-1.8,7.3-2.7,10.9c-1.7,7.2-3.4,14.3-5,21.2
					c-3.2,13.9-6.1,27.2-8.9,40.1c-5.5,25.7-10.1,49.4-13.9,71.3c-7.8,43.7-12.7,80.1-15.8,110c-3,30-4.2,53.6-4.4,72.1
					c-0.1,18.5,0.5,31.7,1.5,41.1c0.8,9.4,2.1,14.9,2.8,17.9c0.3,1.1,0.6,1.9,0.9,2.4c-6.4-1.5-16.1-3.4-30.7-6
					c-32.6-5.6-89.3-14.2-186-27.2c-12.1-1.6-24.8-3.3-38.2-5.1c-1.5-0.2-2.9-0.4-4.4-0.6c-0.4-0.1-0.8-0.1-1.1-0.2
					c0-0.4,0-0.8,0-1.2c0-1.7-0.1-3.3-0.1-5c-0.2-7-0.1-14.2-0.1-21.6c0-1.8,0-3.7,0.1-5.6c0.1-1.9,0.1-3.7,0.2-5.6
					c0.1-3.8,0.3-7.6,0.4-11.4c0.2-3.9,0.5-7.7,0.7-11.7c0.2-3.9,0.5-7.9,0.8-11.9c0.3-4,0.7-8.1,1-12.2c0.4-4.1,0.9-8.2,1.3-12.4
					c0.2-2.1,0.4-4.2,0.7-6.3c0.3-2.1,0.6-4.2,0.8-6.4c0.6-4.3,1.1-8.6,1.7-12.9c5-34.8,12.6-72.4,23.5-112.4
					c11-40,25-82.6,43.9-126.9c1.2-2.8,2.5-5.6,3.7-8.4c0.3-0.7,0.7-1.5,1-2.2c5.2,0.5,10.3,1,15.3,1.5c12,1.2,23.7,2.3,35.2,3.5
					c23,2.3,45.1,4.4,66.3,6.5c21.2,2,41.6,4,61.2,5.9c9.8,0.9,19.3,1.8,28.7,2.7c4.7,0.4,9.3,0.9,13.9,1.3c2,0.2,3.9,0.4,5.9,0.6
					l0.6,0l-0.1,0.5L701.7,302.4z M630.9,351c0,0,13.1-5.3-64.7-13.7c-77.9-8.4-66.1-0.4-66.1-0.4L630.9,351z M614.4,403.3
					c0,0,13.2-5.3-64.7-13.7c-77.9-8.4-66.2-0.4-66.2-0.4L614.4,403.3z M604.3,467.6c0,0,13.1-5.3-64.7-13.7
					c-77.9-8.4-66.1-0.4-66.1-0.4L604.3,467.6z M587.8,519.9c0,0,13.2-5.3-64.7-13.7c-77.9-8.4-66.2-0.4-66.2-0.4L587.8,519.9z
					 M586.2,577.3c0,0,13.2-5.3-64.7-13.7c-77.9-8.4-66.2-0.4-66.2-0.4L586.2,577.3z M584.5,629.5c0,0,13.1-5.3-64.7-13.7
					c-77.9-8.4-66.1-0.4-66.1-0.4L584.5,629.5z"/>
				<path d="M655.4,693c-0.3-0.5-0.5-1.3-0.9-2.4c-0.8-3-2-8.5-2.8-17.9c-1-9.4-1.7-22.6-1.5-41.1c0.2-18.4,1.4-42.1,4.4-72.1
					c3.1-30,8-66.3,15.8-110c3.9-21.9,8.5-45.6,13.9-71.3c2.7-12.9,5.7-26.2,8.9-40.1c1.6-6.9,3.2-14,5-21.2
					c0.9-3.6,1.8-7.2,2.7-10.9l0.7-2.7l0.2-0.8l0-0.1l0.1-0.5l-0.6,0c-2-0.2-3.9-0.4-5.9-0.6c-4.6-0.4-9.2-0.9-13.9-1.3
					c-9.4-0.9-18.9-1.8-28.7-2.7c-19.6-1.9-40-3.9-61.2-5.9c-21.2-2.1-43.3-4.2-66.3-6.5c-11.5-1.1-23.2-2.3-35.2-3.5
					c-5.1-0.5-10.2-1-15.3-1.5c-0.3,0.7-0.7,1.5-1,2.2c-1.3,2.8-2.5,5.6-3.7,8.4c-18.9,44.2-32.9,86.9-43.9,126.9
					c-10.9,40-18.5,77.6-23.5,112.4c-0.7,4.4-1.1,8.7-1.7,12.9c-0.3,2.1-0.6,4.3-0.8,6.4c-0.2,2.1-0.5,4.2-0.7,6.3
					c-0.4,4.2-0.9,8.3-1.3,12.4c-0.4,4.1-0.7,8.2-1,12.2c-0.4,4-0.6,8-0.8,11.9c-0.2,3.9-0.5,7.8-0.7,11.7
					c-0.1,3.8-0.3,7.7-0.4,11.4c-0.1,1.9-0.1,3.8-0.2,5.6c-0.1,1.9,0,3.7-0.1,5.6c-0.1,7.4-0.2,14.6,0.1,21.6c0,1.7,0.1,3.3,0.1,5
					c0,0.4,0,0.8,0,1.2c0.3,0.1,0.7,0.1,1.1,0.2c1.5,0.2,3,0.4,4.4,0.6c13.4,1.8,26.1,3.5,38.2,5.1c96.7,13,153.4,21.6,186,27.2
					C639.3,689.5,649,691.5,655.4,693z M656.6,693.3c20.3,4.9,2.2,4.6,2.2,4.6l-225.7-27.4l-28.2-3.4l-18.2-2.2l-1.8-0.2l-0.9-0.1
					l-0.4-0.1c-0.2,0-0.2-0.1-0.2-0.3l-0.1-3.6l-0.2-7.1l-0.2-7.5c-0.4-19.1-0.2-38.3,1-57.4c1.2-19.1,3-38.1,5.5-57
					c2.6-18.9,5.7-37.8,9.5-56.5c7.5-37.4,17.3-74.3,29.1-110.6c5.9-18.1,12.3-36.1,19.2-53.9c3.5-8.9,7.1-17.7,10.9-26.5l2.9-6.6
					l1.6-3.5l2.8-6.1l0.8-1.6l0.4-0.8c0-0.2,0.2-0.2,0.3-0.1l0.4,0l3.5,0.3l6.1,0.6l7.1,0.7l234,23.3l-3.1,12l-1.9,7.5l-3,12
					c-2,8-3.9,16-5.8,24c-3.8,16-7.4,32.1-10.9,48.2c-6.9,32.2-13.2,64.5-18.8,96.9c-2.7,16.2-5.3,32.4-7.6,48.7
					c-2.2,16.3-4.3,32.6-5.9,48.9c-1.6,16.3-2.8,32.6-3.6,49c-0.6,16.3-0.7,32.6,0.2,48.8C657.7,686.4,657.4,691.7,656.6,693.3z"/>
				<path d="M566.2,337.3c77.9,8.4,64.7,13.7,64.7,13.7l-130.9-14.1C500.1,336.9,488.3,328.9,566.2,337.3z"/>
				<path d="M549.7,389.6c77.9,8.4,64.7,13.7,64.7,13.7l-130.9-14.1C483.6,389.2,471.9,381.2,549.7,389.6z"/>
				<path d="M539.6,453.9c77.9,8.4,64.7,13.7,64.7,13.7l-130.9-14.1C473.4,453.5,461.7,445.5,539.6,453.9z"/>
				<path d="M523.1,506.2c77.9,8.4,64.7,13.7,64.7,13.7L457,505.7C457,505.7,445.3,497.7,523.1,506.2z"/>
				<path d="M521.5,563.5c77.9,8.4,64.7,13.7,64.7,13.7l-130.9-14.1C455.3,563.1,443.6,555.1,521.5,563.5z"/>
				<path d="M519.8,615.8c77.9,8.4,64.7,13.7,64.7,13.7l-130.9-14.1C453.7,615.4,442,607.4,519.8,615.8z"/>
			</g>
		</g>
	</g>
	<g>
		<g id="XMLID_43_">
			<g>
				<path class="st4" d="M285.1,640.4l0,1.3l0,0.1l0,0.2c-0.1,0-0.1,0-0.2,0l-0.1,0h0l-0.6,0.1c-1.9,0.5-3.8,0.9-5.7,1.3
					c-1.9,0.4-3.9,0.8-5.9,1.2c-2,0.4-4,0.7-6.1,1.1c-8.2,1.3-16.8,2.4-25.8,3.2c-17.9,1.7-37.1,2.6-57.5,2.8
					c-24.8,0.2-47.8-0.4-68.8-2.5c-10.5-1.1-20.5-2.4-29.9-4.4c-1.2-0.2-2.3-0.5-3.5-0.8c-1.1-0.3-2.3-0.5-3.4-0.9
					c-1.1-0.3-2.2-0.6-3.3-0.9c-0.8-0.3-1.5-0.5-2.3-0.8l-0.4-0.1c-0.1-0.1,0-0.1-0.1-0.3V641l0-0.1v-0.2l0-1.7c0-1.1,0-2.3,0-3.4
					c0.2-36.2,2.9-66.2,6.5-90.8c3.6-24.6,7.9-44,12-59.2c4.1-15.2,7.7-26.2,10.4-34.3c1.5-4.2,2.6-7.7,3.6-10.4
					c6.1,0.3,12.1,0.2,17.9,0c7.7-0.2,15.1-0.7,22.4-1.1c6.3-0.4,12.5-0.9,18.6-1.3l-35.1,104.9l52.1,60l53.5-64.5l-45.5-102.3
					c12.3-0.9,24.1-1.6,35.3-2.2c1.4-0.1,2.8-0.2,4.2-0.3c0.2,0.3,0.3,0.5,0.5,0.8c0.5,0.8,1.1,1.6,1.7,2.5c0.6,1,1.3,2,2,3.2
					c0.8,1.1,1.6,2.4,2.5,3.8c0.9,1.4,1.8,3,2.8,4.6c1,1.7,2.2,3.4,3.3,5.5c1.1,2,2.4,4.1,3.6,6.4c5,9.3,10.6,21.4,16.3,37.4
					c1.5,4,2.8,8.2,4.2,12.7c1.3,4.5,2.8,9.2,4.1,14.3c2.7,10,5.2,21.1,7.5,33.4c2.3,12.3,4.4,25.7,6,40.3c0.8,7.3,1.5,15,2.1,22.9
					c0.3,4,0.5,8,0.7,12.1C285,636.2,285.1,638.3,285.1,640.4z"/>
				<path class="st5" d="M218.2,537c-0.7,0.9-1.5,1.7-2.2,2.6c-1.7,2-3.4,3.9-5.1,6c-3.5,4.1-7.1,8.3-10.8,12.8
					c-6.3,7.5-13.1,15.6-20.4,24.3c-6.8-7.7-13-14.8-18.9-21.5c-3.7-4.2-7.3-8.3-10.8-12.2c-1.8-2-3.4-3.9-5.1-5.7
					c-0.8-0.9-1.6-1.8-2.4-2.7l-0.3-0.2l0-0.3c0-0.1,0.2-0.7,0.3-1.1c0.2-0.5,0.3-1,0.5-1.5c0.6-2,1.3-4,1.9-6
					c1.2-3.9,2.3-7.6,3.4-11.2c2.2-7.2,4.2-13.8,5.9-20c3.5-12.2,6.3-22.4,8.4-30.8c4.1-16.3,5.8-26,6.2-31.7
					c4.5-0.4,8.9-0.7,13.2-1c0.9,5.6,3.5,15.2,9.3,31.4c2.9,8.2,6.6,18,11.3,29.9c2.3,5.9,4.9,12.4,7.8,19.3c1.4,3.5,3,7.1,4.5,10.9
					c0.8,1.9,1.6,3.8,2.4,5.8c0.2,0.5,0.4,1,0.6,1.5l0.3,0.7l0,0.1l0.1,0.3L218.2,537z"/>
				<path d="M211.9,303.2c0.6-0.1,1.4-0.1,2.2,0.2c0.4,0.1,0.8,0.3,1.3,0.6c0.4,0.3,0.8,0.7,1.2,1.3c0.7,1.1,1.4,2.8,1.1,5.3
					c-0.2,2.4-1.3,5.7-4.4,8.6c-3.1,2.9-8.5,5.3-15.1,4c-1.6-0.3-3.3-0.9-4.9-1.7c-1.6-0.8-3.2-2-4.6-3.4c-2.9-2.7-5-6.8-5.6-11.4
					c-0.5-4.6,0.6-9.1,2.7-12.4c1-1.7,2.3-3.2,3.7-4.4c1.3-1.2,2.8-2.2,4.3-2.9c6.1-2.8,11.9-1.8,15.6,0.3c3.7,2.1,5.6,5,6.4,7.2
					c0.8,2.3,0.6,4.2,0.2,5.4c-0.3,0.6-0.6,1.1-0.9,1.5c-0.4,0.4-0.7,0.7-1.1,0.9C213.2,302.9,212.5,303.1,211.9,303.2
					c-1.2,0.2-2.1,0-2.1,0c-0.3-1.8-1.2-3.3-2.7-4.4c-1.4-1.1-3.2-1.5-5-1.3c-1.8,0.2-3.4,1.2-4.4,2.6c-1.1,1.4-1.6,3.2-1.4,5
					c0.2,1.8,1.1,3.4,2.5,4.5c1.4,1.1,3.2,1.6,4.9,1.4c1.8-0.2,3.4-1.1,4.5-2.4c1.1-1.4,1.7-3.1,1.5-4.9
					C209.9,303.7,210.7,303.3,211.9,303.2z"/>
				<path class="st2" d="M211.9,303.2c-1.2,0.1-2.1,0.5-2.1,0.5c0.2,1.8-0.4,3.5-1.5,4.9c-1.1,1.4-2.7,2.2-4.5,2.4
					c-1.8,0.2-3.5-0.3-4.9-1.4c-1.4-1.1-2.3-2.7-2.5-4.5c-0.2-1.8,0.3-3.5,1.4-5c1.1-1.4,2.7-2.3,4.4-2.6c1.8-0.2,3.5,0.2,5,1.3
					c1.4,1.1,2.4,2.6,2.7,4.4C209.8,303.2,210.7,303.3,211.9,303.2z"/>
				<path class="st2" d="M182.1,398.3c-0.5,0.1-1,0-1.6,0c-1,0.1-2.2-0.1-3.3-0.2l-3.4-0.3l-3.4-0.7l-1.7-0.3l-1.7-0.5l-3.3-1
					c-4.3-1.7-8.6-3.7-12.6-6.2c-4-2.6-7.8-5.5-11.4-8.7c-0.9-0.8-1.9-1.7-2.8-2.6l50.9-6.9l30.9-4.2l2.5-0.3l-1.3,2.1
					c-5.1,8.3-11.3,16.1-18.5,21.8c-1.8,1.5-3.7,2.7-5.6,3.8c-1,0.5-1.9,1.1-3,1.5l-1.5,0.7l-1.5,0.5c-1,0.4-2,0.6-3.1,0.9
					c-1,0.2-2,0.4-3.1,0.5L182.1,398.3z"/>
				<path d="M154.4,310.2c0.6-0.1,1.3-0.1,2.2,0.2c0.4,0.1,0.8,0.4,1.3,0.7c0.4,0.3,0.8,0.7,1.2,1.3c0.7,1.1,1.4,2.9,1.1,5.3
					c-0.2,2.4-1.3,5.6-4.4,8.6c-3.1,2.9-8.5,5.3-15.1,4c-1.6-0.3-3.3-0.9-4.9-1.7c-1.6-0.8-3.2-1.9-4.6-3.3c-2.9-2.7-5-6.8-5.6-11.4
					c-0.5-4.6,0.6-9.1,2.7-12.4c1-1.7,2.3-3.2,3.7-4.4c1.4-1.2,2.8-2.1,4.3-2.9c6.1-2.8,11.9-1.8,15.6,0.3c3.7,2.1,5.6,5,6.4,7.2
					c0.8,2.3,0.6,4.2,0.2,5.4c-0.3,0.6-0.6,1.1-0.9,1.5c-0.4,0.4-0.7,0.7-1.1,0.9C155.7,309.9,155,310.1,154.4,310.2
					c-1.2,0.2-2.1,0-2.1,0c-0.3-1.8-1.2-3.3-2.6-4.4c-1.4-1.1-3.2-1.5-5-1.3c-1.8,0.2-3.4,1.2-4.4,2.6c-1.1,1.4-1.6,3.2-1.4,5
					c0.2,1.8,1.1,3.4,2.5,4.5c1.4,1.1,3.2,1.6,4.9,1.4c1.8-0.2,3.4-1.1,4.5-2.4c1.1-1.4,1.7-3.1,1.5-4.9
					C152.3,310.7,153.2,310.3,154.4,310.2z"/>
				<path class="st2" d="M154.4,310.2c-1.2,0.1-2.1,0.5-2.1,0.5c0.2,1.8-0.4,3.5-1.5,4.9c-1.1,1.4-2.7,2.2-4.5,2.4
					c-1.8,0.2-3.5-0.3-4.9-1.4c-1.4-1.1-2.3-2.7-2.5-4.5c-0.2-1.8,0.3-3.5,1.4-5c1.1-1.4,2.7-2.3,4.4-2.6c1.8-0.2,3.5,0.2,5,1.3
					c1.4,1.1,2.4,2.6,2.6,4.4C152.3,310.2,153.2,310.4,154.4,310.2z"/>
				<path d="M241.9,350.7c0.4,0,1-0.1,1.3-0.1l-0.6,1.3c-0.4,0.9-0.7,1.8-1.1,2.7c-1.5,3.5-2.9,7.2-4.9,11c-1,2-2,3.9-3.1,5.9
					c-0.3,0.5-0.6,1-0.8,1.5l-0.5,0.8c-0.3,0.5-0.6,1-0.9,1.6c-5.1,8.3-10.8,15.5-17.3,21.4c-6.4,5.9-13.7,10.3-21.3,12.5
					c-3.8,1.1-7.6,1.5-11.2,1.6c-0.9,0-1.8-0.1-2.7-0.1c-0.8-0.1-1.7-0.2-2.5-0.3c-1.6-0.2-3.2-0.4-4.7-0.7c-3-0.8-5.9-1.3-8.5-2.4
					c-1.3-0.5-2.6-0.9-3.8-1.4c-1.2-0.6-2.3-1.1-3.5-1.7c-8.9-4.5-14.7-9.8-18.8-14.2c-4.1-4.4-6.5-8.2-8-11.1
					c0-0.1-0.1-0.1-0.1-0.2l-2.8,0.4c0,0-4.3-1.7,0.9-5.1c-0.6-2.4-0.1-3.5,0.6-4c0.5-0.4,1-0.5,1.5-0.5s0.8,0.2,0.8,0.2
					c0.5,0.7,1.1,1.3,1.6,2c0.1,0,0.2-0.1,0.3-0.1c6-2.5,16.6-5.6,34.9-9.4c9.1-1.9,20.2-3.9,33.6-6.1c3.3-0.5,6.8-1.1,10.5-1.7
					c1.8-0.3,3.7-0.6,5.6-0.8c2.8-0.4,5.6-0.8,8.5-1.2c2-0.3,3.9-0.6,5.9-0.8c1-0.2,1.9-0.2,2.8-0.3c0.9-0.1,1.8-0.1,2.7-0.2
					C238.2,350.9,240.1,350.8,241.9,350.7z M219.9,368.4l1.3-2.1l-2.5,0.3l-30.9,4.2l-50.9,6.9c0.9,0.9,1.8,1.8,2.8,2.6
					c3.6,3.2,7.4,6.2,11.4,8.7c4,2.6,8.3,4.5,12.6,6.2l3.3,1l1.7,0.5l1.7,0.3l3.4,0.7l3.4,0.3c1.1,0.1,2.3,0.3,3.3,0.2
					c0.5,0,1.1,0,1.6,0l1.6-0.1c1.1-0.1,2.1-0.4,3.1-0.5c1-0.3,2.1-0.5,3.1-0.9l1.5-0.5l1.5-0.7c1-0.4,2-1,3-1.5
					c1.9-1.1,3.8-2.4,5.6-3.8C208.7,384.5,214.8,376.7,219.9,368.4z"/>
				<path class="st2" d="M126.1,379.2l2.8-0.4c0,0.1,0.1,0.1,0.1,0.2c1.5,2.9,3.9,6.7,8,11.1c4.1,4.4,9.9,9.7,18.8,14.2
					c1.1,0.5,2.3,1.1,3.5,1.7c1.2,0.5,2.5,1,3.8,1.4c2.6,1.1,5.5,1.7,8.5,2.4c1.5,0.3,3.1,0.5,4.7,0.7c0.8,0.1,1.6,0.2,2.5,0.3
					c0.9,0,1.8,0.1,2.7,0.1c3.6,0,7.5-0.5,11.2-1.6c7.6-2.2,14.9-6.6,21.3-12.5c6.4-5.9,12.2-13.1,17.3-21.4c0.3-0.5,0.6-1,0.9-1.6
					l0.5-0.8c0.3-0.4,0.6-1,0.8-1.5c1.1-2,2.2-3.9,3.1-5.9c2-3.9,3.4-7.5,4.9-11c0.4-0.9,0.7-1.8,1.1-2.7l0.6-1.3
					c-0.4,0-0.9,0-1.3,0.1c-1.9,0.1-3.7,0.3-5.5,0.4c-0.9,0.1-1.8,0.1-2.7,0.2c-0.9,0.1-1.8,0.1-2.8,0.3c-2,0.3-4,0.6-5.9,0.8
					c-2.9,0.4-5.7,0.8-8.5,1.2c-1.9,0.3-3.7,0.6-5.6,0.8c-3.6,0.6-7.1,1.1-10.5,1.7c-13.4,2.2-24.4,4.2-33.6,6.1
					c-18.3,3.7-28.9,6.9-34.9,9.4c-0.1,0-0.2,0.1-0.3,0.1c-0.5-0.7-1.1-1.3-1.6-2c0,0-0.4-0.1-0.8-0.2s-1,0.1-1.5,0.5
					c-0.7,0.4-1.1,1.6-0.6,4C121.9,377.5,126.1,379.2,126.1,379.2z M264,370.5c0.3,5.7,0.2,11.4-0.5,16.9
					c-0.7,5.5-2.1,10.7-4.3,15.4c-2.2,4.6-5.3,8.6-9.2,11.7c-3.9,3-8.7,5.1-13.8,6.4c-1.3,0.3-2.6,0.6-3.9,0.8
					c-1.3,0.2-2.7,0.4-4.1,0.6c-1.4,0.1-2.8,0.2-4.1,0.3s-3,0.1-4.5,0.2c-6.1,0.2-12.1,0.5-18.2,0.9c-12.1,0.6-24.2,1.5-36.3,2.3
					c-12.1,0.8-24.1,1.6-36,2.1c-11.9,0.4-23.8,0.7-35-0.8c-5.6-0.8-10.9-2.1-15.2-4.3c-4.4-2.2-7.2-5.3-9-9.5
					c-1.7-4.2-2-9.5-1.7-14.9c0.3-5.5,1.4-11,3-16.5c3.1-11,7.8-21.8,13.1-32.4c5.3-10.6,11.3-20.9,17.5-31.1
					c6.2-10.2,12.8-20.3,19.3-30.6c3.2-5.2,6.5-10.3,9.6-16c0.8-1.5,1.5-2.9,2.2-4.7c0.2-0.4,0.4-0.9,0.5-1.4
					c0.2-0.5,0.3-1.1,0.5-1.6l0.1-0.7c21.3-6.2,42.3-12.8,63.3-20c7-2.4,14-4.9,20.9-7.5c0.1,0.3,0.2,0.5,0.2,0.5
					c11,21.2,21,43,29.2,65.4c4.1,11.2,7.7,22.5,10.6,33.9C261.2,347.5,263.4,359.1,264,370.5z M217.7,310.6
					c0.2-2.5-0.4-4.2-1.1-5.3c-0.4-0.6-0.8-1-1.2-1.3c-0.4-0.3-0.9-0.5-1.3-0.6c-0.8-0.3-1.5-0.3-2.2-0.2c0.6-0.1,1.3-0.3,2-0.7
					c0.4-0.2,0.7-0.5,1.1-0.9c0.3-0.4,0.6-0.9,0.9-1.5c0.4-1.2,0.6-3.1-0.2-5.4c-0.8-2.3-2.6-5.2-6.4-7.2c-3.7-2-9.5-3.1-15.6-0.3
					c-1.5,0.7-3,1.7-4.3,2.9c-1.4,1.2-2.6,2.7-3.7,4.4c-2.1,3.4-3.2,7.8-2.7,12.4c0.6,4.6,2.7,8.7,5.6,11.4c1.4,1.4,3,2.5,4.6,3.4
					c1.6,0.9,3.3,1.4,4.9,1.7c6.6,1.3,12-1.1,15.1-4C216.4,316.3,217.5,313.1,217.7,310.6z M160.2,317.7c0.2-2.5-0.4-4.2-1.1-5.3
					c-0.4-0.6-0.8-1-1.2-1.3c-0.4-0.3-0.8-0.5-1.3-0.7c-0.8-0.3-1.5-0.3-2.2-0.2c0.6-0.1,1.3-0.3,2-0.7c0.4-0.2,0.7-0.5,1.1-0.9
					c0.3-0.4,0.6-0.9,0.9-1.5c0.4-1.3,0.6-3.1-0.2-5.4c-0.8-2.3-2.6-5.2-6.4-7.2c-3.7-2-9.5-3.1-15.6-0.3c-1.5,0.7-3,1.6-4.3,2.9
					c-1.4,1.2-2.6,2.7-3.7,4.4c-2.1,3.3-3.2,7.8-2.7,12.4c0.6,4.6,2.7,8.7,5.6,11.4c1.4,1.4,3,2.5,4.6,3.3c1.6,0.9,3.3,1.4,4.9,1.7
					c6.6,1.3,12-1.1,15.1-4C158.9,323.3,160,320.1,160.2,317.7z"/>
				<path class="st0" d="M270.2,196.6c0.2,0.1,0.2,0.1,0.2,0.1c0.1,0.1,0.2,0.1,0.2,0.2c0,0.1-0.1,0.2-0.1,0.2l-0.5,0.5
					c-0.3,0.3-0.7,0.6-1,0.8c-0.7,0.6-1.5,1.1-2.3,1.7c-1.6,1.1-3.4,2.2-5.2,3.2c-7.4,4.1-15.5,7.8-24,11.3
					c-16.9,7-35,13.4-53.9,19.7c-18.9,6.3-38.7,12.4-59.2,18.3c-0.3,0-0.6,0.1-0.8,0.1l-0.9,0.2c-0.3,0.1-0.7,0.2-0.8,0.2l-0.2,0.1
					h0l-0.4,0.1l-0.4,0.1c1.3,5.1-2.9-9.4,0.8,7.3c-0.2,0-0.4-0.1-0.5-0.1c0,0,0,0.1,0,0.1c0,0-0.1,0.3-0.1,0.4
					c-0.2,0.7-0.7,1.8-1.2,2.8c-2.1,4.2-4.8,8.7-7.5,13c-5.6,8.8-11,17.4-16.4,25.9c-10.7,17.1-20.6,34-28.4,51.4
					c-3.7,8.3-6.9,16.7-9.2,25.4c-0.6-3.4-1.3-7.2-2.2-11.5c-3-14.4-7.8-34-15.1-60.2c-0.9-3.3-1.9-6.7-2.8-10.2
					c-0.5-1.8-0.9-3.5-1.4-5.2c-0.5-1.8-0.7-3.6-1.1-5.4c-0.5-3.7-0.9-7.5-0.7-11.3c0-1.9,0.3-3.9,0.5-5.8c0.4-1.9,0.7-3.9,1.3-5.8
					c1.1-3.9,2.7-7.8,4.9-11.5c2.2-3.7,4.9-7.2,8.1-10.6c6.3-6.7,14.5-12.4,23.7-17.4c18.5-9.9,41.2-16.9,66.7-22
					c25.5-5.1,54-8.4,85.2-9.6c1.9-0.1,3.9-0.1,5.8-0.2l1.4,0h1.4c1,0,2,0,2.9,0c4,0.1,7.9,0.2,12,0.4c4,0.2,8,0.6,11.9,1.1
					c2,0.3,3.9,0.6,5.7,1c0.9,0.2,1.8,0.4,2.6,0.7C269.4,196.3,269.9,196.4,270.2,196.6z"/>
				<path d="M218.3,236.3c-7,2.6-13.9,5-20.9,7.5c-21,7.2-42,13.8-63.3,20l-0.1,0.7c-0.2,0.5-0.3,1.1-0.5,1.6
					c-0.2,0.5-0.3,0.9-0.5,1.4c-0.7,1.7-1.5,3.2-2.2,4.7c-3.1,5.8-6.3,10.9-9.6,16c-6.5,10.3-13.1,20.3-19.3,30.6
					c-6.2,10.2-12.2,20.5-17.5,31.1c-5.3,10.6-10,21.4-13.1,32.4c-1.5,5.5-2.6,11-3,16.5c-0.4,5.4,0,10.7,1.7,14.9
					c1.8,4.1,4.6,7.3,9,9.5c4.3,2.2,9.7,3.5,15.2,4.3c11.2,1.5,23.1,1.3,35,0.8c11.9-0.5,24-1.3,36-2.1c12.1-0.8,24.2-1.6,36.3-2.3
					c6.1-0.3,12.1-0.6,18.2-0.9c1.5-0.1,3.1-0.1,4.5-0.2s2.8-0.2,4.1-0.3c1.3-0.2,2.7-0.3,4.1-0.6c1.3-0.3,2.6-0.5,3.9-0.8
					c5.1-1.3,9.9-3.4,13.8-6.4c3.9-3.1,7-7,9.2-11.7c2.2-4.7,3.6-9.9,4.3-15.4c0.7-5.5,0.8-11.1,0.5-16.9c-0.6-11.4-2.8-23-5.7-34.4
					c-2.9-11.4-6.5-22.7-10.6-33.9c-8.2-22.3-18.2-44.2-29.2-65.4C218.5,236.8,218.4,236.6,218.3,236.3z M142.3,540.2l0,0.3l0.3,0.2
					c0.8,0.9,1.6,1.8,2.4,2.7c1.7,1.9,3.4,3.8,5.1,5.7c3.5,3.9,7.1,8,10.8,12.2c5.8,6.6,12.1,13.8,18.9,21.5
					c7.3-8.7,14.1-16.8,20.4-24.3c3.7-4.4,7.3-8.7,10.8-12.8c1.7-2,3.4-4,5.1-6c0.8-0.9,1.5-1.8,2.2-2.6l0.3-0.2l-0.1-0.3l0-0.1
					l-0.3-0.7c-0.2-0.5-0.4-1-0.6-1.5c-0.8-2-1.6-3.9-2.4-5.8c-1.5-3.8-3.1-7.4-4.5-10.9c-2.9-7-5.5-13.4-7.8-19.3
					c-4.7-11.9-8.4-21.7-11.3-29.9c-5.8-16.3-8.4-25.9-9.3-31.4c-4.3,0.3-8.7,0.6-13.2,1c-0.4,5.7-2.1,15.4-6.2,31.7
					c-2.1,8.4-4.9,18.5-8.4,30.8c-1.8,6.1-3.7,12.7-5.9,20c-1.1,3.6-2.3,7.3-3.4,11.2c-0.6,1.9-1.2,3.9-1.9,6
					c-0.1,0.5-0.3,1-0.5,1.5C142.5,539.5,142.3,540.1,142.3,540.2z M121.5,253.4L121.5,253.4C121.5,253.3,121.5,253.3,121.5,253.4
					l0.2-0.2c0.1-0.1,0.6-0.2,0.8-0.2l0.9-0.2c0.3,0,0.6-0.1,0.8-0.1c20.5-5.8,40.3-12,59.2-18.3c18.9-6.3,37-12.7,53.9-19.7
					c8.4-3.5,16.6-7.2,24-11.3c1.8-1,3.6-2.1,5.2-3.2c0.8-0.6,1.6-1.1,2.3-1.7c0.4-0.3,0.7-0.6,1-0.8l0.5-0.5
					c0.1-0.1,0.1-0.1,0.1-0.2c0-0.1-0.1-0.2-0.2-0.2c0,0,0,0-0.2-0.1c-0.3-0.1-0.8-0.3-1.2-0.4c-0.8-0.3-1.7-0.5-2.6-0.7
					c-1.8-0.4-3.7-0.7-5.7-1c-3.9-0.5-7.9-0.9-11.9-1.1c-4-0.2-8-0.3-12-0.4c-1,0-2,0-2.9,0h-1.4l-1.4,0c-2,0.1-3.9,0.1-5.8,0.2
					c-31.1,1.2-59.6,4.6-85.2,9.6c-25.5,5.1-48.2,12.1-66.7,22c-9.2,5-17.4,10.7-23.7,17.4c-3.2,3.3-5.9,6.9-8.1,10.6
					c-2.2,3.7-3.8,7.6-4.9,11.5c-0.6,1.9-0.9,3.9-1.3,5.8c-0.2,2-0.5,3.9-0.5,5.8c-0.2,3.9,0.2,7.7,0.7,11.3
					c0.4,1.8,0.6,3.6,1.1,5.4c0.5,1.8,0.8,3.4,1.4,5.2c1,3.5,1.9,6.9,2.8,10.2c7.3,26.3,12.1,45.8,15.1,60.2
					c0.9,4.3,1.6,8.1,2.2,11.5c2.3-8.7,5.5-17.1,9.2-25.4c7.8-17.4,17.7-34.3,28.4-51.4c5.4-8.5,10.8-17.1,16.4-25.9
					c2.7-4.3,5.4-8.8,7.5-13c0.5-1,0.9-2.1,1.2-2.8c0-0.1,0.1-0.4,0.1-0.4c0,0,0-0.1,0-0.1c0.1,0,0.3,0.1,0.5,0.1
					c-3.7-16.7,0.5-2.1-0.8-7.3l0.4-0.1L121.5,253.4L121.5,253.4C121.5,253.3,121.5,253.3,121.5,253.4z M43.7,695.9
					c0.6,0.6,1.2,1.1,1.5,1.5c0.4,0.4,0.6,0.8,0.6,1.1c0,0.3-0.2,0.6-0.5,0.8c-0.1,0.1-0.4,0.2-0.5,0.3c-0.1,0.1-0.3,0.1-0.5,0.2
					c-0.6,0.2-1.3,0.3-1.3,0.3c-3.8-1.1-7.1-2.7-10.2-4.7l-2.3-1.5c-0.8-0.5-1.4-1.1-2.1-1.7l-2.1-1.7c-0.7-0.6-1.3-1.2-1.9-1.9
					c-2.6-2.4-4.6-5.2-6.8-8l-2.7-4.4c-0.4-0.7-0.9-1.4-1.3-2.2l-1.1-2.3C6.5,659.8,3.6,646.8,2,634c-0.3-3.2-0.7-6.4-0.9-9.6
					l-0.3-9.6c0-1.6-0.1-3.2-0.1-4.8l0.2-5l0.1-2.5l0.3-2.5l0.6-4.9c1.9-13,5.8-25.4,10.7-37.3c4.9-11.8,10.8-23.1,17.4-33.9
					c6.6-10.8,13.7-21.2,21.3-31.3c14.1-18.5,29.3-36,45.8-52.4c-1.7-0.1-3.3-0.3-5-0.6c-1.1-0.2-2.1-0.3-3.2-0.5
					c-1.1-0.2-2.1-0.4-3.2-0.6c-4.3-1-8.7-2.2-13.1-4.6c-4.3-2.3-8.6-5.7-11.5-10.1c-3-4.4-4.7-9.6-5.4-14.5
					c-0.2-1.2-0.2-2.5-0.4-3.7c0-0.6-0.1-1.2-0.1-1.8v-1.8c0-1.2,0-2.4,0.1-3.6c0.1-1.2,0.2-2.4,0.3-3.5c0-0.2,0-0.4,0.1-0.7
					c-0.8-3.9-1.7-7.9-2.7-11.9c-1.4-5.8-3-11.6-4.6-17.4c-3.2-11.6-6.6-23.1-10-34.7l-5.3-17.3l-2.7-8.7l-1.3-4.3l-0.3-1.1
					l-0.3-1.2l-0.7-2.4c-1.7-6.3-2.7-13-2.6-19.7c0.1-6.8,1.3-13.6,3.7-20c2.4-6.4,5.9-12.3,10.1-17.5c4.2-5.2,9-9.7,14.1-13.6
					c10.3-7.9,21.6-13.7,33.1-18.5c11.5-4.8,23.4-8.5,35.3-11.6c11.9-3.1,24-5.5,36.1-7.5c12.1-2,24.2-3.5,36.4-4.7
					c12.2-1.2,24.3-2,36.6-2.4l2.3-0.1h2.4l4.6,0.1c3.1,0.1,6.2,0.1,9.3,0.3c6.2,0.3,12.4,0.8,19,2.1c1.6,0.3,3.3,0.7,5.1,1.3
					c1.3,0.4,4.8,1.6,7,3.4c2.3,1.7,4,4.1,4.6,6.8c0.6,2.7,0,5.5-1.5,8c-0.7,1.3-1.6,2.5-2.7,3.5c-0.5,0.6-1,1.1-1.4,1.4
					c-0.4,0.3-0.7,0.6-1.1,0.9c-1.4,1.2-2.8,2.2-4.2,3.2c-2.8,1.9-5.6,3.5-8.3,5c-11.2,6-22.5,10.6-33.8,15.1
					c-3.2,1.3-6.5,2.5-9.7,3.7c0.3,0.4,0.6,0.8,0.9,1.3c3.3,4.7,8.3,12.5,15.2,25.5c3.4,6.5,7.3,14.3,11.6,23.7
					c4.2,9.4,8.8,20.4,13.2,33.4c4.4,13,8.8,28,10.9,45.8c0.5,4.4,0.8,9,0.8,13.8c0,4.8-0.3,9.8-1.2,14.8
					c-0.9,5.1-2.4,10.3-4.9,15.4c-2.5,5.1-6.1,9.9-10.7,13.9c-4.6,4-10.3,6.9-16.2,8.7c-2,0.6-4,1.1-6,1.6c0.7,0.4,1.4,0.8,2.3,1.3
					c2.7,1.5,6.1,3.8,10.8,6.3c4.7,2.4,10.8,5.3,18.4,6.2c3.8,0.4,7.9,0.1,12.2-1.1c4.3-1.3,8.7-3.7,13.1-7.2
					c4.4-3.6,9-8.4,13.7-13.8c4.7-5.5,9.6-11.6,14.8-18.4c10.3-13.6,18.6-25.8,25.9-36.1c7.2-10.3,13.2-19,18.2-26
					c10.1-14.2,16.7-22.2,21.1-26.5c4.4-4.3,6.6-4.8,7.8-4.3c1.1,0.5,1.2,2.2,1.2,2.2c-9.7,17-19.8,33.7-30.2,50.3
					c-10.5,16.5-21.4,32.8-33.2,48.6c-6,7.9-12.2,15.6-19.1,23c-3.5,3.7-7.1,7.3-11.4,10.6c-4.2,3.4-9.1,6.3-14.5,8.2
					c-5.4,2-11.3,2.7-17.1,2.3c-5.8-0.4-11.3-2.2-16.3-4.5c-2.5-1.2-4.9-2.6-7.1-4c-0.1-0.1-0.2-0.2-0.3-0.2
					c0.1,0.1,0.2,0.3,0.3,0.4l2.1,3.1c5.4,8.2,10.2,16.7,14.3,25.5c8.4,17.5,14.6,35.9,19.6,54.4c5,18.6,8.6,37.4,11.3,56.3
					c1.3,9.5,2.4,19,3.3,28.5c0.4,4.8,0.8,9.5,1.1,14.3l0.4,7.2l0.2,5.1l0.1,7c-2.1,0.8-4.3,1.5-6.4,2.2c-1.1,0.4-2.2,0.7-3.3,1
					l-2,0.5c-2.3,0.6-4.7,1.1-7,1.6c-2.3,0.5-4.7,0.9-7,1.4l-7,1.2c-5,0.8-10.1,1.5-15.1,2c0.1,10.8-5.2,38.2-27.9,105.4
					c-3.9,11.7-7.5,22-10.9,31.3c-1.7,4.6-3.3,9-4.8,13c-0.2,0.5-0.4,1-0.6,1.5l-0.3,0.7c-0.1,0.2-0.1,0.4-0.2,0.5l-0.3,0.4
					c-0.2,0.3-0.4,0.6-0.6,1c0.2,0.1,0.5,0.2,0.9,0.3c0.2,0.1,0.4,0.1,0.6,0.2c0,0,0.3,0,0.5,0l0.7,0c0.5,0,0.9,0.1,1.4,0.1
					c3.7,0.2,7,0.5,10.1,0.8c6.1,0.6,11.2,1.2,15.3,1.8c8.3,1.3,12.9,2.7,15.4,4c4.9,2.6,1.4,4.9,1.4,4.9H188l0-0.1L243.7,662
					c-2.1,0.2-4.2,0.4-6.3,0.6c-18.7,1.7-37.4,2.4-56.2,2.5c-18.4,0.1-36.9-0.2-55.5-1.6c6.8,9.7,19,35.4,40.7,99.5
					c3.9,11.7,7.3,22.1,10.3,31.5c3.8,12.2,7.1,22.9,10,32.3c-3.9-0.1-7.7-0.2-11.4-0.3c-1.8-0.1-3.5-0.1-5.2-0.2l-0.9-0.1l-0.7,0
					c-0.5,0-0.9-0.1-1.4-0.1c-3.7-0.2-7-0.5-10.1-0.8c-6.2-0.6-11.2-1.2-15.3-1.8c-8.3-1.3-12.9-2.7-15.3-4c-5-2.6-1.4-4.9-1.4-4.9
					h44.7L118.6,663c-7.2-0.6-14.5-1.5-21.7-2.6c-2.3-0.4-4.7-0.7-7-1.2c-2.4-0.4-4.7-0.9-7.1-1.4c-4.7-1-9.4-2.2-14.2-3.8l-0.4-0.2
					c-0.1,0-0.3-0.1-0.6-0.2l-1.5-0.6c-1-0.4-2-0.7-3-1.3c-1-0.5-2-1-3-1.5l-0.7-0.4l-0.4-0.2c-0.1-0.1-0.3-0.1-0.2-0.3l-0.1-1.6
					c-0.2-2.2-0.1-4.5-0.1-6.7l0.1-3.6l0.3-14.1c0-4.7,0.4-9.4,0.6-14.1l0.8-14c0.4-4.7,0.9-9.4,1.3-14l0.7-7l0.4-3.5l0.5-3.5
					l1.9-14l0.5-3.5l0.6-3.5l1.2-7c1.5-9.3,3.7-18.4,5.7-27.6l3.5-13.7c1.2-4.6,2.7-9.1,4-13.6c2.3-7.1,4.7-14.2,7.4-21.2
					c-3.7,5-8.2,10.9-13.6,18.1c-6.5,8.9-14.4,19.6-23.2,32.8c-4.4,6.6-8.9,14-13.5,22.1c-4.5,8.1-9.1,17-13.2,26.9
					c-4.1,9.9-7,19.3-8.9,28.1c-0.4,2.2-0.9,4.4-1.2,6.5c-0.3,2.1-0.6,4.2-0.8,6.3c-0.1,2-0.2,4.1-0.4,6c-0.1,2,0,4,0,6
					c0,15.7,1.5,28.6,4.1,38.9c2.6,10.3,6.2,17.9,9.8,23.6c3.6,5.7,7.1,9.4,9.9,12C40.3,693.1,42.4,694.7,43.7,695.9z M285.2,641.7
					l0-1.3c-0.1-2.1-0.2-4.2-0.3-6.2c-0.2-4.1-0.5-8.2-0.7-12.1c-0.6-7.9-1.3-15.6-2.1-22.9c-1.6-14.7-3.7-28.1-6-40.3
					c-2.3-12.2-4.8-23.4-7.5-33.4c-1.3-5-2.7-9.7-4.1-14.3c-1.5-4.5-2.8-8.7-4.2-12.7c-5.6-16-11.3-28.1-16.3-37.4
					c-1.2-2.3-2.5-4.4-3.6-6.4c-1.1-2-2.2-3.8-3.3-5.5c-1-1.7-2-3.2-2.8-4.6c-0.9-1.4-1.8-2.7-2.5-3.8c-0.8-1.2-1.4-2.2-2-3.2
					c-0.6-0.9-1.2-1.8-1.7-2.5c-0.2-0.3-0.4-0.6-0.5-0.8c-1.4,0.1-2.8,0.2-4.2,0.3c-11.2,0.6-23,1.3-35.3,2.2l45.5,102.3l-53.5,64.5
					l-52.1-60l35.1-104.9c-6.1,0.5-12.2,0.9-18.6,1.3c-7.2,0.5-14.7,0.9-22.4,1.1c-5.8,0.2-11.8,0.2-17.9,0
					c-0.9,2.8-2.1,6.2-3.6,10.4c-2.7,8.1-6.3,19.2-10.4,34.3c-4,15.2-8.3,34.5-12,59.2c-3.6,24.6-6.3,54.6-6.5,90.8
					c0,1.1,0,2.3,0,3.4l0,1.7v0.2l0,0.1v0.1c0,0.1,0,0.2,0.1,0.3l0.4,0.1c0.8,0.3,1.5,0.5,2.3,0.8c1.1,0.4,2.2,0.6,3.3,0.9
					c1.1,0.3,2.2,0.6,3.4,0.9c1.1,0.3,2.3,0.6,3.5,0.8c9.4,2,19.4,3.4,29.9,4.4c21,2.1,44,2.7,68.8,2.5c20.5-0.2,39.7-1.1,57.5-2.8
					c8.9-0.8,17.5-1.9,25.8-3.2c2.1-0.3,4.1-0.7,6.1-1.1c2-0.4,4-0.8,5.9-1.2c2-0.4,3.9-0.9,5.7-1.3l0.6-0.1h0l0.1,0
					c0.1,0,0.1,0,0.2,0L285.2,641.7L285.2,641.7z"/>
			</g>
		</g>
	</g>
	<g id="XMLID_45_">
		<g>
			<path class="st0" d="M458.7,384c0.2,1,0.5,2,0.7,3.1c-0.9-0.2-1.9-0.5-2.9-0.7c-0.4-0.1-0.9-0.2-1.4-0.4
				c-0.5-0.1-0.6-0.2-1.8-0.4c-3.8-0.8-7.9-1.6-12.2-2.5c-6.4-1.3-13.3-2.6-20.8-4.1l29.3-34.7c0.2,2.4,0.8,5.9,1.8,10.9
				c0.8,4,2,8.9,3.6,14.9c0.8,3,1.7,6.3,2.7,9.9c0.1,0.5,0.3,0.9,0.4,1.4l0.2,0.7l0.1,0.4C458.5,382.8,458.6,383.4,458.7,384z"/>
			<path d="M445,336.6c-2.3-1-5.6-2.9-10.6-6.2c-10.3-6.7-27.5-19.3-55.8-41.7c-14.2-11.2-31.1-24.9-51.4-41.6
				c-0.6-0.5-1.3-1.1-1.8-1.4c-0.2-0.2-0.5-0.4-0.7-0.5l-0.8-0.4c-0.5-0.3-1.1-0.5-1.6-0.8c-0.6-0.2-1.1-0.4-1.7-0.6
				c-1.2-0.4-2.4-0.4-3.7-0.4c-1.3,0-2.5,0.2-3.7,0.5c-2.4,0.7-4.7,2.1-6.4,4l-0.3,0.4c-0.1,0.1-0.3,0.3-0.4,0.5l-0.9,1.1
				c-0.6,0.7-1.2,1.5-1.8,2.2c-1.2,1.5-2.4,2.9-3.7,4.4c-0.6,0.7-1.3,1.5-1.9,2.2l-0.9,1.1c-0.3,0.4-0.4,0.6-0.7,0.9
				c-0.8,1.1-1.5,2.3-1.9,3.7c-0.4,1.3-0.7,2.7-0.7,4.1c0,1.4,0.2,2.9,0.6,4.3c0.4,1.4,1.1,2.7,1.9,3.9c0.2,0.3,0.4,0.6,0.7,0.9
				c0.3,0.3,0.5,0.6,0.8,0.8l0.8,0.8l1.2,1c3.3,2.8,6.7,5.6,10.1,8.5c22.5,19,42.3,35.9,59.7,50.8c8.7,7.5,16.7,14.5,24.2,21
				c3.7,3.3,7.3,6.4,10.8,9.5c1.7,1.5,3.4,3,5.1,4.5c0.5,0.4,1,0.8,1.4,1.3c2.1-4.8,6.2-11.3,13.7-20.2
				C433.9,344.1,440.4,338.9,445,336.6z M448.2,334.2c0,0,0.3,0.4,0.6,1c4.9-1,6.3,2.4,6.3,2.4l-2.5,3c0.2,0.3,0.3,0.5,0.3,0.5
				l19.8,57.1l-63.9-10.6L335,325.3l-36.3-30.6l-4.5-3.8l-2.3-1.9l-1.1-1c-0.4-0.3-0.9-0.8-1.4-1.3c-3.8-3.6-6.3-8.4-7.3-13.4
				c-0.5-2.5-0.6-5.1-0.4-7.7c0.3-2.6,1-5.1,2-7.5l0.8-1.8c0.3-0.6,0.7-1.1,1-1.7c0.3-0.6,0.7-1.1,1.1-1.6l0.6-0.8
				c0.2-0.3,0.4-0.5,0.6-0.7l3.8-4.5l3.8-4.5l1.9-2.3c0.9-0.9,1.7-1.9,2.7-2.7c1.9-1.7,4.2-3.1,6.5-4.1c2.4-1,4.9-1.7,7.5-2
				c2.6-0.3,5.2-0.2,7.7,0.3c2.5,0.5,5,1.4,7.3,2.6c2.2,1.2,4.5,3.1,5.8,4.2l4.5,3.8l36.3,30.6L448.2,334.2z M459.4,387
				c-0.2-1.1-0.5-2.1-0.7-3.1c-0.1-0.6-0.3-1.1-0.4-1.7l-0.1-0.4l-0.2-0.7c-0.1-0.5-0.3-0.9-0.4-1.4c-1-3.6-1.9-6.9-2.7-9.9
				c-1.6-6-2.7-10.9-3.6-14.9c-1.1-5-1.6-8.4-1.8-10.9l-29.3,34.7c7.5,1.5,14.4,2.8,20.8,4.1c4.3,0.9,8.4,1.7,12.2,2.5
				c1.2,0.2,1.3,0.3,1.8,0.4c0.5,0.1,0.9,0.2,1.4,0.4C457.5,386.5,458.5,386.8,459.4,387z"/>
			<path class="st0" d="M434.4,330.4c5,3.3,8.4,5.2,10.6,6.2c-4.6,2.3-11.1,7.6-20.4,18.5c-7.5,8.9-11.6,15.4-13.7,20.2
				c-0.5-0.4-0.9-0.8-1.4-1.3c-1.7-1.5-3.4-3-5.1-4.5c-3.5-3-7.1-6.2-10.8-9.5c-7.5-6.5-15.6-13.5-24.2-21
				c-17.3-14.9-37.1-31.8-59.7-50.8c-3.4-2.9-6.8-5.7-10.1-8.5l-1.2-1l-0.8-0.8c-0.3-0.2-0.5-0.6-0.8-0.8c-0.3-0.3-0.5-0.6-0.7-0.9
				c-0.8-1.2-1.5-2.5-1.9-3.9c-0.4-1.4-0.6-2.8-0.6-4.3c0-1.4,0.3-2.8,0.7-4.1c0.4-1.3,1.1-2.5,1.9-3.7c0.2-0.3,0.4-0.5,0.7-0.9
				l0.9-1.1c0.6-0.8,1.3-1.5,1.9-2.2c1.2-1.5,2.5-3,3.7-4.4c0.6-0.7,1.2-1.5,1.8-2.2l0.9-1.1c0.1-0.2,0.3-0.4,0.4-0.5l0.3-0.4
				c1.7-2,4-3.3,6.4-4c1.2-0.3,2.5-0.5,3.7-0.5c1.2,0,2.5,0.1,3.7,0.4c0.6,0.1,1.1,0.4,1.7,0.6c0.5,0.3,1.1,0.5,1.6,0.8l0.8,0.4
				c0.2,0.2,0.5,0.4,0.7,0.5c0.4,0.3,1.1,0.9,1.8,1.4c20.3,16.7,37.2,30.4,51.4,41.6C406.9,311.1,424.1,323.7,434.4,330.4z"/>
		</g>
	</g>
</g>
</svg>
