<?xml version="1.0" encoding="utf-8"?>
<!-- Generator: Adobe Illustrator 24.2.3, SVG Export Plug-In . SVG Version: 6.00 Build 0)  -->
<svg version="1.1" id="yellow_doodle" xmlns="http://www.w3.org/2000/svg" xmlns:xlink="http://www.w3.org/1999/xlink" x="0px"
	 y="0px" viewBox="0 0 2000 2000" style="enable-background:new 0 0 2000 2000;" xml:space="preserve">
<style type="text/css">
	.st0{fill:#FFCE45;}
	.st1{fill:#FFFFFF;}
	.st2{fill:#3351FF;}
	.st3{fill:#FF306A;}
</style>
<g>
	<g>
		<g id="XMLID_9_">
			<g>
				<path class="st0" d="M435.8,758.2c0,0,0-1.2,0.1-3.6c0.2-2.3,0.5-5.8,0.8-10.4c1-9.1,2.9-22.3,7.9-38.6
					c2.6-8.1,5.8-17,10.3-26.2s9.9-18.9,16.7-28.7c13.5-19.4,32.5-39.1,57.1-54.7c24.5-15.7,54.9-27.1,88.2-30.2
					c16.6-1.5,34-1.2,51.3,1.7c4.3,0.8,8.7,1.5,13,2.6c4.3,0.9,8.6,2.2,12.9,3.4c8.5,2.7,17.1,5.7,25.3,9.6l3.1,1.4l3.1,1.5
					c2,1.1,4.1,2.1,6.1,3.2c4,2.3,8,4.5,11.9,7.1c3.9,2.4,7.7,5.2,11.5,7.9c1.9,1.4,3.7,2.9,5.5,4.3l2.8,2.2l2.7,2.3
					c7.2,6,13.8,12.8,20.1,19.8c6.4,7,12,14.7,17.3,22.7c10.5,16,18.8,33.7,24.3,52.2l2,7c0.6,2.4,1.1,4.7,1.7,7.1
					c0.3,1.2,0.6,2.4,0.8,3.5l0.6,3.6c0.4,2.4,0.9,4.8,1.2,7.2c1.4,9.6,2,19.3,2.1,29.1c-0.1,9.7-0.7,19.4-2.1,29.1
					c-0.3,2.4-0.8,4.8-1.2,7.2l-0.6,3.6c-0.2,1.2-0.5,2.4-0.8,3.6c-0.6,2.4-1.1,4.7-1.7,7.1l-2,7c-5.6,18.5-13.8,36.2-24.3,52.2
					c-5.3,8-11,15.7-17.3,22.7c-6.3,7.1-13,13.8-20.1,19.8l-2.7,2.3l-2.8,2.2c-1.9,1.4-3.6,2.9-5.5,4.3c-3.8,2.7-7.5,5.4-11.5,7.9
					c-3.9,2.6-7.9,4.8-11.9,7.1c-2,1.1-4.1,2.1-6.1,3.2l-3.1,1.5l-3.1,1.4c-8.2,3.9-16.8,6.9-25.3,9.6c-4.3,1.2-8.6,2.5-12.9,3.4
					c-4.3,1.1-8.6,1.8-13,2.6c-17.3,2.8-34.6,3.2-51.3,1.7c-33.3-3.2-63.7-14.5-88.2-30.2c-24.7-15.7-43.6-35.3-57.1-54.7
					c-6.8-9.7-12.2-19.4-16.7-28.7c-4.4-9.2-7.6-18.1-10.3-26.2c-5-16.3-6.9-29.6-7.9-38.6c-0.4-4.5-0.6-8-0.8-10.4
					c-0.1-2.4-0.1-3.6-0.1-3.6s-1.1-6.9-2.6-6.9v0C434.7,765.1,435.8,758.2,435.8,758.2z M540.2,747c0.6,1.1,1.1,2.3,1.7,3.3
					c0.6,1,1.2,2,1.9,3c2.6,3.7,5.4,6.8,8.3,9.6c5.8,5.5,11.8,9.9,17.7,13.8c11.9,7.6,23.4,13,34.2,17.3c0.9,0.3,1.7,0.7,2.6,1
					c-7.8,41.8,3.8,34.8,3.8,34.8l9.1-30.4c5.1,1.6,10.1,2.8,14.8,3.9c18.6,4.1,34,4.4,45.9,3c11.9-1.4,20.3-4.5,25.9-7.4
					c5.6-3,8.5-5.8,10.1-7.7c1.5-2,1.7-3.2,1.4-3.8c-0.7-1.3-3.4-0.9-3.4-0.9s-0.4,0.2-1.1,0.6c-0.7,0.4-1.8,0.9-3.2,1.6
					c-2.9,1.3-7.3,3.1-13.2,4.5c-11.9,2.9-30.4,3.4-52.1-1.4c-6.7-1.5-13.7-3.4-20.9-5.9l16.2-54.1c1.4,0.2,2.8,0.4,4.2,0.7
					c1.9,0.3,3.8,0.6,5.7,0.8c1.9,0.3,3.9,0.5,5.8,0.7c7.7,0.9,15.5,1.3,23.1,1.2c7.7-0.2,15.3-0.8,22.9-2.7
					c3.8-0.9,7.7-2.1,11.6-4.2c2-1.1,4-2.3,6-4.2c1.1-1.1,2.2-2.4,3-3.8c0.8-1.4,1.5-3,1.8-4.6c0.7-3.2,0.3-6.6-1.1-9.6
					c-1.4-3.1-2.9-4.8-4.5-6.4c-3.1-3.1-6.2-5.2-9.2-7.1c-6.1-3.6-12-6.1-17.7-8.2c-11.4-4.2-22-6.9-31.4-9.1c-1-0.2-2-0.4-3-0.7
					l8-26.7c0,0-5.5-11.6-21,24c-3-0.6-5.8-1-8.4-1.5c-6.8-1.2-12.1-1.9-15.7-2.5c-3.6-0.5-5.6-0.8-5.6-0.8s-3.1,0.6-3.1,2.1
					c0,1.6,3.1,3.9,15.2,7.8c3.7,1.2,8.2,2.6,13.7,4.2c-3.4,8.6-7.2,19.3-11.5,32.5c-4.2-0.6-8.6-1.3-13.1-1.8
					c-4.4-0.5-8.9-0.9-13.5-1.1c-2.3-0.1-4.7-0.2-7-0.2c-2.3-0.1-4.7,0-7.1,0c-9.6,0.2-19,1-28.5,3.7c-4.7,1.4-9.6,3.3-14.2,7.2
					c-1.1,0.9-2.2,2.2-3.2,3.4c-0.5,0.6-0.9,1.4-1.4,2.1c-0.2,0.4-0.4,0.7-0.6,1.1l-0.5,1.2c-0.3,0.8-0.7,1.6-0.8,2.4
					c-0.2,0.8-0.4,1.7-0.5,2.5c-0.1,0.8-0.1,1.6-0.2,2.4c0,0.8,0,1.6,0.1,2.3C538.2,742.1,539.2,744.6,540.2,747z"/>
				<path d="M538.5,731.7c0.2-0.8,0.5-1.6,0.8-2.4l0.5-1.2c0.2-0.4,0.4-0.7,0.6-1.1c0.4-0.7,0.9-1.5,1.4-2.1c1-1.2,2.1-2.5,3.2-3.4
					c4.6-3.9,9.5-5.8,14.2-7.2c9.5-2.7,18.9-3.5,28.5-3.7c2.4,0,4.8-0.1,7.1,0c2.3,0,4.7,0.1,7,0.2c4.6,0.2,9.2,0.6,13.5,1.1
					c4.5,0.5,8.9,1.1,13.1,1.8c4.3-13.2,8.1-23.9,11.5-32.5c-5.5-1.6-10-3-13.7-4.2c-12.1-3.9-15.2-6.2-15.2-7.8
					c0-1.5,3.1-2.1,3.1-2.1s2,0.3,5.6,0.8c3.6,0.5,9,1.3,15.7,2.5c2.6,0.4,5.4,0.9,8.4,1.5c15.5-35.7,21-24,21-24l-8,26.7
					c1,0.2,2,0.4,3,0.7c9.4,2.2,20,4.9,31.4,9.1c5.7,2.1,11.6,4.6,17.7,8.2c3,1.9,6.2,3.9,9.2,7.1c1.5,1.6,3.1,3.3,4.5,6.4
					c1.3,3,1.8,6.4,1.1,9.6c-0.3,1.6-1,3.1-1.8,4.6c-0.8,1.4-2,2.7-3,3.8c-2,1.9-4,3.2-6,4.2c-3.9,2.1-7.8,3.3-11.6,4.2
					c-7.6,1.8-15.2,2.5-22.9,2.7c-7.7,0.1-15.4-0.3-23.1-1.2c-1.9-0.2-3.9-0.5-5.8-0.7c-1.9-0.3-3.8-0.6-5.7-0.8
					c-1.4-0.2-2.8-0.4-4.2-0.7l-16.2,54.1c7.2,2.4,14.2,4.4,20.9,5.9c21.7,4.9,40.3,4.3,52.1,1.4c6-1.3,10.3-3.2,13.2-4.5
					c1.4-0.7,2.5-1.3,3.2-1.6c0.7-0.4,1.1-0.6,1.1-0.6s2.7-0.4,3.4,0.9c0.3,0.7,0.1,1.8-1.4,3.8c-1.5,1.9-4.5,4.7-10.1,7.7
					c-5.6,3-14,6-25.9,7.4c-11.9,1.3-27.2,1-45.9-3c-4.7-1-9.7-2.3-14.8-3.9l-9.1,30.4c0,0-11.6,7.1-3.8-34.8
					c-0.9-0.3-1.7-0.6-2.6-1c-10.8-4.2-22.3-9.7-34.2-17.3c-5.9-3.8-11.9-8.2-17.7-13.8c-2.9-2.8-5.7-5.9-8.3-9.6
					c-0.7-0.9-1.2-2-1.9-3c-0.6-1-1.1-2.2-1.7-3.3c-1-2.4-1.9-5-2.2-8.1c-0.1-0.7-0.2-1.5-0.1-2.3c0-0.8,0-1.6,0.2-2.4
					C538.2,733.3,538.3,732.5,538.5,731.7z M553.9,738l0.1,0.4c0.1,0.3,0.1,0.5,0.2,0.8c0.2,0.5,0.4,1.1,0.7,1.7
					c1.1,2.4,2.9,4.9,5,7.4c4.3,4.9,9.6,9.3,15.2,13.3c11,7.8,22.9,14,34.6,18.9c2.8-12.2,6.9-27.4,12.5-46.3c0.5-1.7,1-3.3,1.5-4.9
					c-4.5-0.6-8.9-1.2-13.3-1.6c-3.7-0.4-7.4-0.6-11.1-0.7c-3.7-0.1-7.5-0.2-11.1-0.1c-3.7,0.1-7.4,0.3-11,0.6
					c-1.8,0.1-3.5,0.4-5.3,0.7c-1.7,0.3-3.5,0.5-5.1,1c-3.3,0.7-6.4,1.8-8.7,3.1c-0.7,0.3-1.1,0.7-1.6,1c-0.5,0.3-0.8,0.7-1.2,1
					c-0.6,0.7-1,1.2-1.1,1.7c-0.1,0.6-0.3,1.1-0.1,2L553.9,738z M651.6,717.3c3.6,0.6,7.2,1,10.7,1.3c7,0.7,13.7,0.9,20,0.7
					c6.3-0.2,12.3-0.9,17.6-2.2c2.6-0.7,5-1.5,6.9-2.5c0.9-0.5,1.7-1,2.1-1.4c0.3-0.2,0.4-0.4,0.6-0.6c0.1-0.2,0.2-0.5,0.1-0.8
					c0-0.3-0.1-0.5-0.6-1.2c-0.9-1.4-2.6-2.8-4.3-4.2c-3.5-2.7-7.6-4.9-11.6-6.8c-8-3.8-15.7-6.6-22.6-9c-6.2-2.1-11.7-3.8-16.8-5.3
					l-9.3,31C646.8,716.6,649.2,716.9,651.6,717.3z"/>
				<path class="st1" d="M554,735.7c-0.1,0.6-0.3,1.1-0.1,2l0,0.3l0.1,0.4c0.1,0.3,0.1,0.5,0.2,0.8c0.2,0.5,0.4,1.1,0.7,1.7
					c1.1,2.4,2.9,4.9,5,7.4c4.3,4.9,9.6,9.3,15.2,13.3c11,7.8,22.9,14,34.6,18.9c2.8-12.2,6.9-27.4,12.5-46.3c0.5-1.7,1-3.3,1.5-4.9
					c-4.5-0.6-8.9-1.2-13.3-1.6c-3.7-0.4-7.4-0.6-11.1-0.7c-3.7-0.1-7.5-0.2-11.1-0.1c-3.7,0.1-7.4,0.3-11,0.6
					c-1.8,0.1-3.5,0.4-5.3,0.7c-1.7,0.3-3.5,0.5-5.1,1c-3.3,0.7-6.4,1.8-8.7,3.1c-0.7,0.3-1.1,0.7-1.6,1c-0.5,0.3-0.8,0.7-1.2,1
					C554.6,734.7,554.2,735.2,554,735.7z"/>
				<path class="st1" d="M653.6,685.2l-9.3,31c2.4,0.4,4.9,0.8,7.2,1.2c3.6,0.6,7.2,1,10.7,1.3c7,0.7,13.7,0.9,20,0.7
					c6.3-0.2,12.3-0.9,17.6-2.2c2.6-0.7,5-1.5,6.9-2.5c0.9-0.5,1.7-1,2.1-1.4c0.3-0.2,0.4-0.4,0.6-0.6c0.1-0.2,0.2-0.5,0.1-0.8
					c0-0.3-0.1-0.5-0.6-1.2c-0.9-1.4-2.6-2.8-4.3-4.2c-3.5-2.7-7.6-4.9-11.6-6.8c-8-3.8-15.7-6.6-22.6-9
					C664.3,688.4,658.7,686.7,653.6,685.2z"/>
				<path class="st0" d="M1323.4,627.5l0.3,0.4l2.5,3.3c3,3.9,6,7.8,9,11.7c4.1,5.4,8.2,10.7,12.2,16.1c1.5-0.8,3-1.6,4.4-2.4
					c11.9-6.1,23.2-10.2,33.4-13.8c20.5-7,37.2-11.2,50.4-14.4c9.7-2.3,17.6-3.9,24-5.1c-7.4-12.9-14.7-25.5-21.9-38.1
					C1398,599.9,1359.9,614,1323.4,627.5z"/>
				<path class="st0" d="M1351.9,664.9c0.3,0.4,0.6,0.8,0.9,1.2c4.8,6.3,9.5,12.6,14.1,18.9c11.4-8.5,27.4-17.7,49.2-27
					c10-4.2,21.2-8.4,33.9-12.3c6.1-1.9,12.6-3.7,19.4-5.3c-2.5-4.4-5-8.8-7.5-13.1c-1.3,0.3-2.6,0.7-4.1,1
					c-15.2,3.9-36.9,9.5-62.3,18.1c-12.6,4.4-26.3,9.4-39.7,16.4C1354.4,663.4,1353.1,664.1,1351.9,664.9z"/>
				<path class="st0" d="M1370.1,689.3c1.6,2.1,3.1,4.2,4.7,6.4c4.4-0.3,8.9-0.7,13.4-1.4c17.2-2.4,34.6-6.7,51.6-12.1
					c15-4.8,29.8-10.4,43.8-17.1c-3.4-6-6.8-11.9-10.2-17.8c-7.5,1.6-14.8,3.5-21.8,5.6c-14.7,4.3-28.3,9.4-40.6,14.6
					C1394.7,674.4,1380.8,682,1370.1,689.3z"/>
				<path class="st0" d="M1383.2,702.9c-1,0.1-1.9,0.2-2.8,0.3c2,2.7,4,5.5,6,8.2c3.9,5.3,7.7,10.5,11.4,15.7
					c23.9-14.5,42.5-27.4,57.1-38.2c3-2.2,5.8-4.4,8.5-6.4c-6.8,2.6-13.9,5.1-21.2,7.4C1421.6,696.4,1401.9,700.9,1383.2,702.9z"/>
				<path d="M1653.2,1569.8c-298.8,1.4-247.9,16-247.9,16h593.3c0,0,41-11.7-166.1-15.2l-3.2,0c-35-0.6-77.1-0.9-127.4-0.9
					c-16,0-31.2,0-45.5,0.1L1653.2,1569.8z"/>
				<path class="st0" d="M1409.8,735.4c-1.3,0.9-2.7,1.7-4,2.6c14.8,20.5,29,40.6,42.7,60.2c39.1,56.1,73.6,108.7,103.7,158.1
					c30.1,49.5,55.8,95.7,76,139.7c10.1,22,18.8,43.4,25.5,64.4c3.3,10.5,6.1,21,8.1,31.3c0.5,2.6,1,5.2,1.3,7.8
					c0.4,2.6,0.8,5.2,1,7.7c0.5,5,1,10,1.5,14.9c0.5,4.9,1,9.7,1.4,14.5c0.3,4.8,0.7,9.5,1,14.2c0.6,9.3,1.3,18.3,1.6,27.2
					c0.3,8.8,0.8,17.4,1,25.7c0.2,8.3,0.3,16.4,0.5,24.2c0.3,31.4-0.1,58.9-1,83.1c-1.7,48.4-4.6,83.3-7,108.3
					c-2.5,25-4.6,40-6.2,48.4c-0.1,0.8-0.3,1.5-0.4,2.1c14.4-0.1,29.5-0.1,45.5-0.1c50.3,0,92.4,0.3,127.4,0.9
					c-1.3-11.3-2.7-37.8-4.1-93c-1-39.1-2-92.5-3-165c-0.4-36.2-0.9-77.3-1.4-123.6c-0.6-46.3-1.9-97.9-5-155.5
					c-6-115.1-16.6-253.8-33-420.6c-0.3-3.2-0.7-6.5-1-9.7c-7.8,2-15.5,3.7-22.9,5.1c-17,3.2-32.6,5.3-46.5,7.1
					c-13.9,1.7-26,2.9-35.9,3.8c-0.6,0.1-1.2,0.1-1.8,0.2c0.3,24-0.7,48.5-3.3,73.3c-2.9,26.9-7.4,54.1-14.1,81.3
					c-6.8,27.2-15.5,54.5-27.4,81.3c-0.9,1.9-1.8,3.9-2.6,5.8l-1,2l-1.2,2.5l-1.2,2.5l-0.6,1.2l-0.7,1.3l-2.8,5.3l-2.9,5l-2.9,5
					l-0.7,1.3l-0.4,0.6l-0.2,0.3c0,0.1-0.1,0-0.1,0l-0.1-0.1l-1.5-2.4c-2-3.2-4.1-6.3-6.1-9.6c-2-3.6-4.1-7.1-6.1-10.6
					c-2.2-3.8-4.4-7.6-6.5-11.3c-8.1-14.1-16.2-28.1-24.1-41.9c-15.9-27.6-31.5-54.6-46.7-81c-11.2-19.5-22.2-38.7-33.1-57.5
					c-0.8,0.8-1.7,1.7-2.6,2.5C1469,692.5,1443.1,713.6,1409.8,735.4z"/>
				<path class="st0" d="M1666,516.9L1666,516.9c-0.1,0-0.2,0-0.2,0l0,0.1l0,0l0.3,1.7c0.5,3,1,6.1,1.5,9.2c0.5,3.1,0.8,6.2,1.3,9.2
					c0.5,3.9,1,7.9,1.5,11.9c4.2-0.8,9.1-1.7,14.7-2.7c19.7-3.5,47.8-8.6,81.7-13.9c2.6-0.4,5.2-0.8,7.9-1.2
					c-0.5-5.1-1.1-10.2-1.6-15.3c-0.6-5.5-1.2-11-1.8-16.6l-0.1-0.4l-0.5,0.1c-22.5,3.8-45.4,7.7-68.8,11.7c-11.7,2-23.5,4-35.4,6
					L1666,516.9z"/>
				<path class="st0" d="M1674.2,552.5c-1.2,0.2-2.4,0.3-3.5,0.4c0.5,4.5,1,9.1,1.4,13.6c4.4-1,8.8-1.9,13.1-2.8
					c12.4-2.5,24.3-4.8,35.8-7c19.7-3.9,38.1-7.6,55-11.6c-0.2-2.4-0.5-4.7-0.7-7.1c-25.6,3.5-46.1,6.6-62.4,9
					C1695.9,549.6,1683.4,551.3,1674.2,552.5z"/>
				<path class="st0" d="M1672.8,574.6c0.2,3,0.4,5.9,0.6,8.9c8.1-0.4,16.3-1,24.4-1.8c22.3-2.1,44.2-4.7,65.6-6.8
					c5.2-0.5,10.4-1,15.5-1.3c-0.7-6.9-1.4-13.8-2.1-20.7c-20,4.8-40.7,9-61.7,13.1c-11,2.2-22.2,4.3-33.2,6.6
					C1678.9,573.3,1675.9,574,1672.8,574.6z"/>
				<path class="st0" d="M1673.9,591.5c0.4,7.7,0.7,15.5,0.8,23.3c7.7-1.1,17.1-2.3,28.5-3.9c8.5-1.2,18.1-2.6,28.9-4.4
					c10.8-1.8,22.8-4,36-7c4.2-1,8.6-2.1,13-3.3c-0.5-4.9-1-9.9-1.5-14.9c-3.1,0.2-6.1,0.5-9.2,0.8c-19.7,1.9-41,4.6-64.4,6.9
					C1695.8,590,1685.1,591,1673.9,591.5z"/>
				<path d="M1670.8,552.9c0.5,4.5,1,9.1,1.4,13.6c4.4-1,8.8-1.9,13.1-2.8c12.4-2.5,24.3-4.8,35.8-7c19.7-3.9,38.1-7.6,55-11.6
					c-0.2-2.4-0.5-4.7-0.7-7.1c-25.6,3.5-46.1,6.6-62.4,9c-17,2.5-29.5,4.2-38.7,5.4C1673,552.6,1671.9,552.8,1670.8,552.9z
					 M1732.2,606.5c10.8-1.8,22.8-4,36-7c4.2-1,8.6-2.1,13-3.3c-0.5-4.9-1-9.9-1.5-14.9c-3.1,0.2-6.1,0.5-9.2,0.8
					c-19.7,1.9-41,4.6-64.4,6.9c-10.3,1-21,2-32.2,2.5c0.4,7.7,0.7,15.5,0.8,23.3c7.7-1.1,17.1-2.3,28.5-3.9
					C1711.8,609.7,1721.4,608.3,1732.2,606.5z M1766.7,532.5c2.6-0.4,5.2-0.8,7.9-1.2c-0.5-5.1-1.1-10.2-1.6-15.3
					c-0.6-5.5-1.2-11-1.8-16.6l-0.1-0.4l-0.5,0.1c-22.5,3.8-45.4,7.7-68.8,11.7c-11.7,2-23.5,4-35.4,6l-0.6,0.1l-0.1,0
					c0,0-0.1,0-0.1,0l0,0.1l0,0l0.3,1.7c0.5,3,1,6.1,1.5,9.2c0.5,3.1,0.8,6.2,1.3,9.2c0.5,3.9,1,7.9,1.5,11.9
					c4.2-0.8,9.1-1.7,14.7-2.7C1704.7,542.9,1732.9,537.9,1766.7,532.5z M1656.4,1569.8l-3.3,0c0-0.7,0-1.4,0-2.2
					c0-3.9,0.1-7.6,0.1-7.6c3.5-42.9,5.7-86,6.9-129.1c1.1-43.1,1.1-86.2-0.7-129.2l-1.7-32.2l-2.5-32.1l-3.5-32
					c-1.4-10.2-3.7-20.4-6.6-30.5c-2.9-10.1-6.4-20.2-10.1-30.1c-3.8-9.9-7.9-19.8-12.3-29.6c-8.7-19.5-18.3-38.8-28.3-57.7
					c-20.2-38-42.2-75-65.1-111.5c-22.9-36.5-46.8-72.5-71.3-108c-21.3-30.9-43-61.5-65-91.8c-3,1.9-6.1,3.8-9.3,5.7
					c-4.6,2.7-9.3,5.5-14.1,8.3c-1.2,0.7-2.4,1.4-3.6,2.1c-1.2,0.7-2.4,1.3-3.7,2c-2.5,1.3-4.9,2.7-7.4,4.1c-5,2.7-10,5.6-15.2,8.2
					c-5.2,2.7-10.4,5.4-15.7,8.1c-5.3,2.8-10.7,5.3-16.2,8c-5.5,2.6-11,5.4-16.6,8c-44.9,20.8-94,40.2-143.9,57.3
					c-49.8,17.1-100.4,31.9-148.1,44.4c-23.9,6-47,12-69.1,16.9c-11,2.5-21.7,5.1-32.1,7.3c-10.4,2.2-20.5,4.3-30.1,6.3
					c-19.3,4.2-37.1,7.4-52.8,10.5c-7.9,1.5-15.2,2.9-22,4.2c-6.8,1.2-13.1,2.3-18.8,3.3c-22.7,3.9-35.6,6.2-35.6,6.2
					s-1.5,0-2.9-0.3c-6.8,3.5-13.6,6.6-20.5,9.2c-8.5,3.4-17,5.9-25.5,8.1c-8.5,2-16.9,3.7-25.1,4.6c-16.5,2-32.5,2.1-47.6,0.6
					c-30.3-2.9-56.8-12.1-78.6-23.8c-11-5.9-20.8-12.3-29.6-19.1c-8.8-6.9-16.5-14-23.4-21.1c-13.6-14.5-23.8-28.9-31.1-42.5
					c-7.4-13.5-12.4-26-15.8-37c-3.5-11-5.2-20.7-6.5-28.7c-0.5-4.1-0.9-7.8-1.2-11.1c-0.2-3.4-0.3-6.4-0.4-9.1
					c0-2.7,0.1-5.1,0.2-7.2c0.1-2.1,0.2-3.9,0.4-5.5c0.8-6.3,1.6-8.5,2.4-8.8c0,0,0.1,0,0.1,0c1.4,0,2.6,6.9,2.6,6.9s0,1.2,0.1,3.6
					c0.2,2.3,0.5,5.8,0.8,10.4c1,9.1,2.9,22.3,7.9,38.6c2.6,8.1,5.8,17,10.3,26.2c4.4,9.2,9.9,18.9,16.7,28.7
					c13.5,19.4,32.5,39.1,57.1,54.7c24.5,15.7,54.9,27.1,88.2,30.2c16.6,1.5,34,1.2,51.3-1.7c4.3-0.8,8.7-1.5,13-2.6
					c4.3-0.9,8.6-2.2,12.9-3.4c8.5-2.7,17.1-5.7,25.3-9.6l3.1-1.4l3.1-1.5c2-1.1,4.1-2.1,6.1-3.2c4-2.3,8-4.5,11.9-7.1
					c3.9-2.4,7.7-5.2,11.5-7.9c1.9-1.4,3.7-2.9,5.5-4.3l2.8-2.2l2.7-2.3c7.2-6,13.8-12.8,20.1-19.8c6.4-7,12-14.7,17.3-22.7
					c10.5-16,18.8-33.7,24.3-52.2l2-7c0.6-2.3,1.1-4.7,1.7-7.1c0.3-1.2,0.6-2.4,0.8-3.6l0.6-3.6c0.4-2.4,0.9-4.8,1.2-7.2
					c1.4-9.6,2-19.3,2.1-29.1c-0.1-9.7-0.7-19.5-2.1-29.1c-0.3-2.4-0.8-4.8-1.2-7.2l-0.6-3.6c-0.2-1.2-0.5-2.4-0.8-3.5
					c-0.6-2.4-1.1-4.7-1.7-7.1l-2-7c-5.6-18.5-13.8-36.2-24.3-52.2c-5.3-8-11-15.7-17.3-22.7c-6.3-7.1-13-13.8-20.1-19.8l-2.7-2.3
					l-2.8-2.2c-1.9-1.4-3.6-2.9-5.5-4.3c-3.8-2.7-7.5-5.4-11.5-7.9c-3.9-2.6-7.9-4.8-11.9-7.1c-2-1.1-4.1-2.1-6.1-3.2l-3.1-1.5
					l-3.1-1.4c-8.2-3.9-16.8-6.9-25.3-9.6c-4.3-1.2-8.6-2.5-12.9-3.4c-4.3-1.1-8.6-1.8-13-2.6c-17.3-2.8-34.6-3.2-51.3-1.7
					c-33.3,3.2-63.7,14.5-88.2,30.2c-24.7,15.7-43.6,35.3-57.1,54.7c-6.8,9.7-12.2,19.4-16.7,28.7s-7.6,18.1-10.3,26.2
					c-5,16.3-6.9,29.6-7.9,38.6c-0.4,4.5-0.6,8-0.8,10.4c-0.1,2.4-0.1,3.6-0.1,3.6s-1.1,6.9-2.6,6.9c0,0-0.1,0-0.1,0
					c-0.7-0.2-1.6-2.5-2.4-8.8c-0.2-1.6-0.3-3.4-0.4-5.5c-0.1-2.1-0.2-4.5-0.2-7.2c0.1-2.7,0.2-5.7,0.4-9.1c0.2-3.3,0.7-7,1.2-11.1
					c1.3-8.1,3-17.7,6.5-28.7c3.4-11,8.3-23.5,15.8-37c7.4-13.6,17.5-28,31.1-42.5c6.9-7.1,14.6-14.3,23.4-21.1
					c8.8-6.8,18.7-13.3,29.6-19.1c21.9-11.7,48.4-20.8,78.6-23.8c15.1-1.5,31.1-1.4,47.6,0.6c1.9,0.2,3.8,0.5,5.7,0.8
					c13.1-2.6,31-6.1,55.4-9.3c12.3-1.7,26.2-3.5,42-5.5c7.9-1.1,16.2-1.9,25-2.8c8.8-0.9,18.1-1.9,28-2.9
					c78.6-7.9,189.8-16.2,346.6-22.8c156.8-6.5,268.3-8.1,347.2-8.4c67.3-0.2,110.9,0.8,138.9,2.1l128.4-21.5l1.8-0.3l0.9-0.1
					c0.3,0,0.7-0.3,0.7,0.2l0.4,3.7l0.8,7.4l1.1,10.2l1.6,14.9l1.2,11.8c1-0.1,2-0.3,3.1-0.4c4.6-0.6,9.3-1.2,14.1-1.7
					c1.2-0.1,2.4-0.3,3.6-0.4l2.9-0.3l3.6-0.3c4.7-0.3,9.6-0.5,12.1,0.2c1.3,0.4,2,0.8,2.6,1.4c0.3,0.3,0.5,0.5,0.7,0.8
					c0.2,0.3,0.4,0.6,0.6,1.3c0.2,0.8,0.2,1.3,0.2,1.6c0,0.4-0.1,0.7-0.2,1.1c-0.2,0.7-0.7,1.4-1.6,2.3c-0.2,0.2-0.5,0.4-0.8,0.7
					c-0.3,0.2-0.6,0.5-1,0.7c-0.9,0.5-1.6,0.9-2.7,1.4l-1.5,0.7l-1.6,0.7c-1.1,0.5-2.3,0.9-3.5,1.3l-3.5,1.3l-2.4,0.8l-2.3,0.8
					l-1.9,0.6c-6,2-12.1,3.7-18.3,5.4l2.3,23.8c0.2,0,0.5,0,0.7,0c2.6,0,5.3,0,7.9,0.1c2.7,0.1,5.3,0.3,8.2,0.9l1.1,0.2
					c0.4,0.1,1,0.3,1.4,0.5c0.2,0.1,0.5,0.2,0.7,0.3l0.8,0.4c0.5,0.3,1.1,0.5,1.5,0.9c0.4,0.4,0.9,0.7,1.2,1.2
					c0.3,0.5,0.7,0.9,0.9,1.5c0.5,1,0.5,2.2,0.4,3.3c-0.2,1.1-0.6,2.2-1.3,3.3l-0.5,0.8l-0.5,0.6c-0.3,0.4-0.7,0.8-1,1.1
					c-1.1,1-2.2,2-3.3,2.9c-4.6,3.3-9.2,5.2-13.8,7c-0.7,0.3-1.4,0.5-2.1,0.8l0.8,7.8c7.6,79.3,14.4,158.6,20.3,238
					c5.8,79.4,10.7,158.9,13.4,238.6l0.8,29.9l0.4,14.9l0.2,15c0.2,19.9,0.5,39.9,0.4,59.8V1322v238.7c0,0-0.3,5.3-0.8,10l-3.2,0
					c-1.3-11.3-2.7-37.8-4.1-93c-1-39.1-2-92.5-3-165c-0.4-36.2-0.9-77.3-1.4-123.6c-0.6-46.3-1.9-97.9-5-155.5
					c-6-115.1-16.6-253.8-33-420.6c-0.3-3.2-0.7-6.5-1-9.7c-7.8,2-15.5,3.7-22.9,5.1c-17,3.2-32.6,5.3-46.5,7.1
					c-13.9,1.7-26,2.9-35.9,3.8c-0.6,0.1-1.2,0.1-1.8,0.2c0.3,24-0.7,48.5-3.3,73.3c-2.9,26.9-7.4,54.1-14.1,81.3
					c-6.8,27.2-15.5,54.5-27.4,81.3c-0.9,1.9-1.8,3.9-2.6,5.8l-1,2l-1.2,2.5l-1.2,2.5l-0.6,1.2l-0.7,1.3l-2.8,5.3l-2.9,5l-2.9,5
					l-0.7,1.3l-0.4,0.6l-0.2,0.3c0,0.1-0.1,0-0.1,0l-0.1-0.1l-1.5-2.4c-2-3.2-4.1-6.3-6.1-9.6c-2-3.6-4.1-7.1-6.1-10.6
					c-2.2-3.8-4.4-7.6-6.5-11.3c-8.1-14.1-16.2-28.1-24.1-41.9c-15.9-27.6-31.5-54.6-46.7-81c-11.2-19.5-22.2-38.7-33.1-57.5
					c-0.8,0.8-1.7,1.7-2.6,2.5c-16.9,16.3-42.8,37.4-76.1,59.2c-1.3,0.9-2.7,1.7-4,2.6c14.8,20.5,29,40.6,42.7,60.2
					c39.1,56.1,73.6,108.7,103.7,158.1c30.1,49.5,55.8,95.7,76,139.7c10.1,22,18.8,43.4,25.5,64.4c3.3,10.5,6.1,21,8.1,31.3
					c0.5,2.6,1,5.2,1.3,7.8c0.4,2.6,0.8,5.2,1,7.7c0.5,5,1,10,1.5,14.9c0.5,4.9,1,9.7,1.4,14.5c0.3,4.8,0.7,9.5,1,14.2
					c0.6,9.3,1.3,18.3,1.6,27.2c0.3,8.8,0.8,17.4,1,25.7c0.2,8.3,0.3,16.4,0.5,24.2c0.3,31.4-0.1,58.9-1,83.1
					c-1.7,48.4-4.6,83.3-7,108.3c-2.5,25-4.6,40-6.2,48.4C1656.7,1568.5,1656.6,1569.1,1656.4,1569.8z M1437.6,585.2
					c-39.6,14.7-77.7,28.8-114.2,42.3l0.3,0.4l2.5,3.3c3,3.9,6,7.8,9,11.7c4.1,5.4,8.2,10.7,12.2,16.1c1.5-0.8,3-1.6,4.4-2.4
					c11.9-6.1,23.2-10.2,33.4-13.8c20.5-7,37.2-11.2,50.4-14.4c9.7-2.3,17.6-3.9,24-5.1C1452.1,610.4,1444.8,597.7,1437.6,585.2z
					 M1395.4,646.4c-12.6,4.4-26.3,9.4-39.7,16.4c-1.3,0.7-2.6,1.4-3.8,2.1c0.3,0.4,0.6,0.8,0.9,1.2c4.8,6.3,9.5,12.6,14.1,18.9
					c11.4-8.5,27.4-17.7,49.2-27c10-4.2,21.2-8.4,33.9-12.3c6.1-1.9,12.6-3.7,19.4-5.3c-2.5-4.4-5-8.8-7.5-13.1
					c-1.3,0.3-2.6,0.7-4.1,1C1442.5,632.1,1420.8,637.8,1395.4,646.4z M1485.9,637.1c2.2-0.3,4.4-0.6,6.7-0.9
					c4-0.4,8.2-0.7,12.6-0.3c2.2,0.2,4.6,0.5,7.1,1.5c0.7,0.3,1.3,0.5,2,1c0.7,0.3,1.3,0.9,2,1.5c0.3,0.3,0.7,0.9,1.1,1.4
					c0.1,0.2,0.4,0.6,0.4,0.7l0.1,0.4l0.2,0.4c0,0,0,0,0,0c0,0.1,0.2,0.7,0.2,0.7l0.1,0.4c0.1,0.5,0.2,1,0.2,1.5
					c0,2-0.6,3.6-1.3,4.9c-0.3,0.7-0.7,1.2-1.1,1.8c-0.4,0.5-0.8,1.1-1.2,1.6c-1.7,2-3.5,3.5-5.3,5c-2.6,2.1-5.4,3.9-8.2,5.7
					l65.7,113.9l29.8,51.7l14.9,25.8l0,0.1l0.4-0.8l2.6-5.7c1-2.2,2-4.4,2.9-6.7c1.9-4.5,3.7-9,5.5-13.6c3.5-9.1,6.7-18.4,9.6-27.7
					c5.9-18.7,10.7-37.7,14.5-57c7.6-38.5,11.3-77.8,11.4-117c0-2.2-0.1-4.5-0.1-6.7c-8.7,0.7-13.5,1-13.5,1s-4.4-0.2-4.1-1
					c0.2-0.7,4.1-1.7,17.6-3.7c-0.1-8.4-0.5-16.9-0.9-25.3c-2.7-0.1-5.5-0.3-8.3-0.7c-0.9-0.1-1.8-0.3-2.7-0.5
					c-1-0.3-1.7-0.4-3.1-0.9l-0.9-0.3c-0.3-0.1-0.7-0.4-1.1-0.6l-1.1-0.6c-0.3-0.2-0.6-0.5-0.9-0.7c-0.3-0.2-0.6-0.5-0.9-0.7
					l-0.7-0.8c-0.3-0.3-0.4-0.6-0.6-0.9c-0.1-0.3-0.3-0.6-0.4-0.9c-0.5-1.3-0.4-2.8,0.1-4.1c0.5-1.3,1.6-2.4,2.8-3.4
					c0.7-0.4,1.4-0.9,2-1.3l1.7-0.9c0.9-0.4,1.7-0.8,2.6-1.1c3.3-1.2,6.6-2.2,9.9-3.1c0-0.6-0.1-1.2-0.1-1.8l-1.4-14.1
					c-3.1,0.1-4.3-0.1-4.5-0.4c-0.4-0.7,3.8-2,3.8-2s0.2,0,0.4-0.1c-0.5-4.2-1.1-8.5-1.6-12.7l-0.9-7.3l-1.2-7.3l-1.5-9.6l-0.5-3.1
					c-28.8,0.4-69.7,1.1-118.8,2.2c-98.8,2.1-230.6,5.7-362.3,11.3c-131.7,5.5-263.2,13.1-361.6,21.5c-6.1,0.5-12.2,1-18.1,1.5
					c-5.9,0.5-11.6,0.9-17.2,1.5c-11.2,1.1-21.8,2.2-31.8,3.2c-16.9,1.7-32,3.1-44.9,4.7c6.9,1.9,13.9,4.1,20.8,6.8
					c8.5,3.2,16.9,7.2,25.3,11.8c8.4,4.5,16.5,9.8,24.5,15.7c7.9,6,15.7,12.4,23,19.7c7.3,7.3,14.3,15.1,20.8,23.7
					c6.4,8.6,12.4,17.8,17.8,27.6c5.3,9.8,9.9,20.3,13.7,31.3c0.9,2.8,2,5.5,2.7,8.3c0.8,2.8,1.6,5.6,2.4,8.5c0.7,2.9,1.3,5.8,2,8.7
					c0.7,2.9,1.1,5.9,1.7,8.8c2,11.9,3.1,24.2,3.2,36.7c0,12.5-1.1,24.8-3.2,36.6c-0.6,3-1,5.9-1.7,8.8c-0.7,2.9-1.3,5.8-2,8.7
					c-0.8,2.8-1.6,5.7-2.4,8.5c-0.8,2.8-1.8,5.6-2.7,8.3c-3.9,10.9-8.4,21.4-13.7,31.3c-5.4,9.8-11.3,19-17.8,27.6
					c-6.5,8.5-13.5,16.4-20.8,23.7c-7.4,7.2-15.1,13.7-23,19.7c-4.3,3.1-8.6,6-13,8.8c2.2-0.7,4.7-1.3,7.4-2.1
					c5.2-1.4,11.2-3,18.5-4.7c3.6-0.9,7.5-1.8,11.7-2.8c4.2-1,8.7-2.1,13.5-3.3c19.2-4.7,43.5-10,73.9-17.4
					c7.6-1.8,15.6-3.7,24.1-5.6c8.4-2.1,17.2-4.3,26.5-6.6c4.6-1.1,9.3-2.3,14.2-3.5c2.4-0.6,4.9-1.2,7.3-1.8c2.5-0.7,5-1.3,7.5-2
					c10.1-2.6,20.6-5.4,31.6-8.3c43.9-11.9,95.1-26.4,153.9-46.5c112.3-38.4,189.5-76.6,242.7-107.6c-0.6-0.8-1.2-1.7-1.9-2.6
					c-7-9.6-14.1-19.2-21.2-28.7c-1.9-0.1-3.8-0.2-5.7-0.5c-0.8-0.1-1.6-0.2-2.3-0.3c-1.5,1.6-2.8,3.1-3.9,4.5
					c-1.8,2.2-3,4.2-3.9,5.9c-0.4,0.8-0.8,1.6-1.1,2.2c-0.3,0.7-0.5,1.2-0.7,1.6c-0.3,0.9-0.4,1.3-0.4,1.3c-0.1,0-1.1,2.7-1.9,2.4
					c-0.2-0.1-0.3-0.4-0.4-1c0-0.3-0.1-0.7-0.1-1.2c0-0.5,0.1-1,0.1-1.7c0.1-1.3,0.6-3.1,1.5-5.3c0.9-2.2,2.3-4.8,4.4-7.8
					c0.4-0.6,0.9-1.2,1.4-1.9c-2-0.4-3.9-1-5.8-1.7c-4.2-1.6-8.3-3.7-11.5-7.2c-1.6-1.7-3-3.7-3.9-6.1c-0.9-2.4-1-5.2-0.5-7.6
					c1.3-4.9,4.2-8.2,6.9-10.9c0.2-0.2,0.5-0.4,0.7-0.6l-10-13.2l-9.9-12.8l-16.8-21.5l146.8-54.7l31.7,55c5.9-0.7,7.9-0.4,8.2,0.1
					c0.4,0.7-2.8,1.9-2.8,1.9s-1.3,0.3-3.7,0.8L1485.9,637.1z M1336.2,687.1c1.1,1.2,2.3,2.3,3.8,3.3c3,1.9,6.6,3.2,10.5,4
					c1.4,0.3,2.8,0.5,4.3,0.7c0.1-0.1,0.1-0.1,0.2-0.2c-3.6-4.8-7.2-9.7-10.9-14.5l-5-6.5c-0.6,0.6-1.1,1.1-1.6,1.7
					c-2.4,2.6-3.6,5.5-3.2,7.8C1334.6,684.5,1335.2,685.8,1336.2,687.1z M1388.2,694.3c17.2-2.4,34.6-6.7,51.6-12.1
					c15-4.8,29.8-10.4,43.8-17.1c-3.4-6-6.8-11.9-10.2-17.8c-7.5,1.6-14.8,3.5-21.8,5.6c-14.7,4.3-28.3,9.4-40.6,14.6
					c-16.3,7-30.1,14.5-40.8,21.8c1.6,2.1,3.1,4.2,4.7,6.4C1379.3,695.3,1383.7,694.9,1388.2,694.3z M1386.4,711.4
					c3.9,5.3,7.7,10.5,11.4,15.7c23.9-14.5,42.5-27.4,57.1-38.2c3-2.2,5.8-4.4,8.5-6.4c-6.8,2.6-13.9,5.1-21.2,7.4
					c-20.6,6.5-40.3,11-59,13c-1,0.1-1.9,0.2-2.8,0.3C1382.4,705.9,1384.4,708.7,1386.4,711.4z M1506.4,646.5c1-0.8,1.8-1.5,2.5-2
					c-1.4-0.4-3.1-0.7-4.8-0.8c-1.9-0.1-3.9-0.2-5.9-0.1c-2.7,0.1-5.4,0.4-8.1,0.7l6.3,10.9C1500.8,651.3,1504,648.4,1506.4,646.5z
					 M1648.3,582.6c2.3,0.6,5.1,0.8,7.8,1c0.5,0,0.9,0,1.4,0c-0.1-1.7-0.3-3.4-0.4-5.1c-2.6,0.7-5.2,1.5-7.6,2.5
					c-0.6,0.2-1.2,0.5-1.8,0.7l-0.4,0.2l-0.2,0.1l-0.3,0.1C1646.8,582.2,1647.2,582.3,1648.3,582.6z M1697.8,581.8
					c22.3-2.1,44.2-4.7,65.6-6.8c5.2-0.5,10.4-1,15.5-1.3c-0.7-6.9-1.4-13.8-2.1-20.7c-20,4.8-40.7,9-61.7,13.1
					c-11,2.2-22.2,4.3-33.2,6.6c-3,0.6-6.1,1.3-9.1,2c0.2,3,0.4,5.9,0.6,8.9C1681.6,583.2,1689.8,582.5,1697.8,581.8z M1798.1,539.4
					c2.3-0.7,4.5-1.3,6.7-2c1.1-0.3,2.2-0.7,3.3-1c1-0.3,2-0.6,3-1c0.6-0.2,1.2-0.4,1.8-0.6l0.5-0.1c0.3-0.1,0.7-0.2,1-0.4
					c0.2-0.1,0.4-0.2,0.6-0.2c0.1-0.1,0.5-0.2,0.3-0.4c-0.3-0.1-0.6-0.1-0.9-0.2c-0.3,0-0.7,0-1.1,0l-0.6,0l-0.5,0l-1.1,0.1
					c-3.9,0.4-7.7,0.8-11.5,1.2c-3,0.3-5.9,0.7-8.8,1.1l0.5,5.3C1793.7,540.7,1795.9,540.1,1798.1,539.4z M1799.4,590
					c0.9-0.4,1.7-0.8,2.6-1.2c0.9-0.4,1.7-0.9,2.5-1.3c0.9-0.4,1.7-0.9,2.5-1.4c0.7-0.5,1.6-1,2.3-1.6c0.7-0.6,1.3-1.1,1.9-1.7
					l0.2-0.3c0.1-0.1,0.2-0.2,0.2-0.2c0-0.1,0.1-0.2,0.1-0.2c0.1-0.2,0-0.4-0.1-0.5c-0.1-0.1-0.1-0.1-0.2-0.1l-0.1-0.1l-0.4-0.1
					l-0.2-0.1l-0.3-0.1l-0.7-0.1c-0.4-0.1-0.9-0.2-1.4-0.2c-1-0.1-2-0.2-3.1-0.3c-2.1-0.1-4.3-0.2-6.5-0.2c-1.1,0-2.2,0.1-3.4,0.1
					l1.1,10.9C1797.3,590.9,1798.4,590.4,1799.4,590z"/>
			</g>
		</g>
	</g>
	<g>
		<g id="XMLID_10_">
			<g>
				<path class="st1" d="M110.6,854.9c1.4-4,2.7-7.9,4-11.8c1.3-4,2.6-7.8,3.7-11.6l0.7-2.4l0.5-1.6c0.3-1.1,0.7-2.1,1-3.2
					c0.6-2.1,1.2-4.2,1.8-6.3c2.4-8.3,4.5-16.3,6.5-23.8c15.4-60.7,17.3-98.1,15.3-119.1c0-0.1,0-0.2,0-0.2c3.9-1,10.4-3.4,20.8-8.2
					c9.6-4.4,22.6-10.8,39.7-20.3c8.6-4.7,18.2-10.2,28.9-16.8c1.9-1.1,3.8-2.3,5.7-3.5c1,2.4,2.7,5.5,5.2,9.9
					c3.2,5.4,7.7,12.5,13.9,22.1c6.2,9.6,14.1,21.6,23.4,37.1c4.6,7.7,9.6,16.3,14.6,25.9c5.1,9.6,10.2,20.3,14.7,32.3
					c2.2,6,4.3,12.3,5.8,18.8c1.5,6.6,2.6,13.5,2.6,20.4c0,3.4-0.3,6.9-1.1,10.2c-0.7,3.3-1.8,6.6-3.4,9.6c-1.6,3-3.6,5.8-6.1,8.3
					c-2.5,2.6-5.6,4.7-8.9,6.6c-3.3,2-7.1,3.4-10.8,4.7c-0.9,0.3-1.9,0.6-2.8,0.9c-0.9,0.3-1.9,0.6-2.9,0.9
					c-2.1,0.6-4.1,1.2-6.2,1.7c-8.1,2.3-15.9,4.6-23.4,6.8c-15,4.5-28.7,8.9-41.3,12.9c-25.1,8-45.9,14.7-63.1,17.5
					c-8.6,1.5-16.2,1.6-22.6,0.4c-6.2-1.4-11-4.5-14.3-8.6c-0.7-1.1-1.5-2.1-2.2-3.1c-0.5-0.8-0.9-1.6-1.3-2.4l0.4-1.1
					C109.9,856.9,110.3,855.9,110.6,854.9z M153.1,735.9c0.8,2.1,1.8,4.1,3.2,5.9c1.3,1.8,2.9,3.4,4.7,4.7c3.5,2.6,7.7,4.2,11.9,4.5
					c4.2,0.4,8.3-0.5,11.8-2.1c3.5-1.6,6.3-4.1,8.4-6.7c2-2.6,3.3-5.5,4-8.1c0.7-2.6,0.8-5,0.8-7c-0.1-2-0.4-3.5-0.7-4.5
					c-0.3-1-0.5-1.5-0.5-1.5s-1.2-0.5-2.6,0.1c1.4-0.4,2.1-1.6,2.1-1.6s-0.2-0.5-0.6-1.5c-0.5-0.9-1.2-2.3-2.4-3.9
					c-1.2-1.5-2.8-3.3-5.1-4.9c-2.2-1.6-5-2.9-8.3-3.7c-3.3-0.7-7-0.8-10.7,0.2c-3.7,1-7.4,2.9-10.4,5.9c-3,2.9-5.2,6.8-6.3,11.1
					c-0.5,2.1-0.7,4.4-0.6,6.6C151.9,731.6,152.4,733.8,153.1,735.9z M297.4,810.2l-13.2-63.9c0,0-0.8-1.1-1.8-1.4
					c-0.5-1.2-2.4-1.6-2.4-1.6l-127.9,23.5v79.5L297.4,810.2z M213.6,714c0.8,2.1,1.8,4.1,3.2,5.9c1.4,1.8,2.9,3.4,4.7,4.7
					c3.5,2.6,7.7,4.2,11.9,4.5c4.2,0.4,8.3-0.5,11.8-2.1c3.5-1.6,6.3-4.1,8.4-6.7c2.1-2.7,3.3-5.5,4-8.1c0.7-2.6,0.8-5,0.8-7
					c-0.1-2-0.4-3.5-0.7-4.5c-0.3-1-0.5-1.5-0.5-1.5s-1.2-0.5-2.6,0.1c1.4-0.5,2.1-1.6,2.1-1.6s-0.2-0.5-0.6-1.5
					c-0.5-0.9-1.2-2.3-2.4-3.9c-1.2-1.5-2.8-3.3-5.1-4.9s-5-2.9-8.3-3.7c-3.3-0.7-7-0.8-10.7,0.2c-3.7,1-7.4,2.9-10.4,5.9
					c-3,2.9-5.2,6.8-6.3,11.1c-0.5,2.1-0.7,4.4-0.6,6.6C212.4,709.6,212.8,711.9,213.6,714z"/>
				<path class="st2" d="M160.1,950l-0.4,15.2c0.1,10.1,0,20.3,0.7,30.4l0.4,7.6l0.2,3.8l0.3,3.8l1.4,15.2l0.3,3.8l0.5,3.8l1,7.6
					c0.7,5.1,1.3,10.1,2,15.1l2.6,15.1c0.9,5,1.6,10.1,2.7,15.1l3.2,15l0.7,3.3l0.7,0.1c4.6,0.5,9.6,0.6,14.5,0.5
					c2.5,0,5-0.1,7.4-0.2c2.5-0.1,5-0.3,7.5-0.5c10-0.8,20.1-2,30.1-3.5c20.1-3.1,40.1-7.3,60-12c19.9-4.8,39.6-10.1,58.9-16.4
					c9.7-3.2,19.2-6.5,28.6-10.3l7-2.9c2.3-1,4.6-2,6.8-3.1c2.3-1,4.5-2.1,6.7-3.2l0.8-0.4l0.1-0.1l-0.4-1.6l-2.1-7.4
					c-0.2-0.7-0.4-1.4-0.6-2.1c-12.9,0.6-26.6,0.7-41.2-0.1c-2.2-0.1-4.5-0.2-6.7-0.3c-2.2-0.2-4.4-0.5-6.5-0.7
					c-4.3-0.5-8.5-0.9-12.7-1.4c-4.1-0.6-8.2-1.4-12.2-2c-2-0.3-3.9-0.7-5.9-1c-2-0.3-3.9-0.9-5.8-1.3c-3.8-0.9-7.5-1.8-11.1-2.6
					c-1.8-0.4-3.6-1-5.3-1.5c-1.8-0.5-3.5-1.1-5.2-1.6c-0.4-0.1-0.8-0.3-1.2-0.4c-1,2-2,3.9-3,5.9c-0.7,1.4-1.4,2.8-2.1,4.1
					c-8.5-6.2-16.7-12.2-24.6-18c-5.4-4-10.7-7.9-15.7-11.6c-0.6-0.4-1.2-0.9-1.8-1.3c0,0,0,0-0.1,0c-1.2-0.8-2.4-1.5-3.6-2.3
					c-2.3-1.5-4.6-3-6.8-4.4c-2.2-1.5-4.2-3.1-6.3-4.6c-4.1-2.9-7.7-6.1-11.2-9c-13.7-12-22.7-23.5-28.8-33
					c-6.1-9.5-9.5-17.2-11.5-22.9c-1.9-5.8-2.6-9.6-2.5-12c0-1.2,0.2-2.1,0.4-2.6c0.2-0.6,0.6-0.8,0.9-1c0.7-0.3,1.4-0.1,2.1,0.3
					c0.6,0.4,1.1,0.9,1.1,0.9s0.2,0.4,0.5,1.1c0.3,0.7,0.8,1.9,1.5,3.3c1.4,2.9,3.5,7.2,6.7,12.4c1.5,2.6,3.5,5.4,5.6,8.5
					c2.2,3,4.5,6.3,7.3,9.5c1.3,1.7,2.7,3.4,4.3,5.1c1.5,1.7,3.1,3.4,4.8,5.2c1.7,1.7,3.5,3.4,5.3,5.2c0.8,0.8,1.6,1.6,2.5,2.3
					c0.1-0.7,0.2-1.5,0.3-2.3c0.6-4.5,1.1-8.8,1.6-13c1.1-8.3,2.1-15.9,3.1-22.9c2-14,3.9-25.5,5.6-35c2.6-14.4,4.9-24.1,6.9-30.4
					c-3,0.9-6.1,1.8-9.1,2.7c-13.7,4.1-27,8.1-39.9,11.4c-4.2,1.1-8.3,2.1-12.4,3c-1.8,7.1-3.2,14.3-4.4,21.6
					c-0.4,2.5-0.7,5-1.1,7.5c-0.3,2.5-0.8,5-1,7.5l-0.8,7.5c-0.2,2.5-0.6,5-0.7,7.6C160.7,939.9,160.3,944.9,160.1,950z"/>
				<path d="M278.9,749.4c-0.7,0.4-1.5,0.9-2.4,1.3c-5.5,2.8-15.7,6.6-33.8,11.5c-9,2.5-20,5.2-33.4,8.3c-6.7,1.5-14,3.2-21.9,4.9
					c-4,0.8-8.1,1.7-12.4,2.6c-2.2,0.4-4.3,0.9-6.6,1.4c-0.4,0.1-0.2,0-0.3,0.1l-0.1,0l-0.1,0.1l-0.2,0.1l0.1,0.3l0,0.1l0,0v0h0v0.2
					c0,2.4,0.1,4.7,0.1,7.2c0,4.9,0.1,9.9,0.2,15.1c0,5.2,0.1,10.6,0.1,16.1c0,2.3,0,4.6,0,6.9c11.6-2.8,22.3-5.4,32.2-7.8
					c12.4-3,23.9-5.6,34.3-7.9c10.5-2.3,19.9-4.4,28.6-6.2c4.3-0.9,8.4-1.7,12.3-2.5c1-0.2,1.9-0.4,2.9-0.6l0.4-0.1l0.2,0h0l0.2,0
					l0.5,0c0.7,0,1.4-0.1,2.1-0.2c0-0.9,0-1.7-0.1-2.5l0-0.3l-0.1-0.8c-0.1-0.5-0.1-1.1-0.2-1.6c-0.1-1.1-0.3-2.1-0.4-3.1
					c-0.5-4-0.9-7.7-1.3-11.1c-0.7-6.8-1.1-12.4-1.3-16.9C278.2,756.9,278.4,752.3,278.9,749.4z M280.1,743.2c0,0,1.9,0.5,2.4,1.6
					c1,0.4,1.8,1.4,1.8,1.4l13.2,63.9l-145.2,36.1v-79.5L280.1,743.2z"/>
				<path d="M402.2,1043.5c-0.2-0.7-0.4-1.4-0.6-2.1c-12.9,0.6-26.6,0.7-41.2-0.1c-2.2-0.1-4.5-0.2-6.7-0.3
					c-2.2-0.2-4.4-0.5-6.5-0.7c-4.3-0.5-8.5-0.9-12.7-1.4c-4.1-0.6-8.2-1.4-12.2-2c-2-0.3-3.9-0.7-5.9-1c-2-0.3-3.9-0.9-5.8-1.3
					c-3.8-0.9-7.5-1.8-11.1-2.6c-1.8-0.4-3.6-1-5.3-1.5c-1.8-0.5-3.5-1.1-5.2-1.6c-0.4-0.1-0.8-0.3-1.2-0.4c-1,2-2,3.9-3,5.9
					c-0.7,1.4-1.4,2.8-2.1,4.1c-8.5-6.2-16.7-12.2-24.6-18c-5.4-4-10.7-7.9-15.7-11.6c-0.6-0.4-1.2-0.9-1.8-1.3c0,0,0,0-0.1,0
					c-1.2-0.8-2.4-1.5-3.6-2.3c-2.3-1.5-4.6-3-6.8-4.4c-2.2-1.5-4.2-3.1-6.3-4.6c-4.1-2.9-7.7-6.1-11.2-9
					c-13.7-12-22.7-23.5-28.8-33c-6.1-9.5-9.5-17.2-11.5-22.9c-1.9-5.8-2.6-9.6-2.5-12c0-1.2,0.2-2.1,0.4-2.6c0.2-0.6,0.6-0.8,0.9-1
					c0.7-0.3,1.4-0.1,2.1,0.3c0.6,0.4,1.1,0.9,1.1,0.9s0.2,0.4,0.5,1.1c0.3,0.7,0.8,1.9,1.5,3.3c1.4,2.9,3.5,7.2,6.7,12.4
					c1.5,2.6,3.5,5.4,5.6,8.5c2.2,3,4.5,6.3,7.3,9.5c1.3,1.7,2.7,3.4,4.3,5.1c1.5,1.7,3.1,3.4,4.8,5.2c1.7,1.7,3.5,3.4,5.3,5.2
					c0.8,0.8,1.6,1.6,2.5,2.3c0.1-0.7,0.2-1.5,0.3-2.3c0.6-4.5,1.1-8.8,1.6-13c1.1-8.3,2.1-15.9,3.1-22.9c2-14,3.9-25.5,5.6-35
					c2.6-14.4,4.9-24.1,6.9-30.4c-3,0.9-6.1,1.8-9.1,2.7c-13.7,4.1-27,8.1-39.9,11.4c-4.2,1.1-8.3,2.1-12.4,3
					c-1.8,7.1-3.2,14.3-4.4,21.6c-0.4,2.5-0.7,5-1.1,7.5c-0.3,2.5-0.8,5-1,7.5l-0.8,7.5c-0.2,2.5-0.6,5-0.7,7.6
					c-0.3,5-0.7,10.1-0.9,15.1l-0.4,15.2c0.1,10.1,0,20.3,0.7,30.4l0.4,7.6l0.2,3.8l0.3,3.8l1.4,15.2l0.3,3.8l0.5,3.8l1,7.6
					c0.7,5.1,1.3,10.1,2,15.1l2.6,15.1c0.9,5,1.6,10.1,2.7,15.1l3.2,15l0.7,3.3l0.7,0.1c4.6,0.5,9.6,0.6,14.5,0.5
					c2.5,0,5-0.1,7.4-0.2c2.5-0.1,5-0.3,7.5-0.5c10-0.8,20.1-2,30.1-3.5c20.1-3.1,40.1-7.3,60-12c19.9-4.8,39.6-10.1,58.9-16.4
					c9.7-3.2,19.2-6.5,28.6-10.3l7-2.9c2.3-1,4.6-2,6.8-3.1c2.3-1,4.5-2.1,6.7-3.2l0.8-0.4l0.1-0.1l-0.4-1.6L402.2,1043.5z
					 M15.6,1393.1c2.8-1.1,5.7-2.3,8.6-3.4c5.9-2.3,12.1-4.8,18.5-7.3c12.9-5.1,27.1-10.5,42.5-16.4c30.8-11.8,66.8-25.3,108.8-40.8
					c20.2-7.4,39.1-14.3,56.7-20.7c8.8-3.2,17.3-6.2,25.4-9.2c4.1-1.5,8.1-2.9,12-4.3c1-0.4,2-0.7,2.9-1.1l0.4-0.1c0,0,0,0,0,0l0,0
					l0.1,0l0.5-0.1l-0.1-0.4l-0.1-0.2c-0.3-0.7-0.7-1.5-1-2.2c-1.5-3.3-3-6.6-4.4-9.8c-2.9-6.4-5.6-12.6-8.2-18.6
					c-5.3-11.9-10-22.9-14.4-33c-8.7-20.3-15.7-37-21.3-50.9c-11.1-27.8-16.7-44.1-19.1-53.4c-0.2-0.7-0.4-1.4-0.5-2
					c-11.4,1.3-22.6,2.1-33.5,2.1c-1.4,0-2.9,0-4.3-0.1c-1.4,0-2.8,0-4.3-0.2c-1.4-0.1-2.8-0.1-4.3-0.3l-2.2-0.2l-0.6-0.1
					c-0.1,0-0.6-0.1-0.9-0.1l-1.9-0.3c-2.6-0.3-4.9-1-7.2-1.7l-0.9-0.2c-0.2,0-0.2-0.1-0.3-0.3l-0.1-0.4l-0.5-1.7
					c-0.3-1.1-0.7-2.2-0.9-3.5c-0.7-3.2-1.3-6.3-1.9-9.5c-8.2-40.1-11.6-74.1-12.4-102.3c-0.8-28.2,0.7-50.6,3.1-68.1
					c2.5-17.5,5.6-30.2,8.4-39.3c1-3.1,1.9-5.8,2.8-8.1c-6,1.1-11.9,1.9-17.8,2.2c-6.2,0.3-12.5,0-18.7-1.6
					c-6.1-1.5-12.1-4.7-16.4-9c-0.5-0.5-1.1-1.1-1.6-1.6c-0.5-0.6-0.9-1.1-1.4-1.7c-0.9-1.1-1.8-2.2-2.4-3.4c-0.7-1.2-1.4-2.3-2-3.5
					c-0.5-1.2-1-2.3-1.5-3.4c-0.5-1.1-0.8-2.2-1.2-3.3c-0.3-1.1-0.7-2.1-1-3.1c-0.4-2-0.9-3.9-1.3-5.8c-0.5-3.6-1-6.9-1.2-9.7
					c-0.1-1.4-0.1-2.7-0.2-3.8c-2.2-3.8-4.5-7.6-6.8-11.5c-5.3-8.9-10.8-18.2-16.5-28c-5.7-9.8-11.7-19.9-17.9-30.5
					c-3.1-5.3-6.3-10.7-9.5-16.2c-0.8-1.3-1.6-2.9-2.5-4.4c-0.8-1.5-1.7-3.1-2.4-4.7c-1.6-3.2-2.9-6.6-4.1-10.1
					c-2.3-7-3.6-14.7-3.4-22.6c0.2-7.9,1.8-15.9,4.8-23.4c3-7.5,7.2-14.4,12-20.9c4.9-6.4,10.5-12.2,16.6-17.7
					c12.1-10.9,25-19.4,37.7-26.8c12.8-7.4,25.4-13.6,37.8-19c24.8-10.9,48.3-18.9,70.2-25.4c5.5-1.6,10.9-3.1,16.2-4.5
					c2.7-0.7,5.2-1.3,8-2c2.7-0.6,5.3-1.1,7.9-1.6c5.2-1,10.3-1.9,15.3-2.6c5.1-0.7,10.1-1.2,15.3-1.3c1.3,0,2.6,0,3.9,0.1
					c0.7,0,1.3,0.1,2.2,0.2c0.5,0,0.8,0.1,1.3,0.2l1.5,0.3c2,0.4,3.9,1,5.6,1.9c1.7,0.9,3.1,2.1,4.1,3.5c1.1,1.5,1.7,3.3,1.9,5
					c0.1,1.8-0.1,3.6-0.7,5.3c-0.6,1.7-1.5,3.4-2.5,5l-0.8,1.2c-0.3,0.4-0.5,0.6-0.7,0.9c-0.5,0.6-0.8,1-1.2,1.5
					c-3.2,3.7-6.4,6.6-9.7,9.4s-6.5,5.3-9.6,7.7c-8.7,6.5-17,12-24.7,17c2.3,2.6,6.3,7.3,11.7,13.9c8.5,10.5,20.4,25.6,33.4,44.8
					c6.5,9.6,13.3,20.2,19.8,31.9c6.6,11.7,13,24.3,18.1,38.3c2.6,7,4.8,14.3,6.4,22.1c1.6,7.7,2.4,15.9,1.8,24.3
					c-0.5,6-1.8,12.3-4.3,18.1c5-1.5,10.6-3.2,16.8-4.8c26.7-7.3,62.9-14.5,99.6-18.4c4.6-0.6,9.2-0.9,13.7-1.3
					c4.6-0.4,9.1-0.7,13.6-1.1l3.4-0.3c1.1,0,2.3-0.1,3.4-0.1c2.2-0.1,4.5-0.2,6.7-0.3c4.4-0.2,8.8-0.4,13.1-0.6
					c4.3-0.3,8.5-0.2,12.7-0.2c4.1,0,8.2,0,12.2,0c7.9-0.1,15.4,0.3,22.3,0.5c3.4,0.1,6.7,0.3,9.9,0.4c3.1,0.1,6.1,0.2,8.9,0.5
					c5.6,0.5,10.5,0.9,14.5,1.2c8,0.7,12.6,1.1,12.6,1.1s1.6,1.2,1.3,2.6c-0.3,1.5-2.5,3.3-10,4.7c-7.5,1.5-20.4,2-42,2.9
					c-21.6,0.9-52.1,1.3-94.6,6c-42.5,4.8-72.4,10.5-93.7,14.4c-14.4,2.7-24.9,4.7-32.5,5.8c-1.3,1.5-2.6,2.9-4.1,4.2l-1.2,1.2
					l-1.3,1c-0.9,0.7-1.7,1.4-2.6,2l-2.7,1.8l-1.4,0.9l-1.4,0.8l-2.9,1.5c-1,0.5-1.9,0.9-2.9,1.4c-1.9,0.9-3.9,1.6-5.9,2.4
					c-1.5,0.6-3.1,1.1-4.6,1.5c0.3,0.1,0.6,0.2,1,0.4c1.1,0.5,2.3,1.2,3.7,1.9c1.3,0.7,2.8,1.5,4.4,2.4c1.6,1,3.2,2.1,5.1,3.3
					c1.8,1.2,3.8,2.5,5.8,4.2c2,1.6,4.2,3.3,6.5,5.2c9,7.7,19.7,18.6,31.3,34c3,3.8,5.8,8,8.9,12.4c2.9,4.5,6.1,9.2,9.1,14.2
					c6.1,10.1,12.4,21.4,18.6,34.2c6.2,12.7,12.4,26.8,18.4,42.5c2.7,7,5.3,14.4,7.9,22c11.6-0.7,22.9-1.9,34-3.3
					c6.8-1.1,13.4-2.1,19.9-3.1c1.6-0.3,3.2-0.5,4.8-0.8c1.6-0.3,3.2-0.6,4.8-0.9c3.2-0.6,6.3-1.3,9.4-1.9c3.1-0.6,6.1-1.2,9.1-1.8
					c1.5-0.3,3-0.6,4.5-0.9c1.5-0.4,2.9-0.7,4.3-1.1c5.8-1.4,11.3-2.7,16.6-4c2.7-0.7,5.3-1.3,7.8-1.9c2.5-0.7,5-1.4,7.4-2.1
					c4.8-1.4,9.4-2.7,13.7-3.9c4.3-1.3,8.3-2.3,12-3.5c3.7-1.2,7.1-2.3,10.1-3.3c12.2-4,19.2-6.2,19.2-6.2s3,0.1,3.3,1.6
					c0.3,1.5-2,4.4-12.8,10c-10.8,5.6-29.9,14.2-64.2,24.1c-4.3,1.2-8.8,2.5-13.6,3.9c-4.8,1.2-9.8,2.3-15.1,3.6
					c-2.7,0.6-5.4,1.2-8.1,1.9c-2.8,0.6-5.6,1.3-8.5,1.8c-5.9,1-12,2.1-18.4,3.2c-10.8,1.6-22.6,3.2-35.2,4.2c0,0.1,0,0.1,0.1,0.2
					c0.7,2.3,1.3,4.6,2,6.9l0.7,2.4l0.9,3.3c0.6,2.2,1.2,4.5,1.7,6.7c-1.7,1.1-3.5,2.3-5.3,3.4c-0.9,0.6-1.8,1.1-2.8,1.6l-1.4,0.8
					l-1.3,0.7c-2.1,1.1-4.2,2.2-6.3,3.2c-2.1,1-4.3,2-6.5,3c-2.2,1-4.4,2-6.6,2.9c-4.8,2-9.6,3.9-14.6,5.8l88.9,421.7h90.9
					c0,0,7.4,2.3-1.1,5.2c-4.2,1.4-12.4,3-27.5,4.6c-7.6,0.7-16.8,1.5-28.2,2.2c-5.7,0.3-11.9,0.7-18.6,1c-3.4,0.1-6.9,0.3-10.6,0.5
					c-2,0.1-4,0.1-6.1,0.2c-3.3,0.1-6.6,0.1-10,0.2c-0.9-3.9-1.8-7.9-2.8-12c-0.6-2.6-1.3-5.2-1.9-7.8c-1.3-5.3-2.6-10.9-4-16.7
					c-2.8-11.7-5.7-24.4-8.8-38.3c-6.3-27.7-13.3-60-21.2-97.5c-38-180.4-45.5-241.6-45-261c-2.5,0.9-5,1.8-7.5,2.6
					c-19.4,6.7-40.4,12.5-62.8,18c-25.5,6.1-49.4,10.9-72.2,13.9l83.7,180.3L19.1,1406.7l27.3,99c0,0,0,8.7-5.3,0.3
					c-2.7-4.2-6.6-12.7-12.6-28.8c-3-8-6.5-17.9-10.6-30.1c-2-6.1-4.2-12.8-6.6-20.1c-1.2-3.7-2.4-7.5-3.6-11.4
					c-0.7-2.1-1.4-4.3-2.1-6.6c-1-3.5-2.1-7.1-3.2-10.8C6.7,1396.5,11.1,1394.8,15.6,1393.1z M53.8,735.5c0.6,1.3,1.3,2.6,2,3.8
					l1,1.9l1.2,2c1.6,2.7,3.1,5.5,4.7,8.2c6.3,10.9,12.4,21.6,18.5,32.2c8.3,14.5,16.4,28.5,24.1,41.8c0.3-0.8,0.5-1.7,0.8-2.5
					c1.6-5.1,3.2-10.2,4.7-15.2c3-10,5.8-19.7,8.2-29c5-18.7,8.8-35.9,11.6-51.2c2.7-15.3,4.4-28.8,5.1-39.8c0.7-11,0.5-19.5,0-25.2
					c-0.2-2.8-0.6-4.9-0.7-6.4c-0.1-0.7-0.2-1.3-0.3-1.6c-0.1-0.4-0.1-0.5-0.1-0.5s0-1.1,0.3-2.3c0.2-1.2,0.7-2.4,1.4-2.4
					c0.8,0,1.9,1.1,3.6,4.8c1.2,3,2.7,7.9,3.8,15.2c1.4-0.8,3.4-1.9,6.1-3.5c5.3-3,13-7.4,22.7-13.2c9.8-5.7,21.5-12.8,34.9-21.2
					c13.3-8.4,28.2-18,43.7-29.3c7.7-5.7,15.6-11.8,22.5-18.5c1.7-1.6,3.3-3.5,4.5-5l0.2-0.3l-0.3,0l-0.7,0l-0.9,0
					c-0.6,0-1.2,0-1.8,0c-4.9,0.1-10.3,0.8-15.7,1.6c-5.4,0.9-11,2-16.6,3.2c-5.4,1.1-11.1,2.8-16.7,4.3c-5.7,1.6-11.4,3.3-17.1,5.2
					c-22.9,7.3-46.3,15.9-69.1,26.6c-11.4,5.3-22.6,11.2-33.3,17.7c-10.7,6.5-21,13.8-30.2,22c-9.1,8.2-17.2,17.5-22.3,27.9
					c-5.2,10.3-7.1,21.6-5.1,32.5C49.4,725,51.3,730.4,53.8,735.5z M110.5,861.4c0.7,1,1.5,2,2.2,3.1c3.2,4.1,8,7.2,14.3,8.6
					c6.3,1.3,14,1.1,22.6-0.4c17.2-2.8,38-9.5,63.1-17.5c12.6-4,26.3-8.4,41.3-12.9c7.5-2.2,15.3-4.5,23.4-6.8
					c2-0.6,4.1-1.1,6.2-1.7c1.1-0.3,2-0.6,2.9-0.9c0.9-0.3,1.9-0.6,2.8-0.9c3.7-1.3,7.4-2.7,10.8-4.7c3.3-2,6.5-4.1,8.9-6.6
					c2.5-2.5,4.6-5.3,6.1-8.3c1.6-3,2.6-6.3,3.4-9.6c0.7-3.3,1-6.8,1.1-10.2c0.1-6.9-1-13.8-2.6-20.4c-1.5-6.6-3.6-12.9-5.8-18.8
					c-4.5-11.9-9.6-22.6-14.7-32.3c-5.1-9.6-10-18.2-14.6-25.9c-9.3-15.5-17.2-27.5-23.4-37.1c-6.2-9.6-10.8-16.7-13.9-22.1
					c-2.6-4.4-4.2-7.6-5.2-9.9c-1.9,1.2-3.8,2.4-5.7,3.5c-10.7,6.6-20.4,12.1-28.9,16.8c-17.2,9.5-30.1,15.8-39.7,20.3
					c-10.4,4.7-16.9,7.2-20.8,8.2c0,0.1,0,0.2,0,0.2c2,21,0.1,58.5-15.3,119.1c-1.9,7.6-4.1,15.5-6.5,23.8c-0.6,2.1-1.2,4.2-1.8,6.3
					c-0.3,1.1-0.6,2.1-1,3.2l-0.5,1.6l-0.7,2.4c-1.2,3.8-2.4,7.6-3.7,11.6c-1.3,3.9-2.7,7.9-4,11.8c-0.4,1-0.7,2-1.1,3l-0.4,1.1
					C109.7,859.8,110.1,860.6,110.5,861.4z M255.4,998.7c1.7,0.9,3.4,1.8,5.2,2.6c5.9,2.5,11.8,5.4,18.2,7.5
					c0.2,0.1,0.4,0.1,0.6,0.2l26.7-53.1l-67.9-90.2l-10.9,112.4L255.4,998.7z M289.9,911.4c4.5,5.5,9.4,11.4,14.6,18
					c2.6,3.3,5.3,6.7,8.2,10.2c1.4,1.8,2.8,3.6,4.3,5.4c1,1.3,2,2.5,3,3.8c1.4,1.8,2.8,3.7,4.3,5.5c-5.4,11.1-11.3,23.2-17.7,36.2
					c-2.9,5.8-5.8,11.8-8.9,18c-0.9,1.8-1.9,3.7-2.8,5.6c7.7,2.2,15.7,4.1,23.8,5.8c3.5,0.6,7,1.2,10.5,1.7c3.5,0.6,7,1.2,10.6,1.5
					c3.6,0.4,7.2,0.7,10.7,1.1c1.8,0.1,3.6,0.4,5.4,0.5l5.4,0.3c11.8,0.7,23.5,0.7,35.2,0.4c-2.9-8.8-6-17.5-9.3-26.1
					c-7.4-19.3-15.8-38.3-25.5-56.4c-9.7-18.2-20.5-35.7-33.2-51.6c-6.3-8-13.1-15.5-20.4-22.4c-1.9-1.7-3.6-3.5-5.6-5.1l-5.8-4.8
					c-4-3-7.9-6-12.2-8.5c0,0-0.1-0.1-0.3-0.3c-7.1,1.9-14.1,3.9-21,5.9c-6.2,1.8-12.4,3.6-18.5,5.5c5,4.4,12.1,11.5,22.1,22.7
					C273.3,891.6,280.9,900.5,289.9,911.4z"/>
				<path d="M197.1,722.5c-0.3-1-0.5-1.5-0.5-1.5s-1.2-0.5-2.6,0.1c-0.7,0.3-1.5,0.8-2.2,1.6c-0.4,0.4-0.7,0.9-1.1,1.4
					c-0.4,0.5-0.8,1.1-1.2,1.8c-0.9,1.3-1.8,2.9-3,4.4c-0.6,0.8-1.4,1.5-2.1,2.3c-0.8,0.7-1.7,1.4-2.8,1.9c-2,1.1-4.6,1.7-7.1,1.2
					c-2.5-0.5-5.1-2.2-6.3-5.2c-1.1-3-0.1-6,1.5-8c1.6-2,4-3.2,6.2-3.6c1.1-0.2,2.3-0.3,3.3-0.3c1.1,0.1,2.1,0.1,3.1,0.4
					c2,0.4,3.6,1,5.1,1.4c0.7,0.2,1.4,0.5,2.1,0.6c0.6,0.2,1.2,0.3,1.7,0.4c1.1,0.1,2,0.1,2.7-0.2c1.4-0.4,2.1-1.6,2.1-1.6
					s-0.2-0.5-0.6-1.5c-0.5-0.9-1.2-2.3-2.4-3.9c-1.2-1.5-2.8-3.3-5.1-4.9c-2.2-1.6-5-2.9-8.3-3.7c-3.3-0.7-7-0.8-10.7,0.2
					c-3.7,1-7.4,2.9-10.4,5.9c-3,2.9-5.2,6.8-6.3,11.1c-0.5,2.1-0.7,4.4-0.6,6.6c0.1,2.2,0.6,4.4,1.3,6.5c0.8,2.1,1.8,4.1,3.2,5.9
					c1.3,1.8,2.9,3.4,4.7,4.7c3.5,2.6,7.7,4.2,11.9,4.5c4.2,0.4,8.3-0.5,11.8-2.1c3.5-1.6,6.3-4.1,8.4-6.7c2-2.6,3.3-5.5,4-8.1
					c0.7-2.6,0.8-5,0.8-7C197.6,725,197.3,723.5,197.1,722.5z"/>
				<path class="st1" d="M190.7,724.1c0.4-0.5,0.7-1,1.1-1.4c0.7-0.8,1.5-1.3,2.2-1.6c-0.7,0.2-1.6,0.3-2.7,0.2
					c-0.5-0.1-1.1-0.2-1.7-0.4c-0.7-0.2-1.3-0.4-2.1-0.6c-1.5-0.5-3.2-1.1-5.1-1.4c-1-0.2-2-0.3-3.1-0.4c-1.1,0-2.2,0-3.3,0.3
					c-2.2,0.4-4.6,1.6-6.2,3.6c-1.6,2-2.5,5-1.5,8c1.1,3,3.8,4.7,6.3,5.2c2.5,0.5,5.1-0.1,7.1-1.2c1-0.6,1.9-1.2,2.8-1.9
					c0.8-0.7,1.5-1.5,2.1-2.3c1.3-1.5,2.2-3.1,3-4.4C189.9,725.2,190.3,724.6,190.7,724.1z"/>
				<path class="st3" d="M238.2,865.8l-10.9,112.4l28.1,20.4c1.7,0.9,3.4,1.8,5.2,2.6c5.9,2.5,11.8,5.4,18.2,7.5
					c0.2,0.1,0.4,0.1,0.6,0.2l26.7-53.1L238.2,865.8z"/>
				<path d="M257.6,700.5c-0.3-1-0.5-1.5-0.5-1.5s-1.2-0.5-2.6,0.1c-0.7,0.3-1.5,0.8-2.2,1.6c-0.4,0.4-0.7,0.9-1.1,1.4
					c-0.4,0.5-0.8,1.1-1.2,1.8c-0.9,1.3-1.8,2.8-3,4.4c-0.6,0.8-1.4,1.5-2.1,2.3c-0.8,0.7-1.7,1.4-2.7,1.9c-2,1.1-4.6,1.7-7.1,1.2
					c-2.5-0.5-5.1-2.2-6.3-5.2c-1.1-3-0.1-6,1.5-8c1.6-2,4-3.2,6.2-3.7c1.1-0.2,2.2-0.3,3.3-0.3c1.1,0.1,2.1,0.1,3.1,0.4
					c2,0.4,3.6,1,5.1,1.4c0.7,0.2,1.4,0.5,2,0.6c0.6,0.2,1.2,0.3,1.8,0.4c1.1,0.1,2,0.1,2.7-0.2c1.4-0.5,2.1-1.6,2.1-1.6
					s-0.2-0.5-0.6-1.5c-0.5-0.9-1.2-2.3-2.4-3.9c-1.2-1.5-2.8-3.3-5.1-4.9s-5-2.9-8.3-3.7c-3.3-0.7-7-0.8-10.7,0.2
					c-3.7,1-7.4,2.9-10.4,5.9c-3,2.9-5.2,6.8-6.3,11.1c-0.5,2.1-0.7,4.4-0.6,6.6c0.1,2.2,0.6,4.4,1.3,6.5c0.8,2.1,1.8,4.1,3.2,5.9
					c1.4,1.8,2.9,3.4,4.7,4.7c3.5,2.6,7.7,4.2,11.9,4.5c4.2,0.4,8.3-0.5,11.8-2.1c3.5-1.6,6.3-4.1,8.4-6.7c2.1-2.7,3.3-5.5,4-8.1
					c0.7-2.6,0.8-5,0.8-7C258.1,703.1,257.8,701.6,257.6,700.5z"/>
				<path class="st1" d="M251.8,699.3c-0.6-0.1-1.1-0.2-1.8-0.4c-0.7-0.2-1.3-0.4-2-0.6c-1.5-0.5-3.2-1.1-5.1-1.4
					c-1-0.2-2-0.3-3.1-0.4c-1.1,0-2.2,0-3.3,0.3c-2.2,0.5-4.6,1.6-6.2,3.7c-1.6,2-2.5,5-1.5,8c1.1,3,3.8,4.7,6.3,5.2
					c2.5,0.5,5.1-0.1,7.1-1.2c1-0.6,1.9-1.2,2.7-1.9c0.8-0.7,1.5-1.5,2.1-2.3c1.3-1.6,2.2-3.1,3-4.4c0.4-0.7,0.8-1.3,1.2-1.8
					c0.4-0.5,0.7-1,1.1-1.4c0.7-0.8,1.5-1.3,2.2-1.6C253.8,699.3,252.9,699.4,251.8,699.3z"/>
				<path class="st2" d="M244.8,861.7c5,4.4,12.1,11.5,22.1,22.7c6.4,7.2,14,16.1,23,27c4.5,5.5,9.4,11.4,14.6,18
					c2.6,3.3,5.3,6.7,8.2,10.2c1.4,1.8,2.8,3.6,4.3,5.4c1,1.3,2,2.5,3,3.8c1.4,1.8,2.8,3.7,4.3,5.5c-5.4,11.1-11.3,23.2-17.7,36.2
					c-2.9,5.8-5.8,11.8-8.9,18c-0.9,1.8-1.9,3.7-2.8,5.6c7.7,2.2,15.7,4.1,23.8,5.8c3.5,0.6,7,1.2,10.5,1.7c3.5,0.6,7,1.2,10.6,1.5
					c3.6,0.4,7.2,0.7,10.7,1.1c1.8,0.1,3.6,0.4,5.4,0.5l5.4,0.3c11.8,0.7,23.5,0.7,35.2,0.4c-2.9-8.8-6-17.5-9.3-26.1
					c-7.4-19.3-15.8-38.3-25.5-56.4c-9.7-18.2-20.5-35.7-33.2-51.6c-6.3-8-13.1-15.5-20.4-22.4c-1.9-1.7-3.6-3.5-5.6-5.1l-5.8-4.8
					c-4-3-7.9-6-12.2-8.5c0,0-0.1-0.1-0.3-0.3c-7.1,1.9-14.1,3.9-21,5.9C257.1,858,250.9,859.9,244.8,861.7z"/>
				<path class="st0" d="M273.5,583.9c1.7-1.6,3.3-3.5,4.5-5l0.2-0.3l-0.3,0l-0.7,0l-0.9,0c-0.6,0-1.2,0-1.8,0
					c-4.9,0.1-10.3,0.8-15.7,1.6c-5.4,0.9-11,2-16.6,3.2c-5.4,1.1-11.1,2.8-16.7,4.3c-5.7,1.6-11.4,3.3-17.1,5.2
					c-22.9,7.3-46.3,15.9-69.1,26.6c-11.4,5.3-22.6,11.2-33.3,17.7c-10.7,6.5-21,13.8-30.2,22c-9.1,8.2-17.2,17.5-22.3,27.9
					c-5.2,10.3-7.1,21.6-5.1,32.5c1,5.5,2.8,10.8,5.3,16c0.6,1.3,1.3,2.6,2,3.8l1,1.9l1.2,2c1.6,2.7,3.1,5.5,4.7,8.2
					c6.3,10.9,12.4,21.6,18.5,32.2c8.3,14.5,16.4,28.5,24.1,41.8c0.3-0.8,0.5-1.7,0.8-2.5c1.6-5.1,3.2-10.2,4.7-15.2
					c3-10,5.8-19.7,8.2-29c5-18.7,8.8-35.9,11.6-51.2c2.7-15.3,4.4-28.8,5.1-39.8c0.7-11,0.5-19.5,0-25.2c-0.2-2.8-0.6-4.9-0.7-6.4
					c-0.1-0.7-0.2-1.3-0.3-1.6c-0.1-0.4-0.1-0.5-0.1-0.5s0-1.1,0.3-2.3c0.2-1.2,0.7-2.4,1.4-2.4c0.8,0,1.9,1.1,3.6,4.8
					c1.2,3,2.7,7.9,3.8,15.2c1.4-0.8,3.4-1.9,6.1-3.5c5.3-3,13-7.4,22.7-13.2c9.8-5.7,21.5-12.8,34.9-21.2
					c13.3-8.4,28.2-18,43.7-29.3C258.7,596.8,266.7,590.7,273.5,583.9z"/>
				<path class="st1" d="M168.3,818.8c0,2.3,0,4.6,0,6.9c11.6-2.8,22.3-5.4,32.2-7.8c12.4-3,23.9-5.6,34.3-7.9
					c10.5-2.3,19.9-4.4,28.6-6.2c4.3-0.9,8.4-1.7,12.3-2.5c1-0.2,1.9-0.4,2.9-0.6l0.4-0.1l0.2,0h0l0.2,0l0.5,0
					c0.7,0,1.4-0.1,2.1-0.2c0-0.9,0-1.7-0.1-2.5l0-0.3l-0.1-0.8c-0.1-0.5-0.1-1.1-0.2-1.6c-0.1-1.1-0.3-2.1-0.4-3.1
					c-0.5-4-0.9-7.7-1.3-11.1c-0.7-6.8-1.1-12.4-1.3-16.9c-0.3-7.2-0.1-11.8,0.5-14.7c-0.7,0.4-1.5,0.9-2.4,1.3
					c-5.5,2.8-15.7,6.6-33.8,11.5c-9,2.5-20,5.2-33.4,8.3c-6.7,1.5-14,3.2-21.9,4.9c-4,0.8-8.1,1.7-12.4,2.6
					c-2.2,0.4-4.3,0.9-6.6,1.4c-0.4,0.1-0.2,0-0.3,0.1l-0.1,0l-0.1,0.1l-0.2,0.1l0.1,0.3l0,0.1l0,0v0h0v0.2c0,2.4,0.1,4.7,0.1,7.2
					c0,4.9,0.1,9.9,0.2,15.1C168.2,807.9,168.3,813.2,168.3,818.8z"/>
			</g>
		</g>
	</g>
	<g>
		<path d="M507.4,523.2c0,0,0.5-0.5,1.3-1.4c0.9-0.9,2.1-2.3,3.7-3.9c3.4-3.2,8.2-7.8,14.9-12.3c6.6-4.6,14.8-9.2,24.1-13
			c9.3-3.9,19.8-6.9,30.5-9c10.7-2.1,21.7-3.2,32-3.6c10.3-0.4,20-0.1,28.3,0.5c8.3,0.6,15.1,1.5,19.9,2.3c2.4,0.4,4.2,0.7,5.5,0.9
			c1.2,0.2,1.9,0.4,1.9,0.4s0.3-0.2,0.6-0.6c0.3-0.4,0.6-1,0.8-1.7c0.3-1.5-0.4-3.7-4.6-6.5c-4.2-2.7-11.9-6.1-25.7-8.5
			c-6.9-1.2-15.3-2.1-25.5-2.3c-10.2-0.1-22.3,0.6-36.1,3.3c-13.9,2.8-25.5,6.7-34.9,11.2c-9.4,4.5-16.6,9.4-22.2,13.9
			c-11,9.3-15.3,16.7-17.1,21.4c-1.7,4.8-1,6.9,0.1,8C506,523.3,507.4,523.2,507.4,523.2z"/>
	</g>
	<g>
		<path d="M507.1,448.9c0,0,0.2-0.2,0.7-0.7c0.5-0.4,1.1-1.2,2-2c1.8-1.7,4.6-3.9,8.4-6.2c3.8-2.3,8.6-4.5,14-6.4
			c5.4-1.9,11.5-3.4,17.7-4.4c12.4-2.2,25.4-2.6,35-2.5c4.8,0.1,8.8,0.3,11.6,0.5c2.8,0.2,4.3,0.4,4.3,0.4s0.2-0.2,0.4-0.7
			c0.2-0.4,0.4-1,0.4-1.8c0.2-1.5-0.3-3.6-2.8-5.8c-2.5-2.2-7.1-4.6-15.3-6.2c-4.1-0.8-9-1.4-15.1-1.5c-6-0.1-13.1,0.2-21.3,1.7
			c-16.5,2.8-27.8,8.6-34.5,14.2c-6.8,5.6-9,10.7-9.6,13.9c-0.5,3.4,0.6,5.1,1.7,6.2C505.9,448.6,507.1,448.9,507.1,448.9z"/>
	</g>
</g>
</svg>
